<?xml version="1.0" encoding="UTF-8" standalone="no"?>
<!-- Created with Inkscape (http://www.inkscape.org/) -->

<svg
   xmlns:dc="http://purl.org/dc/elements/1.1/"
   xmlns:cc="http://creativecommons.org/ns#"
   xmlns:rdf="http://www.w3.org/1999/02/22-rdf-syntax-ns#"
   xmlns:svg="http://www.w3.org/2000/svg"
   xmlns="http://www.w3.org/2000/svg"
   xmlns:sodipodi="http://sodipodi.sourceforge.net/DTD/sodipodi-0.dtd"
   xmlns:inkscape="http://www.inkscape.org/namespaces/inkscape"
   width="210mm"
   height="297mm"
   viewBox="0 0 744.09448819 1052.3622047"
   id="svg3440"
   version="1.1"
   inkscape:version="0.91 r13725"
   sodipodi:docname="&amp;.svg">
  <defs
     id="defs3442" />
  <sodipodi:namedview
     id="base"
     pagecolor="#ffffff"
     bordercolor="#666666"
     borderopacity="1.0"
     inkscape:pageopacity="0.0"
     inkscape:pageshadow="2"
     inkscape:zoom="0.35"
     inkscape:cx="375"
     inkscape:cy="520"
     inkscape:document-units="px"
     inkscape:current-layer="layer1"
     showgrid="false"
     inkscape:window-width="1366"
     inkscape:window-height="706"
     inkscape:window-x="-8"
     inkscape:window-y="-8"
     inkscape:window-maximized="1" />
  <metadata
     id="metadata3445">
    <rdf:RDF>
      <cc:Work
         rdf:about="">
        <dc:format>image/svg+xml</dc:format>
        <dc:type
           rdf:resource="http://purl.org/dc/dcmitype/StillImage" />
        <dc:title></dc:title>
      </cc:Work>
    </rdf:RDF>
  </metadata>
  <g
     inkscape:label="Layer 1"
     inkscape:groupmode="layer"
     id="layer1">
    <path
       d="m 374.85616,675.10179 c 1.985,-1.4875 3.96875,-3.00875 5.315,-4.10875 1.3475,-1.13625 2.055,-1.77125 2.6925,-2.40875 0.63875,-0.605 1.17,-1.17 1.70125,-1.7375 l -9.70875,-11.44375 0,-178.5475 c 5.45625,-4.96125 9.9925,-10.63125 12.89875,-16.65375 2.905,-6.02375 4.18,-12.40125 4.46375,-17.7175 0.28375,-5.66875 -0.46125,-10.275 -1.8075,-14.1725 -1.34625,-4.25125 -3.36625,-7.44125 -6.02375,-10.2775 -2.62125,-2.83375 -5.91625,-5.3125 -9.53125,-7.085 l 0,-73.345 c 16.76,2.83125 33.20125,8.14625 46.205,15.23375 13.00375,6.73375 22.60625,15.2375 30.40125,25.15625 7.83125,9.92375 13.89,21.2625 17.93,34.0175 4.03875,12.75375 6.09375,26.92875 5.775,39.68375 -0.28375,13.11125 -2.94125,24.80375 -8.11375,36.4975 -5.17375,11.6925 -12.82625,23.385 -23.81125,34.37 -10.98375,10.98375 -25.29875,21.26125 -40.78375,29.05625 l 44.185,53.11375 c 2.79875,-4.14625 5.24375,-8.4675 7.335,-13.075 2.12625,-4.60625 3.8625,-9.21375 5.24375,-14.175 1.3475,-4.60625 2.33875,-9.565 2.97625,-14.5275 l 87.16625,0 c -0.92125,9.57 -2.6225,18.78125 -5.1375,27.99125 -2.48125,9.21375 -5.74125,18.5325 -9.745,27.35625 -4.00375,8.86 -8.75125,17.43375 -14.1725,25.5825 -5.38625,8.11375 -11.48125,15.80375 -18.1075,22.96125 l 89.57625,103.89 -123.6275,0 -29.83375,-35.8225 c -4.81875,4.07375 -9.81625,7.93875 -14.98875,11.515 -5.1375,3.61375 -10.4875,6.98 -15.83875,9.99375 -5.385,3.0475 -10.77125,5.74 -16.1925,8.14875 -5.42125,2.4075 -10.8775,4.53625 -16.44125,6.3775 l 0,-95.8475"
       style="fill:none;fill-opacity:1;fill-rule:evenodd;stroke:#000000;stroke-width:1;stroke-linecap:butt;stroke-linejoin:bevel;stroke-miterlimit:10;stroke-dasharray:none;stroke-opacity:1"
       id="path50"
       inkscape:connector-curvature="0" />
    <path
       d="m 335.38367,779.31179 c -20.79875,1.1 -41.81,-0.92125 -60.3775,-5.59875 -18.53125,-4.71375 -34.6175,-12.0825 -47.69375,-20.86875 -13.07375,-8.78875 -23.13625,-18.95875 -31.21625,-31.04125 -8.11375,-12.11875 -14.20875,-26.18375 -17.89375,-40.7475 -3.64875,-14.5625 -4.88875,-29.62125 -3.72,-43.44125 1.17,-13.855 4.74875,-26.39875 11.33875,-39.22375 6.59,-12.75625 16.1925,-25.865 30.61375,-38.625 14.42125,-12.75375 33.62625,-25.155 54.07125,-34.36875 -12.225,-12.75375 -22.35875,-27.99125 -28.595,-41.81 -6.23625,-14.175 -8.57375,-27.28375 -8.92875,-39.33 -0.31875,-12.0475 1.31125,-22.67875 5.24375,-33.66125 3.93375,-10.985 10.17,-22.32375 18.6375,-32.245 8.43375,-9.92125 19.135,-18.77875 32.52875,-26.22 13.39375,-7.0875 29.48,-12.75625 45.99125,-15.59 l 0,77.59625 c -3.18875,2.12625 -5.9175,5.31625 -7.9725,8.86 -2.09,3.54375 -3.47125,7.44125 -4.03875,12.04625 -0.56625,4.96 -0.28375,10.63125 1.70125,17.00875 1.94875,6.02375 5.63375,13.10875 10.31,19.1325 l 0,137.695 -14.1375,-16.51125 c -6.27125,2.83375 -12.33125,6.0225 -17.75125,9.8125 -5.4225,3.6525 -10.205,7.5475 -13.855,10.985 -3.64875,3.43625 -6.2,6.3775 -8.25625,9.24625 -2.09,2.83625 -3.685,5.6 -4.99625,8.3975 -1.31,2.80125 -2.37375,5.6725 -3.1525,8.57625 -0.78,2.94125 -1.27625,5.9175 -1.52375,8.965 0.14125,5.45875 1.24,10.95 3.22375,16.05 1.94875,5.105 4.78375,9.85125 8.575,14.1025 3.79125,4.25375 8.50375,8.00875 14.28,11.055 5.74,3.0825 12.5075,5.42375 18.99125,6.62875 6.44875,1.20375 12.615,1.275 18.6025,0.31625 l 0,82.80875"
       style="fill:none;fill-opacity:1;fill-rule:evenodd;stroke:#000000;stroke-width:1;stroke-linecap:butt;stroke-linejoin:bevel;stroke-miterlimit:10;stroke-dasharray:none;stroke-opacity:1"
       id="path52"
       inkscape:connector-curvature="0" />
  </g>
</svg>
