<?xml version="1.0" encoding="UTF-8" standalone="no"?>
<!-- Created with Inkscape (http://www.inkscape.org/) -->

<svg
   xmlns:dc="http://purl.org/dc/elements/1.1/"
   xmlns:cc="http://creativecommons.org/ns#"
   xmlns:rdf="http://www.w3.org/1999/02/22-rdf-syntax-ns#"
   xmlns:svg="http://www.w3.org/2000/svg"
   xmlns="http://www.w3.org/2000/svg"
   xmlns:sodipodi="http://sodipodi.sourceforge.net/DTD/sodipodi-0.dtd"
   xmlns:inkscape="http://www.inkscape.org/namespaces/inkscape"
   width="210mm"
   height="297mm"
   viewBox="0 0 744.09448819 1052.3622047"
   id="svg4223"
   version="1.1"
   inkscape:version="0.91 r13725"
   sodipodi:docname="0.svg">
  <defs
     id="defs4225" />
  <sodipodi:namedview
     id="base"
     pagecolor="#ffffff"
     bordercolor="#666666"
     borderopacity="1.0"
     inkscape:pageopacity="0.0"
     inkscape:pageshadow="2"
     inkscape:zoom="0.35"
     inkscape:cx="375"
     inkscape:cy="520"
     inkscape:document-units="px"
     inkscape:current-layer="layer1"
     showgrid="false"
     inkscape:window-width="1366"
     inkscape:window-height="706"
     inkscape:window-x="-8"
     inkscape:window-y="-8"
     inkscape:window-maximized="1" />
  <metadata
     id="metadata4228">
    <rdf:RDF>
      <cc:Work
         rdf:about="">
        <dc:format>image/svg+xml</dc:format>
        <dc:type
           rdf:resource="http://purl.org/dc/dcmitype/StillImage" />
        <dc:title></dc:title>
      </cc:Work>
    </rdf:RDF>
  </metadata>
  <g
     inkscape:label="Layer 1"
     inkscape:groupmode="layer"
     id="layer1">
    <g
       transform="matrix(0,-0.16,-0.16,0,394.73155,497.82509)"
       id="g4812">
      <path
         inkscape:connector-curvature="0"
         id="path4814"
         style="fill:none;stroke:#000000;stroke-width:6.25;stroke-linecap:round;stroke-linejoin:round;stroke-miterlimit:10;stroke-dasharray:none;stroke-opacity:1"
         d="m 259.9536,118.0439 c -9.5597,21.0523 -21.6415,40.8654 -35.9797,59.0039" />
    </g>
    <g
       transform="matrix(0,-0.16,-0.16,0,379.37155,478.14509)"
       id="g4816">
      <path
         inkscape:connector-curvature="0"
         id="path4818"
         style="fill:none;stroke:#000000;stroke-width:6.25;stroke-linecap:round;stroke-linejoin:round;stroke-miterlimit:10;stroke-dasharray:none;stroke-opacity:1"
         d="m 100.24,80.4002 c -10.64133,13.26722 -23.81052,24.29 -38.74401,32.4293" />
    </g>
    <g
       transform="matrix(0,-0.16,-0.16,0,378.41155,478.14509)"
       id="g4820">
      <path
         inkscape:connector-curvature="0"
         id="path4822"
         style="fill:none;stroke:#000000;stroke-width:6.25;stroke-linecap:round;stroke-linejoin:round;stroke-miterlimit:10;stroke-dasharray:none;stroke-opacity:1"
         d="M 61.264,107.2333 C 51.01361,113.0895 39.97651,117.4457 28.48959,120.169" />
    </g>
    <g
       transform="matrix(0,-0.16,-0.16,0,475.37154,501.34509)"
       id="g4824">
      <path
         inkscape:connector-curvature="0"
         id="path4826"
         style="fill:none;stroke:#000000;stroke-width:6.25;stroke-linecap:round;stroke-linejoin:round;stroke-miterlimit:10;stroke-dasharray:none;stroke-opacity:1"
         d="m 173.6684,726.0176 c -28.1752,6.7397 -56.7188,11.8335 -85.48609,15.2557" />
    </g>
    <g
       transform="matrix(0.16,0,0,-0.16,-2824.3884,1676.6251)"
       id="g4828">
      <path
         inkscape:connector-curvature="0"
         id="path4830"
         style="fill:none;stroke:#000000;stroke-width:6.25;stroke-linecap:round;stroke-linejoin:round;stroke-miterlimit:10;stroke-dasharray:none;stroke-opacity:1"
         d="m 19882,7433 -12,-97 -8,-97 -5,-97 -2,-98 2,-98 5,-97 8,-97 12,-97" />
    </g>
    <g
       transform="matrix(0,-0.16,-0.16,0,475.37154,597.66509)"
       id="g4832">
      <path
         inkscape:connector-curvature="0"
         id="path4834"
         style="fill:none;stroke:#000000;stroke-width:6.25;stroke-linecap:round;stroke-linejoin:round;stroke-miterlimit:10;stroke-dasharray:none;stroke-opacity:1"
         d="m -88.18231,741.2733 c -28.74349,-3.4194 -57.26389,-8.5076 -85.41649,-15.2391" />
    </g>
    <g
       transform="matrix(0,-0.16,-0.16,0,378.41155,620.86509)"
       id="g4836">
      <path
         inkscape:connector-curvature="0"
         id="path4838"
         style="fill:none;stroke:#000000;stroke-width:6.25;stroke-linecap:round;stroke-linejoin:round;stroke-miterlimit:10;stroke-dasharray:none;stroke-opacity:1"
         d="m -28.50112,120.1663 c -11.48279,-2.7235 -22.51594,-7.0788 -32.76288,-12.933" />
    </g>
    <g
       transform="matrix(0,-0.16,-0.16,0,379.37155,620.86509)"
       id="g4840">
      <path
         inkscape:connector-curvature="0"
         id="path4842"
         style="fill:none;stroke:#000000;stroke-width:6.25;stroke-linecap:round;stroke-linejoin:round;stroke-miterlimit:10;stroke-dasharray:none;stroke-opacity:1"
         d="M -61.42025,112.8707 C -76.41021,104.7137 -89.62521,93.65259 -100.2939,80.33291" />
    </g>
    <g
       transform="matrix(0,-0.16,-0.16,0,394.57155,601.34509)"
       id="g4844">
      <path
         inkscape:connector-curvature="0"
         id="path4846"
         style="fill:none;stroke:#000000;stroke-width:6.25;stroke-linecap:round;stroke-linejoin:round;stroke-miterlimit:10;stroke-dasharray:none;stroke-opacity:1"
         d="m -222.5734,174.9749 c -14.3162,-18.0825 -26.3595,-37.8417 -35.8618,-58.8376" />
    </g>
    <g
       transform="matrix(0.16,0,0,-0.16,-2824.3884,1676.6251)"
       id="g4848">
      <path
         inkscape:connector-curvature="0"
         id="path4850"
         style="fill:none;stroke:#000000;stroke-width:6.25;stroke-linecap:round;stroke-linejoin:round;stroke-miterlimit:10;stroke-dasharray:none;stroke-opacity:1"
         d="m 20001,6462 0,-316" />
    </g>
    <g
       transform="matrix(0,-0.16,-0.16,0,382.25155,632.54509)"
       id="g4852">
      <path
         inkscape:connector-curvature="0"
         id="path4854"
         style="fill:none;stroke:#000000;stroke-width:6.25;stroke-linecap:round;stroke-linejoin:round;stroke-miterlimit:10;stroke-dasharray:none;stroke-opacity:1"
         d="M -341.7786,169.4981 C -362.0155,128.6922 -374.7814,84.59207 -379.4718,39.28585" />
    </g>
    <g
       transform="matrix(0,-0.16,-0.16,0,387.05155,621.02509)"
       id="g4856">
      <path
         inkscape:connector-curvature="0"
         id="path4858"
         style="fill:none;stroke:#000000;stroke-width:6.25;stroke-linecap:round;stroke-linejoin:round;stroke-miterlimit:10;stroke-dasharray:none;stroke-opacity:1"
         d="M -314.6033,334.9104 C -355.7547,296.2542 -389.4295,250.345 -413.9406,199.483" />
    </g>
    <g
       transform="matrix(0,-0.16,-0.16,0,384.65155,622.14509)"
       id="g4860">
      <path
         inkscape:connector-curvature="0"
         id="path4862"
         style="fill:none;stroke:#000000;stroke-width:6.25;stroke-linecap:round;stroke-linejoin:round;stroke-miterlimit:10;stroke-dasharray:none;stroke-opacity:1"
         d="m -217.2739,387.7787 c -32.922,-18.4464 -63.3609,-41.01 -90.5822,-67.1467" />
    </g>
    <g
       transform="matrix(0,-0.16,-0.16,0,422.73154,602.14509)"
       id="g4864">
      <path
         inkscape:connector-curvature="0"
         id="path4866"
         style="fill:none;stroke:#000000;stroke-width:6.25;stroke-linecap:round;stroke-linejoin:round;stroke-miterlimit:10;stroke-dasharray:none;stroke-opacity:1"
         d="m -189.3744,686.8723 c -52.8948,-14.5834 -103.928,-35.2279 -152.085,-61.5231" />
    </g>
    <g
       transform="matrix(0,-0.16,-0.16,0,576.33144,558.46509)"
       id="g4868">
      <path
         inkscape:connector-curvature="0"
         id="path4870"
         style="fill:none;stroke:#000000;stroke-width:6.25;stroke-linecap:round;stroke-linejoin:round;stroke-miterlimit:10;stroke-dasharray:none;stroke-opacity:1"
         d="m -228.0876,1695.225 c -79.4003,-10.684 -157.9519,-26.932 -235.0747,-48.625" />
    </g>
    <g
       transform="matrix(0.16,0,0,-0.16,-2824.3884,1676.6251)"
       id="g4872">
      <path
         inkscape:connector-curvature="0"
         id="path4874"
         style="fill:none;stroke:#000000;stroke-width:6.25;stroke-linecap:round;stroke-linejoin:round;stroke-miterlimit:10;stroke-dasharray:none;stroke-opacity:1"
         d="m 19537,7043 3,-94 7,-95 11,-94" />
    </g>
    <g
       transform="matrix(0.16,0,0,-0.16,-2824.3884,1676.6251)"
       id="g4876">
      <path
         inkscape:connector-curvature="0"
         id="path4878"
         style="fill:none;stroke:#000000;stroke-width:6.25;stroke-linecap:round;stroke-linejoin:round;stroke-miterlimit:10;stroke-dasharray:none;stroke-opacity:1"
         d="m 19555,7325 -10,-94 -6,-94 -2,-94" />
    </g>
    <g
       transform="matrix(0,-0.16,-0.16,0,570.89144,536.86509)"
       id="g4880">
      <path
         inkscape:connector-curvature="0"
         id="path4882"
         style="fill:none;stroke:#000000;stroke-width:6.25;stroke-linecap:round;stroke-linejoin:round;stroke-miterlimit:10;stroke-dasharray:none;stroke-opacity:1"
         d="m 434.5314,1619.278 c -76.2513,20.437 -153.851,35.47 -232.2206,44.985" />
    </g>
    <g
       transform="matrix(0,-0.16,-0.16,0,413.93154,493.98509)"
       id="g4884">
      <path
         inkscape:connector-curvature="0"
         id="path4886"
         style="fill:none;stroke:#000000;stroke-width:6.25;stroke-linecap:round;stroke-linejoin:round;stroke-miterlimit:10;stroke-dasharray:none;stroke-opacity:1"
         d="m 314.8702,580.6177 c -46.8536,25.4089 -96.6106,45.053 -148.1853,58.5039" />
    </g>
    <g
       transform="matrix(0,-0.16,-0.16,0,380.97155,477.34509)"
       id="g4888">
      <path
         inkscape:connector-curvature="0"
         id="path4890"
         style="fill:none;stroke:#000000;stroke-width:6.25;stroke-linecap:round;stroke-linejoin:round;stroke-miterlimit:10;stroke-dasharray:none;stroke-opacity:1"
         d="m 300.2472,307.1187 c -26.7245,26.1265 -56.7448,48.6532 -89.3002,67.0091" />
    </g>
    <g
       transform="matrix(0,-0.16,-0.16,0,396.33155,490.78509)"
       id="g4892">
      <path
         inkscape:connector-curvature="0"
         id="path4894"
         style="fill:none;stroke:#000000;stroke-width:6.25;stroke-linecap:round;stroke-linejoin:round;stroke-miterlimit:10;stroke-dasharray:none;stroke-opacity:1"
         d="M 493.2245,259.8765 C 465.0248,313.3973 428.302,361.9715 384.4963,403.694" />
    </g>
    <g
       transform="matrix(0,-0.16,-0.16,0,380.17155,458.78509)"
       id="g4896">
      <path
         inkscape:connector-curvature="0"
         id="path4898"
         style="fill:none;stroke:#000000;stroke-width:6.25;stroke-linecap:round;stroke-linejoin:round;stroke-miterlimit:10;stroke-dasharray:none;stroke-opacity:1"
         d="m 331.4579,26.30375 c -3.6708,46.25669 -16.9829,91.23295 -39.08,132.03585" />
    </g>
    <g
       transform="matrix(0.16,0,0,-0.16,-2824.3884,1676.6251)"
       id="g4900">
      <path
         inkscape:connector-curvature="0"
         id="path4902"
         style="fill:none;stroke:#000000;stroke-width:6.25;stroke-linecap:round;stroke-linejoin:round;stroke-miterlimit:10;stroke-dasharray:none;stroke-opacity:1"
         d="m 20001,7943 0,-317" />
    </g>
    <g
       transform="matrix(0,-0.16,-0.16,0,382.57155,497.82509)"
       id="g4904">
      <path
         inkscape:connector-curvature="0"
         id="path4906"
         style="fill:none;stroke:#000000;stroke-width:6.25;stroke-linecap:round;stroke-linejoin:round;stroke-miterlimit:10;stroke-dasharray:none;stroke-opacity:1"
         d="m 223.0202,-176.6416 c 14.3053,18.0613 26.3636,37.7934 35.91,58.7629" />
    </g>
    <g
       transform="matrix(0,-0.16,-0.16,0,397.93155,478.14509)"
       id="g4908">
      <path
         inkscape:connector-curvature="0"
         id="path4910"
         style="fill:none;stroke:#000000;stroke-width:6.25;stroke-linecap:round;stroke-linejoin:round;stroke-miterlimit:10;stroke-dasharray:none;stroke-opacity:1"
         d="m 61.50681,-112.8236 c 14.93271,8.1407 28.10084,19.16477 38.74089,32.43301" />
    </g>
    <g
       transform="matrix(0,-0.16,-0.16,0,398.89155,478.14509)"
       id="g4912">
      <path
         inkscape:connector-curvature="0"
         id="path4914"
         style="fill:none;stroke:#000000;stroke-width:6.25;stroke-linecap:round;stroke-linejoin:round;stroke-miterlimit:10;stroke-dasharray:none;stroke-opacity:1"
         d="m 28.50112,-120.1663 c 11.48665,2.7244 22.52334,7.0817 32.77316,12.9389" />
    </g>
    <g
       transform="matrix(0,-0.16,-0.16,0,301.93155,501.50509)"
       id="g4916">
      <path
         inkscape:connector-curvature="0"
         id="path4918"
         style="fill:none;stroke:#000000;stroke-width:6.25;stroke-linecap:round;stroke-linejoin:round;stroke-miterlimit:10;stroke-dasharray:none;stroke-opacity:1"
         d="m 89.46141,-741.1201 c 28.76129,3.4719 57.29609,8.615 85.45969,15.4033" />
    </g>
    <g
       transform="matrix(0,-0.16,-0.16,0,-63.508456,552.22509)"
       id="g4920">
      <path
         inkscape:connector-curvature="0"
         id="path4922"
         style="fill:none;stroke:#000000;stroke-width:6.25;stroke-linecap:round;stroke-linejoin:round;stroke-miterlimit:10;stroke-dasharray:none;stroke-opacity:1"
         d="m 17.85769,-3052.448 c 130.21861,0.761 260.25511,9.849 389.31311,27.208" />
    </g>
    <g
       transform="matrix(0,-0.16,-0.16,0,-63.348456,546.78509)"
       id="g4924">
      <path
         inkscape:connector-curvature="0"
         id="path4926"
         style="fill:none;stroke:#000000;stroke-width:6.25;stroke-linecap:round;stroke-linejoin:round;stroke-miterlimit:10;stroke-dasharray:none;stroke-opacity:1"
         d="m -406.6141,-3024.288 c 128.9751,-17.34 258.9273,-26.413 389.06066,-27.161" />
    </g>
    <g
       transform="matrix(0,-0.16,-0.16,0,301.93155,597.50509)"
       id="g4928">
      <path
         inkscape:connector-curvature="0"
         id="path4930"
         style="fill:none;stroke:#000000;stroke-width:6.25;stroke-linecap:round;stroke-linejoin:round;stroke-miterlimit:10;stroke-dasharray:none;stroke-opacity:1"
         d="m -174.8515,-725.7336 c 28.1642,-6.7856 56.6995,-11.926 85.46114,-15.395" />
    </g>
    <g
       transform="matrix(0,-0.16,-0.16,0,398.89155,620.86509)"
       id="g4932">
      <path
         inkscape:connector-curvature="0"
         id="path4934"
         style="fill:none;stroke:#000000;stroke-width:6.25;stroke-linecap:round;stroke-linejoin:round;stroke-miterlimit:10;stroke-dasharray:none;stroke-opacity:1"
         d="m -61.264,-107.2333 c 10.24694,-5.8542 21.28009,-10.2095 32.76288,-12.933" />
    </g>
    <g
       transform="matrix(0,-0.16,-0.16,0,398.09155,620.86509)"
       id="g4936">
      <path
         inkscape:connector-curvature="0"
         id="path4938"
         style="fill:none;stroke:#000000;stroke-width:6.25;stroke-linecap:round;stroke-linejoin:round;stroke-miterlimit:10;stroke-dasharray:none;stroke-opacity:1"
         d="m -100.2939,-80.33291 c 10.66869,-13.31968 23.88369,-24.38079 38.87365,-32.53779" />
    </g>
    <g
       transform="matrix(0,-0.16,-0.16,0,382.89155,601.50509)"
       id="g4940">
      <path
         inkscape:connector-curvature="0"
         id="path4942"
         style="fill:none;stroke:#000000;stroke-width:6.25;stroke-linecap:round;stroke-linejoin:round;stroke-miterlimit:10;stroke-dasharray:none;stroke-opacity:1"
         d="m -257.4009,-116.4088 c 9.4908,-20.9859 21.5125,-40.7325 35.7972,-58.7999" />
    </g>
    <g
       transform="matrix(0.16,0,0,-0.16,-2824.3884,1676.6251)"
       id="g4944">
      <path
         inkscape:connector-curvature="0"
         id="path4946"
         style="fill:none;stroke:#000000;stroke-width:6.25;stroke-linecap:round;stroke-linejoin:round;stroke-miterlimit:10;stroke-dasharray:none;stroke-opacity:1"
         d="m 20161,6462 0,-316" />
    </g>
    <g
       transform="matrix(0,-0.16,-0.16,0,395.21155,632.70509)"
       id="g4948">
      <path
         inkscape:connector-curvature="0"
         id="path4950"
         style="fill:none;stroke:#000000;stroke-width:6.25;stroke-linecap:round;stroke-linejoin:round;stroke-miterlimit:10;stroke-dasharray:none;stroke-opacity:1"
         d="m -378.4658,-39.29173 c 4.6911,-45.18611 17.4362,-89.16697 37.6317,-129.86017" />
    </g>
    <g
       transform="matrix(0,-0.16,-0.16,0,390.25155,621.02509)"
       id="g4952">
      <path
         inkscape:connector-curvature="0"
         id="path4954"
         style="fill:none;stroke:#000000;stroke-width:6.25;stroke-linecap:round;stroke-linejoin:round;stroke-miterlimit:10;stroke-dasharray:none;stroke-opacity:1"
         d="m -413.9406,-199.483 c 24.5111,-50.862 58.1859,-96.7712 99.3373,-135.4274" />
    </g>
    <g
       transform="matrix(0,-0.16,-0.16,0,392.65155,621.98509)"
       id="g4956">
      <path
         inkscape:connector-curvature="0"
         id="path4958"
         style="fill:none;stroke:#000000;stroke-width:6.25;stroke-linecap:round;stroke-linejoin:round;stroke-miterlimit:10;stroke-dasharray:none;stroke-opacity:1"
         d="m -308.1633,-320.3367 c 27.1859,-26.1528 57.5905,-48.7386 90.4805,-67.2126" />
    </g>
    <g
       transform="matrix(0,-0.16,-0.16,0,354.57155,602.30509)"
       id="g4960">
      <path
         inkscape:connector-curvature="0"
         id="path4962"
         style="fill:none;stroke:#000000;stroke-width:6.25;stroke-linecap:round;stroke-linejoin:round;stroke-miterlimit:10;stroke-dasharray:none;stroke-opacity:1"
         d="m -340.9797,-625.611 c 48.1972,-26.2691 99.2687,-46.8807 152.1981,-61.4245" />
    </g>
    <g
       transform="matrix(0,-0.16,-0.16,0,200.97154,558.46509)"
       id="g4964">
      <path
         inkscape:connector-curvature="0"
         id="path4966"
         style="fill:none;stroke:#000000;stroke-width:6.25;stroke-linecap:round;stroke-linejoin:round;stroke-miterlimit:10;stroke-dasharray:none;stroke-opacity:1"
         d="m -463.1623,-1646.6 c 77.1228,-21.693 155.6744,-37.941 235.0747,-48.625" />
    </g>
    <g
       transform="matrix(0,-0.16,-0.16,0,130.73154,546.62509)"
       id="g4968">
      <path
         inkscape:connector-curvature="0"
         id="path4970"
         style="fill:none;stroke:#000000;stroke-width:6.25;stroke-linecap:round;stroke-linejoin:round;stroke-miterlimit:10;stroke-dasharray:none;stroke-opacity:1"
         d="m -301.6918,-2134.302 c 93.795,-13.246 188.3613,-20.301 283.08436,-21.118" />
    </g>
    <g
       transform="matrix(0,-0.16,-0.16,0,132.97154,548.06509)"
       id="g4972">
      <path
         inkscape:connector-curvature="0"
         id="path4974"
         style="fill:none;stroke:#000000;stroke-width:6.25;stroke-linecap:round;stroke-linejoin:round;stroke-miterlimit:10;stroke-dasharray:none;stroke-opacity:1"
         d="m -9.4444,-2141.479 c 94.27233,-0.416 188.4692,5.394 281.9759,17.391" />
    </g>
    <g
       transform="matrix(0,-0.16,-0.16,0,206.41155,537.02509)"
       id="g4976">
      <path
         inkscape:connector-curvature="0"
         id="path4978"
         style="fill:none;stroke:#000000;stroke-width:6.25;stroke-linecap:round;stroke-linejoin:round;stroke-miterlimit:10;stroke-dasharray:none;stroke-opacity:1"
         d="m 203.4283,-1664.127 c 78.3632,9.568 155.9529,24.653 232.1904,45.141" />
    </g>
    <g
       transform="matrix(0,-0.16,-0.16,0,363.37155,493.98509)"
       id="g4980">
      <path
         inkscape:connector-curvature="0"
         id="path4982"
         style="fill:none;stroke:#000000;stroke-width:6.25;stroke-linecap:round;stroke-linejoin:round;stroke-miterlimit:10;stroke-dasharray:none;stroke-opacity:1"
         d="m 166.7462,-639.1056 c 51.5734,13.4558 101.3285,33.1047 148.1797,58.518" />
    </g>
    <g
       transform="matrix(0,-0.16,-0.16,0,396.49155,477.34509)"
       id="g4984">
      <path
         inkscape:connector-curvature="0"
         id="path4986"
         style="fill:none;stroke:#000000;stroke-width:6.25;stroke-linecap:round;stroke-linejoin:round;stroke-miterlimit:10;stroke-dasharray:none;stroke-opacity:1"
         d="m 210.6241,-374.3097 c 32.5592,18.3211 62.5888,40.812 89.3285,66.9033" />
    </g>
    <g
       transform="matrix(0,-0.16,-0.16,0,380.97155,490.94509)"
       id="g4988">
      <path
         inkscape:connector-curvature="0"
         id="path4990"
         style="fill:none;stroke:#000000;stroke-width:6.25;stroke-linecap:round;stroke-linejoin:round;stroke-miterlimit:10;stroke-dasharray:none;stroke-opacity:1"
         d="m 384.7284,-403.4728 c 43.7817,41.7477 80.4766,90.343 108.6456,143.8801" />
    </g>
    <g
       transform="matrix(0,-0.16,-0.16,0,397.29155,458.78509)"
       id="g4992">
      <path
         inkscape:connector-curvature="0"
         id="path4994"
         style="fill:none;stroke:#000000;stroke-width:6.25;stroke-linecap:round;stroke-linejoin:round;stroke-miterlimit:10;stroke-dasharray:none;stroke-opacity:1"
         d="m 292.3475,-158.3956 c 22.1049,40.7986 35.4257,85.77231 39.1054,132.0283" />
    </g>
    <g
       transform="matrix(0.16,0,0,-0.16,-2824.3884,1676.6251)"
       id="g4996">
      <path
         inkscape:connector-curvature="0"
         id="path4998"
         style="fill:none;stroke:#000000;stroke-width:6.25;stroke-linecap:round;stroke-linejoin:round;stroke-miterlimit:10;stroke-dasharray:none;stroke-opacity:1"
         d="m 20161,7943 0,-317" />
    </g>
  </g>
</svg>
