<?xml version="1.0" encoding="UTF-8" standalone="no"?>
<!-- Created with Inkscape (http://www.inkscape.org/) -->

<svg
   xmlns:dc="http://purl.org/dc/elements/1.1/"
   xmlns:cc="http://creativecommons.org/ns#"
   xmlns:rdf="http://www.w3.org/1999/02/22-rdf-syntax-ns#"
   xmlns:svg="http://www.w3.org/2000/svg"
   xmlns="http://www.w3.org/2000/svg"
   xmlns:sodipodi="http://sodipodi.sourceforge.net/DTD/sodipodi-0.dtd"
   xmlns:inkscape="http://www.inkscape.org/namespaces/inkscape"
   width="1024"
   height="1024"
   viewBox="0 0 1024 1024"
   id="svg10390"
   version="1.1"
   inkscape:version="0.91+devel+osxmenu r12897"
   sodipodi:docname="2.svg">
  <sodipodi:namedview
     id="base"
     pagecolor="#ffffff"
     bordercolor="#666666"
     borderopacity="1.0"
     inkscape:pageopacity="0.0"
     inkscape:pageshadow="2"
     inkscape:zoom="0.53815456"
     inkscape:cx="119.52495"
     inkscape:cy="356.61097"
     inkscape:document-units="px"
     inkscape:current-layer="layer1"
     showgrid="false"
     inkscape:window-width="1440"
     inkscape:window-height="900"
     inkscape:window-x="0"
     inkscape:window-y="23"
     inkscape:window-maximized="0"
     showguides="true"
     inkscape:guide-bbox="true">
    <sodipodi:guide
       id="guide10946"
       inkscape:label="ascender"
       position="0,1024"
       orientation="0,1" />
    <sodipodi:guide
       id="guide10952"
       inkscape:label="descender"
       position="0,0"
       orientation="0,1" />
    <sodipodi:guide
       orientation="0,1"
       position="0,0"
       inkscape:label="descender"
       id="guide11006" />
    <sodipodi:guide
       id="guide11040"
       inkscape:label="baseline"
       position="0,205"
       orientation="0,1" />
    <sodipodi:guide
       id="guide11042"
       inkscape:label="ascender"
       position="0,1024"
       orientation="0,1" />
    <sodipodi:guide
       id="guide11044"
       inkscape:label="caps"
       position="0,905"
       orientation="0,1" />
    <sodipodi:guide
       id="guide11046"
       inkscape:label="xheight"
       position="0,705"
       orientation="0,1" />
    <sodipodi:guide
       id="guide11048"
       inkscape:label="descender"
       position="0,0"
       orientation="0,1" />
    <sodipodi:guide
       position="44.56386,705"
       orientation="1,0"
       id="guide11075" />
    <sodipodi:guide
       position="976.5298,784.71145"
       orientation="1,0"
       id="guide11077" />
  </sodipodi:namedview>
  <defs
     id="defs10392" />
  <metadata
     id="metadata10395">
    <rdf:RDF>
      <cc:Work
         rdf:about="">
        <dc:format>image/svg+xml</dc:format>
        <dc:type
           rdf:resource="http://purl.org/dc/dcmitype/StillImage" />
        <dc:title></dc:title>
      </cc:Work>
    </rdf:RDF>
  </metadata>
  <g
     id="layer1"
     inkscape:groupmode="layer"
     inkscape:label="Layer 1">
    <g
       id="g5599"
       transform="matrix(2.4415619,0,0,2.4415619,-44.58252,-1188.0373)">
      <g
         id="g5928"
         transform="matrix(0.16,0,0,-0.16,-378.37696,1805.4375)">
        <path
           d="m 2642,6145 1018,0 0,320 -1018,0 0,-320"
           style="fill:none;stroke:#000000;stroke-width:6.25;stroke-linecap:round;stroke-linejoin:round;stroke-miterlimit:10;stroke-dasharray:none;stroke-opacity:1"
           id="path5930"
           inkscape:connector-curvature="0" />
      </g>
      <g
         id="g5932"
         transform="matrix(0,-0.16,-0.16,0,111.30303,609.51756)">
        <path
           d="M 117.0742,96.15549 C 105.5754,110.1559 91.65849,121.9804 75.98469,131.0671"
           style="fill:none;stroke:#000000;stroke-width:6.25;stroke-linecap:round;stroke-linejoin:round;stroke-miterlimit:10;stroke-dasharray:none;stroke-opacity:1"
           id="path5934"
           inkscape:connector-curvature="0" />
      </g>
      <g
         id="g5936"
         transform="matrix(0,-0.16,-0.16,0,126.02303,618.63756)">
        <path
           d="m 133.2376,223.8481 c -18.4514,10.9826 -38.18996,19.6417 -58.76642,25.7802"
           style="fill:none;stroke:#000000;stroke-width:6.25;stroke-linecap:round;stroke-linejoin:round;stroke-miterlimit:10;stroke-dasharray:none;stroke-opacity:1"
           id="path5938"
           inkscape:connector-curvature="0" />
      </g>
      <g
         id="g5940"
         transform="matrix(0,-0.16,-0.16,0,121.70303,617.03756)">
        <path
           d="m 65.15913,222.1408 c -21.31999,6.2537 -43.42922,9.4055 -65.64741,9.3587"
           style="fill:none;stroke:#000000;stroke-width:6.25;stroke-linecap:round;stroke-linejoin:round;stroke-miterlimit:10;stroke-dasharray:none;stroke-opacity:1"
           id="path5942"
           inkscape:connector-curvature="0" />
      </g>
      <g
         id="g5944"
         transform="matrix(0.16,0,0,-0.16,-378.37696,1805.4375)">
        <path
           d="m 2894,7426 -298,63"
           style="fill:none;stroke:#000000;stroke-width:6.25;stroke-linecap:round;stroke-linejoin:round;stroke-miterlimit:10;stroke-dasharray:none;stroke-opacity:1"
           id="path5946"
           inkscape:connector-curvature="0" />
      </g>
      <g
         id="g5948"
         transform="matrix(0,-0.16,-0.16,0,126.18303,618.31756)">
        <path
           d="m 231.9148,511.3685 c -51.3297,23.279 -105.8718,38.697 -161.79229,45.7357"
           style="fill:none;stroke:#000000;stroke-width:6.25;stroke-linecap:round;stroke-linejoin:round;stroke-miterlimit:10;stroke-dasharray:none;stroke-opacity:1"
           id="path5950"
           inkscape:connector-curvature="0" />
      </g>
      <g
         id="g5952"
         transform="matrix(0,-0.16,-0.16,0,127.46303,619.43756)">
        <path
           d="m 373.8273,432.2793 c -40.6688,35.1696 -86.0972,64.4243 -134.9415,86.8987"
           style="fill:none;stroke:#000000;stroke-width:6.25;stroke-linecap:round;stroke-linejoin:round;stroke-miterlimit:10;stroke-dasharray:none;stroke-opacity:1"
           id="path5954"
           inkscape:connector-curvature="0" />
      </g>
      <g
         id="g5956"
         transform="matrix(0,-0.16,-0.16,0,108.74303,602.31756)">
        <path
           d="m 361.8736,197.9994 c -24.4372,44.6627 -56.9312,84.4157 -95.8395,117.2498"
           style="fill:none;stroke:#000000;stroke-width:6.25;stroke-linecap:round;stroke-linejoin:round;stroke-miterlimit:10;stroke-dasharray:none;stroke-opacity:1"
           id="path5958"
           inkscape:connector-curvature="0" />
      </g>
      <g
         id="g5960"
         transform="matrix(0,-0.16,-0.16,0,124.42303,632.87756)">
        <path
           d="m 614.8248,125.4859 c -12.1484,59.5214 -32.8755,116.9634 -61.5327,170.5278"
           style="fill:none;stroke:#000000;stroke-width:6.25;stroke-linecap:round;stroke-linejoin:round;stroke-miterlimit:10;stroke-dasharray:none;stroke-opacity:1"
           id="path5962"
           inkscape:connector-curvature="0" />
      </g>
      <g
         id="g5964"
         transform="matrix(0.16,0,0,-0.16,-378.37696,1805.4375)">
        <path
           d="m 3017,7943 0,-319"
           style="fill:none;stroke:#000000;stroke-width:6.25;stroke-linecap:round;stroke-linejoin:round;stroke-miterlimit:10;stroke-dasharray:none;stroke-opacity:1"
           id="path5966"
           inkscape:connector-curvature="0" />
      </g>
      <g
         id="g5968"
         transform="matrix(0,-0.16,-0.16,0,119.30303,619.59756)">
        <path
           d="M 212.8329,93.58646 C 204.527,112.4754 193.7437,130.1746 180.7668,146.2176"
           style="fill:none;stroke:#000000;stroke-width:6.25;stroke-linecap:round;stroke-linejoin:round;stroke-miterlimit:10;stroke-dasharray:none;stroke-opacity:1"
           id="path5970"
           inkscape:connector-curvature="0" />
      </g>
      <g
         id="g5972"
         transform="matrix(0,-0.16,-0.16,0,247.30303,861.19756)">
        <path
           d="M 1068.545,967.5401 C 968.6892,1077.82 852.3636,1171.978 723.7003,1246.668"
           style="fill:none;stroke:#000000;stroke-width:6.25;stroke-linecap:round;stroke-linejoin:round;stroke-miterlimit:10;stroke-dasharray:none;stroke-opacity:1"
           id="path5974"
           inkscape:connector-curvature="0" />
      </g>
      <g
         id="g5976"
         transform="matrix(0.16,0,0,-0.16,-378.37696,1805.4375)">
        <path
           d="m 3120,7112 -90,-69 -87,-74"
           style="fill:none;stroke:#000000;stroke-width:6.25;stroke-linecap:round;stroke-linejoin:round;stroke-miterlimit:10;stroke-dasharray:none;stroke-opacity:1"
           id="path5978"
           inkscape:connector-curvature="0" />
      </g>
      <g
         id="g5980"
         transform="matrix(0.16,0,0,-0.16,-378.37696,1805.4375)">
        <path
           d="m 3120,7112 151,112"
           style="fill:none;stroke:#000000;stroke-width:6.25;stroke-linecap:round;stroke-linejoin:round;stroke-miterlimit:10;stroke-dasharray:none;stroke-opacity:1"
           id="path5982"
           inkscape:connector-curvature="0" />
      </g>
      <g
         id="g5984"
         transform="matrix(0,-0.16,-0.16,0,95.943027,585.67756)">
        <path
           d="m -398.7078,-307.4807 c 22.3675,-29.0037 47.833,-55.4802 75.9443,-78.9595"
           style="fill:none;stroke:#000000;stroke-width:6.25;stroke-linecap:round;stroke-linejoin:round;stroke-miterlimit:10;stroke-dasharray:none;stroke-opacity:1"
           id="path5986"
           inkscape:connector-curvature="0" />
      </g>
      <g
         id="g5988"
         transform="matrix(0,-0.16,-0.16,0,132.74303,617.03756)">
        <path
           d="m -127.4266,-156.092 c 14.4796,-11.8205 30.53351,-21.5688 47.69997,-28.9645"
           style="fill:none;stroke:#000000;stroke-width:6.25;stroke-linecap:round;stroke-linejoin:round;stroke-miterlimit:10;stroke-dasharray:none;stroke-opacity:1"
           id="path5990"
           inkscape:connector-curvature="0" />
      </g>
      <g
         id="g5992"
         transform="matrix(0,-0.16,-0.16,0,143.14303,620.23756)">
        <path
           d="m -59.66844,-119.4233 c 17.60045,-8.7939 36.92707,-13.5887 56.59691,-14.0414"
           style="fill:none;stroke:#000000;stroke-width:6.25;stroke-linecap:round;stroke-linejoin:round;stroke-miterlimit:10;stroke-dasharray:none;stroke-opacity:1"
           id="path5994"
           inkscape:connector-curvature="0" />
      </g>
      <g
         id="g5996"
         transform="matrix(0,-0.16,-0.16,0,122.98303,620.07756)">
        <path
           d="m -4.09575,-260.4678 c 20.62613,-0.3243 41.21777,1.8025 61.34219,6.3357"
           style="fill:none;stroke:#000000;stroke-width:6.25;stroke-linecap:round;stroke-linejoin:round;stroke-miterlimit:10;stroke-dasharray:none;stroke-opacity:1"
           id="path5998"
           inkscape:connector-curvature="0" />
      </g>
      <g
         id="g6000"
         transform="matrix(0,-0.16,-0.16,0,121.38303,620.55756)">
        <path
           d="m 60.37972,-263.6751 c 21.71739,4.9732 42.73718,12.6103 62.58178,22.738"
           style="fill:none;stroke:#000000;stroke-width:6.25;stroke-linecap:round;stroke-linejoin:round;stroke-miterlimit:10;stroke-dasharray:none;stroke-opacity:1"
           id="path6002"
           inkscape:connector-curvature="0" />
      </g>
      <g
         id="g6004"
         transform="matrix(0,-0.16,-0.16,0,140.74303,609.83756)">
        <path
           d="m 55.99564,-120.0864 c 22.55194,10.5159 41.68698,27.16961 55.21436,48.0546"
           style="fill:none;stroke:#000000;stroke-width:6.25;stroke-linecap:round;stroke-linejoin:round;stroke-miterlimit:10;stroke-dasharray:none;stroke-opacity:1"
           id="path6006"
           inkscape:connector-curvature="0" />
      </g>
      <g
         id="g6008"
         transform="matrix(0,-0.16,-0.16,0,126.98303,633.51756)">
        <path
           d="m 259.1162,-158.0222 c 19.4625,31.9135 32.8621,67.14773 39.5244,103.92916"
           style="fill:none;stroke:#000000;stroke-width:6.25;stroke-linecap:round;stroke-linejoin:round;stroke-miterlimit:10;stroke-dasharray:none;stroke-opacity:1"
           id="path6010"
           inkscape:connector-curvature="0" />
      </g>
      <g
         id="g6012"
         transform="matrix(0.16,0,0,-0.16,-378.37696,1805.4375)">
        <path
           d="m 3212,7623 -50,0 0,320 51,0"
           style="fill:none;stroke:#000000;stroke-width:6.25;stroke-linecap:round;stroke-linejoin:round;stroke-miterlimit:10;stroke-dasharray:none;stroke-opacity:1"
           id="path6014"
           inkscape:connector-curvature="0" />
      </g>
      <g
         id="g6016"
         transform="matrix(0,-0.16,-0.16,0,134.98303,595.91756)">
        <path
           d="m 373.114,-88.64655 c 6.5224,27.4529 9.995,55.5418 10.3548,83.75659"
           style="fill:none;stroke:#000000;stroke-width:6.25;stroke-linecap:round;stroke-linejoin:round;stroke-miterlimit:10;stroke-dasharray:none;stroke-opacity:1"
           id="path6018"
           inkscape:connector-curvature="0" />
      </g>
      <g
         id="g6020"
         transform="matrix(0,-0.16,-0.16,0,118.34303,668.07756)">
        <path
           d="m 801.4807,-272.3803 c 8.9241,26.2593 16.5523,52.9413 22.857,79.9495"
           style="fill:none;stroke:#000000;stroke-width:6.25;stroke-linecap:round;stroke-linejoin:round;stroke-miterlimit:10;stroke-dasharray:none;stroke-opacity:1"
           id="path6022"
           inkscape:connector-curvature="0" />
      </g>
      <g
         id="g6024"
         transform="matrix(0,-0.16,-0.16,0,137.06303,602.79756)">
        <path
           d="m 303.1404,-295.7333 c 39.3611,40.347 70.272,88.1456 90.9205,140.5939"
           style="fill:none;stroke:#000000;stroke-width:6.25;stroke-linecap:round;stroke-linejoin:round;stroke-miterlimit:10;stroke-dasharray:none;stroke-opacity:1"
           id="path6026"
           inkscape:connector-curvature="0" />
      </g>
      <g
         id="g6028"
         transform="matrix(0,-0.16,-0.16,0,116.42303,623.59756)">
        <path
           d="m 282.4604,-536.7107 c 55.754,29.3423 106.5956,67.1927 150.6953,112.1893"
           style="fill:none;stroke:#000000;stroke-width:6.25;stroke-linecap:round;stroke-linejoin:round;stroke-miterlimit:10;stroke-dasharray:none;stroke-opacity:1"
           id="path6030"
           inkscape:connector-curvature="0" />
      </g>
      <g
         id="g6032"
         transform="matrix(0,-0.16,-0.16,0,129.38303,616.87756)">
        <path
           d="m 71.38372,-509.5433 c 58.99748,8.2331 116.11858,26.6102 168.82718,54.3152"
           style="fill:none;stroke:#000000;stroke-width:6.25;stroke-linecap:round;stroke-linejoin:round;stroke-miterlimit:10;stroke-dasharray:none;stroke-opacity:1"
           id="path6034"
           inkscape:connector-curvature="0" />
      </g>
      <g
         id="g6036"
         transform="matrix(0,-0.16,-0.16,0,117.70303,618.79756)">
        <path
           d="m -86.77714,-583.078 c 56.2045,-8.3647 113.32313,-8.5591 169.58326,-0.5772"
           style="fill:none;stroke:#000000;stroke-width:6.25;stroke-linecap:round;stroke-linejoin:round;stroke-miterlimit:10;stroke-dasharray:none;stroke-opacity:1"
           id="path6038"
           inkscape:connector-curvature="0" />
      </g>
      <g
         id="g6040"
         transform="matrix(0,-0.16,-0.16,0,134.66303,620.23756)">
        <path
           d="m -204.0371,-438.339 c 40.3521,-18.783 83.1046,-31.9042 127.04613,-38.9918"
           style="fill:none;stroke:#000000;stroke-width:6.25;stroke-linecap:round;stroke-linejoin:round;stroke-miterlimit:10;stroke-dasharray:none;stroke-opacity:1"
           id="path6042"
           inkscape:connector-curvature="0" />
      </g>
      <g
         id="g6044"
         transform="matrix(0,-0.16,-0.16,0,173.70303,639.75756)">
        <path
           d="m -133.6957,-162.5906 c 15.5054,-12.7499 32.7549,-23.2162 51.22434,-31.0811"
           style="fill:none;stroke:#000000;stroke-width:6.25;stroke-linecap:round;stroke-linejoin:round;stroke-miterlimit:10;stroke-dasharray:none;stroke-opacity:1"
           id="path6046"
           inkscape:connector-curvature="0" />
      </g>
      <g
         id="g6048"
         transform="matrix(0,-0.16,-0.16,0,139.14303,608.07756)">
        <path
           d="m -401.9864,-303.1818 c 20.7916,-27.5674 44.3639,-52.9231 70.3447,-75.6665"
           style="fill:none;stroke:#000000;stroke-width:6.25;stroke-linecap:round;stroke-linejoin:round;stroke-miterlimit:10;stroke-dasharray:none;stroke-opacity:1"
           id="path6050"
           inkscape:connector-curvature="0" />
      </g>
      <g
         id="g6052"
         transform="matrix(0.16,0,0,-0.16,-378.37696,1805.4375)">
        <path
           d="m 3537,7081 -145,-108 -82,-61 -80,-63"
           style="fill:none;stroke:#000000;stroke-width:6.25;stroke-linecap:round;stroke-linejoin:round;stroke-miterlimit:10;stroke-dasharray:none;stroke-opacity:1"
           id="path6054"
           inkscape:connector-curvature="0" />
      </g>
      <g
         id="g6056"
         transform="matrix(0,-0.16,-0.16,0,263.14303,862.79756)">
        <path
           d="m 958.0993,778.4832 c -35.2418,43.3729 -73.3881,84.3028 -114.1758,122.507"
           style="fill:none;stroke:#000000;stroke-width:6.25;stroke-linecap:round;stroke-linejoin:round;stroke-miterlimit:10;stroke-dasharray:none;stroke-opacity:1"
           id="path6058"
           inkscape:connector-curvature="0" />
      </g>
      <g
         id="g6060"
         transform="matrix(0,-0.16,-0.16,0,230.66303,831.11756)">
        <path
           d="m 646.3209,698.299 c -34.6507,32.0715 -71.6405,61.5194 -110.6629,88.0996"
           style="fill:none;stroke:#000000;stroke-width:6.25;stroke-linecap:round;stroke-linejoin:round;stroke-miterlimit:10;stroke-dasharray:none;stroke-opacity:1"
           id="path6062"
           inkscape:connector-curvature="0" />
      </g>
      <g
         id="g6064"
         transform="matrix(0.16,0,0,-0.16,-378.37696,1805.4375)">
        <path
           d="m 3020,6624 -356,0"
           style="fill:none;stroke:#000000;stroke-width:6.25;stroke-linecap:round;stroke-linejoin:round;stroke-miterlimit:10;stroke-dasharray:none;stroke-opacity:1"
           id="path6066"
           inkscape:connector-curvature="0" />
      </g>
    </g>
  </g>
</svg>
