<?xml version="1.0" encoding="UTF-8" standalone="no"?>
<!-- Created with Inkscape (http://www.inkscape.org/) -->

<svg
   xmlns:dc="http://purl.org/dc/elements/1.1/"
   xmlns:cc="http://creativecommons.org/ns#"
   xmlns:rdf="http://www.w3.org/1999/02/22-rdf-syntax-ns#"
   xmlns:svg="http://www.w3.org/2000/svg"
   xmlns="http://www.w3.org/2000/svg"
   xmlns:sodipodi="http://sodipodi.sourceforge.net/DTD/sodipodi-0.dtd"
   xmlns:inkscape="http://www.inkscape.org/namespaces/inkscape"
   width="210mm"
   height="297mm"
   viewBox="0 0 744.09448819 1052.3622047"
   id="svg4223"
   version="1.1"
   inkscape:version="0.91 r13725"
   sodipodi:docname="5.svg">
  <defs
     id="defs4225" />
  <sodipodi:namedview
     id="base"
     pagecolor="#ffffff"
     bordercolor="#666666"
     borderopacity="1.0"
     inkscape:pageopacity="0.0"
     inkscape:pageshadow="2"
     inkscape:zoom="0.35"
     inkscape:cx="375"
     inkscape:cy="520"
     inkscape:document-units="px"
     inkscape:current-layer="layer1"
     showgrid="false"
     inkscape:window-width="1366"
     inkscape:window-height="706"
     inkscape:window-x="-8"
     inkscape:window-y="-8"
     inkscape:window-maximized="1" />
  <metadata
     id="metadata4228">
    <rdf:RDF>
      <cc:Work
         rdf:about="">
        <dc:format>image/svg+xml</dc:format>
        <dc:type
           rdf:resource="http://purl.org/dc/dcmitype/StillImage" />
        <dc:title></dc:title>
      </cc:Work>
    </rdf:RDF>
  </metadata>
  <g
     inkscape:label="Layer 1"
     inkscape:groupmode="layer"
     id="layer1">
    <g
       transform="matrix(0,-0.16,-0.16,0,365.65712,597.15386)"
       id="g5536">
      <path
         inkscape:connector-curvature="0"
         id="path5538"
         style="fill:none;stroke:#000000;stroke-width:6.25;stroke-linecap:round;stroke-linejoin:round;stroke-miterlimit:10;stroke-dasharray:none;stroke-opacity:1"
         d="m -131.5029,137.8305 c -8.525,-8.1336 -16.2769,-17.0406 -23.1562,-26.6064" />
    </g>
    <g
       transform="matrix(0,-0.16,-0.16,0,365.01712,598.11386)"
       id="g5540">
      <path
         inkscape:connector-curvature="0"
         id="path5542"
         style="fill:none;stroke:#000000;stroke-width:6.25;stroke-linecap:round;stroke-linejoin:round;stroke-miterlimit:10;stroke-dasharray:none;stroke-opacity:1"
         d="m -149.0582,107.0229 c -7.0035,-9.75419 -13.0325,-20.1722 -18.0005,-31.10425" />
    </g>
    <g
       transform="matrix(0,-0.16,-0.16,0,367.09712,593.79386)"
       id="g5544">
      <path
         inkscape:connector-curvature="0"
         id="path5546"
         style="fill:none;stroke:#000000;stroke-width:6.25;stroke-linecap:round;stroke-linejoin:round;stroke-miterlimit:10;stroke-dasharray:none;stroke-opacity:1"
         d="m -193.2406,88.39866 c -5.4364,-11.88404 -9.7649,-24.24423 -12.9306,-36.92349" />
    </g>
    <g
       transform="matrix(0,-0.16,-0.16,0,366.77712,594.43386)"
       id="g5548">
      <path
         inkscape:connector-curvature="0"
         id="path5550"
         style="fill:none;stroke:#000000;stroke-width:6.25;stroke-linecap:round;stroke-linejoin:round;stroke-miterlimit:10;stroke-dasharray:none;stroke-opacity:1"
         d="m -202.492,49.45293 c -3.1897,-12.93544 -5.1204,-26.14647 -5.7656,-39.45022" />
    </g>
    <g
       transform="matrix(0.16,0,0,-0.16,-1169.3028,1662.1939)"
       id="g5552">
      <path
         inkscape:connector-curvature="0"
         id="path5554"
         style="fill:none;stroke:#000000;stroke-width:6.25;stroke-linecap:round;stroke-linejoin:round;stroke-miterlimit:10;stroke-dasharray:none;stroke-opacity:1"
         d="m 9590,6465 0,-319" />
    </g>
    <g
       transform="matrix(0,-0.16,-0.16,0,364.53712,622.91386)"
       id="g5556">
      <path
         inkscape:connector-curvature="0"
         id="path5558"
         style="fill:none;stroke:#000000;stroke-width:6.25;stroke-linecap:round;stroke-linejoin:round;stroke-miterlimit:10;stroke-dasharray:none;stroke-opacity:1"
         d="m -342.4269,69.9578 c -4.9881,-24.41575 -7.3506,-49.29497 -7.0472,-74.2132" />
    </g>
    <g
       transform="matrix(0,-0.16,-0.16,0,375.41712,564.83386)"
       id="g5560">
      <path
         inkscape:connector-curvature="0"
         id="path5562"
         style="fill:none;stroke:#000000;stroke-width:6.25;stroke-linecap:round;stroke-linejoin:round;stroke-miterlimit:10;stroke-dasharray:none;stroke-opacity:1"
         d="m -681.6996,230.1432 c -10.1093,-29.9444 -18.2346,-60.5224 -24.3231,-91.5352" />
    </g>
    <g
       transform="matrix(0,-0.16,-0.16,0,361.01712,606.91386)"
       id="g5564">
      <path
         inkscape:connector-curvature="0"
         id="path5566"
         style="fill:none;stroke:#000000;stroke-width:6.25;stroke-linecap:round;stroke-linejoin:round;stroke-miterlimit:10;stroke-dasharray:none;stroke-opacity:1"
         d="m -385.6158,214.9946 c -13.3252,-23.9001 -24.3995,-48.9872 -33.0801,-74.9376" />
    </g>
    <g
       transform="matrix(0,-0.16,-0.16,0,358.93712,611.39386)"
       id="g5568">
      <path
         inkscape:connector-curvature="0"
         id="path5570"
         style="fill:none;stroke:#000000;stroke-width:6.25;stroke-linecap:round;stroke-linejoin:round;stroke-miterlimit:10;stroke-dasharray:none;stroke-opacity:1"
         d="m -313.3905,265.1351 c -16.7471,-19.795 -31.5809,-41.1323 -44.3028,-63.7257" />
    </g>
    <g
       transform="matrix(0,-0.16,-0.16,0,380.69712,584.67386)"
       id="g5572">
      <path
         inkscape:connector-curvature="0"
         id="path5574"
         style="fill:none;stroke:#000000;stroke-width:6.25;stroke-linecap:round;stroke-linejoin:round;stroke-miterlimit:10;stroke-dasharray:none;stroke-opacity:1"
         d="m -415.3285,467.7098 c -22.969,-20.3966 -44.4044,-42.4575 -64.132,-66.0036" />
    </g>
    <g
       transform="matrix(0,-0.16,-0.16,0,366.93712,597.15386)"
       id="g5576">
      <path
         inkscape:connector-curvature="0"
         id="path5578"
         style="fill:none;stroke:#000000;stroke-width:6.25;stroke-linecap:round;stroke-linejoin:round;stroke-miterlimit:10;stroke-dasharray:none;stroke-opacity:1"
         d="m -264.069,435.7267 c -26.1268,-15.8339 -50.7766,-33.9857 -73.6513,-54.2359" />
    </g>
    <g
       transform="matrix(0.16,0,0,-0.16,-1169.3028,1662.1939)"
       id="g5580">
      <path
         inkscape:connector-curvature="0"
         id="path5582"
         style="fill:none;stroke:#000000;stroke-width:6.25;stroke-linecap:round;stroke-linejoin:round;stroke-miterlimit:10;stroke-dasharray:none;stroke-opacity:1"
         d="m 9165,6392 269,161" />
    </g>
    <g
       transform="matrix(0,-0.16,-0.16,0,366.13712,596.83386)"
       id="g5584">
      <path
         inkscape:connector-curvature="0"
         id="path5586"
         style="fill:none;stroke:#000000;stroke-width:6.25;stroke-linecap:round;stroke-linejoin:round;stroke-miterlimit:10;stroke-dasharray:none;stroke-opacity:1"
         d="m -105.3493,162.3077 c -9.9713,-6.4721 -19.325,-13.8493 -27.9424,-22.038" />
    </g>
    <g
       transform="matrix(0,-0.16,-0.16,0,364.69712,567.23386)"
       id="g5588">
      <path
         inkscape:connector-curvature="0"
         id="path5590"
         style="fill:none;stroke:#000000;stroke-width:6.25;stroke-linecap:round;stroke-linejoin:round;stroke-miterlimit:10;stroke-dasharray:none;stroke-opacity:1"
         d="m 360.5634,26.00596 c -0.8554,11.85943 -2.2954,23.66943 -4.3146,35.38695" />
    </g>
    <g
       transform="matrix(0.16,0,0,-0.16,-1169.3028,1662.1939)"
       id="g5592">
      <path
         inkscape:connector-curvature="0"
         id="path5594"
         style="fill:none;stroke:#000000;stroke-width:6.25;stroke-linecap:round;stroke-linejoin:round;stroke-miterlimit:10;stroke-dasharray:none;stroke-opacity:1"
         d="m 9561,7204 28,1 0,-320" />
    </g>
    <g
       transform="matrix(0,-0.16,-0.16,0,366.77712,593.63386)"
       id="g5596">
      <path
         inkscape:connector-curvature="0"
         id="path5598"
         style="fill:none;stroke:#000000;stroke-width:6.25;stroke-linecap:round;stroke-linejoin:round;stroke-miterlimit:10;stroke-dasharray:none;stroke-opacity:1"
         d="m 208.2206,10.78961 c -0.6925,13.36549 -2.6704,26.63326 -5.9061,39.61964" />
    </g>
    <g
       transform="matrix(0,-0.16,-0.16,0,366.93712,594.43386)"
       id="g5600">
      <path
         inkscape:connector-curvature="0"
         id="path5602"
         style="fill:none;stroke:#000000;stroke-width:6.25;stroke-linecap:round;stroke-linejoin:round;stroke-miterlimit:10;stroke-dasharray:none;stroke-opacity:1"
         d="m 206.3476,50.76328 c -3.1202,12.68349 -7.4033,25.05229 -12.7946,36.94934" />
    </g>
    <g
       transform="matrix(0,-0.16,-0.16,0,365.01712,590.11386)"
       id="g5604">
      <path
         inkscape:connector-curvature="0"
         id="path5606"
         style="fill:none;stroke:#000000;stroke-width:6.25;stroke-linecap:round;stroke-linejoin:round;stroke-miterlimit:10;stroke-dasharray:none;stroke-opacity:1"
         d="M 166.7957,76.49479 C 161.79,87.40963 155.725,97.80678 148.688,107.5367" />
    </g>
    <g
       transform="matrix(0,-0.16,-0.16,0,365.65712,591.07386)"
       id="g5608">
      <path
         inkscape:connector-curvature="0"
         id="path5610"
         style="fill:none;stroke:#000000;stroke-width:6.25;stroke-linecap:round;stroke-linejoin:round;stroke-miterlimit:10;stroke-dasharray:none;stroke-opacity:1"
         d="m 154.6591,111.2241 c -6.8793,9.5658 -14.6312,18.4728 -23.1562,26.6064" />
    </g>
    <g
       transform="matrix(0,-0.16,-0.16,0,365.81712,591.39386)"
       id="g5612">
      <path
         inkscape:connector-curvature="0"
         id="path5614"
         style="fill:none;stroke:#000000;stroke-width:6.25;stroke-linecap:round;stroke-linejoin:round;stroke-miterlimit:10;stroke-dasharray:none;stroke-opacity:1"
         d="m 132.9503,139.2138 c -8.5526,8.1677 -17.8396,15.53 -27.7433,21.9933" />
    </g>
    <g
       transform="matrix(0.16,0,0,-0.16,-1169.3028,1662.1939)"
       id="g5616">
      <path
         inkscape:connector-curvature="0"
         id="path5618"
         style="fill:none;stroke:#000000;stroke-width:6.25;stroke-linecap:round;stroke-linejoin:round;stroke-miterlimit:10;stroke-dasharray:none;stroke-opacity:1"
         d="m 9433,6798 -280,167 66,977 903,0 0,-319 -610,0 -33,-433" />
    </g>
    <g
       transform="matrix(0,-0.16,-0.16,0,372.69712,610.59386)"
       id="g5620">
      <path
         inkscape:connector-curvature="0"
         id="path5622"
         style="fill:none;stroke:#000000;stroke-width:6.25;stroke-linecap:round;stroke-linejoin:round;stroke-miterlimit:10;stroke-dasharray:none;stroke-opacity:1"
         d="m 627.7133,111.2758 c -2.7706,15.6289 -6.1239,31.1489 -10.0529,46.5275" />
    </g>
    <g
       transform="matrix(0.16,0,0,-0.16,-1169.3028,1662.1939)"
       id="g5624">
      <path
         inkscape:connector-curvature="0"
         id="path5626"
         style="fill:none;stroke:#000000;stroke-width:6.25;stroke-linecap:round;stroke-linejoin:round;stroke-miterlimit:10;stroke-dasharray:none;stroke-opacity:1"
         d="m 9744,7205 0,-322" />
    </g>
    <g
       transform="matrix(0,-0.16,-0.16,0,389.33712,584.99386)"
       id="g5628">
      <path
         inkscape:connector-curvature="0"
         id="path5630"
         style="fill:none;stroke:#000000;stroke-width:6.25;stroke-linecap:round;stroke-linejoin:round;stroke-miterlimit:10;stroke-dasharray:none;stroke-opacity:1"
         d="m 136.4851,-65.75769 c 9.4807,19.67801 14.5943,41.17341 14.99,63.01264" />
    </g>
    <g
       transform="matrix(0,-0.16,-0.16,0,383.41712,598.59386)"
       id="g5632">
      <path
         inkscape:connector-curvature="0"
         id="path5634"
         style="fill:none;stroke:#000000;stroke-width:6.25;stroke-linecap:round;stroke-linejoin:round;stroke-miterlimit:10;stroke-dasharray:none;stroke-opacity:1"
         d="m 174.0357,-170.3051 c 19.4996,19.9267 35.4321,43.0543 47.103,68.3742" />
    </g>
    <g
       transform="matrix(0,-0.16,-0.16,0,388.05712,593.79386)"
       id="g5636">
      <path
         inkscape:connector-curvature="0"
         id="path5638"
         style="fill:none;stroke:#000000;stroke-width:6.25;stroke-linecap:round;stroke-linejoin:round;stroke-miterlimit:10;stroke-dasharray:none;stroke-opacity:1"
         d="m 71.37303,-189.505 c 27.50608,10.3596 52.42727,26.5828 73.03267,47.5429" />
    </g>
    <g
       transform="matrix(0,-0.16,-0.16,0,386.29712,593.47386)"
       id="g5640">
      <path
         inkscape:connector-curvature="0"
         id="path5642"
         style="fill:none;stroke:#000000;stroke-width:6.25;stroke-linecap:round;stroke-linejoin:round;stroke-miterlimit:10;stroke-dasharray:none;stroke-opacity:1"
         d="m -13.53598,-211.0664 c 28.18764,-1.8077 56.45184,2.049 83.12473,11.3425" />
    </g>
    <g
       transform="matrix(0,-0.16,-0.16,0,381.01712,594.27386)"
       id="g5644">
      <path
         inkscape:connector-curvature="0"
         id="path5646"
         style="fill:none;stroke:#000000;stroke-width:6.25;stroke-linecap:round;stroke-linejoin:round;stroke-miterlimit:10;stroke-dasharray:none;stroke-opacity:1"
         d="m -89.56689,-227.5039 c 25.59466,-10.0765 52.70619,-15.7617 80.19273,-16.8163" />
    </g>
    <g
       transform="matrix(0,-0.16,-0.16,0,388.85712,596.83386)"
       id="g5648">
      <path
         inkscape:connector-curvature="0"
         id="path5650"
         style="fill:none;stroke:#000000;stroke-width:6.25;stroke-linecap:round;stroke-linejoin:round;stroke-miterlimit:10;stroke-dasharray:none;stroke-opacity:1"
         d="m -136.8383,-136.812 c 18.1695,-18.173 39.77692,-32.5448 63.56102,-42.2765" />
    </g>
    <g
       transform="matrix(0,-0.16,-0.16,0,388.85712,596.99386)"
       id="g5652">
      <path
         inkscape:connector-curvature="0"
         id="path5654"
         style="fill:none;stroke:#000000;stroke-width:6.25;stroke-linecap:round;stroke-linejoin:round;stroke-miterlimit:10;stroke-dasharray:none;stroke-opacity:1"
         d="m -176.893,-75.92828 c 9.7114,-22.62503 23.6729,-43.17702 41.1278,-60.54172" />
    </g>
    <g
       transform="matrix(0,-0.16,-0.16,0,389.17712,597.15386)"
       id="g5656">
      <path
         inkscape:connector-curvature="0"
         id="path5658"
         style="fill:none;stroke:#000000;stroke-width:6.25;stroke-linecap:round;stroke-linejoin:round;stroke-miterlimit:10;stroke-dasharray:none;stroke-opacity:1"
         d="m -191.4593,-3.94708 c 0.5016,-24.33373 5.6374,-48.34877 15.1323,-70.75923" />
    </g>
    <g
       transform="matrix(0.16,0,0,-0.16,-1169.3028,1662.1939)"
       id="g5660">
      <path
         inkscape:connector-curvature="0"
         id="path5662"
         style="fill:none;stroke:#000000;stroke-width:6.25;stroke-linecap:round;stroke-linejoin:round;stroke-miterlimit:10;stroke-dasharray:none;stroke-opacity:1"
         d="m 9744,6465 0,-319" />
    </g>
    <g
       transform="matrix(0,-0.16,-0.16,0,387.57712,598.91386)"
       id="g5664">
      <path
         inkscape:connector-curvature="0"
         id="path5666"
         style="fill:none;stroke:#000000;stroke-width:6.25;stroke-linecap:round;stroke-linejoin:round;stroke-miterlimit:10;stroke-dasharray:none;stroke-opacity:1"
         d="m -500.3171,-13.50304 c 1.921,-70.89251 18.9461,-140.56406 49.9428,-204.37996" />
    </g>
    <g
       transform="matrix(0,-0.16,-0.16,0,384.05712,591.55386)"
       id="g5668">
      <path
         inkscape:connector-curvature="0"
         id="path5670"
         style="fill:none;stroke:#000000;stroke-width:6.25;stroke-linecap:round;stroke-linejoin:round;stroke-miterlimit:10;stroke-dasharray:none;stroke-opacity:1"
         d="m -496.2435,-240.6131 c 32.1103,-66.2246 77.1512,-125.3522 132.4685,-173.8987" />
    </g>
    <g
       transform="matrix(0,-0.16,-0.16,0,387.73712,595.71386)"
       id="g5672">
      <path
         inkscape:connector-curvature="0"
         id="path5674"
         style="fill:none;stroke:#000000;stroke-width:6.25;stroke-linecap:round;stroke-linejoin:round;stroke-miterlimit:10;stroke-dasharray:none;stroke-opacity:1"
         d="m -337.4013,-391.066 c 52.9586,-45.6913 114.6459,-80.1501 181.3208,-101.2867" />
    </g>
    <g
       transform="matrix(0,-0.16,-0.16,0,390.61712,595.87386)"
       id="g5676">
      <path
         inkscape:connector-curvature="0"
         id="path5678"
         style="fill:none;stroke:#000000;stroke-width:6.25;stroke-linecap:round;stroke-linejoin:round;stroke-miterlimit:10;stroke-dasharray:none;stroke-opacity:1"
         d="m -154.4542,-475.0202 c 64.31245,-20.9114 132.20146,-28.5455 199.552,-22.4398" />
    </g>
    <g
       transform="matrix(0,-0.16,-0.16,0,361.65712,600.19386)"
       id="g5680">
      <path
         inkscape:connector-curvature="0"
         id="path5682"
         style="fill:none;stroke:#000000;stroke-width:6.25;stroke-linecap:round;stroke-linejoin:round;stroke-miterlimit:10;stroke-dasharray:none;stroke-opacity:1"
         d="m 71.90897,-678.7012 c 67.44993,7.1463 133.45773,24.3073 195.84743,50.9172" />
    </g>
    <g
       transform="matrix(0,-0.16,-0.16,0,395.89713,583.71386)"
       id="g5684">
      <path
         inkscape:connector-curvature="0"
         id="path5686"
         style="fill:none;stroke:#000000;stroke-width:6.25;stroke-linecap:round;stroke-linejoin:round;stroke-miterlimit:10;stroke-dasharray:none;stroke-opacity:1"
         d="m 164.338,-413.0052 c 54.0767,21.5176 103.4013,53.4455 145.1739,93.9713" />
    </g>
    <g
       transform="matrix(0,-0.16,-0.16,0,384.85712,594.59386)"
       id="g5688">
      <path
         inkscape:connector-curvature="0"
         id="path5690"
         style="fill:none;stroke:#000000;stroke-width:6.25;stroke-linecap:round;stroke-linejoin:round;stroke-miterlimit:10;stroke-dasharray:none;stroke-opacity:1"
         d="m 378.2358,-388.1841 c 47.4845,46.0972 86.1099,100.4848 113.9648,160.4714" />
    </g>
    <g
       transform="matrix(0,-0.16,-0.16,0,390.45712,584.35386)"
       id="g5692">
      <path
         inkscape:connector-curvature="0"
         id="path5694"
         style="fill:none;stroke:#000000;stroke-width:6.25;stroke-linecap:round;stroke-linejoin:round;stroke-miterlimit:10;stroke-dasharray:none;stroke-opacity:1"
         d="M 428.0829,-192.8088 C 456,-130.8261 470.1241,-63.52027 469.4788,4.4562" />
    </g>
  </g>
</svg>
