<?xml version="1.0" encoding="UTF-8" standalone="no"?>
<!-- Created with Inkscape (http://www.inkscape.org/) -->

<svg
   xmlns:dc="http://purl.org/dc/elements/1.1/"
   xmlns:cc="http://creativecommons.org/ns#"
   xmlns:rdf="http://www.w3.org/1999/02/22-rdf-syntax-ns#"
   xmlns:svg="http://www.w3.org/2000/svg"
   xmlns="http://www.w3.org/2000/svg"
   xmlns:sodipodi="http://sodipodi.sourceforge.net/DTD/sodipodi-0.dtd"
   xmlns:inkscape="http://www.inkscape.org/namespaces/inkscape"
   width="210mm"
   height="297mm"
   viewBox="0 0 744.09448819 1052.3622047"
   id="svg4223"
   version="1.1"
   inkscape:version="0.91 r13725"
   sodipodi:docname="7.svg">
  <defs
     id="defs4225" />
  <sodipodi:namedview
     id="base"
     pagecolor="#ffffff"
     bordercolor="#666666"
     borderopacity="1.0"
     inkscape:pageopacity="0.0"
     inkscape:pageshadow="2"
     inkscape:zoom="0.35"
     inkscape:cx="375"
     inkscape:cy="520"
     inkscape:document-units="px"
     inkscape:current-layer="layer1"
     showgrid="false"
     inkscape:window-width="1366"
     inkscape:window-height="706"
     inkscape:window-x="-8"
     inkscape:window-y="-8"
     inkscape:window-maximized="1" />
  <metadata
     id="metadata4228">
    <rdf:RDF>
      <cc:Work
         rdf:about="">
        <dc:format>image/svg+xml</dc:format>
        <dc:type
           rdf:resource="http://purl.org/dc/dcmitype/StillImage" />
        <dc:title></dc:title>
      </cc:Work>
    </rdf:RDF>
  </metadata>
  <g
     inkscape:label="Layer 1"
     inkscape:groupmode="layer"
     id="layer1">
    <g
       transform="matrix(0.16,0,0,-0.16,-1807.48,1659.3186)"
       id="g5236">
      <path
         inkscape:connector-curvature="0"
         id="path5238"
         style="fill:none;stroke:#000000;stroke-width:6.25;stroke-linecap:round;stroke-linejoin:round;stroke-miterlimit:10;stroke-dasharray:none;stroke-opacity:1"
         d="m 14018,7464 -332,0 24,80 26,79 -526,0 0,319 861,0 0,-319 -27,-79 -26,-80" />
    </g>
    <g
       transform="matrix(0.16,0,0,-0.16,-1807.48,1659.3186)"
       id="g5240">
      <path
         inkscape:connector-curvature="0"
         id="path5242"
         style="fill:none;stroke:#000000;stroke-width:6.25;stroke-linecap:round;stroke-linejoin:round;stroke-miterlimit:10;stroke-dasharray:none;stroke-opacity:1"
         d="m 13532,6681 -16,-178 -13,-179 -10,-179" />
    </g>
    <g
       transform="matrix(0,-0.16,-0.16,0,1027.32,656.35865)"
       id="g5244">
      <path
         inkscape:connector-curvature="0"
         id="path5246"
         style="fill:none;stroke:#000000;stroke-width:6.25;stroke-linecap:round;stroke-linejoin:round;stroke-miterlimit:10;stroke-dasharray:none;stroke-opacity:1"
         d="m 766.9994,4133.982 c -117.098,21.716 -235.0659,38.449 -353.5846,50.153" />
    </g>
    <g
       transform="matrix(0,-0.16,-0.16,0,961.55997,643.07865)"
       id="g5248">
      <path
         inkscape:connector-curvature="0"
         id="path5250"
         style="fill:none;stroke:#000000;stroke-width:6.25;stroke-linecap:round;stroke-linejoin:round;stroke-miterlimit:10;stroke-dasharray:none;stroke-opacity:1"
         d="m 952.8567,3663.615 c -88.9918,23.145 -178.7974,43.041 -269.2381,59.646" />
    </g>
    <g
       transform="matrix(0.16,0,0,-0.16,-1807.48,1659.3186)"
       id="g5252">
      <path
         inkscape:connector-curvature="0"
         id="path5254"
         style="fill:none;stroke:#000000;stroke-width:6.25;stroke-linecap:round;stroke-linejoin:round;stroke-miterlimit:10;stroke-dasharray:none;stroke-opacity:1"
         d="m 13642,7304 330,0" />
    </g>
    <g
       transform="matrix(0,-0.16,-0.16,0,1075.16,665.15865)"
       id="g5256">
      <path
         inkscape:connector-curvature="0"
         id="path5258"
         style="fill:none;stroke:#000000;stroke-width:6.25;stroke-linecap:round;stroke-linejoin:round;stroke-miterlimit:10;stroke-dasharray:none;stroke-opacity:1"
         d="m 1091.561,4042.799 c -94.7358,25.566 -190.3408,47.796 -286.6382,66.649" />
    </g>
    <g
       transform="matrix(0,-0.16,-0.16,0,1029.24,657.15865)"
       id="g5260">
      <path
         inkscape:connector-curvature="0"
         id="path5262"
         style="fill:none;stroke:#000000;stroke-width:6.25;stroke-linecap:round;stroke-linejoin:round;stroke-miterlimit:10;stroke-dasharray:none;stroke-opacity:1"
         d="m 754.1332,3822.864 c -115.2562,22.725 -231.4813,40.228 -348.3191,52.457" />
    </g>
    <g
       transform="matrix(0.16,0,0,-0.16,-1807.48,1659.3186)"
       id="g5264">
      <path
         inkscape:connector-curvature="0"
         id="path5266"
         style="fill:none;stroke:#000000;stroke-width:6.25;stroke-linecap:round;stroke-linejoin:round;stroke-miterlimit:10;stroke-dasharray:none;stroke-opacity:1"
         d="m 13853,6669 -17,-174 -13,-175 -11,-175 -319,0" />
    </g>
  </g>
</svg>
