<?xml version="1.0" encoding="UTF-8" standalone="no"?>
<!-- Created with Inkscape (http://www.inkscape.org/) -->

<svg
   xmlns:dc="http://purl.org/dc/elements/1.1/"
   xmlns:cc="http://creativecommons.org/ns#"
   xmlns:rdf="http://www.w3.org/1999/02/22-rdf-syntax-ns#"
   xmlns:svg="http://www.w3.org/2000/svg"
   xmlns="http://www.w3.org/2000/svg"
   xmlns:sodipodi="http://sodipodi.sourceforge.net/DTD/sodipodi-0.dtd"
   xmlns:inkscape="http://www.inkscape.org/namespaces/inkscape"
   width="210mm"
   height="297mm"
   viewBox="0 0 744.09448819 1052.3622047"
   id="svg4223"
   version="1.1"
   inkscape:version="0.91 r13725"
   sodipodi:docname="8.svg">
  <defs
     id="defs4225" />
  <sodipodi:namedview
     id="base"
     pagecolor="#ffffff"
     bordercolor="#666666"
     borderopacity="1.0"
     inkscape:pageopacity="0.0"
     inkscape:pageshadow="2"
     inkscape:zoom="0.35"
     inkscape:cx="375"
     inkscape:cy="520"
     inkscape:document-units="px"
     inkscape:current-layer="layer1"
     showgrid="false"
     inkscape:window-width="1366"
     inkscape:window-height="706"
     inkscape:window-x="-8"
     inkscape:window-y="-8"
     inkscape:window-maximized="1" />
  <metadata
     id="metadata4228">
    <rdf:RDF>
      <cc:Work
         rdf:about="">
        <dc:format>image/svg+xml</dc:format>
        <dc:type
           rdf:resource="http://purl.org/dc/dcmitype/StillImage" />
        <dc:title></dc:title>
      </cc:Work>
    </rdf:RDF>
  </metadata>
  <g
     inkscape:label="Layer 1"
     inkscape:groupmode="layer"
     id="layer1">
    <g
       transform="matrix(0,-0.16,-0.16,0,377.08,584.97477)"
       id="g5000">
      <path
         inkscape:connector-curvature="0"
         id="path5002"
         style="fill:none;stroke:#000000;stroke-width:6.25;stroke-linecap:round;stroke-linejoin:round;stroke-miterlimit:10;stroke-dasharray:none;stroke-opacity:1"
         d="M -370.4978,446.891 C -425.1349,401.5938 -471.0024,346.6613 -505.8245,284.819" />
    </g>
    <g
       transform="matrix(0,-0.16,-0.16,0,367.64,593.45477)"
       id="g5004">
      <path
         inkscape:connector-curvature="0"
         id="path5006"
         style="fill:none;stroke:#000000;stroke-width:6.25;stroke-linecap:round;stroke-linejoin:round;stroke-miterlimit:10;stroke-dasharray:none;stroke-opacity:1"
         d="M -139.5391,481.696 C -204.5687,462.8581 -265.1107,431.0479 -317.516,388.1828" />
    </g>
    <g
       transform="matrix(0,-0.16,-0.16,0,367.16,593.29477)"
       id="g5008">
      <path
         inkscape:connector-curvature="0"
         id="path5010"
         style="fill:none;stroke:#000000;stroke-width:6.25;stroke-linecap:round;stroke-linejoin:round;stroke-miterlimit:10;stroke-dasharray:none;stroke-opacity:1"
         d="m 59.88315,494.8901 c -67.3222,8.1462 -135.59862,2.471 -200.65195,-16.6784" />
    </g>
    <g
       transform="matrix(0,-0.16,-0.16,0,387.32,596.49477)"
       id="g5012">
      <path
         inkscape:connector-curvature="0"
         id="path5014"
         style="fill:none;stroke:#000000;stroke-width:6.25;stroke-linecap:round;stroke-linejoin:round;stroke-miterlimit:10;stroke-dasharray:none;stroke-opacity:1"
         d="m 276.573,562.1473 c -61.5785,30.2963 -127.7165,50.269 -195.7711,59.1202" />
    </g>
    <g
       transform="matrix(0,-0.16,-0.16,0,348.76,576.33477)"
       id="g5016">
      <path
         inkscape:connector-curvature="0"
         id="path5018"
         style="fill:none;stroke:#000000;stroke-width:6.25;stroke-linecap:round;stroke-linejoin:round;stroke-miterlimit:10;stroke-dasharray:none;stroke-opacity:1"
         d="m 275.749,222.1556 c -33.7708,41.6816 -76.6024,75.1619 -125.2569,97.91" />
    </g>
    <g
       transform="matrix(0,-0.16,-0.16,0,348.6,488.49477)"
       id="g5020">
      <path
         inkscape:connector-curvature="0"
         id="path5022"
         style="fill:none;stroke:#000000;stroke-width:6.25;stroke-linecap:round;stroke-linejoin:round;stroke-miterlimit:10;stroke-dasharray:none;stroke-opacity:1"
         d="m -153.0006,317.5643 c -47.0076,-22.648 -88.401,-55.4495 -121.1927,-96.0372" />
    </g>
    <g
       transform="matrix(0,-0.16,-0.16,0,387.48,467.69477)"
       id="g5024">
      <path
         inkscape:connector-curvature="0"
         id="path5026"
         style="fill:none;stroke:#000000;stroke-width:6.25;stroke-linecap:round;stroke-linejoin:round;stroke-miterlimit:10;stroke-dasharray:none;stroke-opacity:1"
         d="m -93.2039,620.5395 c -65.7792,-9.8799 -129.5692,-30.1558 -188.9809,-60.0683" />
    </g>
    <g
       transform="matrix(0,-0.16,-0.16,0,364.44,471.53477)"
       id="g5028">
      <path
         inkscape:connector-curvature="0"
         id="path5030"
         style="fill:none;stroke:#000000;stroke-width:6.25;stroke-linecap:round;stroke-linejoin:round;stroke-miterlimit:10;stroke-dasharray:none;stroke-opacity:1"
         d="M 126.8643,464.4865 C 62.823,481.978 -4.14347,486.0374 -69.82867,476.4097" />
    </g>
    <g
       transform="matrix(0,-0.16,-0.16,0,376.44,475.85477)"
       id="g5032">
      <path
         inkscape:connector-curvature="0"
         id="path5034"
         style="fill:none;stroke:#000000;stroke-width:6.25;stroke-linecap:round;stroke-linejoin:round;stroke-miterlimit:10;stroke-dasharray:none;stroke-opacity:1"
         d="M 333.2299,451.9293 C 279.2146,491.7575 218.4966,521.5797 153.9572,539.981" />
    </g>
    <g
       transform="matrix(0,-0.16,-0.16,0,370.52,469.45477)"
       id="g5036">
      <path
         inkscape:connector-curvature="0"
         id="path5038"
         style="fill:none;stroke:#000000;stroke-width:6.25;stroke-linecap:round;stroke-linejoin:round;stroke-miterlimit:10;stroke-dasharray:none;stroke-opacity:1"
         d="M 434.1371,264.2381 C 397.9583,323.4455 350.0049,374.6244 293.2368,414.6159" />
    </g>
    <g
       transform="matrix(0,-0.16,-0.16,0,372.44,475.69477)"
       id="g5040">
      <path
         inkscape:connector-curvature="0"
         id="path5042"
         style="fill:none;stroke:#000000;stroke-width:6.25;stroke-linecap:round;stroke-linejoin:round;stroke-miterlimit:10;stroke-dasharray:none;stroke-opacity:1"
         d="M 544.8316,63.21521 C 536.0938,138.2499 511.8947,210.6678 473.7567,275.914" />
    </g>
    <g
       transform="matrix(0.16,0,0,-0.16,-2138.68,1659.4547)"
       id="g5044">
      <path
         inkscape:connector-curvature="0"
         id="path5046"
         style="fill:none;stroke:#000000;stroke-width:6.25;stroke-linecap:round;stroke-linejoin:round;stroke-miterlimit:10;stroke-dasharray:none;stroke-opacity:1"
         d="m 15631,7942 0,-326" />
    </g>
    <g
       transform="matrix(0,-0.16,-0.16,0,371.96,473.29477)"
       id="g5048">
      <path
         inkscape:connector-curvature="0"
         id="path5050"
         style="fill:none;stroke:#000000;stroke-width:6.25;stroke-linecap:round;stroke-linejoin:round;stroke-miterlimit:10;stroke-dasharray:none;stroke-opacity:1"
         d="M 202.8521,59.86053 C 195.817,83.70065 184.6345,106.114 169.818,126.0718" />
    </g>
    <g
       transform="matrix(0,-0.16,-0.16,0,369.08,469.29477)"
       id="g5052">
      <path
         inkscape:connector-curvature="0"
         id="path5054"
         style="fill:none;stroke:#000000;stroke-width:6.25;stroke-linecap:round;stroke-linejoin:round;stroke-miterlimit:10;stroke-dasharray:none;stroke-opacity:1"
         d="M 145.3873,108.0512 C 130.9228,127.2998 112.7392,143.4825 91.90289,155.65" />
    </g>
    <g
       transform="matrix(0,-0.16,-0.16,0,373.72,472.01477)"
       id="g5056">
      <path
         inkscape:connector-curvature="0"
         id="path5058"
         style="fill:none;stroke:#000000;stroke-width:6.25;stroke-linecap:round;stroke-linejoin:round;stroke-miterlimit:10;stroke-dasharray:none;stroke-opacity:1"
         d="M 108.3286,185.1355 C 85.74162,198.3519 60.92677,207.3235 35.11015,211.607" />
    </g>
    <g
       transform="matrix(0,-0.16,-0.16,0,379.48,472.97477)"
       id="g5060">
      <path
         inkscape:connector-curvature="0"
         id="path5062"
         style="fill:none;stroke:#000000;stroke-width:6.25;stroke-linecap:round;stroke-linejoin:round;stroke-miterlimit:10;stroke-dasharray:none;stroke-opacity:1"
         d="m 41.42917,247.0504 c -27.70622,4.6462 -55.99663,4.5987 -83.6871,-0.1405" />
    </g>
    <g
       transform="matrix(0,-0.16,-0.16,0,373.72,473.93477)"
       id="g5064">
      <path
         inkscape:connector-curvature="0"
         id="path5066"
         style="fill:none;stroke:#000000;stroke-width:6.25;stroke-linecap:round;stroke-linejoin:round;stroke-miterlimit:10;stroke-dasharray:none;stroke-opacity:1"
         d="m -36.48895,211.3736 c -25.83583,-4.46 -50.6351,-13.6186 -73.16815,-27.0218" />
    </g>
    <g
       transform="matrix(0,-0.16,-0.16,0,369.72,476.33477)"
       id="g5068">
      <path
         inkscape:connector-curvature="0"
         id="path5070"
         style="fill:none;stroke:#000000;stroke-width:6.25;stroke-linecap:round;stroke-linejoin:round;stroke-miterlimit:10;stroke-dasharray:none;stroke-opacity:1"
         d="M -94.84691,159.4187 C -115.6277,147.055 -133.7909,130.7477 -148.3142,111.4144" />
    </g>
    <g
       transform="matrix(0,-0.16,-0.16,0,371.48,473.77477)"
       id="g5072">
      <path
         inkscape:connector-curvature="0"
         id="path5074"
         style="fill:none;stroke:#000000;stroke-width:6.25;stroke-linecap:round;stroke-linejoin:round;stroke-miterlimit:10;stroke-dasharray:none;stroke-opacity:1"
         d="m -163.858,122.3553 c -14.6832,-19.6638 -25.7072,-41.80991 -32.5446,-65.3792" />
    </g>
    <g
       transform="matrix(0.16,0,0,-0.16,-2138.68,1659.4547)"
       id="g5076">
      <path
         inkscape:connector-curvature="0"
         id="path5078"
         style="fill:none;stroke:#000000;stroke-width:6.25;stroke-linecap:round;stroke-linejoin:round;stroke-miterlimit:10;stroke-dasharray:none;stroke-opacity:1"
         d="m 15631,7214 0,-341" />
    </g>
    <g
       transform="matrix(0,-0.16,-0.16,0,380.28,602.89477)"
       id="g5080">
      <path
         inkscape:connector-curvature="0"
         id="path5082"
         style="fill:none;stroke:#000000;stroke-width:6.25;stroke-linecap:round;stroke-linejoin:round;stroke-miterlimit:10;stroke-dasharray:none;stroke-opacity:1"
         d="m 270.0843,112.2975 c -11.0231,26.5114 -25.8896,51.2554 -44.1211,73.4359" />
    </g>
    <g
       transform="matrix(0,-0.16,-0.16,0,370.52,591.05477)"
       id="g5084">
      <path
         inkscape:connector-curvature="0"
         id="path5086"
         style="fill:none;stroke:#000000;stroke-width:6.25;stroke-linecap:round;stroke-linejoin:round;stroke-miterlimit:10;stroke-dasharray:none;stroke-opacity:1"
         d="m 151.9443,124.6 c -15.7035,19.1499 -34.8855,35.1586 -56.53571,47.1832" />
    </g>
    <g
       transform="matrix(0,-0.16,-0.16,0,369.56,590.25477)"
       id="g5088">
      <path
         inkscape:connector-curvature="0"
         id="path5090"
         style="fill:none;stroke:#000000;stroke-width:6.25;stroke-linecap:round;stroke-linejoin:round;stroke-miterlimit:10;stroke-dasharray:none;stroke-opacity:1"
         d="m 90.62237,165.2871 c -21.3272,11.6932 -44.71583,19.1483 -68.87581,21.9543" />
    </g>
    <g
       transform="matrix(0,-0.16,-0.16,0,379.32,591.37477)"
       id="g5092">
      <path
         inkscape:connector-curvature="0"
         id="path5094"
         style="fill:none;stroke:#000000;stroke-width:6.25;stroke-linecap:round;stroke-linejoin:round;stroke-miterlimit:10;stroke-dasharray:none;stroke-opacity:1"
         d="m 28.51754,248.8715 c -26.49324,3.0357 -53.30128,1.8218 -79.41171,-3.5961" />
    </g>
    <g
       transform="matrix(0,-0.16,-0.16,0,374.04,592.65477)"
       id="g5096">
      <path
         inkscape:connector-curvature="0"
         id="path5098"
         style="fill:none;stroke:#000000;stroke-width:6.25;stroke-linecap:round;stroke-linejoin:round;stroke-miterlimit:10;stroke-dasharray:none;stroke-opacity:1"
         d="m -43.12728,212.2012 c -24.81378,-4.9968 -48.56064,-14.2675 -70.17102,-27.3945" />
    </g>
    <g
       transform="matrix(0,-0.16,-0.16,0,369.24,595.37477)"
       id="g5100">
      <path
         inkscape:connector-curvature="0"
         id="path5102"
         style="fill:none;stroke:#000000;stroke-width:6.25;stroke-linecap:round;stroke-linejoin:round;stroke-miterlimit:10;stroke-dasharray:none;stroke-opacity:1"
         d="M -95.67802,155.409 C -115.7106,143.0759 -133.1698,126.9861 -147.0945,108.0253" />
    </g>
    <g
       transform="matrix(0,-0.16,-0.16,0,371.8,591.85477)"
       id="g5104">
      <path
         inkscape:connector-curvature="0"
         id="path5106"
         style="fill:none;stroke:#000000;stroke-width:6.25;stroke-linecap:round;stroke-linejoin:round;stroke-miterlimit:10;stroke-dasharray:none;stroke-opacity:1"
         d="M -169.1057,123.6669 C -183.345,104.1958 -194.1145,82.41174 -200.9395,59.27521" />
    </g>
    <g
       transform="matrix(0.16,0,0,-0.16,-2138.68,1659.4547)"
       id="g5108">
      <path
         inkscape:connector-curvature="0"
         id="path5110"
         style="fill:none;stroke:#000000;stroke-width:6.25;stroke-linecap:round;stroke-linejoin:round;stroke-miterlimit:10;stroke-dasharray:none;stroke-opacity:1"
         d="m 15631,6471 0,-325" />
    </g>
    <g
       transform="matrix(0,-0.16,-0.16,0,373.08,592.65477)"
       id="g5112">
      <path
         inkscape:connector-curvature="0"
         id="path5114"
         style="fill:none;stroke:#000000;stroke-width:6.25;stroke-linecap:round;stroke-linejoin:round;stroke-miterlimit:10;stroke-dasharray:none;stroke-opacity:1"
         d="M -458.0261,259.6426 C -491.6622,200.3066 -513.4485,135.0001 -522.174,67.35389" />
    </g>
    <g
       transform="matrix(0,-0.16,-0.16,0,379.96,468.17477)"
       id="g5116">
      <path
         inkscape:connector-curvature="0"
         id="path5118"
         style="fill:none;stroke:#000000;stroke-width:6.25;stroke-linecap:round;stroke-linejoin:round;stroke-miterlimit:10;stroke-dasharray:none;stroke-opacity:1"
         d="m 351.026,-355.3604 c 41.5461,41.0395 75.5739,89.0464 100.5371,141.8399" />
    </g>
    <g
       transform="matrix(0,-0.16,-0.16,0,368.28,479.85477)"
       id="g5120">
      <path
         inkscape:connector-curvature="0"
         id="path5122"
         style="fill:none;stroke:#000000;stroke-width:6.25;stroke-linecap:round;stroke-linejoin:round;stroke-miterlimit:10;stroke-dasharray:none;stroke-opacity:1"
         d="m 274.7021,-536.2322 c 54.8941,28.1212 105.1447,64.5047 148.9952,107.8786" />
    </g>
    <g
       transform="matrix(0,-0.16,-0.16,0,385.72,470.73477)"
       id="g5124">
      <path
         inkscape:connector-curvature="0"
         id="path5126"
         style="fill:none;stroke:#000000;stroke-width:6.25;stroke-linecap:round;stroke-linejoin:round;stroke-miterlimit:10;stroke-dasharray:none;stroke-opacity:1"
         d="m 53.81096,-476.471 c 57.11744,6.4506 112.60974,23.1186 163.82834,49.2083" />
    </g>
    <g
       transform="matrix(0,-0.16,-0.16,0,377.88,471.69477)"
       id="g5128">
      <path
         inkscape:connector-curvature="0"
         id="path5130"
         style="fill:none;stroke:#000000;stroke-width:6.25;stroke-linecap:round;stroke-linejoin:round;stroke-miterlimit:10;stroke-dasharray:none;stroke-opacity:1"
         d="m -113.7672,-516.1097 c 57.2164,-12.6124 116.13174,-15.6228 174.33565,-8.9081" />
    </g>
    <g
       transform="matrix(0,-0.16,-0.16,0,366.36,468.81477)"
       id="g5132">
      <path
         inkscape:connector-curvature="0"
         id="path5134"
         style="fill:none;stroke:#000000;stroke-width:6.25;stroke-linecap:round;stroke-linejoin:round;stroke-miterlimit:10;stroke-dasharray:none;stroke-opacity:1"
         d="m -293.9839,-527.0538 c 50.5502,-28.1963 104.8939,-48.9736 161.3612,-61.6936" />
    </g>
    <g
       transform="matrix(0,-0.16,-0.16,0,403.16,490.09477)"
       id="g5136">
      <path
         inkscape:connector-curvature="0"
         id="path5138"
         style="fill:none;stroke:#000000;stroke-width:6.25;stroke-linecap:round;stroke-linejoin:round;stroke-miterlimit:10;stroke-dasharray:none;stroke-opacity:1"
         d="m -263.822,-210.4856 c 28.3207,-35.4971 63.5136,-64.914 103.4714,-86.489" />
    </g>
    <g
       transform="matrix(0,-0.16,-0.16,0,401.72,575.85477)"
       id="g5140">
      <path
         inkscape:connector-curvature="0"
         id="path5142"
         style="fill:none;stroke:#000000;stroke-width:6.25;stroke-linecap:round;stroke-linejoin:round;stroke-miterlimit:10;stroke-dasharray:none;stroke-opacity:1"
         d="m 152.0165,-313.5973 c 46.3595,22.4728 87.1599,54.9447 119.4639,95.0781" />
    </g>
    <g
       transform="matrix(0,-0.16,-0.16,0,363.32,596.49477)"
       id="g5144">
      <path
         inkscape:connector-curvature="0"
         id="path5146"
         style="fill:none;stroke:#000000;stroke-width:6.25;stroke-linecap:round;stroke-linejoin:round;stroke-miterlimit:10;stroke-dasharray:none;stroke-opacity:1"
         d="m 93.60885,-614.41 c 65.40605,9.965 128.80155,30.3097 187.79205,60.2658" />
    </g>
    <g
       transform="matrix(0,-0.16,-0.16,0,381.56,592.97477)"
       id="g5148">
      <path
         inkscape:connector-curvature="0"
         id="path5150"
         style="fill:none;stroke:#000000;stroke-width:6.25;stroke-linecap:round;stroke-linejoin:round;stroke-miterlimit:10;stroke-dasharray:none;stroke-opacity:1"
         d="M -123.2579,-491.2736 C -59.40864,-507.293 6.95105,-510.7125 72.10868,-501.3408" />
    </g>
    <g
       transform="matrix(0,-0.16,-0.16,0,381.56,593.29477)"
       id="g5152">
      <path
         inkscape:connector-curvature="0"
         id="path5154"
         style="fill:none;stroke:#000000;stroke-width:6.25;stroke-linecap:round;stroke-linejoin:round;stroke-miterlimit:10;stroke-dasharray:none;stroke-opacity:1"
         d="m -296.5135,-409.402 c 52.4559,-37.9917 111.7242,-65.5487 174.5805,-81.1717" />
    </g>
    <g
       transform="matrix(0,-0.16,-0.16,0,379.96,592.33477)"
       id="g5156">
      <path
         inkscape:connector-curvature="0"
         id="path5158"
         style="fill:none;stroke:#000000;stroke-width:6.25;stroke-linecap:round;stroke-linejoin:round;stroke-miterlimit:10;stroke-dasharray:none;stroke-opacity:1"
         d="m -442.2513,-266.8072 c 36.028,-59.7188 83.7776,-111.5223 140.3694,-152.2865" />
    </g>
    <g
       transform="matrix(0,-0.16,-0.16,0,370.52,574.89477)"
       id="g5160">
      <path
         inkscape:connector-curvature="0"
         id="path5162"
         style="fill:none;stroke:#000000;stroke-width:6.25;stroke-linecap:round;stroke-linejoin:round;stroke-miterlimit:10;stroke-dasharray:none;stroke-opacity:1"
         d="m -631.4753,-107.1407 c 13.1163,-77.3062 40.3161,-151.5469 80.2463,-219.0293" />
    </g>
    <g
       transform="matrix(0.16,0,0,-0.16,-2138.68,1659.4547)"
       id="g5164">
      <path
         inkscape:connector-curvature="0"
         id="path5166"
         style="fill:none;stroke:#000000;stroke-width:6.25;stroke-linecap:round;stroke-linejoin:round;stroke-miterlimit:10;stroke-dasharray:none;stroke-opacity:1"
         d="m 15789,6146 0,325" />
    </g>
    <g
       transform="matrix(0,-0.16,-0.16,0,376.92,590.25477)"
       id="g5168">
      <path
         inkscape:connector-curvature="0"
         id="path5170"
         style="fill:none;stroke:#000000;stroke-width:6.25;stroke-linecap:round;stroke-linejoin:round;stroke-miterlimit:10;stroke-dasharray:none;stroke-opacity:1"
         d="m -211.1573,-66.89432 c 7.2524,-22.89274 18.1793,-44.45378 32.3528,-63.83898" />
    </g>
    <g
       transform="matrix(0,-0.16,-0.16,0,380.76,595.21477)"
       id="g5172">
      <path
         inkscape:connector-curvature="0"
         id="path5174"
         style="fill:none;stroke:#000000;stroke-width:6.25;stroke-linecap:round;stroke-linejoin:round;stroke-miterlimit:10;stroke-dasharray:none;stroke-opacity:1"
         d="m -147.9084,-106.9081 c 13.8841,-19.2089 31.377,-35.5293 51.50135,-48.0497" />
    </g>
    <g
       transform="matrix(0,-0.16,-0.16,0,375.48,592.65477)"
       id="g5176">
      <path
         inkscape:connector-curvature="0"
         id="path5178"
         style="fill:none;stroke:#000000;stroke-width:6.25;stroke-linecap:round;stroke-linejoin:round;stroke-miterlimit:10;stroke-dasharray:none;stroke-opacity:1"
         d="m -112.9358,-188.2173 c 22.04744,-13.2291 46.24774,-22.4817 71.49722,-27.3357" />
    </g>
    <g
       transform="matrix(0,-0.16,-0.16,0,370.84,591.37477)"
       id="g5180">
      <path
         inkscape:connector-curvature="0"
         id="path5182"
         style="fill:none;stroke:#000000;stroke-width:6.25;stroke-linecap:round;stroke-linejoin:round;stroke-miterlimit:10;stroke-dasharray:none;stroke-opacity:1"
         d="m -49.40211,-243.58 c 26.02643,-5.2363 52.72523,-6.3013 79.08873,-3.1547" />
    </g>
    <g
       transform="matrix(0,-0.16,-0.16,0,380.76,590.09477)"
       id="g5184">
      <path
         inkscape:connector-curvature="0"
         id="path5186"
         style="fill:none;stroke:#000000;stroke-width:6.25;stroke-linecap:round;stroke-linejoin:round;stroke-miterlimit:10;stroke-dasharray:none;stroke-opacity:1"
         d="m 22.24386,-185.1687 c 24.27488,2.916 47.73951,10.5767 69.05868,22.5461" />
    </g>
    <g
       transform="matrix(0,-0.16,-0.16,0,379,591.53477)"
       id="g5188">
      <path
         inkscape:connector-curvature="0"
         id="path5190"
         style="fill:none;stroke:#000000;stroke-width:6.25;stroke-linecap:round;stroke-linejoin:round;stroke-miterlimit:10;stroke-dasharray:none;stroke-opacity:1"
         d="m 99.84464,-173.8715 c 21.64426,12.4291 40.77766,28.7902 56.41656,48.2423" />
    </g>
    <g
       transform="matrix(0,-0.16,-0.16,0,371,601.13477)"
       id="g5192">
      <path
         inkscape:connector-curvature="0"
         id="path5194"
         style="fill:none;stroke:#000000;stroke-width:6.25;stroke-linecap:round;stroke-linejoin:round;stroke-miterlimit:10;stroke-dasharray:none;stroke-opacity:1"
         d="m 217.0559,-176.088 c 17.5225,21.5992 31.7228,45.6927 42.1319,71.4843" />
    </g>
    <g
       transform="matrix(0.16,0,0,-0.16,-2138.68,1659.4547)"
       id="g5196">
      <path
         inkscape:connector-curvature="0"
         id="path5198"
         style="fill:none;stroke:#000000;stroke-width:6.25;stroke-linecap:round;stroke-linejoin:round;stroke-miterlimit:10;stroke-dasharray:none;stroke-opacity:1"
         d="m 15789,6873 0,340" />
    </g>
    <g
       transform="matrix(0,-0.16,-0.16,0,377.88,473.29477)"
       id="g5200">
      <path
         inkscape:connector-curvature="0"
         id="path5202"
         style="fill:none;stroke:#000000;stroke-width:6.25;stroke-linecap:round;stroke-linejoin:round;stroke-miterlimit:10;stroke-dasharray:none;stroke-opacity:1"
         d="m -199.4465,-60.77298 c 7.0719,-23.20866 18.1403,-45.00492 32.707,-64.40762" />
    </g>
    <g
       transform="matrix(0,-0.16,-0.16,0,379.64,475.69477)"
       id="g5204">
      <path
         inkscape:connector-curvature="0"
         id="path5206"
         style="fill:none;stroke:#000000;stroke-width:6.25;stroke-linecap:round;stroke-linejoin:round;stroke-miterlimit:10;stroke-dasharray:none;stroke-opacity:1"
         d="m -152.4215,-114.2714 c 14.6156,-19.495 32.8354,-36.0053 53.67154,-48.6356" />
    </g>
    <g
       transform="matrix(0,-0.16,-0.16,0,376.76,474.09477)"
       id="g5208">
      <path
         inkscape:connector-curvature="0"
         id="path5210"
         style="fill:none;stroke:#000000;stroke-width:6.25;stroke-linecap:round;stroke-linejoin:round;stroke-miterlimit:10;stroke-dasharray:none;stroke-opacity:1"
         d="m -108.9761,-181.2635 c 22.51187,-13.5342 47.34791,-22.7565 73.23729,-27.1951" />
    </g>
    <g
       transform="matrix(0,-0.16,-0.16,0,370.52,472.97477)"
       id="g5212">
      <path
         inkscape:connector-curvature="0"
         id="path5214"
         style="fill:none;stroke:#000000;stroke-width:6.25;stroke-linecap:round;stroke-linejoin:round;stroke-miterlimit:10;stroke-dasharray:none;stroke-opacity:1"
         d="m -42.1414,-247.9443 c 27.60698,-4.6921 55.80377,-4.7408 83.42678,-0.1439" />
    </g>
    <g
       transform="matrix(0,-0.16,-0.16,0,376.12,472.01477)"
       id="g5216">
      <path
         inkscape:connector-curvature="0"
         id="path5218"
         style="fill:none;stroke:#000000;stroke-width:6.25;stroke-linecap:round;stroke-linejoin:round;stroke-miterlimit:10;stroke-dasharray:none;stroke-opacity:1"
         d="m 35.25346,-211.6104 c 25.80036,4.2585 50.60651,13.1559 73.20554,26.2572" />
    </g>
    <g
       transform="matrix(0,-0.16,-0.16,0,380.76,469.29477)"
       id="g5220">
      <path
         inkscape:connector-curvature="0"
         id="path5222"
         style="fill:none;stroke:#000000;stroke-width:6.25;stroke-linecap:round;stroke-linejoin:round;stroke-miterlimit:10;stroke-dasharray:none;stroke-opacity:1"
         d="m 91.49744,-156.7497 c 20.86796,12.181 39.09356,28.4061 53.60816,47.7239" />
    </g>
    <g
       transform="matrix(0,-0.16,-0.16,0,378.04,473.13477)"
       id="g5224">
      <path
         inkscape:connector-curvature="0"
         id="path5226"
         style="fill:none;stroke:#000000;stroke-width:6.25;stroke-linecap:round;stroke-linejoin:round;stroke-miterlimit:10;stroke-dasharray:none;stroke-opacity:1"
         d="m 169.3454,-126.7059 c 14.9972,20.0441 26.3168,42.59144 33.4319,66.59259" />
    </g>
    <g
       transform="matrix(0.16,0,0,-0.16,-2138.68,1659.4547)"
       id="g5228">
      <path
         inkscape:connector-curvature="0"
         id="path5230"
         style="fill:none;stroke:#000000;stroke-width:6.25;stroke-linecap:round;stroke-linejoin:round;stroke-miterlimit:10;stroke-dasharray:none;stroke-opacity:1"
         d="m 15789,7616 0,327" />
    </g>
    <g
       transform="matrix(0,-0.16,-0.16,0,379,470.57477)"
       id="g5232">
      <path
         inkscape:connector-curvature="0"
         id="path5234"
         style="fill:none;stroke:#000000;stroke-width:6.25;stroke-linecap:round;stroke-linejoin:round;stroke-miterlimit:10;stroke-dasharray:none;stroke-opacity:1"
         d="m 466.323,-219.7343 c 24.5861,52.1772 40.2413,108.1106 46.3129,165.46978" />
    </g>
  </g>
</svg>
