<?xml version="1.0" encoding="UTF-8" standalone="no"?>
<svg
   xmlns:dc="http://purl.org/dc/elements/1.1/"
   xmlns:cc="http://creativecommons.org/ns#"
   xmlns:rdf="http://www.w3.org/1999/02/22-rdf-syntax-ns#"
   xmlns:svg="http://www.w3.org/2000/svg"
   xmlns="http://www.w3.org/2000/svg"
   width="1024"
   height="1024"
   viewBox="0 0 1024 1024"
   id="svg10390"
   version="1.1">
  <defs
     id="defs10392" />
  <metadata
     id="metadata10395">
    <rdf:RDF>
      <cc:Work
         rdf:about="">
        <dc:format>image/svg+xml</dc:format>
        <dc:type
           rdf:resource="http://purl.org/dc/dcmitype/StillImage" />
        <dc:title></dc:title>
      </cc:Work>
    </rdf:RDF>
  </metadata>
  <path
     id="path6966"
     style="fill:#000000;fill-opacity:1;fill-rule:evenodd;stroke:#000000;stroke-width:1.47568715;stroke-linecap:butt;stroke-linejoin:bevel;stroke-miterlimit:10;stroke-dasharray:none;stroke-opacity:1"
     d="m 382.9922,651.4348 c 3.1246,-2.34143 6.2472,-4.73598 8.3663,-6.46745 2.121,-1.78853 3.2347,-2.78806 4.2381,-3.79153 1.0054,-0.95232 1.8417,-1.84165 2.6778,-2.73495 l -15.2822,-18.01321 0,-281.04561 c 8.5885,-7.80933 15.7289,-16.73429 20.3035,-26.2141 4.5728,-9.48178 6.5797,-19.52038 7.0262,-27.88851 0.4467,-8.923 -0.726,-16.17354 -2.8451,-22.30845 -2.1191,-6.69176 -5.2986,-11.71302 -9.4817,-16.17748 -4.1261,-4.4605 -9.3126,-8.36221 -15.0029,-11.15225 l 0,-115.44988 c 26.3815,4.45657 52.261,12.82273 72.7298,23.97892 20.4688,10.59936 35.5838,23.98483 47.8537,39.5976 12.3268,15.62064 21.8638,33.46859 28.223,53.5458 6.3572,20.07525 9.5919,42.38764 9.0902,62.46485 -0.4467,20.63797 -4.6297,39.04274 -12.7716,57.44949 -8.1438,18.40477 -20.1894,36.80954 -37.4804,54.10065 -17.2892,17.28915 -39.8221,33.46663 -64.1965,45.73646 l 69.5503,83.60457 c 4.4053,-6.52647 8.2539,-13.3284 11.5457,-20.58092 3.3469,-7.25054 6.0799,-14.50305 8.254,-22.31239 2.121,-7.25054 3.6814,-15.05593 4.6849,-22.86725 l 137.2054,0 c -1.4502,15.06382 -4.128,29.56295 -8.0868,44.06008 -3.9057,14.50305 -9.0371,29.17139 -15.3393,43.06055 -6.3021,13.94624 -13.775,27.44188 -22.3084,40.26855 -8.4783,12.77159 -18.0723,24.87616 -28.5025,36.14253 l 140.999,163.52975 -194.5979,0 -46.9603,-56.38699 c -7.585,6.41236 -15.4514,12.49612 -23.5934,18.12538 -8.0867,5.68828 -16.5079,10.98697 -24.9311,15.73082 -8.4764,4.79697 -16.9548,9.03515 -25.4881,12.82667 -8.5334,3.78957 -17.1219,7.14037 -25.8797,10.03862 l 0,-150.87032" />
  <path
     id="path6968"
     style="fill:#000000;fill-opacity:1;fill-rule:evenodd;stroke:#000000;stroke-width:1.47568715;stroke-linecap:butt;stroke-linejoin:bevel;stroke-miterlimit:10;stroke-dasharray:none;stroke-opacity:1"
     d="m 320.85987,815.46825 c -32.73856,1.73146 -65.81166,-1.45012 -95.03809,-8.81281 -29.16947,-7.41975 -54.49019,-19.01865 -75.07308,-32.84879 -20.57904,-13.83408 -36.41804,-29.84234 -49.13654,-48.86099 -12.77148,-19.07571 -22.36552,-41.21496 -28.16585,-64.13927 -5.74338,-22.92234 -7.69527,-46.62581 -5.85553,-68.3794 1.84166,-21.8087 7.4748,-41.55339 17.84785,-61.74079 10.37319,-20.07918 25.48806,-40.71322 48.18812,-60.7983 22.70005,-20.07525 52.92995,-39.59564 85.11173,-54.09869 -19.24296,-20.07525 -35.19411,-44.06009 -45.01038,-65.81172 -9.81627,-22.31239 -13.49575,-42.94643 -14.05444,-61.90802 -0.50173,-18.96357 2.0639,-35.69786 8.25396,-52.98503 6.19198,-17.29113 16.00825,-35.13906 29.33666,-50.75577 13.27528,-15.61671 30.11966,-29.55901 51.20236,-41.27202 21.0827,-11.1562 46.40343,-20.07918 72.39323,-24.53969 l 0,122.14164 c -5.01926,3.34685 -9.31454,8.36813 -12.54924,13.94623 -3.28975,5.5781 -5.46388,11.71301 -6.35726,18.96159 -0.89132,7.80736 -0.44655,16.73429 2.67793,26.77289 3.06751,9.48179 8.86784,20.63405 16.22857,30.11582 l 0,216.74106 -22.25336,-25.98981 c -9.87132,4.46052 -19.41016,9.47982 -27.94155,15.44553 -8.53537,5.74928 -16.06344,11.88027 -21.80874,17.29112 -5.74337,5.40889 -9.75916,10.03861 -12.99593,14.55421 -3.28975,4.46444 -5.80034,8.81477 -7.86438,13.21822 -2.06198,4.40935 -3.73644,8.9289 -4.96229,13.49959 -1.22778,4.62973 -2.00886,9.31453 -2.39844,14.11151 0.22239,8.59243 1.95189,17.23602 5.07445,25.26376 3.06736,8.0356 7.52984,15.50652 13.49752,22.19827 5.96768,6.69568 13.38551,12.6063 22.47766,17.40131 9.03519,4.85206 19.68774,8.53733 29.89359,10.43408 10.15066,1.89478 19.85685,2.00693 29.28147,0.49781 l 0,130.34646" />
</svg>
