<?xml version="1.0" encoding="UTF-8" standalone="no"?>
<svg
   xmlns:dc="http://purl.org/dc/elements/1.1/"
   xmlns:cc="http://creativecommons.org/ns#"
   xmlns:rdf="http://www.w3.org/1999/02/22-rdf-syntax-ns#"
   xmlns:svg="http://www.w3.org/2000/svg"
   xmlns="http://www.w3.org/2000/svg"
   width="1024"
   height="1024"
   viewBox="0 0 1024 1024"
   id="svg10390"
   version="1.1">
  <defs
     id="defs10392" />
  <metadata
     id="metadata10395">
    <rdf:RDF>
      <cc:Work
         rdf:about="">
        <dc:format>image/svg+xml</dc:format>
        <dc:type
           rdf:resource="http://purl.org/dc/dcmitype/StillImage" />
        <dc:title></dc:title>
      </cc:Work>
    </rdf:RDF>
  </metadata>
  <path
     id="path6954"
     style="fill:#000000;fill-opacity:1;fill-rule:evenodd;stroke:none;stroke-width:1.33333325"
     d="m 381.80707,624.66392 c -4.83733,5.06534 -10.09067,9.752 -15.19333,13.60667 -5.064,3.85333 -9.94,6.87867 -15.04133,9.52533 -5.104,2.64534 -10.432,4.91333 -16.744,6.95333 -6.27467,2.004 -13.568,3.78 -21.01467,4.98934 -7.48267,1.17066 -15.11733,1.77466 -22.75333,1.73733 -15.344,0 -30.72667,-2.15467 -43.388,-5.85733 -12.624,-3.70267 -22.52667,-8.95733 -31.14267,-15.232 -8.58,-6.27333 -15.83733,-13.568 -22.224,-22.45067 -6.388,-8.84533 -11.90666,-19.34933 -15.836,-33.33466 -3.932,-13.608 -6.23733,-30.992 -6.27466,-48 0.30266,-30.23467 6.048,-60.47333 16.1,-86.17467 10.05466,-25.32266 24.45466,-46.11066 40.89466,-62.74 16.44133,-16.63066 34.96133,-29.10266 54.652,-37.41599 19.692,-7.93734 40.63067,-12.09467 61.53067,-12.09467 7.144,0 14.32533,0.75467 20.93866,1.888 6.61467,1.13467 12.624,2.64667 18.06667,4.53733 5.44266,1.888 10.31866,4.15467 14.92933,6.80267 4.61067,3.02267 9.032,6.04667 13.152,9.44667 4.12,3.40266 7.97467,7.56 11.45333,11.71866 l 11.376,-22.67866 71.924,0 -52.95066,209.38532 c -0.53067,1.89334 -0.94534,4.16 -1.28534,6.05067 -0.37866,2.26667 -0.60533,4.15733 -0.756,5.66667 -0.15066,1.51333 -0.22666,3.02533 -0.22666,4.16 0.0373,2.64266 0.34,5.288 0.79333,7.18 0.45333,1.51066 1.096,3.02266 1.776,3.78 0.68133,1.13333 1.39867,1.888 2.496,2.64533 1.05733,0.37733 2.49333,1.132 4.76133,1.89067 2.268,0.37733 5.36667,0.75466 8.46534,0.75466 8.69333,0 17.27333,-1.888 27.93066,-7.56 10.65867,-5.29066 23.396,-13.60533 35.944,-27.21333 12.548,-13.22667 24.90667,-31.36667 33.448,-52.53466 8.54267,-21.16534 13.26667,-45.352 13.38,-69.16534 0.11467,-23.80933 -4.34533,-47.62133 -12.62267,-68.02933 -8.27733,-20.788 -20.33466,-38.17466 -36.73733,-54.048 -16.36667,-15.87466 -37.07733,-30.23733 -65.23466,-40.82 -28.196,-10.20533 -63.87467,-16.62933 -99.32667,-16.62933 -20.22,0 -40.47866,1.88933 -57.864,4.53466 -17.38666,3.02534 -31.86266,7.18267 -45.808,12.472 -13.94666,4.916 -27.32533,11.34 -40.10133,18.89867 -29.48,17.764 -55.672,41.19734 -75.74133,67.65467 -20.06933,26.45466 -34.016,55.56 -41.80133,88.06266 -7.786656,32.124 -9.411996,67.27467 -6.350656,97.512 3.062656,30.23467 10.847986,55.18 23.850656,77.70533 12.964,22.52667 31.14266,42.48267 52.572,57.90267 20.06933,15.344 42.82266,27.1 70.82933,35.75466 27.96666,8.692 61.18933,14.288 96.79333,14.13467 35.60266,-0.18933 73.54933,-6.16 109.03866,-17.87467 35.452,-11.71733 68.40933,-29.18 97.70133,-51.44 l 34.80934,51.552 c -33.71334,27.44 -72.03867,49.28269 -112.06267,63.75999 -39.98666,14.4773 -81.752,21.5827 -125.17733,21.96 -43.428,0.34 -88.59333,-6.084 -126.27599,-17.16 -37.71867,-11.112 -67.99334,-26.8347 -94.37334,-47.69732 -24.41599,-19.23733 -46.110656,-42.10533 -62.325316,-65.04533 -16.176,-22.98133 -26.872,-46.072 -34.28,-75.17467 -7.408,-29.10533 -11.56534,-64.252 -10.05334,-98.64533 1.47467,-34.39466 8.57867,-67.65466 20.56,-98.644 11.944,-30.99333 28.76267,-59.71733 49.664,-85.03999 12.321336,-15.49867 26.002666,-29.48267 40.818656,-42.33067 14.816,-12.852 30.76534,-24.18933 47.62267,-34.39467 16.81733,-9.828 34.544,-18.52 54.19733,-25.70266 19.692,-7.18 41.348,-13.228 64.404,-17.008 23.092,-4.15734 47.584,-6.424 72.11333,-6.424 21.12667,0 42.292,1.88933 61.87067,4.91466 19.57866,3.4 37.60666,7.93467 54.00933,13.60534 16.36533,5.292 31.10533,11.71733 44.296,18.89733 13.19066,6.80267 24.79333,14.36267 35.716,22.67733 24.30266,18.89733 45.468,42.332 60.776,66.14 15.30666,24.18934 24.75599,49.13734 29.29066,77.10533 4.53467,28.344 4.15733,60.092 -1.096,89.952 -5.216,29.85734 -15.34533,58.20533 -29.51866,82.392 -14.17334,24.19067 -32.428,44.97867 -53.85867,61.15333 -17.64933,13.984 -37.79467,24.90667 -58.50667,31.63733 -20.67333,6.72534 -41.99066,9.18267 -58.80933,8.992 -16.856,-0.22533 -29.25333,-3.1 -38.77733,-6.87733 -9.524,-3.74267 -16.13867,-8.31466 -21.43067,-13.492 -5.29066,-5.14 -9.26,-10.888 -11.98133,-17.16" />
  <path
     id="path6956"
     style="fill:#000000;fill-opacity:1;fill-rule:evenodd;stroke:none;stroke-width:1.33333325"
     d="m 398.62574,450.05059 c -1.964,-9.072 -5.44134,-17.764 -9.372,-24.18933 -3.93067,-6.42533 -8.35334,-10.96267 -13.41734,-13.98533 -5.028,-3.40267 -10.65866,-5.66934 -17.61333,-6.80267 -6.992,-1.13467 -15.30666,-1.512 -23.99866,0.37733 -8.656,1.89067 -17.652,5.29067 -26.836,11.716 -9.22134,6.42667 -18.63334,15.49734 -27.06134,28.34667 -8.39066,12.85067 -15.836,29.86 -20.22,48 -4.42266,18.14 -5.78266,37.41733 -4.98933,51.78 0.832,13.98266 3.81733,22.3 7.068,28.72533 3.24933,6.048 6.728,9.82533 10.73333,13.228 3.96934,3.02267 8.504,5.28933 14.77867,6.804 6.27333,1.51067 14.36133,2.268 22.752,1.13333 8.39067,-1.13333 17.084,-4.15733 25.77733,-9.07066 8.65467,-4.53734 17.30934,-11.34 25.02,-21.92267 7.672,-10.58133 14.77733,-24.564 18.55733,-39.684 l 18.82134,-74.456" />
</svg>
