<?xml version="1.0" encoding="UTF-8" standalone="no"?>
<svg
   xmlns:dc="http://purl.org/dc/elements/1.1/"
   xmlns:cc="http://creativecommons.org/ns#"
   xmlns:rdf="http://www.w3.org/1999/02/22-rdf-syntax-ns#"
   xmlns:svg="http://www.w3.org/2000/svg"
   xmlns="http://www.w3.org/2000/svg"
   xmlns:sodipodi="http://sodipodi.sourceforge.net/DTD/sodipodi-0.dtd"
   xmlns:inkscape="http://www.inkscape.org/namespaces/inkscape"
   width="1024"
   height="1024"
   viewBox="0 0 1024 1024"
   id="svg10390"
   version="1.1"
   inkscape:version="0.91 r13725"
   sodipodi:docname="Bracket.svg">
  <sodipodi:namedview
     pagecolor="#ffffff"
     bordercolor="#666666"
     borderopacity="1"
     objecttolerance="10"
     gridtolerance="10"
     guidetolerance="10"
     inkscape:pageopacity="0"
     inkscape:pageshadow="2"
     inkscape:window-width="640"
     inkscape:window-height="480"
     id="namedview7"
     showgrid="false"
     inkscape:zoom="0.23046875"
     inkscape:cx="512"
     inkscape:cy="512"
     inkscape:window-x="0"
     inkscape:window-y="0"
     inkscape:window-maximized="0"
     inkscape:current-layer="svg10390" />
  <defs
     id="defs10392" />
  <metadata
     id="metadata10395">
    <rdf:RDF>
      <cc:Work
         rdf:about="">
        <dc:format>image/svg+xml</dc:format>
        <dc:type
           rdf:resource="http://purl.org/dc/dcmitype/StillImage" />
        <dc:title></dc:title>
      </cc:Work>
    </rdf:RDF>
  </metadata>
  <path
     d="m 544.9815,725.3509 0,65.7975 c -20.9063,-6.9462 -40.9963,-16.7275 -56.5875,-27.25 -15.59,-10.4862 -26.68,-21.72 -36.425,-34.6525 -9.7438,-12.9687 -18.1063,-27.6 -24.0938,-48.1175 -5.9887,-20.5175 -9.6025,-46.88 -9.6025,-73.0262 l 0,-226.77501 c 0,-25.155 4.2513,-50.3125 8.8225,-70.51125 5.705,-20.19625 13.8538,-35.4325 23.5625,-48.8975 9.7088,-13.465 21.0113,-25.155 36.8513,-35.78625 15.8375,-10.98625 36.2125,-20.905 57.4725,-27.9925 l 0,65.19875 c -4.43,2.83125 -8.6463,6.02125 -12.58,9.21125 -3.9325,3.54375 -7.5463,7.085 -10.77,10.9825 -3.225,3.9 -5.9888,8.15125 -8.54,12.40375 -2.5863,4.605 -4.89,9.56625 -6.9813,15.23625 -2.125,5.315 -4.0025,11.6925 -5.4562,20.90625 -1.4875,8.8575 -2.7638,20.90375 -2.7638,32.59625 l 0,258.59121 c 0,10.6988 1.17,21.4013 2.2325,30.1525 1.2763,8.7888 3.0475,15.6638 5.1025,21.6863 2.09,6.0587 4.465,11.3037 7.05,16.0175 2.6225,4.7462 5.4225,8.9625 8.6825,13.0387 3.26,4.0725 6.98,7.935 11.0188,11.515 4.0412,3.5788 8.3975,6.8013 13.005,9.675"
     style="fill:#000000;fill-opacity:1;fill-rule:evenodd;stroke:none"
     id="path42"
     inkscape:connector-curvature="0" />
</svg>
