<?xml version="1.0" encoding="UTF-8" standalone="no"?>
<svg
   xmlns:dc="http://purl.org/dc/elements/1.1/"
   xmlns:cc="http://creativecommons.org/ns#"
   xmlns:rdf="http://www.w3.org/1999/02/22-rdf-syntax-ns#"
   xmlns:svg="http://www.w3.org/2000/svg"
   xmlns="http://www.w3.org/2000/svg"
   version="1.1"
   id="svg10390"
   viewBox="0 0 1024 1024"
   height="1024"
   width="1024">
  <defs
     id="defs10392" />
  <metadata
     id="metadata10395">
    <rdf:RDF>
      <cc:Work
         rdf:about="">
        <dc:format>image/svg+xml</dc:format>
        <dc:type
           rdf:resource="http://purl.org/dc/dcmitype/StillImage" />
        <dc:title></dc:title>
      </cc:Work>
    </rdf:RDF>
  </metadata>
  <path
     id="path62"
     style="fill:#000000;fill-opacity:1;fill-rule:evenodd;stroke:none"
     d="m 523.75008,244.12891 0,33.66125 c 16.61875,3.1875 32.88125,8.85875 45.07125,14.8825 12.18875,6.02125 20.2675,13.10875 28.94875,23.74 8.71625,10.62875 18.07,25.1575 23.9875,37.55875 5.9175,12.75375 8.43375,23.03125 8.7875,33.66 l -87.8375,17.3625 c -0.1075,-3.8975 -0.5675,-7.795 -1.34875,-11.33875 -0.7775,-3.54375 -1.80625,-6.73375 -3.08125,-9.565 -1.275,-2.83625 -2.72875,-5.67125 -4.2875,-7.7975 -1.5225,-2.125 -3.1175,-4.25125 -4.81875,-5.6675 -1.70125,-1.77375 -3.5075,-3.18875 -5.42125,-4.25125 l 0,87.8725 c 27.03625,8.85875 52.9725,21.9675 70.83,35.07875 17.895,13.465 27.67375,26.57504 34.9375,40.04004 7.26375,13.4625 11.97625,27.035 13.2875,43.2987 1.27625,16.2638 -0.88625,35.3275 -6.37875,53.8925 -5.49125,18.5675 -14.34875,36.605 -25.3325,51.0613 -10.98625,14.4912 -24.09625,25.37 -38.9425,33.695 -14.84625,8.2925 -31.39375,14.0325 -48.40125,16.69 l 0,34.5125 -48.225,0 0,-34.1588 c -17.4325,-3.0112 -34.44125,-8.5725 -48.40125,-15.555 -13.96,-6.9825 -24.83875,-15.4125 -34.65375,-25.83 -9.81375,-10.3837 -18.56625,-22.7837 -25.05125,-36.2487 -6.48375,-13.5 -10.735,-28.0975 -12.61375,-42.945 l 89.50375,-17.0788 c -0.35375,5.7025 0.2125,11.445 1.66625,16.9363 1.48625,5.4937 3.8625,10.7012 6.4825,14.9525 2.58875,4.2162 5.38625,7.515 9.21375,10.5937 3.8275,3.05 8.68,5.9188 13.85375,8.0438 l 0,-113.9875 c -22.8175,-8.1475 -44.7525,-19.13254 -59.56375,-29.41004 -14.81125,-10.62875 -22.49875,-20.19625 -29.55,-34.36875 -7.015,-13.81875 -13.3925,-32.245 -16.1575,-47.83625 -2.8,-15.94125 -2.02,-28.70125 2.2675,-43.58125 4.2525,-15.2375 11.94125,-32.95375 19.8075,-45.7075 7.86625,-12.7575 15.8375,-20.5525 29.6575,-28.7025 13.78375,-7.795 33.4125,-15.94375 53.53875,-20.90625 l 0,-32.59625 48.225,0" />
</svg>
