<?xml version="1.0" encoding="UTF-8" standalone="no"?>
<svg
   xmlns:dc="http://purl.org/dc/elements/1.1/"
   xmlns:cc="http://creativecommons.org/ns#"
   xmlns:rdf="http://www.w3.org/1999/02/22-rdf-syntax-ns#"
   xmlns:svg="http://www.w3.org/2000/svg"
   xmlns="http://www.w3.org/2000/svg"
   width="1024"
   height="1024"
   viewBox="0 0 1024 1024"
   id="svg10390"
   version="1.1">
  <defs
     id="defs10392" />
  <metadata
     id="metadata10395">
    <rdf:RDF>
      <cc:Work
         rdf:about="">
        <dc:format>image/svg+xml</dc:format>
        <dc:type
           rdf:resource="http://purl.org/dc/dcmitype/StillImage" />
        <dc:title></dc:title>
      </cc:Work>
    </rdf:RDF>
  </metadata>
  <g
     transform="matrix(2.8620413,0,0,2.8620413,-232.15704,-911.57731)"
     id="g6513">
    <g
       transform="matrix(0.15,0,0,-0.15,-2381.5807,2248.4076)"
       id="g448">
      <path
         id="path450"
         style="fill:none;stroke:#000000;stroke-width:6.66666651;stroke-linecap:round;stroke-linejoin:round;stroke-miterlimit:10;stroke-dasharray:none;stroke-opacity:1"
         d="m 17161,12591 0,-327" />
    </g>
    <g
       transform="matrix(0,-0.15,-0.15,0,171.94431,458.23267)"
       id="g452">
      <path
         id="path454"
         style="fill:none;stroke:#000000;stroke-width:6.66666651;stroke-linecap:round;stroke-linejoin:round;stroke-miterlimit:10;stroke-dasharray:none;stroke-opacity:1"
         d="m 303.2575,-189.3176 c 10.285,16.475 19.2103,33.7606 26.6874,51.6854" />
    </g>
    <g
       transform="matrix(0,-0.15,-0.15,0,192.49431,425.68267)"
       id="g456">
      <path
         id="path458"
         style="fill:none;stroke:#000000;stroke-width:6.66666651;stroke-linecap:round;stroke-linejoin:round;stroke-miterlimit:10;stroke-dasharray:none;stroke-opacity:1"
         d="m 45.92216,-90.51743 c 16.62151,8.43258 30.60023,21.27903 40.40349,37.13081" />
    </g>
    <g
       transform="matrix(0,-0.15,-0.15,0,191.29431,425.53267)"
       id="g460">
      <path
         id="path462"
         style="fill:none;stroke:#000000;stroke-width:6.66666651;stroke-linecap:round;stroke-linejoin:round;stroke-miterlimit:10;stroke-dasharray:none;stroke-opacity:1"
         d="m 15.87547,-106.3213 c 10.00271,1.4936 19.74461,4.3912 28.93755,8.60721" />
    </g>
    <g
       transform="matrix(0,-0.15,-0.15,0,161.14431,429.73267)"
       id="g464">
      <path
         id="path466"
         style="fill:none;stroke:#000000;stroke-width:6.66666651;stroke-linecap:round;stroke-linejoin:round;stroke-miterlimit:10;stroke-dasharray:none;stroke-opacity:1"
         d="m -8.69136,-310.3783 c 17.59707,-0.4928 35.20417,0.5118 52.63098,3.003" />
    </g>
    <g
       transform="matrix(0.15,0,0,-0.15,-2381.5807,2248.4076)"
       id="g468">
      <path
         id="path470"
         style="fill:none;stroke:#000000;stroke-width:6.66666651;stroke-linecap:round;stroke-linejoin:round;stroke-miterlimit:10;stroke-dasharray:none;stroke-opacity:1"
         d="m 17261,12115 -1,-59 0,-17 327,121" />
    </g>
    <g
       transform="matrix(0,-0.15,-0.15,0,218.14431,423.58267)"
       id="g472">
      <path
         id="path474"
         style="fill:none;stroke:#000000;stroke-width:6.66666651;stroke-linecap:round;stroke-linejoin:round;stroke-miterlimit:10;stroke-dasharray:none;stroke-opacity:1"
         d="m -4.25416,-256.4647 c 18.7879,-0.3117 37.55316,1.4421 55.95794,5.2298" />
    </g>
    <g
       transform="matrix(0,-0.15,-0.15,0,202.24431,427.18267)"
       id="g476">
      <path
         id="path478"
         style="fill:none;stroke:#000000;stroke-width:6.66666651;stroke-linecap:round;stroke-linejoin:round;stroke-miterlimit:10;stroke-dasharray:none;stroke-opacity:1"
         d="m 75.32206,-357.6546 c 21.57149,4.5429 42.68774,11.0281 63.09054,19.3763" />
    </g>
    <g
       transform="matrix(0,-0.15,-0.15,0,173.59431,438.13267)"
       id="g480">
      <path
         id="path482"
         style="fill:none;stroke:#000000;stroke-width:6.66666651;stroke-linecap:round;stroke-linejoin:round;stroke-miterlimit:10;stroke-dasharray:none;stroke-opacity:1"
         d="m 211.2623,-528.8653 c 54.514,21.7764 105.3334,51.8502 150.6574,89.1559" />
    </g>
    <g
       transform="matrix(0,-0.15,-0.15,0,182.14431,431.53267)"
       id="g484">
      <path
         id="path486"
         style="fill:none;stroke:#000000;stroke-width:6.66666651;stroke-linecap:round;stroke-linejoin:round;stroke-miterlimit:10;stroke-dasharray:none;stroke-opacity:1"
         d="m 318.0745,-382.5374 c 49.3346,41.021 90.2685,91.1977 120.5463,147.7652" />
    </g>
    <g
       transform="matrix(0,-0.15,-0.15,0,193.09431,411.43267)"
       id="g488">
      <path
         id="path490"
         style="fill:none;stroke:#000000;stroke-width:6.66666651;stroke-linecap:round;stroke-linejoin:round;stroke-miterlimit:10;stroke-dasharray:none;stroke-opacity:1"
         d="m 304.3496,-161.4049 c 26.8941,50.7123 40.6901,107.34105 40.1343,164.74073" />
    </g>
    <g
       transform="matrix(0,-0.15,-0.15,0,213.34431,540.28267)"
       id="g492">
      <path
         id="path494"
         style="fill:none;stroke:#000000;stroke-width:6.66666651;stroke-linecap:round;stroke-linejoin:round;stroke-miterlimit:10;stroke-dasharray:none;stroke-opacity:1"
         d="m -120.0949,-283.0785 c 37.59459,-15.9494 77.9896,-24.2505 118.82721,-24.4189" />
    </g>
    <g
       transform="matrix(0.15,0,0,-0.15,-2381.5807,2248.4076)"
       id="g496">
      <path
         id="path498"
         style="fill:none;stroke:#000000;stroke-width:6.66666651;stroke-linecap:round;stroke-linejoin:round;stroke-miterlimit:10;stroke-dasharray:none;stroke-opacity:1"
         d="m 17606,11386 0,379 -445,0 0,-300 119,0 0,-5" />
    </g>
    <g
       transform="matrix(0,-0.15,-0.15,0,24.344309,533.98267)"
       id="g500">
      <path
         id="path502"
         style="fill:none;stroke:#000000;stroke-width:6.66666651;stroke-linecap:round;stroke-linejoin:round;stroke-miterlimit:10;stroke-dasharray:none;stroke-opacity:1"
         d="m -30.91897,-1240.115 c 20.60944,-0.513 41.2285,-0.513 61.83794,0" />
    </g>
    <g
       transform="matrix(0,-0.15,-0.15,0,192.64431,538.63267)"
       id="g504">
      <path
         id="path506"
         style="fill:none;stroke:#000000;stroke-width:6.66666651;stroke-linecap:round;stroke-linejoin:round;stroke-miterlimit:10;stroke-dasharray:none;stroke-opacity:1"
         d="m -52.48592,-106.2426 c 16.18048,-7.9934 33.97299,-12.1855 52.02012,-12.2565" />
    </g>
    <g
       transform="matrix(0,-0.15,-0.15,0,194.89431,538.18267)"
       id="g508">
      <path
         id="path510"
         style="fill:none;stroke:#000000;stroke-width:6.66666651;stroke-linecap:round;stroke-linejoin:round;stroke-miterlimit:10;stroke-dasharray:none;stroke-opacity:1"
         d="m -92.2376,-55.21299 c 8.96699,-14.98007 21.4476,-27.55074 36.3628,-36.62522" />
    </g>
    <g
       transform="matrix(0,-0.15,-0.15,0,169.09431,496.63267)"
       id="g512">
      <path
         id="path514"
         style="fill:none;stroke:#000000;stroke-width:6.66666651;stroke-linecap:round;stroke-linejoin:round;stroke-miterlimit:10;stroke-dasharray:none;stroke-opacity:1"
         d="m -395.2275,-175.6459 c 7.7211,-17.3734 16.5792,-34.2189 26.517,-50.4266" />
    </g>
    <g
       transform="matrix(0.15,0,0,-0.15,-2381.5807,2248.4076)"
       id="g516">
      <path
         id="path518"
         style="fill:none;stroke:#000000;stroke-width:6.66666651;stroke-linecap:round;stroke-linejoin:round;stroke-miterlimit:10;stroke-dasharray:none;stroke-opacity:1"
         d="m 17180,11283 0,-327" />
    </g>
    <g
       transform="matrix(0,-0.15,-0.15,0,196.09431,553.18267)"
       id="g520">
      <path
         id="path522"
         style="fill:none;stroke:#000000;stroke-width:6.66666651;stroke-linecap:round;stroke-linejoin:round;stroke-miterlimit:10;stroke-dasharray:none;stroke-opacity:1"
         d="m -344.4832,3.40188 c -0.5669,-57.41075 13.2236,-114.05288 40.1181,-164.77768" />
    </g>
    <g
       transform="matrix(0,-0.15,-0.15,0,184.99431,533.23267)"
       id="g524">
      <path
         id="path526"
         style="fill:none;stroke:#000000;stroke-width:6.66666651;stroke-linecap:round;stroke-linejoin:round;stroke-miterlimit:10;stroke-dasharray:none;stroke-opacity:1"
         d="m -438.4857,-235.0245 c 30.3027,-56.5359 71.2528,-106.6783 120.5947,-147.6654" />
    </g>
    <g
       transform="matrix(0,-0.15,-0.15,0,176.44431,526.63267)"
       id="g528">
      <path
         id="path530"
         style="fill:none;stroke:#000000;stroke-width:6.66666651;stroke-linecap:round;stroke-linejoin:round;stroke-miterlimit:10;stroke-dasharray:none;stroke-opacity:1"
         d="m -362.1726,-439.5012 c 45.3026,-37.3317 96.1046,-67.4348 150.6061,-89.2425" />
    </g>
    <g
       transform="matrix(0,-0.15,-0.15,0,192.79431,428.83267)"
       id="g532">
      <path
         id="path534"
         style="fill:none;stroke:#000000;stroke-width:6.66666651;stroke-linecap:round;stroke-linejoin:round;stroke-miterlimit:10;stroke-dasharray:none;stroke-opacity:1"
         d="m 37.68786,243.6019 c -11.33179,1.7531 -22.77209,2.7135 -34.23757,2.874" />
    </g>
    <g
       transform="matrix(0,-0.15,-0.15,0,172.24431,425.53267)"
       id="g536">
      <path
         id="path538"
         style="fill:none;stroke:#000000;stroke-width:6.66666651;stroke-linecap:round;stroke-linejoin:round;stroke-miterlimit:10;stroke-dasharray:none;stroke-opacity:1"
         d="m 44.80365,97.71838 c -9.19334,4.21512 -18.93552,7.11182 -28.93838,8.60442" />
    </g>
    <g
       transform="matrix(0,-0.15,-0.15,0,171.04431,425.68267)"
       id="g540">
      <path
         id="path542"
         style="fill:none;stroke:#000000;stroke-width:6.66666651;stroke-linecap:round;stroke-linejoin:round;stroke-miterlimit:10;stroke-dasharray:none;stroke-opacity:1"
         d="M 86.32053,53.3949 C 76.51575,69.24574 62.5358,82.09084 45.91348,90.52184" />
    </g>
    <g
       transform="matrix(0,-0.15,-0.15,0,191.59431,458.38267)"
       id="g544">
      <path
         id="path546"
         style="fill:none;stroke:#000000;stroke-width:6.66666651;stroke-linecap:round;stroke-linejoin:round;stroke-miterlimit:10;stroke-dasharray:none;stroke-opacity:1"
         d="m 330.9868,137.7317 c -7.4781,17.9707 -16.4073,35.3026 -26.6992,51.8238" />
    </g>
    <g
       transform="matrix(0.15,0,0,-0.15,-2381.5807,2248.4076)"
       id="g548">
      <path
         id="path550"
         style="fill:none;stroke:#000000;stroke-width:6.66666651;stroke-linecap:round;stroke-linejoin:round;stroke-miterlimit:10;stroke-dasharray:none;stroke-opacity:1"
         d="m 17016,12264 0,327" />
    </g>
    <g
       transform="matrix(0,-0.15,-0.15,0,170.44431,411.43267)"
       id="g552">
      <path
         id="path554"
         style="fill:none;stroke:#000000;stroke-width:6.66666651;stroke-linecap:round;stroke-linejoin:round;stroke-miterlimit:10;stroke-dasharray:none;stroke-opacity:1"
         d="M 344.4835,-3.36886 C 345.0449,54.03077 331.2544,110.6609 304.3651,161.3758" />
    </g>
    <g
       transform="matrix(0,-0.15,-0.15,0,181.39431,431.53267)"
       id="g556">
      <path
         id="path558"
         style="fill:none;stroke:#000000;stroke-width:6.66666651;stroke-linecap:round;stroke-linejoin:round;stroke-miterlimit:10;stroke-dasharray:none;stroke-opacity:1"
         d="M 438.4857,235.0245 C 408.183,291.5604 367.2329,341.7028 317.891,382.6899" />
    </g>
    <g
       transform="matrix(0,-0.15,-0.15,0,189.94431,438.13267)"
       id="g560">
      <path
         id="path562"
         style="fill:none;stroke:#000000;stroke-width:6.66666651;stroke-linecap:round;stroke-linejoin:round;stroke-miterlimit:10;stroke-dasharray:none;stroke-opacity:1"
         d="M 362.1726,439.5012 C 316.87,476.8329 266.068,506.936 211.5665,528.7437" />
    </g>
    <g
       transform="matrix(0,-0.15,-0.15,0,153.19431,424.48267)"
       id="g564">
      <path
         id="path566"
         style="fill:none;stroke:#000000;stroke-width:6.66666651;stroke-linecap:round;stroke-linejoin:round;stroke-miterlimit:10;stroke-dasharray:none;stroke-opacity:1"
         d="M 120.0949,283.0785 C 82.50031,299.0279 42.1053,307.329 1.26769,307.4974" />
    </g>
    <g
       transform="matrix(0.15,0,0,-0.15,-2381.5807,2248.4076)"
       id="g568">
      <path
         id="path570"
         style="fill:none;stroke:#000000;stroke-width:6.66666651;stroke-linecap:round;stroke-linejoin:round;stroke-miterlimit:10;stroke-dasharray:none;stroke-opacity:1"
         d="m 16590,12160 0,-774" />
    </g>
    <g
       transform="matrix(0,-0.15,-0.15,0,146.74431,540.28267)"
       id="g572">
      <path
         id="path574"
         style="fill:none;stroke:#000000;stroke-width:6.66666651;stroke-linecap:round;stroke-linejoin:round;stroke-miterlimit:10;stroke-dasharray:none;stroke-opacity:1"
         d="m -1.42544,265.4962 c -18.83684,-0.1012 -37.60942,-2.2067 -56.00062,-6.2811" />
    </g>
    <g
       transform="matrix(0,-0.15,-0.15,0,188.14431,530.83267)"
       id="g576">
      <path
         id="path578"
         style="fill:none;stroke:#000000;stroke-width:6.66666651;stroke-linecap:round;stroke-linejoin:round;stroke-miterlimit:10;stroke-dasharray:none;stroke-opacity:1"
         d="m -120.177,535.1726 c -21.3681,-4.7983 -42.4296,-10.8721 -63.0714,-18.1888" />
    </g>
    <g
       transform="matrix(0,-0.15,-0.15,0,189.94431,526.63267)"
       id="g580">
      <path
         id="path582"
         style="fill:none;stroke:#000000;stroke-width:6.66666651;stroke-linecap:round;stroke-linejoin:round;stroke-miterlimit:10;stroke-dasharray:none;stroke-opacity:1"
         d="M -211.5665,528.7437 C -266.068,506.936 -316.87,476.8329 -362.1726,439.5012" />
    </g>
    <g
       transform="matrix(0,-0.15,-0.15,0,181.39431,533.23267)"
       id="g584">
      <path
         id="path586"
         style="fill:none;stroke:#000000;stroke-width:6.66666651;stroke-linecap:round;stroke-linejoin:round;stroke-miterlimit:10;stroke-dasharray:none;stroke-opacity:1"
         d="m -317.891,382.6899 c -49.3419,-40.9871 -90.292,-91.1295 -120.5947,-147.6654" />
    </g>
    <g
       transform="matrix(0,-0.15,-0.15,0,170.44431,553.18267)"
       id="g588">
      <path
         id="path590"
         style="fill:none;stroke:#000000;stroke-width:6.66666651;stroke-linecap:round;stroke-linejoin:round;stroke-miterlimit:10;stroke-dasharray:none;stroke-opacity:1"
         d="M -304.3651,161.3758 C -331.2596,110.651 -345.0501,54.00887 -344.4832,-3.40188" />
    </g>
    <g
       transform="matrix(0.15,0,0,-0.15,-2381.5807,2248.4076)"
       id="g592">
      <path
         id="path594"
         style="fill:none;stroke:#000000;stroke-width:6.66666651;stroke-linecap:round;stroke-linejoin:round;stroke-miterlimit:10;stroke-dasharray:none;stroke-opacity:1"
         d="m 17016,10956 0,327" />
    </g>
    <g
       transform="matrix(0,-0.15,-0.15,0,191.59431,506.38267)"
       id="g596">
      <path
         id="path598"
         style="fill:none;stroke:#000000;stroke-width:6.66666651;stroke-linecap:round;stroke-linejoin:round;stroke-miterlimit:10;stroke-dasharray:none;stroke-opacity:1"
         d="m -304.2876,189.5555 c -10.2919,-16.5212 -19.2211,-33.8531 -26.6992,-51.8238" />
    </g>
    <g
       transform="matrix(0,-0.15,-0.15,0,171.04431,539.08267)"
       id="g600">
      <path
         id="path602"
         style="fill:none;stroke:#000000;stroke-width:6.66666651;stroke-linecap:round;stroke-linejoin:round;stroke-miterlimit:10;stroke-dasharray:none;stroke-opacity:1"
         d="M -45.91348,90.52184 C -62.5358,82.09084 -76.51575,69.24574 -86.32053,53.3949" />
    </g>
    <g
       transform="matrix(0,-0.15,-0.15,0,172.24431,539.08267)"
       id="g604">
      <path
         id="path606"
         style="fill:none;stroke:#000000;stroke-width:6.66666651;stroke-linecap:round;stroke-linejoin:round;stroke-miterlimit:10;stroke-dasharray:none;stroke-opacity:1"
         d="m -15.86527,106.3228 c -10.00286,-1.4926 -19.74504,-4.3893 -28.93838,-8.60442" />
    </g>
    <g
       transform="matrix(0,-0.15,-0.15,0,202.39431,535.03267)"
       id="g608">
      <path
         id="path610"
         style="fill:none;stroke:#000000;stroke-width:6.66666651;stroke-linecap:round;stroke-linejoin:round;stroke-miterlimit:10;stroke-dasharray:none;stroke-opacity:1"
         d="m 9.46502,310.3557 c -17.59579,0.5366 -35.20534,-0.4241 -52.63831,-2.8718" />
    </g>
    <g
       transform="matrix(0.15,0,0,-0.15,-2381.5807,2248.4076)"
       id="g612">
      <path
         id="path614"
         style="fill:none;stroke:#000000;stroke-width:6.66666651;stroke-linecap:round;stroke-linejoin:round;stroke-miterlimit:10;stroke-dasharray:none;stroke-opacity:1"
         d="m 16916,11431 1,59 0,566 -1,77" />
    </g>
  </g>
</svg>
