<?xml version="1.0" encoding="UTF-8" standalone="no"?>
<!-- Created with Inkscape (http://www.inkscape.org/) -->

<svg
   xmlns:dc="http://purl.org/dc/elements/1.1/"
   xmlns:cc="http://creativecommons.org/ns#"
   xmlns:rdf="http://www.w3.org/1999/02/22-rdf-syntax-ns#"
   xmlns:svg="http://www.w3.org/2000/svg"
   xmlns="http://www.w3.org/2000/svg"
   xmlns:sodipodi="http://sodipodi.sourceforge.net/DTD/sodipodi-0.dtd"
   xmlns:inkscape="http://www.inkscape.org/namespaces/inkscape"
   width="1024"
   height="1024"
   viewBox="0 0 1024 1024"
   id="svg10390"
   version="1.1"
   inkscape:version="0.91+devel r"
   sodipodi:docname="J.svg">
  <sodipodi:namedview
     id="base"
     pagecolor="#ffffff"
     bordercolor="#666666"
     borderopacity="1.0"
     inkscape:pageopacity="0.0"
     inkscape:pageshadow="2"
     inkscape:zoom="0.51611328"
     inkscape:cx="-4.9105372"
     inkscape:cy="600.68554"
     inkscape:document-units="px"
     inkscape:current-layer="layer1"
     showgrid="false"
     inkscape:window-width="1364"
     inkscape:window-height="721"
     inkscape:window-x="0"
     inkscape:window-y="24"
     inkscape:window-maximized="0"
     showguides="true"
     inkscape:guide-bbox="true">
    <sodipodi:guide
       id="guide10946"
       inkscape:label="ascender"
       position="0,1024"
       orientation="0,1" />
    <sodipodi:guide
       id="guide10952"
       inkscape:label="descender"
       position="0,0"
       orientation="0,1" />
    <sodipodi:guide
       orientation="0,1"
       position="0,0"
       inkscape:label="descender"
       id="guide11006" />
    <sodipodi:guide
       id="guide11040"
       inkscape:label="baseline"
       position="0,205"
       orientation="0,1" />
    <sodipodi:guide
       id="guide11042"
       inkscape:label="ascender"
       position="0,1024"
       orientation="0,1" />
    <sodipodi:guide
       id="guide11044"
       inkscape:label="caps"
       position="0,905"
       orientation="0,1" />
    <sodipodi:guide
       id="guide11046"
       inkscape:label="xheight"
       position="0,705"
       orientation="0,1" />
    <sodipodi:guide
       id="guide11048"
       inkscape:label="descender"
       position="0,0"
       orientation="0,1" />
    <sodipodi:guide
       position="44.56386,705"
       orientation="1,0"
       id="guide11075" />
    <sodipodi:guide
       position="976.5298,784.71145"
       orientation="1,0"
       id="guide11077" />
  </sodipodi:namedview>
  <defs
     id="defs10392" />
  <metadata
     id="metadata10395">
    <rdf:RDF>
      <cc:Work
         rdf:about="">
        <dc:format>image/svg+xml</dc:format>
        <dc:type
           rdf:resource="http://purl.org/dc/dcmitype/StillImage" />
        <dc:title></dc:title>
      </cc:Work>
    </rdf:RDF>
  </metadata>
  <g
     id="layer1"
     inkscape:groupmode="layer"
     inkscape:label="Layer 1">
    <g
       id="g3688"
       transform="matrix(2.8882733,0,0,2.8882733,441.08057,351.47738)">
      <g
         transform="matrix(0,-0.15,-0.15,0,-85.039305,-15.64246)"
         id="g276">
        <path
           inkscape:connector-curvature="0"
           id="path278"
           style="fill:none;stroke:#000000;stroke-width:6.66666651;stroke-linecap:round;stroke-linejoin:round;stroke-miterlimit:10;stroke-dasharray:none;stroke-opacity:1"
           d="M 129.3303,306.3167 C 90.08256,322.8875 48.01596,331.7615 5.41903,332.4558" />
      </g>
      <g
         transform="matrix(0.15,0,0,-0.15,-1055.4643,1807.6825)"
         id="g280">
        <path
           inkscape:connector-curvature="0"
           id="path282"
           style="fill:none;stroke:#000000;stroke-width:6.66666651;stroke-linecap:round;stroke-linejoin:round;stroke-miterlimit:10;stroke-dasharray:none;stroke-opacity:1"
           d="m 6137,12160 0,-387 0,-387" />
      </g>
      <g
         transform="matrix(0,-0.15,-0.15,0,-87.139305,98.357539)"
         id="g284">
        <path
           inkscape:connector-curvature="0"
           id="path286"
           style="fill:none;stroke:#000000;stroke-width:6.66666651;stroke-linecap:round;stroke-linejoin:round;stroke-miterlimit:10;stroke-dasharray:none;stroke-opacity:1"
           d="m -8.51847,318.3861 c -42.75644,-1.144 -84.84447,-10.8881 -123.75333,-28.651" />
      </g>
      <g
         transform="matrix(0,-0.15,-0.15,0,10.060695,55.007539)"
         id="g288">
        <path
           inkscape:connector-curvature="0"
           id="path290"
           style="fill:none;stroke:#000000;stroke-width:6.66666651;stroke-linecap:round;stroke-linejoin:round;stroke-miterlimit:10;stroke-dasharray:none;stroke-opacity:1"
           d="m -421.3832,938.2156 c -38.0007,-17.0673 -74.9293,-36.4277 -110.5819,-57.974" />
      </g>
      <g
         transform="matrix(0,-0.15,-0.15,0,-61.339305,93.257539)"
         id="g292">
        <path
           inkscape:connector-curvature="0"
           id="path294"
           style="fill:none;stroke:#000000;stroke-width:6.66666651;stroke-linecap:round;stroke-linejoin:round;stroke-miterlimit:10;stroke-dasharray:none;stroke-opacity:1"
           d="M -277.8403,404.2215 C -340.1876,361.3673 -391.7768,304.6717 -428.5737,238.5683" />
      </g>
      <g
         transform="matrix(0,-0.15,-0.15,0,-71.689305,113.50754)"
         id="g296">
        <path
           inkscape:connector-curvature="0"
           id="path298"
           style="fill:none;stroke:#000000;stroke-width:6.66666651;stroke-linecap:round;stroke-linejoin:round;stroke-miterlimit:10;stroke-dasharray:none;stroke-opacity:1"
           d="M -292.1432,168.9928 C -322.6799,116.2032 -338.3421,56.12576 -337.4651,-4.85344" />
      </g>
      <g
         transform="matrix(0.15,0,0,-0.15,-1055.4643,1807.6825)"
         id="g300">
        <path
           inkscape:connector-curvature="0"
           id="path302"
           style="fill:none;stroke:#000000;stroke-width:6.66666651;stroke-linecap:round;stroke-linejoin:round;stroke-miterlimit:10;stroke-dasharray:none;stroke-opacity:1"
           d="m 6563,10956 0,327" />
      </g>
      <g
         transform="matrix(0,-0.15,-0.15,0,-52.639305,69.707539)"
         id="g304">
        <path
           inkscape:connector-curvature="0"
           id="path306"
           style="fill:none;stroke:#000000;stroke-width:6.66666651;stroke-linecap:round;stroke-linejoin:round;stroke-miterlimit:10;stroke-dasharray:none;stroke-opacity:1"
           d="m -276.3459,173.8826 c -10.443,-16.5966 -19.3696,-34.1003 -26.6717,-52.2988" />
      </g>
      <g
         transform="matrix(0,-0.15,-0.15,0,-70.789305,98.507539)"
         id="g308">
        <path
           inkscape:connector-curvature="0"
           id="path310"
           style="fill:none;stroke:#000000;stroke-width:6.66666651;stroke-linecap:round;stroke-linejoin:round;stroke-miterlimit:10;stroke-dasharray:none;stroke-opacity:1"
           d="M -42.00879,91.29902 C -59.62196,83.19479 -74.51497,70.16888 -84.89232,53.79168" />
      </g>
      <g
         transform="matrix(0,-0.15,-0.15,0,-67.639305,97.757539)"
         id="g312">
        <path
           inkscape:connector-curvature="0"
           id="path314"
           style="fill:none;stroke:#000000;stroke-width:6.66666651;stroke-linecap:round;stroke-linejoin:round;stroke-miterlimit:10;stroke-dasharray:none;stroke-opacity:1"
           d="m -14.73415,120.6033 c -10.95135,-1.3379 -21.66943,-4.1613 -31.85873,-8.3921" />
      </g>
      <g
         transform="matrix(0,-0.15,-0.15,0,-29.239305,93.257539)"
         id="g316">
        <path
           inkscape:connector-curvature="0"
           id="path318"
           style="fill:none;stroke:#000000;stroke-width:6.66666651;stroke-linecap:round;stroke-linejoin:round;stroke-miterlimit:10;stroke-dasharray:none;stroke-opacity:1"
           d="m 13.09744,378.2733 c -19.4848,0.6747 -38.9926,-0.1572 -58.34923,-2.4881" />
      </g>
      <g
         transform="matrix(0.15,0,0,-0.15,-1055.4643,1807.6825)"
         id="g320">
        <path
           inkscape:connector-curvature="0"
           id="path322"
           style="fill:none;stroke:#000000;stroke-width:6.66666651;stroke-linecap:round;stroke-linejoin:round;stroke-miterlimit:10;stroke-dasharray:none;stroke-opacity:1"
           d="m 6462,11442 2,66 0,265 0,266 -2,86" />
      </g>
      <g
         transform="matrix(0,-0.15,-0.15,0,-41.689305,-10.84246)"
         id="g324">
        <path
           inkscape:connector-curvature="0"
           id="path326"
           style="fill:none;stroke:#000000;stroke-width:6.66666651;stroke-linecap:round;stroke-linejoin:round;stroke-miterlimit:10;stroke-dasharray:none;stroke-opacity:1"
           d="m 39.26323,292.8799 c -12.52776,1.6795 -25.15037,2.5534 -37.79004,2.6164" />
      </g>
      <g
         transform="matrix(0,-0.15,-0.15,0,-67.639305,-14.59246)"
         id="g328">
        <path
           inkscape:connector-curvature="0"
           id="path330"
           style="fill:none;stroke:#000000;stroke-width:6.66666651;stroke-linecap:round;stroke-linejoin:round;stroke-miterlimit:10;stroke-dasharray:none;stroke-opacity:1"
           d="m 46.59288,112.2112 c -10.1893,4.2308 -20.90738,7.0542 -31.85873,8.3921" />
      </g>
      <g
         transform="matrix(0,-0.15,-0.15,0,-70.789305,-15.19246)"
         id="g332">
        <path
           inkscape:connector-curvature="0"
           id="path334"
           style="fill:none;stroke:#000000;stroke-width:6.66666651;stroke-linecap:round;stroke-linejoin:round;stroke-miterlimit:10;stroke-dasharray:none;stroke-opacity:1"
           d="M 84.89232,53.79168 C 74.51497,70.16888 59.62196,83.19479 42.00879,91.29902" />
      </g>
      <g
         transform="matrix(0,-0.15,-0.15,0,-52.789305,13.60754)"
         id="g336">
        <path
           inkscape:connector-curvature="0"
           id="path338"
           style="fill:none;stroke:#000000;stroke-width:6.66666651;stroke-linecap:round;stroke-linejoin:round;stroke-miterlimit:10;stroke-dasharray:none;stroke-opacity:1"
           d="m 303.2501,121.0025 c -7.2632,18.2028 -16.1506,35.7146 -26.5546,52.3234" />
      </g>
      <g
         transform="matrix(0.15,0,0,-0.15,-1055.4643,1807.6825)"
         id="g340">
        <path
           inkscape:connector-curvature="0"
           id="path342"
           style="fill:none;stroke:#000000;stroke-width:6.66666651;stroke-linecap:round;stroke-linejoin:round;stroke-miterlimit:10;stroke-dasharray:none;stroke-opacity:1"
           d="m 6563,12264 0,326" />
      </g>
      <g
         transform="matrix(0,-0.15,-0.15,0,-71.689305,-30.34246)"
         id="g344">
        <path
           inkscape:connector-curvature="0"
           id="path346"
           style="fill:none;stroke:#000000;stroke-width:6.66666651;stroke-linecap:round;stroke-linejoin:round;stroke-miterlimit:10;stroke-dasharray:none;stroke-opacity:1"
           d="M 337.4623,-5.04757 C 338.374,55.90916 322.7579,115.9747 292.2728,168.7687" />
      </g>
      <g
         transform="matrix(0,-0.15,-0.15,0,-61.339305,-9.9424601)"
         id="g348">
        <path
           inkscape:connector-curvature="0"
           id="path350"
           style="fill:none;stroke:#000000;stroke-width:6.66666651;stroke-linecap:round;stroke-linejoin:round;stroke-miterlimit:10;stroke-dasharray:none;stroke-opacity:1"
           d="m 428.5737,238.5683 c -36.7969,66.1034 -88.3861,122.799 -150.7334,165.6532" />
      </g>
      <g
         transform="matrix(0,-0.15,-0.15,0,-49.189305,-0.94246009)"
         id="g352">
        <path
           inkscape:connector-curvature="0"
           id="path354"
           style="fill:none;stroke:#000000;stroke-width:6.66666651;stroke-linecap:round;stroke-linejoin:round;stroke-miterlimit:10;stroke-dasharray:none;stroke-opacity:1"
           d="m 337.3249,484.6671 c -34.4956,24.0087 -71.4559,44.2661 -110.2524,60.4277" />
      </g>
      <g
         transform="matrix(0.15,0,0,-0.15,-1055.4643,1807.6825)"
         id="g356">
        <path
           inkscape:connector-curvature="0"
           id="path358"
           style="fill:none;stroke:#000000;stroke-width:6.66666651;stroke-linecap:round;stroke-linejoin:round;stroke-miterlimit:10;stroke-dasharray:none;stroke-opacity:1"
           d="m 6708,12591 0,-327" />
      </g>
      <g
         transform="matrix(0,-0.15,-0.15,0,-69.739305,17.50754)"
         id="g360">
        <path
           inkscape:connector-curvature="0"
           id="path362"
           style="fill:none;stroke:#000000;stroke-width:6.66666651;stroke-linecap:round;stroke-linejoin:round;stroke-miterlimit:10;stroke-dasharray:none;stroke-opacity:1"
           d="m 303.2575,-189.3176 c 10.285,16.475 19.2103,33.7606 26.6874,51.6854" />
      </g>
      <g
         transform="matrix(0,-0.15,-0.15,0,-49.339305,-15.04246)"
         id="g364">
        <path
           inkscape:connector-curvature="0"
           id="path366"
           style="fill:none;stroke:#000000;stroke-width:6.66666651;stroke-linecap:round;stroke-linejoin:round;stroke-miterlimit:10;stroke-dasharray:none;stroke-opacity:1"
           d="m 46.0783,-90.43805 c 16.60693,8.46126 30.56346,21.3318 40.33936,37.20048" />
      </g>
      <g
         transform="matrix(0,-0.15,-0.15,0,-50.539305,-15.19246)"
         id="g368">
        <path
           inkscape:connector-curvature="0"
           id="path370"
           style="fill:none;stroke:#000000;stroke-width:6.66666651;stroke-linecap:round;stroke-linejoin:round;stroke-miterlimit:10;stroke-dasharray:none;stroke-opacity:1"
           d="m 15.87547,-106.3213 c 10.00271,1.4936 19.74461,4.3912 28.93755,8.60721" />
      </g>
      <g
         transform="matrix(0,-0.15,-0.15,0,-80.689305,-10.99246)"
         id="g372">
        <path
           inkscape:connector-curvature="0"
           id="path374"
           style="fill:none;stroke:#000000;stroke-width:6.66666651;stroke-linecap:round;stroke-linejoin:round;stroke-miterlimit:10;stroke-dasharray:none;stroke-opacity:1"
           d="m -9.46502,-310.3557 c 17.59579,-0.5366 35.20534,0.4241 52.63831,2.8718" />
      </g>
      <g
         transform="matrix(0.15,0,0,-0.15,-1055.4643,1807.6825)"
         id="g376">
        <path
           inkscape:connector-curvature="0"
           id="path378"
           style="fill:none;stroke:#000000;stroke-width:6.66666651;stroke-linecap:round;stroke-linejoin:round;stroke-miterlimit:10;stroke-dasharray:none;stroke-opacity:1"
           d="m 6809,12115 -2,-59 0,-17 327,121" />
      </g>
      <g
         transform="matrix(0,-0.15,-0.15,0,-23.689305,-17.14246)"
         id="g380">
        <path
           inkscape:connector-curvature="0"
           id="path382"
           style="fill:none;stroke:#000000;stroke-width:6.66666651;stroke-linecap:round;stroke-linejoin:round;stroke-miterlimit:10;stroke-dasharray:none;stroke-opacity:1"
           d="m -4.84426,-256.4542 c 18.78713,-0.3549 37.55638,1.3557 55.96982,5.101" />
      </g>
      <g
         transform="matrix(0,-0.15,-0.15,0,-39.589305,-13.54246)"
         id="g384">
        <path
           inkscape:connector-curvature="0"
           id="path386"
           style="fill:none;stroke:#000000;stroke-width:6.66666651;stroke-linecap:round;stroke-linejoin:round;stroke-miterlimit:10;stroke-dasharray:none;stroke-opacity:1"
           d="m 75.32206,-357.6546 c 21.57149,4.5429 42.68774,11.0281 63.09054,19.3763" />
      </g>
      <g
         transform="matrix(0,-0.15,-0.15,0,-68.239305,-2.5924601)"
         id="g388">
        <path
           inkscape:connector-curvature="0"
           id="path390"
           style="fill:none;stroke:#000000;stroke-width:6.66666651;stroke-linecap:round;stroke-linejoin:round;stroke-miterlimit:10;stroke-dasharray:none;stroke-opacity:1"
           d="m 211.6172,-528.7234 c 54.4993,21.8129 105.2985,51.9209 150.5975,89.257" />
      </g>
      <g
         transform="matrix(0,-0.15,-0.15,0,-59.689305,-9.1924601)"
         id="g392">
        <path
           inkscape:connector-curvature="0"
           id="path394"
           style="fill:none;stroke:#000000;stroke-width:6.66666651;stroke-linecap:round;stroke-linejoin:round;stroke-miterlimit:10;stroke-dasharray:none;stroke-opacity:1"
           d="m 318.0745,-382.5374 c 49.3346,41.021 90.2685,91.1977 120.5463,147.7652" />
      </g>
      <g
         transform="matrix(0,-0.15,-0.15,0,-48.589305,-29.29246)"
         id="g396">
        <path
           inkscape:connector-curvature="0"
           id="path398"
           style="fill:none;stroke:#000000;stroke-width:6.66666651;stroke-linecap:round;stroke-linejoin:round;stroke-miterlimit:10;stroke-dasharray:none;stroke-opacity:1"
           d="m 304.3496,-161.4049 c 26.8941,50.7123 40.6901,107.34105 40.1343,164.74073" />
      </g>
      <g
         transform="matrix(0,-0.15,-0.15,0,-39.589305,96.857539)"
         id="g400">
        <path
           inkscape:connector-curvature="0"
           id="path402"
           style="fill:none;stroke:#000000;stroke-width:6.66666651;stroke-linecap:round;stroke-linejoin:round;stroke-miterlimit:10;stroke-dasharray:none;stroke-opacity:1"
           d="m -138.3802,-338.2915 c 20.4036,-8.3463 41.5205,-14.8295 63.09243,-19.3704" />
      </g>
      <g
         transform="matrix(0,-0.15,-0.15,0,-23.689305,100.45754)"
         id="g404">
        <path
           inkscape:connector-curvature="0"
           id="path406"
           style="fill:none;stroke:#000000;stroke-width:6.66666651;stroke-linecap:round;stroke-linejoin:round;stroke-miterlimit:10;stroke-dasharray:none;stroke-opacity:1"
           d="m -51.12556,-251.3532 c 18.41344,-3.7453 37.18269,-5.4559 55.96982,-5.101" />
      </g>
      <g
         transform="matrix(0.15,0,0,-0.15,-1055.4643,1807.6825)"
         id="g408">
        <path
           inkscape:connector-curvature="0"
           id="path410"
           style="fill:none;stroke:#000000;stroke-width:6.66666651;stroke-linecap:round;stroke-linejoin:round;stroke-miterlimit:10;stroke-dasharray:none;stroke-opacity:1"
           d="m 7134,11386 -327,122 0,-18 1,-77" />
      </g>
      <g
         transform="matrix(0,-0.15,-0.15,0,-71.089305,95.357539)"
         id="g412">
        <path
           inkscape:connector-curvature="0"
           id="path414"
           style="fill:none;stroke:#000000;stroke-width:6.66666651;stroke-linecap:round;stroke-linejoin:round;stroke-miterlimit:10;stroke-dasharray:none;stroke-opacity:1"
           d="m -36.77675,-243.7411 c 11.33826,-1.7108 22.78208,-2.6283 34.24807,-2.7459" />
      </g>
      <g
         transform="matrix(0,-0.15,-0.15,0,-50.539305,98.357539)"
         id="g416">
        <path
           inkscape:connector-curvature="0"
           id="path418"
           style="fill:none;stroke:#000000;stroke-width:6.66666651;stroke-linecap:round;stroke-linejoin:round;stroke-miterlimit:10;stroke-dasharray:none;stroke-opacity:1"
           d="m -44.80365,-97.71838 c 9.19334,-4.21512 18.93552,-7.11182 28.93838,-8.60442" />
      </g>
      <g
         transform="matrix(0,-0.15,-0.15,0,-49.339305,98.207539)"
         id="g420">
        <path
           inkscape:connector-curvature="0"
           id="path422"
           style="fill:none;stroke:#000000;stroke-width:6.66666651;stroke-linecap:round;stroke-linejoin:round;stroke-miterlimit:10;stroke-dasharray:none;stroke-opacity:1"
           d="m -86.41255,-53.24585 c 9.77741,-15.86774 23.73517,-28.73695 40.34292,-37.19662" />
      </g>
      <g
         transform="matrix(0,-0.15,-0.15,0,-69.739305,65.657539)"
         id="g424">
        <path
           inkscape:connector-curvature="0"
           id="path426"
           style="fill:none;stroke:#000000;stroke-width:6.66666651;stroke-linecap:round;stroke-linejoin:round;stroke-miterlimit:10;stroke-dasharray:none;stroke-opacity:1"
           d="m -329.9317,-137.6638 c 7.4788,-17.9241 16.4058,-35.2089 26.6924,-51.6828" />
      </g>
      <g
         transform="matrix(0.15,0,0,-0.15,-1055.4643,1807.6825)"
         id="g428">
        <path
           inkscape:connector-curvature="0"
           id="path430"
           style="fill:none;stroke:#000000;stroke-width:6.66666651;stroke-linecap:round;stroke-linejoin:round;stroke-miterlimit:10;stroke-dasharray:none;stroke-opacity:1"
           d="m 6708,11283 0,-327" />
      </g>
      <g
         transform="matrix(0,-0.15,-0.15,0,-48.589305,112.60754)"
         id="g432">
        <path
           inkscape:connector-curvature="0"
           id="path434"
           style="fill:none;stroke:#000000;stroke-width:6.66666651;stroke-linecap:round;stroke-linejoin:round;stroke-miterlimit:10;stroke-dasharray:none;stroke-opacity:1"
           d="m -344.4839,3.33583 c -0.5559,-57.41086 13.2455,-114.05033 40.1498,-164.76993" />
      </g>
      <g
         transform="matrix(0,-0.15,-0.15,0,-59.689305,92.357539)"
         id="g436">
        <path
           inkscape:connector-curvature="0"
           id="path438"
           style="fill:none;stroke:#000000;stroke-width:6.66666651;stroke-linecap:round;stroke-linejoin:round;stroke-miterlimit:10;stroke-dasharray:none;stroke-opacity:1"
           d="m -438.5983,-234.8143 c 30.2832,-56.5646 71.222,-106.7373 120.5605,-147.7536" />
      </g>
      <g
         transform="matrix(0,-0.15,-0.15,0,-68.239305,85.907539)"
         id="g440">
        <path
           inkscape:connector-curvature="0"
           id="path442"
           style="fill:none;stroke:#000000;stroke-width:6.66666651;stroke-linecap:round;stroke-linejoin:round;stroke-miterlimit:10;stroke-dasharray:none;stroke-opacity:1"
           d="m -362.1726,-439.5012 c 45.3026,-37.3317 96.1046,-67.4348 150.6061,-89.2425" />
      </g>
    </g>
  </g>
</svg>
