<?xml version="1.0" encoding="UTF-8" standalone="no"?>
<svg
   xmlns:dc="http://purl.org/dc/elements/1.1/"
   xmlns:cc="http://creativecommons.org/ns#"
   xmlns:rdf="http://www.w3.org/1999/02/22-rdf-syntax-ns#"
   xmlns:svg="http://www.w3.org/2000/svg"
   xmlns="http://www.w3.org/2000/svg"
   version="1.1"
   id="svg10390"
   viewBox="0 0 1024 1024"
   height="1024"
   width="1024">
  <defs
     id="defs10392" />
  <metadata
     id="metadata10395">
    <rdf:RDF>
      <cc:Work
         rdf:about="">
        <dc:format>image/svg+xml</dc:format>
        <dc:type
           rdf:resource="http://purl.org/dc/dcmitype/StillImage" />
        <dc:title></dc:title>
      </cc:Work>
    </rdf:RDF>
  </metadata>
  <path
     id="path58"
     style="fill:#000000;fill-opacity:1;fill-rule:evenodd;stroke:none"
     d="m 365.14812,557.2475 0,-71.57375 37.55875,0 0,-106.655 c 0,-14.8825 3.4,-29.7625 7.015,-41.81 4.465,-12.04875 10.80625,-21.26 18.39,-29.40875 7.5825,-7.7975 16.37,-14.52875 28.17,-19.13625 11.7975,-4.96 26.575,-7.79375 41.2775,-7.79375 l 54.215,0 c 13.4975,0 27.14,3.19 38.4075,6.3775 11.26875,4.25125 20.23375,10.275 28.135,18.07 7.9,7.44125 14.70375,16.30125 19.59375,29.05625 4.925,12.4 8.08,28.3475 8.08,44.29125 l 0,49.2525 -87.94625,0 0,-45.35375 c 0,-5.31625 -0.74375,-10.6325 -1.4525,-14.5275 -0.92125,-3.54625 -2.16125,-5.67125 -3.33125,-6.73375 -1.20375,-1.4175 -2.3025,-2.47875 -4.25125,-2.835 -1.95,-0.70875 -4.7475,-1.065 -7.51125,-1.065 l -34.33625,0 c -2.55,0 -5.13625,0.35625 -6.945,0.71125 -1.84125,0.71 -2.94,1.4175 -4.11,2.47875 -1.16875,1.41875 -2.4075,3.1925 -3.33,7.0875 -0.92,3.54375 -1.4875,9.5675 -1.4875,15.2375 l 0,102.75625 92.94,0 0,71.57375 -92.94,0 0,109.3825 167.5625,0 0,76.5 -256.145,0 0,-185.8825 -37.55875,0" />
</svg>
