<?xml version="1.0" encoding="UTF-8" standalone="no"?>
<!-- Created with Inkscape (http://www.inkscape.org/) -->

<svg
   xmlns:dc="http://purl.org/dc/elements/1.1/"
   xmlns:cc="http://creativecommons.org/ns#"
   xmlns:rdf="http://www.w3.org/1999/02/22-rdf-syntax-ns#"
   xmlns:svg="http://www.w3.org/2000/svg"
   xmlns="http://www.w3.org/2000/svg"
   xmlns:sodipodi="http://sodipodi.sourceforge.net/DTD/sodipodi-0.dtd"
   xmlns:inkscape="http://www.inkscape.org/namespaces/inkscape"
   id="svg6918"
   version="1.1"
   inkscape:version="0.91+devel+osxmenu r12897"
   xml:space="preserve"
   width="14684"
   height="736"
   viewBox="0 0 14684 736"
   sodipodi:docname="Puncuation Version 2.1-5.svg"><metadata
     id="metadata6924"><rdf:RDF><cc:Work
         rdf:about=""><dc:format>image/svg+xml</dc:format><dc:type
           rdf:resource="http://purl.org/dc/dcmitype/StillImage" /><dc:title></dc:title></cc:Work></rdf:RDF></metadata><defs
     id="defs6922"><clipPath
       clipPathUnits="userSpaceOnUse"
       id="clipPath6934"><path
         d="m 0,0 11013,0 0,552 L 0,552 0,0 Z"
         id="path6936"
         inkscape:connector-curvature="0" /></clipPath></defs><sodipodi:namedview
     pagecolor="#ffffff"
     bordercolor="#666666"
     borderopacity="1"
     objecttolerance="10"
     gridtolerance="10"
     guidetolerance="10"
     inkscape:pageopacity="0"
     inkscape:pageshadow="2"
     inkscape:window-width="1920"
     inkscape:window-height="1200"
     id="namedview6920"
     showgrid="false"
     inkscape:zoom="0.15167815"
     inkscape:cx="3483.8614"
     inkscape:cy="368"
     inkscape:window-x="0"
     inkscape:window-y="0"
     inkscape:window-maximized="0"
     inkscape:current-layer="g6926" /><g
     id="g6926"
     inkscape:groupmode="layer"
     inkscape:label="Puncuation Version 2.1-5"
     transform="matrix(1.3333333,0,0,-1.3333333,0,736)"><g
       id="g6928" /><path
       d="m 6.81,139.243 c 3.022,4.138 6.868,7.682 11.239,10.346 4.371,2.693 9.267,4.536 14.409,5.329 5.142,0.795 10.528,0.568 15.633,-0.652 5.105,-1.217 9.927,-3.43 14.097,-6.434 4.169,-3.005 7.69,-6.804 10.363,-11.141 2.673,-4.365 4.502,-9.24 5.293,-14.428 0.793,-5.158 0.55,-10.629 -0.636,-15.677 -1.185,-5.044 -3.31,-9.694 -6.244,-13.747 C 68.03,88.785 64.291,85.327 59.909,82.693 55.524,80.055 50.495,78.214 45.095,77.419 39.698,76.626 33.926,76.881 28.728,78.071 23.529,79.29 18.903,81.444 14.897,84.364 10.895,87.285 7.51,90.941 4.942,95.25 c -2.568,4.337 -4.322,9.298 -5.108,14.456 -0.785,5.188 -0.607,10.601 0.581,15.647 1.185,5.046 3.376,9.78 6.395,13.89"
       style="fill:#000000;fill-opacity:1;fill-rule:evenodd;stroke:none"
       id="path6938"
       inkscape:connector-curvature="0" /><path
       d="m 603.965,154.607 57.838,0 -53.634,-154.346 -58.437,0 54.233,154.346"
       style="fill:#000000;fill-opacity:1;fill-rule:evenodd;stroke:none"
       id="path6940"
       inkscape:connector-curvature="0" /><path
       d="m 2241.353,431.636 57.062,0 0,-160.442 -57.062,0 0,160.442 z"
       style="fill:#000000;fill-opacity:1;fill-rule:nonzero;stroke:none"
       id="path6942"
       inkscape:connector-curvature="0" /><path
       d="m 2314.685,431.636 57.09,0 0,-160.442 -57.09,0 0,160.442 z"
       style="fill:#000000;fill-opacity:1;fill-rule:nonzero;stroke:none"
       id="path6944"
       inkscape:connector-curvature="0" /><path
       d="m 2879.63,232.076 0,-70.269 -65.962,0 0,126.114 76.847,0 0,85.888 -53.121,0 0,-44.503 -61.2,0 0,57.827 c 0,6.519 1.502,13.041 3.089,18.426 1.957,5.385 4.734,9.637 8.306,13.322 3.571,3.686 7.965,6.802 14.343,9.071 6.379,2.269 14.769,3.684 23.103,3.684 l 83.99,0 c 7.881,0 15.817,-1.415 21.997,-3.401 6.179,-1.984 10.63,-5.102 14.315,-8.503 3.657,-3.403 6.576,-7.654 8.674,-13.041 2.097,-5.668 3.402,-12.472 3.402,-19.558 l 0,-109.984 c 0,-6.804 -1.503,-13.322 -3.09,-18.991 -1.984,-5.387 -4.819,-9.64 -8.391,-13.324 -3.599,-3.687 -7.936,-6.803 -14.229,-9.072 -6.265,-2.266 -14.486,-3.686 -22.621,-3.686 l -29.452,0"
       style="fill:#000000;fill-opacity:1;fill-rule:evenodd;stroke:none"
       id="path6946"
       inkscape:connector-curvature="0" /><path
       d="m 2815.879,135.416 c 2.806,3.827 6.377,7.144 10.459,9.64 4.083,2.491 8.646,4.192 13.437,4.929 4.762,0.767 9.779,0.54 14.541,-0.594 4.763,-1.133 9.241,-3.203 13.125,-6.01 3.883,-2.779 7.172,-6.32 9.666,-10.374 2.495,-4.054 4.195,-8.59 4.932,-13.408 0.738,-4.819 0.51,-9.921 -0.595,-14.625 -1.105,-4.678 -3.09,-9.017 -5.811,-12.786 -2.749,-3.771 -6.236,-7.001 -10.318,-9.469 -4.082,-2.465 -8.759,-4.166 -13.776,-4.903 -5.046,-0.737 -10.404,-0.51 -15.251,0.623 -4.847,1.106 -9.156,3.148 -12.869,5.84 -3.742,2.721 -6.888,6.122 -9.298,10.15 -2.381,4.023 -4.025,8.643 -4.734,13.462 -0.737,4.819 -0.566,9.866 0.539,14.573 1.105,4.702 3.147,9.097 5.953,12.952"
       style="fill:#000000;fill-opacity:1;fill-rule:evenodd;stroke:none"
       id="path6948"
       inkscape:connector-curvature="0" /><path
       d="m 3407.923,135.247 c 2.835,3.854 6.491,7.229 10.687,9.75 4.166,2.55 8.844,4.251 13.691,4.988 4.847,0.767 9.864,0.512 14.57,-0.623 4.677,-1.132 9.042,-3.174 12.841,-5.953 3.798,-2.777 7.03,-6.292 9.496,-10.346 2.466,-4.054 4.138,-8.646 4.847,-13.549 0.709,-4.905 0.454,-10.121 -0.652,-14.853 -1.134,-4.763 -3.147,-9.072 -5.84,-12.812 -2.721,-3.715 -6.122,-6.861 -10.147,-9.27 -3.997,-2.41 -8.646,-4.082 -13.635,-4.791 -4.989,-0.709 -10.375,-0.482 -15.25,0.681 -4.904,1.16 -9.298,3.26 -13.096,6.009 -3.77,2.779 -6.945,6.208 -9.327,10.234 -2.409,4.024 -4.025,8.645 -4.762,13.406 -0.708,4.763 -0.51,9.696 0.595,14.346 1.106,4.618 3.147,8.927 5.982,12.783"
       style="fill:#000000;fill-opacity:1;fill-rule:evenodd;stroke:none"
       id="path6950"
       inkscape:connector-curvature="0" /><path
       d="m 3408.036,431.636 59.329,0 0,-269.829 -59.329,0 0,269.829 z"
       style="fill:#000000;fill-opacity:1;fill-rule:nonzero;stroke:none"
       id="path6952"
       inkscape:connector-curvature="0" /><path
       d="m 4605.872,207.416 c -3.628,-3.799 -7.568,-7.314 -11.395,-10.205 -3.798,-2.89 -7.455,-5.159 -11.281,-7.144 -3.828,-1.984 -7.824,-3.685 -12.558,-5.215 -4.706,-1.503 -10.176,-2.835 -15.761,-3.742 -5.612,-0.878 -11.338,-1.331 -17.065,-1.303 -11.508,0 -23.045,1.616 -32.541,4.393 -9.468,2.777 -16.895,6.718 -23.357,11.424 -6.435,4.705 -11.878,10.176 -16.668,16.838 -4.791,6.634 -8.93,14.512 -11.877,25.001 -2.949,10.206 -4.678,23.244 -4.706,36 0.227,22.676 4.536,45.355 12.075,64.631 7.541,18.992 18.341,34.583 30.671,47.055 12.331,12.473 26.221,21.827 40.989,28.062 14.769,5.953 30.473,9.071 46.148,9.071 5.358,0 10.744,-0.566 15.704,-1.416 4.961,-0.851 9.468,-1.985 13.55,-3.403 4.082,-1.416 7.739,-3.116 11.197,-5.102 3.458,-2.267 6.774,-4.535 9.864,-7.085 3.09,-2.552 5.981,-5.67 8.59,-8.789 l 8.532,17.009 53.943,0 -39.713,-157.039 c -0.398,-1.42 -0.709,-3.12 -0.964,-4.538 -0.284,-1.7 -0.454,-3.118 -0.567,-4.25 -0.113,-1.135 -0.17,-2.269 -0.17,-3.12 0.028,-1.982 0.255,-3.966 0.595,-5.385 0.34,-1.133 0.822,-2.267 1.332,-2.835 0.511,-0.85 1.049,-1.416 1.872,-1.984 0.793,-0.283 1.87,-0.849 3.571,-1.418 1.701,-0.283 4.025,-0.566 6.349,-0.566 6.52,0 12.955,1.416 20.948,5.67 7.994,3.968 17.547,10.204 26.958,20.41 9.411,9.92 18.68,23.525 25.086,39.401 6.407,15.874 9.95,34.014 10.035,51.874 0.086,17.857 -3.259,35.716 -9.467,51.022 -6.208,15.591 -15.251,28.631 -27.553,40.536 -12.275,11.906 -27.808,22.678 -48.926,30.615 -21.147,7.654 -47.906,12.472 -74.495,12.472 -15.165,0 -30.359,-1.417 -43.398,-3.401 -13.04,-2.269 -23.897,-5.387 -34.356,-9.354 -10.46,-3.687 -20.494,-8.505 -30.076,-14.174 -22.11,-13.323 -41.754,-30.898 -56.806,-50.741 -15.052,-19.841 -25.512,-41.67 -31.351,-66.047 -5.84,-24.093 -7.059,-50.456 -4.763,-73.134 2.297,-22.676 8.136,-41.385 17.888,-58.279 9.723,-16.895 23.357,-31.862 39.429,-43.427 15.052,-11.508 32.117,-20.325 53.122,-26.816 20.975,-6.519 45.892,-10.716 72.595,-10.601 26.702,0.142 55.162,4.62 81.779,13.406 26.589,8.788 51.307,21.885 73.276,38.58 l 26.107,-38.664 c -25.285,-20.58 -54.029,-36.962 -84.047,-47.82 -29.99,-10.858 -61.314,-16.187 -93.883,-16.47 -32.571,-0.255 -66.445,4.563 -94.707,12.87 -28.289,8.334 -50.995,20.126 -70.78,35.773 -18.312,14.428 -34.583,31.579 -46.744,48.784 -12.132,17.236 -20.154,34.554 -25.71,56.381 -5.556,21.829 -8.674,48.189 -7.54,73.984 1.106,25.796 6.434,50.741 15.42,73.983 8.958,23.245 21.572,44.788 37.248,63.78 9.241,11.624 19.502,22.112 30.614,31.748 11.112,9.639 23.074,18.142 35.717,25.796 12.613,7.371 25.908,13.89 40.648,19.277 14.769,5.385 31.011,9.921 48.303,12.756 17.319,3.118 35.688,4.818 54.085,4.818 15.845,0 31.719,-1.417 46.403,-3.686 14.684,-2.55 28.205,-5.951 40.507,-10.204 12.274,-3.969 23.329,-8.788 33.222,-14.173 9.893,-5.102 18.595,-10.772 26.787,-17.008 18.227,-14.173 34.101,-31.749 45.582,-49.605 11.48,-18.142 18.567,-36.853 21.968,-57.829 3.401,-21.258 3.118,-45.069 -0.822,-67.464 -3.912,-22.393 -11.509,-43.654 -22.139,-61.794 -10.63,-18.143 -24.321,-33.734 -40.394,-45.865 -13.237,-10.488 -28.346,-18.68 -43.88,-23.728 -15.505,-5.044 -31.493,-6.887 -44.107,-6.744 -12.642,0.169 -21.94,2.325 -29.083,5.158 -7.143,2.807 -12.104,6.236 -16.073,10.119 -3.968,3.855 -6.945,8.166 -8.986,12.87"
       style="fill:#000000;fill-opacity:1;fill-rule:evenodd;stroke:none"
       id="path6954"
       inkscape:connector-curvature="0" /><path
       d="m 4618.486,338.376 c -1.473,6.804 -4.081,13.323 -7.029,18.142 -2.948,4.819 -6.265,8.222 -10.063,10.489 -3.771,2.552 -7.994,4.252 -13.21,5.102 -5.244,0.851 -11.48,1.134 -17.999,-0.283 -6.492,-1.418 -13.239,-3.968 -20.127,-8.787 -6.916,-4.82 -13.975,-11.623 -20.296,-21.26 -6.293,-9.638 -11.877,-22.395 -15.165,-36 -3.317,-13.605 -4.337,-28.063 -3.742,-38.835 0.624,-10.487 2.863,-16.725 5.301,-21.544 2.437,-4.536 5.046,-7.369 8.05,-9.921 2.977,-2.267 6.378,-3.967 11.084,-5.103 4.705,-1.133 10.771,-1.701 17.064,-0.85 6.293,0.85 12.813,3.118 19.333,6.803 6.491,3.403 12.982,8.505 18.765,16.442 5.754,7.936 11.083,18.423 13.918,29.763 l 14.116,55.842"
       style="fill:#000000;fill-opacity:1;fill-rule:evenodd;stroke:none"
       id="path6956"
       inkscape:connector-curvature="0" /><path
       d="m 5191.879,130.057 0,-52.638 c -16.725,5.557 -32.797,13.382 -45.27,21.8 -12.472,8.389 -21.344,17.376 -29.14,27.722 -7.795,10.375 -14.485,22.08 -19.275,38.494 -4.791,16.414 -7.682,37.504 -7.682,58.421 l 0,181.42 c 0,20.124 3.401,40.25 7.058,56.409 4.564,16.157 11.083,28.346 18.85,39.118 7.767,10.772 16.809,20.124 29.481,28.629 12.67,8.789 28.97,16.724 45.978,22.394 l 0,-52.159 c -3.544,-2.265 -6.917,-4.817 -10.064,-7.369 -3.146,-2.835 -6.037,-5.668 -8.616,-8.786 -2.58,-3.12 -4.791,-6.521 -6.832,-9.923 -2.069,-3.684 -3.912,-7.653 -5.585,-12.189 -1.7,-4.252 -3.202,-9.354 -4.365,-16.725 -1.19,-7.086 -2.211,-16.723 -2.211,-26.077 l 0,-206.873 c 0,-8.559 0.936,-17.121 1.786,-24.122 1.021,-7.031 2.438,-12.531 4.082,-17.349 1.672,-4.847 3.572,-9.043 5.64,-12.814 2.098,-3.797 4.338,-7.17 6.946,-10.431 2.608,-3.258 5.584,-6.348 8.815,-9.212 3.233,-2.863 6.718,-5.441 10.404,-7.74"
       style="fill:#000000;fill-opacity:1;fill-rule:evenodd;stroke:none"
       id="path6958"
       inkscape:connector-curvature="0" /><path
       d="m 5657.186,499.103 0,52.723 c 16.838,-5.67 32.995,-13.605 45.524,-21.827 12.558,-8.503 21.487,-17.575 29.311,-28.063 7.823,-10.489 14.541,-22.11 19.332,-38.55 4.818,-16.159 7.71,-37.135 7.71,-58.11 l 0,-181.42 c 0,-19.869 -3.402,-39.967 -7.058,-56.068 -4.564,-16.129 -11.084,-28.29 -18.907,-39.09 -7.795,-10.772 -16.895,-20.154 -29.651,-28.856 -12.727,-8.704 -29.14,-16.753 -46.261,-22.423 l 0,52.158 c 3.43,2.097 6.689,4.48 9.723,7.086 3.061,2.638 5.867,5.528 8.447,8.618 2.58,3.09 4.904,6.378 7.001,10.035 2.126,3.656 4.026,7.653 5.754,12.189 1.73,4.507 3.289,9.551 4.479,16.95 1.219,7.371 2.296,17.094 2.296,26.788 l 0,206.786 c 0,8.505 -0.963,17.01 -1.842,23.813 -1.049,7.085 -2.466,12.756 -4.167,17.574 -1.701,4.819 -3.685,9.071 -5.84,13.041 -2.154,3.684 -4.507,7.086 -7.143,10.487 -2.607,3.118 -5.527,6.236 -8.645,8.788 -3.147,2.833 -6.52,5.102 -10.063,7.371"
       style="fill:#000000;fill-opacity:1;fill-rule:evenodd;stroke:none"
       id="path6960"
       inkscape:connector-curvature="0" /><path
       d="m 6210.311,342.913 222.406,-90.142 0,-62.562 -315.299,129.46 0,47.053 315.299,129.544 0,-62.644 -222.406,-90.709"
       style="fill:#000000;fill-opacity:1;fill-rule:evenodd;stroke:none"
       id="path6962"
       inkscape:connector-curvature="0" /><path
       d="m 6999.646,319.669 -315.298,-129.46 0,62.562 222.832,90.142 -222.832,90.709 0,62.644 315.298,-129.544 0,-47.053"
       style="fill:#000000;fill-opacity:1;fill-rule:evenodd;stroke:none"
       id="path6964"
       inkscape:connector-curvature="0" /><path
       d="m 4000.732,160.787 c 1.588,1.19 3.175,2.407 4.252,3.287 1.078,0.909 1.644,1.417 2.154,1.927 0.511,0.484 0.936,0.936 1.361,1.39 l -7.767,9.155 0,142.838 c 4.365,3.969 7.994,8.505 10.319,13.323 2.324,4.819 3.344,9.921 3.571,14.174 0.227,4.535 -0.369,8.22 -1.446,11.338 -1.077,3.401 -2.693,5.953 -4.819,8.222 -2.097,2.267 -4.733,4.25 -7.625,5.668 l 0,58.676 c 13.408,-2.265 26.561,-6.517 36.964,-12.187 10.403,-5.387 18.085,-12.19 24.321,-20.125 6.265,-7.939 11.112,-17.01 14.344,-27.214 3.231,-10.203 4.875,-21.543 4.62,-31.747 -0.227,-10.489 -2.353,-19.843 -6.491,-29.198 -4.139,-9.354 -10.261,-18.708 -19.049,-27.496 -8.787,-8.787 -20.239,-17.009 -32.627,-23.245 l 35.348,-42.491 c 2.239,3.317 4.195,6.774 5.868,10.46 1.701,3.685 3.09,7.371 4.195,11.34 1.078,3.685 1.871,7.652 2.381,11.622 l 69.733,0 c -0.737,-7.656 -2.098,-15.025 -4.11,-22.393 -1.985,-7.371 -4.593,-14.826 -7.796,-21.885 -3.203,-7.088 -7.001,-13.947 -11.338,-20.466 -4.309,-6.491 -9.185,-12.643 -14.486,-18.369 l 71.661,-83.112 -98.902,0 -23.867,28.658 c -3.855,-3.259 -7.853,-6.351 -11.991,-9.212 -4.11,-2.891 -8.39,-5.584 -12.671,-7.995 -4.308,-2.438 -8.617,-4.592 -12.954,-6.519 -4.337,-1.926 -8.702,-3.629 -13.153,-5.102 l 0,76.678"
       style="fill:#000000;fill-opacity:1;fill-rule:evenodd;stroke:#000000;stroke-width:0.75;stroke-linecap:butt;stroke-linejoin:bevel;stroke-miterlimit:10;stroke-dasharray:none;stroke-opacity:1"
       id="path6966"
       inkscape:connector-curvature="0" /><path
       d="m 3969.154,77.419 c -16.639,-0.88 -33.448,0.737 -48.302,4.479 -14.825,3.771 -27.694,9.666 -38.155,16.695 -10.459,7.031 -18.509,15.167 -24.973,24.833 -6.491,9.695 -11.367,20.947 -14.315,32.598 -2.919,11.65 -3.911,23.697 -2.976,34.753 0.936,11.084 3.799,21.119 9.071,31.379 5.272,10.205 12.954,20.692 24.491,30.9 11.537,10.203 26.901,20.124 43.257,27.495 -9.78,10.203 -17.887,22.393 -22.876,33.448 -4.989,11.34 -6.859,21.827 -7.143,31.464 -0.255,9.638 1.049,18.143 4.195,26.929 3.147,8.788 8.136,17.859 14.91,25.796 6.747,7.937 15.308,15.023 26.023,20.976 10.715,5.67 23.584,10.205 36.793,12.472 l 0,-62.077 c -2.551,-1.701 -4.734,-4.253 -6.378,-7.088 -1.672,-2.835 -2.777,-5.953 -3.231,-9.637 -0.453,-3.968 -0.227,-8.505 1.361,-13.607 1.559,-4.819 4.507,-10.487 8.248,-15.306 l 0,-110.156 -11.31,13.209 c -5.017,-2.267 -9.865,-4.818 -14.201,-7.85 -4.338,-2.922 -8.164,-6.038 -11.084,-8.788 -2.919,-2.749 -4.96,-5.102 -6.605,-7.397 -1.672,-2.269 -2.948,-4.48 -3.997,-6.718 -1.048,-2.241 -1.899,-4.538 -2.522,-6.861 -0.624,-2.353 -1.021,-4.734 -1.219,-7.172 0.113,-4.367 0.992,-8.76 2.579,-12.84 1.559,-4.084 3.827,-7.881 6.86,-11.282 3.033,-3.403 6.803,-6.407 11.424,-8.844 4.592,-2.466 10.006,-4.339 15.193,-5.303 5.159,-0.963 10.092,-1.02 14.882,-0.253 l 0,-66.247"
       style="fill:#000000;fill-opacity:1;fill-rule:evenodd;stroke:#000000;stroke-width:0.75;stroke-linecap:butt;stroke-linejoin:bevel;stroke-miterlimit:10;stroke-dasharray:none;stroke-opacity:1"
       id="path6968"
       inkscape:connector-curvature="0" /><path
       d="m 1737.256,154.607 58.377,0 -53.634,-154.346 -58.38,0 53.637,154.346"
       style="fill:#000000;fill-opacity:1;fill-rule:evenodd;stroke:none"
       id="path6970"
       inkscape:connector-curvature="0" /><path
       d="m 1747.056,317.4 c 3.021,3.969 6.874,7.654 11.248,10.206 4.373,2.835 9.275,4.535 14.371,5.385 5.097,0.851 10.389,0.566 15.463,-0.567 5.071,-1.134 9.933,-3.401 14.157,-6.521 4.223,-3.116 7.823,-7.085 10.516,-11.336 2.693,-4.253 4.507,-9.071 5.272,-14.173 0.794,-5.104 0.567,-10.772 -0.623,-15.876 -1.219,-5.102 -3.373,-9.637 -6.35,-13.888 -2.948,-3.969 -6.718,-7.654 -11.083,-10.206 -4.385,-2.835 -9.38,-4.535 -14.689,-5.387 -5.31,-0.849 -10.939,-0.566 -16.076,0.569 -5.136,1.134 -9.782,3.401 -13.833,6.236 -4.051,3.118 -7.509,6.802 -10.128,11.055 -2.622,4.535 -4.408,9.637 -5.21,14.739 -0.802,5.387 -0.624,10.772 0.564,15.874 1.185,5.102 3.379,9.639 6.401,13.89"
       style="fill:#000000;fill-opacity:1;fill-rule:evenodd;stroke:none"
       id="path6972"
       inkscape:connector-curvature="0" /><path
       d="m 8425.303,226.125 0,57.259 30.047,0 0,85.324 c 0,11.906 2.72,23.81 5.612,33.448 3.572,9.639 8.645,17.008 14.712,23.527 6.066,6.238 13.096,11.623 22.536,15.309 9.438,3.968 21.26,6.235 33.022,6.235 l 43.372,0 c 10.798,0 21.712,-2.552 30.726,-5.102 9.015,-3.401 16.187,-8.22 22.508,-14.456 6.32,-5.953 11.763,-13.041 15.675,-23.245 3.94,-9.92 6.464,-22.678 6.464,-35.433 l 0,-39.402 -70.357,0 0,36.283 c 0,4.253 -0.595,8.506 -1.162,11.622 -0.737,2.837 -1.729,4.537 -2.665,5.387 -0.963,1.134 -1.842,1.983 -3.401,2.268 -1.56,0.567 -3.798,0.852 -6.009,0.852 l -27.469,0 c -2.04,0 -4.109,-0.285 -5.556,-0.569 -1.473,-0.568 -2.352,-1.134 -3.288,-1.983 -0.935,-1.135 -1.926,-2.554 -2.664,-5.67 -0.736,-2.835 -1.19,-7.654 -1.19,-12.19 l 0,-82.205 74.352,0 0,-57.259 -74.352,0 0,-87.506 134.05,0 0,-61.2 -204.916,0 0,148.706 -30.047,0"
       style="fill:#000000;fill-opacity:1;fill-rule:evenodd;stroke:none"
       id="path6974"
       inkscape:connector-curvature="0" /><path
       d="m 9150.461,224.141 73.105,0 0,-30.217 -78.433,0 0,-116.505 -70.867,0 0,116.505 -78.435,0 0,30.217 73.134,0 -7.852,28.063 -65.282,0 0,30.33 56.807,0 -41.754,149.102 70.866,0 27.949,-109.415 27.949,109.415 70.868,0 -41.755,-149.102 56.805,0 0,-30.33 -65.281,0 -7.824,-28.063"
       style="fill:#000000;fill-opacity:1;fill-rule:evenodd;stroke:none"
       id="path6976"
       inkscape:connector-curvature="0" /><path
       d="m 7448.767,464.518 0,-26.929 c 13.295,-2.55 26.305,-7.087 36.057,-11.906 9.751,-4.817 16.214,-10.487 23.159,-18.992 6.973,-8.503 14.456,-20.126 19.19,-30.047 4.734,-10.203 6.747,-18.425 7.03,-26.928 l -70.27,-13.89 c -0.086,3.118 -0.454,6.236 -1.079,9.071 -0.622,2.835 -1.445,5.387 -2.465,7.652 -1.02,2.269 -2.183,4.537 -3.43,6.238 -1.218,1.7 -2.494,3.401 -3.855,4.534 -1.361,1.419 -2.806,2.551 -4.337,3.401 l 0,-70.298 c 21.629,-7.087 42.378,-17.574 56.664,-28.063 14.316,-10.772 22.139,-21.26 27.95,-32.032 5.811,-10.77 9.581,-21.628 10.63,-34.639 1.021,-13.011 -0.709,-28.262 -5.103,-43.114 -4.393,-14.854 -11.479,-29.284 -20.266,-40.849 -8.789,-11.593 -19.277,-20.296 -31.154,-26.956 -11.877,-6.634 -25.115,-11.226 -38.721,-13.352 l 0,-27.61 -38.58,0 0,27.327 c -13.946,2.409 -27.553,6.858 -38.721,12.444 -11.168,5.586 -19.871,12.33 -27.723,20.664 -7.851,8.307 -14.853,18.227 -20.041,28.999 -5.187,10.8 -8.588,22.478 -10.091,34.356 l 71.603,13.663 c -0.283,-4.562 0.17,-9.156 1.333,-13.549 1.189,-4.395 3.09,-8.561 5.186,-11.962 2.071,-3.373 4.309,-6.012 7.371,-8.475 3.062,-2.44 6.944,-4.735 11.083,-6.435 l 0,91.19 c -18.254,6.518 -35.802,15.306 -47.651,23.528 -11.849,8.503 -17.999,16.157 -23.64,27.495 -5.612,11.055 -10.714,25.796 -12.926,38.269 -2.24,12.753 -1.616,22.961 1.814,34.865 3.402,12.19 9.553,26.363 15.846,36.566 6.293,10.206 12.67,16.442 23.726,22.962 11.027,6.236 26.73,12.755 42.831,16.725 l 0,26.077 38.58,0"
       style="fill:#000000;fill-opacity:1;fill-rule:evenodd;stroke:none"
       id="path6978"
       inkscape:connector-curvature="0" /><path
       d="m 7448.767,146.529 c 4.96,1.898 9.609,4.733 13.323,8.078 3.713,3.345 6.519,7.2 8.588,11.878 2.098,4.704 3.488,10.204 3.742,15.789 0.255,5.582 -0.595,11.224 -2.097,15.93 -1.503,4.735 -3.657,8.562 -7.625,12.585 -3.94,4.026 -9.723,8.307 -15.931,11.652 l 0,-75.912"
       style="fill:#000000;fill-opacity:1;fill-rule:evenodd;stroke:none"
       id="path6980"
       inkscape:connector-curvature="0" /><path
       d="m 7410.187,368.141 c -3.033,-1.419 -5.811,-3.684 -7.964,-5.953 -2.183,-2.269 -3.715,-4.819 -4.991,-8.22 -1.246,-3.401 -2.21,-7.654 -2.352,-11.906 -0.17,-4.251 0.482,-8.505 1.502,-11.906 1.021,-3.402 2.41,-6.235 4.734,-9.072 2.296,-2.55 5.528,-5.385 9.071,-7.652 l 0,54.709"
       style="fill:#000000;fill-opacity:1;fill-rule:evenodd;stroke:none"
       id="path6982"
       inkscape:connector-curvature="0" /><path
       d="m 10148.34,464.518 0,-26.929 c 13.27,-2.55 26.31,-7.087 36.03,-11.906 9.75,-4.817 16.21,-10.487 23.19,-18.992 6.97,-8.503 14.43,-20.126 19.16,-30.047 4.73,-10.203 6.75,-18.425 7.03,-26.928 l -70.24,-13.89 c -0.09,3.118 -0.49,6.236 -1.08,9.071 -0.62,2.835 -1.47,5.387 -2.47,7.652 -1.02,2.269 -2.21,4.537 -3.43,6.238 -1.24,1.7 -2.52,3.401 -3.88,4.534 -1.33,1.419 -2.78,2.551 -4.31,3.401 l 0,-70.298 c 21.63,-7.087 42.38,-17.574 56.67,-28.063 14.28,-10.772 22.14,-21.26 27.92,-32.032 5.81,-10.77 9.61,-21.628 10.63,-34.639 1.04,-13.011 -0.68,-28.262 -5.08,-43.114 -4.39,-14.854 -11.48,-29.284 -20.26,-40.849 -8.82,-11.593 -19.31,-20.296 -31.16,-26.956 -11.87,-6.634 -25.11,-11.226 -38.72,-13.352 l 0,-27.61 -38.61,0 0,27.327 c -13.91,2.409 -27.52,6.858 -38.69,12.444 -11.17,5.586 -19.9,12.33 -27.75,20.664 -7.82,8.307 -14.83,18.227 -20.01,28.999 -5.22,10.8 -8.62,22.478 -10.09,34.356 l 71.6,13.663 c -0.28,-4.562 0.14,-9.156 1.33,-13.549 1.19,-4.395 3.09,-8.561 5.16,-11.962 2.1,-3.373 4.34,-6.012 7.4,-8.475 3.06,-2.44 6.94,-4.735 11.05,-6.435 l 0,91.19 c -18.22,6.518 -35.77,15.306 -47.62,23.528 -11.88,8.503 -18.03,16.157 -23.64,27.495 -5.61,11.055 -10.71,25.796 -12.95,38.269 -2.21,12.753 -1.59,22.961 1.81,34.865 3.4,12.19 9.58,26.363 15.87,36.566 6.27,10.206 12.68,16.442 23.7,22.962 11.06,6.236 26.73,12.755 42.83,16.725 l 0,26.077 38.61,0"
       style="fill:#000000;fill-opacity:1;fill-rule:evenodd;stroke:none"
       id="path6984"
       inkscape:connector-curvature="0" /><path
       d="m 10148.34,146.529 c 4.96,1.898 9.61,4.733 13.32,8.078 3.72,3.345 6.5,7.2 8.59,11.878 2.07,4.704 3.46,10.204 3.72,15.789 0.28,5.582 -0.6,11.224 -2.1,15.93 -1.5,4.735 -3.63,8.562 -7.6,12.585 -3.97,4.026 -9.72,8.307 -15.93,11.652 l 0,-75.912"
       style="fill:#000000;fill-opacity:1;fill-rule:evenodd;stroke:none"
       id="path6986"
       inkscape:connector-curvature="0" /><path
       d="m 10109.73,368.141 c -3.03,-1.419 -5.81,-3.684 -7.96,-5.953 -2.16,-2.269 -3.71,-4.819 -4.96,-8.22 -1.25,-3.401 -2.21,-7.654 -2.38,-11.906 -0.15,-4.251 0.48,-8.505 1.5,-11.906 1.02,-3.402 2.44,-6.235 4.73,-9.072 2.33,-2.55 5.53,-5.385 9.07,-7.652 l 0,54.709"
       style="fill:#000000;fill-opacity:1;fill-rule:evenodd;stroke:none"
       id="path6988"
       inkscape:connector-curvature="0" /><path
       d="m 9849.371,435.039 49.975,0 0,-249.705 -49.975,0 0,249.705 z"
       style="fill:#000000;fill-opacity:1;fill-rule:nonzero;stroke:none"
       id="path6990"
       inkscape:connector-curvature="0" /><path
       d="m 9917.402,331.573 31.748,-146.239 49.948,0 -31.748,146.239 30.557,103.466 -49.947,0 -30.558,-103.466"
       style="fill:#000000;fill-opacity:1;fill-rule:evenodd;stroke:none"
       id="path6992"
       inkscape:connector-curvature="0" /><path
       d="m 9685.443,435.039 0,-249.705 49.948,0 0,100.035 10.005,0 0,49.89 -10.005,0 0,99.78 -49.948,0"
       style="fill:#000000;fill-opacity:1;fill-rule:evenodd;stroke:none"
       id="path6994"
       inkscape:connector-curvature="0" /><path
       d="m 9827.517,435.039 0,-249.705 -49.947,0 0,100.035 -10.006,0 0,49.89 10.006,0 0,99.78 49.947,0"
       style="fill:#000000;fill-opacity:1;fill-rule:evenodd;stroke:none"
       id="path6996"
       inkscape:connector-curvature="0" /><path
       d="m 10917.47,464.518 0,-26.929 c 13.29,-2.55 26.3,-7.087 36.05,-11.906 9.75,-4.817 16.22,-10.487 23.16,-18.992 6.98,-8.503 14.46,-20.126 19.19,-30.047 4.74,-10.203 6.75,-18.425 7.03,-26.928 l -70.27,-13.89 c -0.08,3.118 -0.45,6.236 -1.07,9.071 -0.63,2.835 -1.45,5.387 -2.47,7.652 -1.02,2.269 -2.19,4.537 -3.43,6.238 -1.22,1.7 -2.5,3.401 -3.86,4.534 -1.36,1.419 -2.8,2.551 -4.33,3.401 l 0,-70.298 c 21.62,-7.087 42.37,-17.574 56.66,-28.063 14.31,-10.772 22.14,-21.26 27.95,-32.032 5.81,-10.77 9.58,-21.628 10.63,-34.639 1.02,-13.011 -0.71,-28.262 -5.1,-43.114 -4.39,-14.854 -11.48,-29.284 -20.27,-40.849 -8.79,-11.593 -19.28,-20.296 -31.15,-26.956 -11.88,-6.634 -25.12,-11.226 -38.72,-13.352 l 0,-27.61 -38.58,0 0,27.327 c -13.95,2.409 -27.56,6.858 -38.72,12.444 -11.17,5.586 -19.87,12.33 -27.73,20.664 -7.85,8.307 -14.85,18.227 -20.04,28.999 -5.19,10.8 -8.59,22.478 -10.09,34.356 l 71.6,13.663 c -0.28,-4.562 0.17,-9.156 1.34,-13.549 1.19,-4.395 3.09,-8.561 5.18,-11.962 2.07,-3.373 4.31,-6.012 7.37,-8.475 3.06,-2.44 6.95,-4.735 11.09,-6.435 l 0,91.19 c -18.26,6.518 -35.8,15.306 -47.65,23.528 -11.85,8.503 -18,16.157 -23.64,27.495 -5.62,11.055 -10.72,25.796 -12.93,38.269 -2.24,12.753 -1.62,22.961 1.81,34.865 3.41,12.19 9.55,26.363 15.85,36.566 6.29,10.206 12.67,16.442 23.73,22.962 11.02,6.236 26.72,12.755 42.83,16.725 l 0,26.077 38.58,0"
       style="fill:#000000;fill-opacity:1;fill-rule:evenodd;stroke:none"
       id="path6998"
       inkscape:connector-curvature="0" /><path
       d="m 10917.47,146.529 c 4.96,1.898 9.61,4.733 13.32,8.078 3.71,3.345 6.52,7.2 8.59,11.878 2.1,4.704 3.48,10.204 3.74,15.789 0.25,5.582 -0.6,11.224 -2.1,15.93 -1.5,4.735 -3.66,8.562 -7.62,12.585 -3.94,4.026 -9.73,8.307 -15.93,11.652 l 0,-75.912"
       style="fill:#000000;fill-opacity:1;fill-rule:evenodd;stroke:none"
       id="path7000"
       inkscape:connector-curvature="0" /><path
       d="m 10878.89,368.141 c -3.04,-1.419 -5.81,-3.684 -7.97,-5.953 -2.18,-2.269 -3.71,-4.819 -4.99,-8.22 -1.24,-3.401 -2.21,-7.654 -2.35,-11.906 -0.17,-4.251 0.48,-8.505 1.5,-11.906 1.02,-3.402 2.41,-6.235 4.73,-9.072 2.3,-2.55 5.53,-5.385 9.08,-7.652 l 0,54.709"
       style="fill:#000000;fill-opacity:1;fill-rule:evenodd;stroke:none"
       id="path7002"
       inkscape:connector-curvature="0" /><path
       d="m 10698.8,410.378 c 9.04,-1.135 17.97,-3.97 25.29,-7.371 7.28,-3.684 12.95,-8.22 18.08,-14.173 5.13,-5.67 9.7,-12.756 12.84,-19.56 3.15,-6.803 4.88,-13.322 5.47,-20.127 l -48.47,-9.635 c -0.06,1.984 -0.25,3.967 -0.62,5.951 -0.34,1.701 -0.88,3.403 -1.5,5.104 -0.66,1.417 -1.42,3.118 -2.22,4.251 -0.79,1.134 -1.61,2.268 -2.49,3.118 -0.88,1.134 -1.82,1.983 -2.86,2.551 -1.08,0.85 -2.27,1.418 -3.52,1.984 l 0,47.907"
       style="fill:#000000;fill-opacity:1;fill-rule:evenodd;stroke:none"
       id="path7004"
       inkscape:connector-curvature="0" /><path
       d="m 10698.8,208.237 c 3.52,0.936 6.86,2.524 9.61,4.51 2.75,2.012 4.88,4.391 6.61,7.17 1.75,2.807 3.11,5.925 3.76,9.609 0.69,3.401 0.66,7.371 0.09,10.772 -0.54,3.401 -1.62,6.52 -3.52,9.354 -1.87,3.119 -4.59,6.237 -9.6,9.355 -5.02,3.118 -12.36,6.236 -18.77,8.786 -6.41,2.269 -11.88,4.253 -19.79,7.371 -7.9,3.401 -18.25,8.503 -25.51,13.607 -7.25,5.385 -11.39,10.488 -15.05,17.008 -3.65,6.519 -6.8,14.173 -8.64,21.827 -1.82,7.368 -2.33,14.456 -1.56,21.541 0.76,7.088 2.75,13.892 6.09,21.827 3.35,7.656 8,16.727 17.15,24.096 9.16,7.369 22.82,13.324 36.82,15.591 l 0,-47.905 c -2.38,-0.851 -4.59,-2.269 -6.4,-4.254 -1.79,-1.701 -3.21,-3.684 -4.2,-6.518 -0.96,-2.552 -1.53,-5.67 -1.56,-8.788 -0.06,-3.12 0.45,-5.953 1.56,-8.788 1.13,-2.835 2.92,-5.668 6.92,-8.786 4.02,-2.835 10.23,-5.953 15.5,-8.222 5.25,-1.984 9.56,-3.118 18.91,-7.086 9.38,-3.967 23.81,-10.488 33.79,-17.576 9.98,-7.369 15.53,-15.589 19.47,-22.959 3.97,-7.654 6.33,-14.742 6.81,-23.53 0.48,-9.069 -0.91,-19.839 -3.92,-30.017 -3,-10.177 -7.62,-19.644 -14.14,-27.723 -6.52,-8.05 -14.94,-14.683 -23.64,-19.333 -8.7,-4.619 -17.66,-7.283 -26.79,-8.05 l 0,47.111"
       style="fill:#000000;fill-opacity:1;fill-rule:evenodd;stroke:none"
       id="path7006"
       inkscape:connector-curvature="0" /><path
       d="m 10676.49,161.014 c -9.07,1.16 -17.94,3.797 -25.88,7.597 -7.93,3.797 -14.94,8.786 -20.86,14.768 -5.95,5.951 -10.8,12.896 -14.43,20.437 -3.63,7.541 -6.01,15.675 -7.03,24.01 l 49.38,9.354 c -0.14,-3.403 0.2,-6.804 1.05,-9.638 0.85,-3.118 2.18,-5.953 3.8,-8.446 1.58,-2.41 3.46,-4.422 5.81,-6.152 2.35,-1.759 5.19,-3.203 8.16,-4.197 l 0,-47.733"
       style="fill:#000000;fill-opacity:1;fill-rule:evenodd;stroke:none"
       id="path7008"
       inkscape:connector-curvature="0" /><path
       d="m 1140.682,139.669 c 3.019,4.138 6.866,7.682 11.24,10.346 4.37,2.692 9.266,4.536 14.409,5.329 5.139,0.795 10.527,0.568 15.632,-0.653 5.103,-1.217 9.925,-3.429 14.094,-6.433 4.173,-3.006 7.691,-6.804 10.364,-11.141 2.673,-4.365 4.501,-9.24 5.295,-14.428 0.791,-5.158 0.55,-10.63 -0.635,-15.677 -1.185,-5.044 -3.314,-9.694 -6.248,-13.748 -2.931,-4.053 -6.67,-7.511 -11.054,-10.145 -4.386,-2.638 -9.412,-4.48 -14.812,-5.275 -5.4,-0.793 -11.169,-0.538 -16.367,0.653 -5.199,1.219 -9.825,3.373 -13.83,6.292 -4.006,2.922 -7.39,6.576 -9.958,10.887 -2.569,4.335 -4.32,9.298 -5.108,14.454 -0.786,5.19 -0.604,10.603 0.581,15.647 1.188,5.047 3.379,9.782 6.397,13.892"
       style="fill:#000000;fill-opacity:1;fill-rule:evenodd;stroke:none"
       id="path7010"
       inkscape:connector-curvature="0" /><path
       d="m 1140.685,317.117 c 3.022,4.252 6.872,7.654 11.246,10.206 4.376,2.833 9.274,4.533 14.371,5.384 5.096,0.85 10.389,0.567 15.464,-0.566 5.073,-1.134 9.926,-3.401 14.152,-6.519 4.224,-3.12 7.819,-6.804 10.517,-11.34 2.699,-4.253 4.499,-9.071 5.284,-14.173 0.785,-5.102 0.552,-10.487 -0.643,-15.591 -1.2,-5.102 -3.365,-9.92 -6.328,-14.173 -2.965,-3.967 -6.724,-7.654 -11.103,-10.204 -4.377,-2.835 -9.369,-4.535 -14.681,-5.385 -5.309,-0.851 -10.936,-0.568 -16.075,0.565 -5.136,1.136 -9.782,3.401 -13.833,6.238 -4.051,3.118 -7.506,6.802 -10.128,11.338 -2.622,4.252 -4.405,9.354 -5.21,14.456 -0.802,5.385 -0.621,10.772 0.564,15.874 1.188,5.102 3.382,9.639 6.403,13.89"
       style="fill:#000000;fill-opacity:1;fill-rule:evenodd;stroke:none"
       id="path7012"
       inkscape:connector-curvature="0" /><path
       d="m 7951.122,237.746 88.923,0 0,-30.189 -88.923,0 0,-10.571 c 0,-8.335 -0.453,-16.727 -0.282,-22.168 0.311,-5.442 1.048,-7.966 1.757,-9.893 0.68,-1.928 1.389,-3.231 2.154,-4.421 0.766,-1.221 1.616,-2.269 2.862,-3.488 1.248,-1.19 2.865,-2.524 5.415,-4.054 2.552,-1.501 6.038,-3.23 9.61,-4.678 l 0,-70.865 c -9.185,-0.255 -18.369,1.389 -28.404,5.358 -10.034,3.97 -20.891,10.204 -30.898,20.466 -10.034,10.234 -19.217,24.435 -24.943,36.311 -5.727,11.878 -8.136,21.46 -8.136,31.125 l 0,36.878 -25.03,0 0,30.189 25.03,0 0,30.332 -25.03,0 0,30.33 25.03,0 0,39.968 c 0,7.938 1.728,15.873 4.762,24.945 3.514,9.356 9.241,19.843 16.157,28.914 6.917,9.354 15.081,17.008 23.442,23.244 8.363,5.953 16.952,10.204 25.002,12.756 8.023,2.835 15.534,3.686 23.018,3.401 l 0,-70.865 c -4.592,-1.701 -8.986,-3.97 -12.047,-6.237 -3.062,-1.985 -4.791,-4.25 -6.265,-6.519 -1.503,-2.552 -2.75,-5.102 -3.373,-11.34 -0.652,-5.951 0.169,-15.306 0.169,-24.377 l 0,-13.89 88.923,0 0,-30.33 -88.923,0 0,-30.332"
       style="fill:#000000;fill-opacity:1;fill-rule:evenodd;stroke:none"
       id="path7014"
       inkscape:connector-curvature="0" /><path
       d="m 8071.85,397.054 c 8.929,-10.772 15.364,-22.676 19.333,-32.882 3.94,-9.923 5.442,-17.858 5.3,-25.796 l -70.865,-26.078 0,3.684 c 0,11.624 1.303,22.962 -2.269,30.332 -3.599,7.654 -11.422,11.055 -19.246,14.457 l 0,70.865 c 11.989,0.285 24.008,-2.552 35.715,-8.503 11.707,-6.236 23.103,-15.591 32.032,-26.079"
       style="fill:#000000;fill-opacity:1;fill-rule:evenodd;stroke:none"
       id="path7016"
       inkscape:connector-curvature="0" /><path
       d="m 8071.85,112.256 c 8.929,10.688 15.364,22.678 19.333,32.627 3.94,9.951 5.442,17.859 5.3,25.796 l -70.865,26.307 0,-3.799 c 0,-11.453 1.303,-22.905 -2.269,-30.388 -3.599,-7.483 -11.422,-10.999 -19.246,-14.515 l 0,-70.865 c 12.018,-0.143 24.008,2.636 35.715,8.702 11.707,6.095 23.103,15.45 32.032,26.135"
       style="fill:#000000;fill-opacity:1;fill-rule:evenodd;stroke:none"
       id="path7018"
       inkscape:connector-curvature="0" /></g></svg>