<?xml version="1.0" encoding="UTF-8" standalone="no"?>
<!-- Created with Inkscape (http://www.inkscape.org/) -->

<svg
   xmlns:dc="http://purl.org/dc/elements/1.1/"
   xmlns:cc="http://creativecommons.org/ns#"
   xmlns:rdf="http://www.w3.org/1999/02/22-rdf-syntax-ns#"
   xmlns:svg="http://www.w3.org/2000/svg"
   xmlns="http://www.w3.org/2000/svg"
   xmlns:sodipodi="http://sodipodi.sourceforge.net/DTD/sodipodi-0.dtd"
   xmlns:inkscape="http://www.inkscape.org/namespaces/inkscape"
   width="210mm"
   height="297mm"
   viewBox="0 0 744.09448819 1052.3622047"
   id="svg4223"
   version="1.1"
   inkscape:version="0.91 r13725"
   sodipodi:docname="6.svg">
  <defs
     id="defs4225" />
  <sodipodi:namedview
     id="base"
     pagecolor="#ffffff"
     bordercolor="#666666"
     borderopacity="1.0"
     inkscape:pageopacity="0.0"
     inkscape:pageshadow="2"
     inkscape:zoom="0.35"
     inkscape:cx="375"
     inkscape:cy="520"
     inkscape:document-units="px"
     inkscape:current-layer="layer1"
     showgrid="false"
     inkscape:window-width="1366"
     inkscape:window-height="706"
     inkscape:window-x="-8"
     inkscape:window-y="-8"
     inkscape:window-maximized="1" />
  <metadata
     id="metadata4228">
    <rdf:RDF>
      <cc:Work
         rdf:about="">
        <dc:format>image/svg+xml</dc:format>
        <dc:type
           rdf:resource="http://purl.org/dc/dcmitype/StillImage" />
        <dc:title></dc:title>
      </cc:Work>
    </rdf:RDF>
  </metadata>
  <g
     inkscape:label="Layer 1"
     inkscape:groupmode="layer"
     id="layer1">
    <g
       transform="matrix(0.16,0,0,-0.16,-1519.0628,1656.6251)"
       id="g5268">
      <path
         inkscape:connector-curvature="0"
         id="path5270"
         style="fill:none;stroke:#000000;stroke-width:6.25;stroke-linecap:round;stroke-linejoin:round;stroke-miterlimit:10;stroke-dasharray:none;stroke-opacity:1"
         d="m 11964,7206 0,-322" />
    </g>
    <g
       transform="matrix(0,-0.16,-0.16,0,394.77715,576.38506)"
       id="g5272">
      <path
         inkscape:connector-curvature="0"
         id="path5274"
         style="fill:none;stroke:#000000;stroke-width:6.25;stroke-linecap:round;stroke-linejoin:round;stroke-miterlimit:10;stroke-dasharray:none;stroke-opacity:1"
         d="m 118.3936,-61.68633 c 9.4147,18.0694 14.5684,38.05401 15.0665,58.42287" />
    </g>
    <g
       transform="matrix(0,-0.16,-0.16,0,388.37715,589.98506)"
       id="g5276">
      <path
         inkscape:connector-curvature="0"
         id="path5278"
         style="fill:none;stroke:#000000;stroke-width:6.25;stroke-linecap:round;stroke-linejoin:round;stroke-miterlimit:10;stroke-dasharray:none;stroke-opacity:1"
         d="m 156.174,-165.4265 c 19.3991,18.3141 35.4257,39.8975 47.3474,63.7638" />
    </g>
    <g
       transform="matrix(0,-0.16,-0.16,0,391.09715,587.42506)"
       id="g5280">
      <path
         inkscape:connector-curvature="0"
         id="path5282"
         style="fill:none;stroke:#000000;stroke-width:6.25;stroke-linecap:round;stroke-linejoin:round;stroke-miterlimit:10;stroke-dasharray:none;stroke-opacity:1"
         d="m 66.93812,-192.1758 c 27.04268,9.4194 51.79288,24.4402 72.63268,44.0804" />
    </g>
    <g
       transform="matrix(0,-0.16,-0.16,0,387.57715,587.74506)"
       id="g5284">
      <path
         inkscape:connector-curvature="0"
         id="path5286"
         style="fill:none;stroke:#000000;stroke-width:6.25;stroke-linecap:round;stroke-linejoin:round;stroke-miterlimit:10;stroke-dasharray:none;stroke-opacity:1"
         d="m -13.56887,-225.0914 c 28.02763,-1.6895 56.12429,1.8702 82.84496,10.4963" />
    </g>
    <g
       transform="matrix(0,-0.16,-0.16,0,381.97715,588.38506)"
       id="g5288">
      <path
         inkscape:connector-curvature="0"
         id="path5290"
         style="fill:none;stroke:#000000;stroke-width:6.25;stroke-linecap:round;stroke-linejoin:round;stroke-miterlimit:10;stroke-dasharray:none;stroke-opacity:1"
         d="m -89.47425,-244.652 c 25.71361,-9.404 52.749,-14.6955 80.1106,-15.6797" />
    </g>
    <g
       transform="matrix(0,-0.16,-0.16,0,391.89715,591.74506)"
       id="g5292">
      <path
         inkscape:connector-curvature="0"
         id="path5294"
         style="fill:none;stroke:#000000;stroke-width:6.25;stroke-linecap:round;stroke-linejoin:round;stroke-miterlimit:10;stroke-dasharray:none;stroke-opacity:1"
         d="m -131.9117,-142.932 c 18.415,-16.9952 39.94073,-30.2718 63.39324,-39.0995" />
    </g>
    <g
       transform="matrix(0,-0.16,-0.16,0,393.81715,593.50506)"
       id="g5296">
      <path
         inkscape:connector-curvature="0"
         id="path5298"
         style="fill:none;stroke:#000000;stroke-width:6.25;stroke-linecap:round;stroke-linejoin:round;stroke-miterlimit:10;stroke-dasharray:none;stroke-opacity:1"
         d="m -161.9427,-75.07872 c 9.8522,-21.25094 23.7907,-40.35498 41.0208,-56.22298" />
    </g>
    <g
       transform="matrix(0,-0.16,-0.16,0,394.45715,594.94506)"
       id="g5300">
      <path
         inkscape:connector-curvature="0"
         id="path5302"
         style="fill:none;stroke:#000000;stroke-width:6.25;stroke-linecap:round;stroke-linejoin:round;stroke-miterlimit:10;stroke-dasharray:none;stroke-opacity:1"
         d="m -168.434,-4.71657 c 0.6359,-22.70619 5.8561,-45.04942 15.347,-65.68673" />
    </g>
    <g
       transform="matrix(0.16,0,0,-0.16,-1519.0628,1656.6251)"
       id="g5304">
      <path
         inkscape:connector-curvature="0"
         id="path5306"
         style="fill:none;stroke:#000000;stroke-width:6.25;stroke-linecap:round;stroke-linejoin:round;stroke-miterlimit:10;stroke-dasharray:none;stroke-opacity:1"
         d="m 11964,6466 1,-319" />
    </g>
    <g
       transform="matrix(0,-0.16,-0.16,0,393.01715,601.98506)"
       id="g5308">
      <path
         inkscape:connector-curvature="0"
         id="path5310"
         style="fill:none;stroke:#000000;stroke-width:6.25;stroke-linecap:round;stroke-linejoin:round;stroke-miterlimit:10;stroke-dasharray:none;stroke-opacity:1"
         d="m -443.2475,-14.96421 c 2.2456,-66.51555 19.4325,-131.67289 50.2866,-190.64219" />
    </g>
    <g
       transform="matrix(0,-0.16,-0.16,0,387.41715,591.42506)"
       id="g5312">
      <path
         inkscape:connector-curvature="0"
         id="path5314"
         style="fill:none;stroke:#000000;stroke-width:6.25;stroke-linecap:round;stroke-linejoin:round;stroke-miterlimit:10;stroke-dasharray:none;stroke-opacity:1"
         d="m -459.1836,-240.8167 c 32.705,-62.3611 77.7697,-117.407 132.4459,-161.7808" />
    </g>
    <g
       transform="matrix(0,-0.16,-0.16,0,385.81715,591.10506)"
       id="g5316">
      <path
         inkscape:connector-curvature="0"
         id="path5318"
         style="fill:none;stroke:#000000;stroke-width:6.25;stroke-linecap:round;stroke-linejoin:round;stroke-miterlimit:10;stroke-dasharray:none;stroke-opacity:1"
         d="m -328.9812,-412.344 c 53.6708,-42.8203 115.1849,-74.751 181.0909,-94.0005" />
    </g>
    <g
       transform="matrix(0,-0.16,-0.16,0,385.17715,590.14506)"
       id="g5320">
      <path
         inkscape:connector-curvature="0"
         id="path5322"
         style="fill:none;stroke:#000000;stroke-width:6.25;stroke-linecap:round;stroke-linejoin:round;stroke-miterlimit:10;stroke-dasharray:none;stroke-opacity:1"
         d="m -153.5014,-509.8956 c 64.31241,-19.361 131.70703,-26.3806 198.62893,-20.6887" />
    </g>
    <g
       transform="matrix(0,-0.16,-0.16,0,354.93715,594.14506)"
       id="g5324">
      <path
         inkscape:connector-curvature="0"
         id="path5326"
         style="fill:none;stroke:#000000;stroke-width:6.25;stroke-linecap:round;stroke-linejoin:round;stroke-miterlimit:10;stroke-dasharray:none;stroke-opacity:1"
         d="m 70.57024,-719.0548 c 67.02546,6.5599 132.80556,22.433 195.43506,47.1598" />
    </g>
    <g
       transform="matrix(0,-0.16,-0.16,0,395.25715,576.38506)"
       id="g5328">
      <path
         inkscape:connector-curvature="0"
         id="path5330"
         style="fill:none;stroke:#000000;stroke-width:6.25;stroke-linecap:round;stroke-linejoin:round;stroke-miterlimit:10;stroke-dasharray:none;stroke-opacity:1"
         d="m 154.6928,-420.9779 c 53.3825,19.616 102.547,49.2059 144.8729,87.1926" />
    </g>
    <g
       transform="matrix(0,-0.16,-0.16,0,388.37715,582.62506)"
       id="g5332">
      <path
         inkscape:connector-curvature="0"
         id="path5334"
         style="fill:none;stroke:#000000;stroke-width:6.25;stroke-linecap:round;stroke-linejoin:round;stroke-miterlimit:10;stroke-dasharray:none;stroke-opacity:1"
         d="m 337.89,-375.9795 c 46.9854,42.2254 85.6399,92.8836 113.9613,149.3505" />
    </g>
    <g
       transform="matrix(0,-0.16,-0.16,0,395.73715,570.14506)"
       id="g5336">
      <path
         inkscape:connector-curvature="0"
         id="path5338"
         style="fill:none;stroke:#000000;stroke-width:6.25;stroke-linecap:round;stroke-linejoin:round;stroke-miterlimit:10;stroke-dasharray:none;stroke-opacity:1"
         d="m 373.9392,-181.1345 c 27.7799,57.3496 41.9966,120.32044 41.5506,184.04247" />
    </g>
    <g
       transform="matrix(0,-0.16,-0.16,0,385.33715,466.14506)"
       id="g5340">
      <path
         inkscape:connector-curvature="0"
         id="path5342"
         style="fill:none;stroke:#000000;stroke-width:6.25;stroke-linecap:round;stroke-linejoin:round;stroke-miterlimit:10;stroke-dasharray:none;stroke-opacity:1"
         d="m 340.8725,-398.6304 c 24.4131,20.8759 46.8569,43.9503 67.0484,68.9324" />
    </g>
    <g
       transform="matrix(0,-0.16,-0.16,0,400.85715,445.66506)"
       id="g5344">
      <path
         inkscape:connector-curvature="0"
         id="path5346"
         style="fill:none;stroke:#000000;stroke-width:6.25;stroke-linecap:round;stroke-linejoin:round;stroke-miterlimit:10;stroke-dasharray:none;stroke-opacity:1"
         d="m 279.7472,-232.1072 c 20.1525,24.2888 37.056,51.0988 50.284,79.7535" />
    </g>
    <g
       transform="matrix(0,-0.16,-0.16,0,388.21715,476.54506)"
       id="g5348">
      <path
         inkscape:connector-curvature="0"
         id="path5350"
         style="fill:none;stroke:#000000;stroke-width:6.25;stroke-linecap:round;stroke-linejoin:round;stroke-miterlimit:10;stroke-dasharray:none;stroke-opacity:1"
         d="m 522.3376,-231.8959 c 14.4841,32.6249 25.8797,66.5351 34.0375,101.286" />
    </g>
    <g
       transform="matrix(0,-0.16,-0.16,0,395.09715,443.26506)"
       id="g5352">
      <path
         inkscape:connector-curvature="0"
         id="path5354"
         style="fill:none;stroke:#000000;stroke-width:6.25;stroke-linecap:round;stroke-linejoin:round;stroke-miterlimit:10;stroke-dasharray:none;stroke-opacity:1"
         d="m 348.8681,-86.78288 c 6.9725,28.02925 10.5416,56.79663 10.6302,85.67995" />
    </g>
    <g
       transform="matrix(0.16,0,0,-0.16,-1519.0628,1656.6251)"
       id="g5356">
      <path
         inkscape:connector-curvature="0"
         id="path5358"
         style="fill:none;stroke:#000000;stroke-width:6.25;stroke-linecap:round;stroke-linejoin:round;stroke-miterlimit:10;stroke-dasharray:none;stroke-opacity:1"
         d="m 11965,7942 0,-319" />
    </g>
    <g
       transform="matrix(0,-0.16,-0.16,0,393.81715,465.66506)"
       id="g5360">
      <path
         inkscape:connector-curvature="0"
         id="path5362"
         style="fill:none;stroke:#000000;stroke-width:6.25;stroke-linecap:round;stroke-linejoin:round;stroke-miterlimit:10;stroke-dasharray:none;stroke-opacity:1"
         d="m 175.4751,-46.37589 c 3.1656,11.97754 5.0964,24.24771 5.7624,36.61858" />
    </g>
    <g
       transform="matrix(0,-0.16,-0.16,0,393.33715,466.94506)"
       id="g5364">
      <path
         inkscape:connector-curvature="0"
         id="path5366"
         style="fill:none;stroke:#000000;stroke-width:6.25;stroke-linecap:round;stroke-linejoin:round;stroke-miterlimit:10;stroke-dasharray:none;stroke-opacity:1"
         d="m 169.3605,-82.76035 c 5.3441,10.93619 9.6164,22.3643 12.757,34.12426" />
    </g>
    <g
       transform="matrix(0,-0.16,-0.16,0,394.77715,464.06506)"
       id="g5368">
      <path
         inkscape:connector-curvature="0"
         id="path5370"
         style="fill:none;stroke:#000000;stroke-width:6.25;stroke-linecap:round;stroke-linejoin:round;stroke-miterlimit:10;stroke-dasharray:none;stroke-opacity:1"
         d="m 133.5882,-102.6959 c 6.944,9.03284 12.9539,18.74667 17.9375,28.99238" />
    </g>
    <g
       transform="matrix(0,-0.16,-0.16,0,393.65715,465.50506)"
       id="g5372">
      <path
         inkscape:connector-curvature="0"
         id="path5374"
         style="fill:none;stroke:#000000;stroke-width:6.25;stroke-linecap:round;stroke-linejoin:round;stroke-miterlimit:10;stroke-dasharray:none;stroke-opacity:1"
         d="m 120.2415,-135.9567 c 8.544,7.5564 16.3568,15.9014 23.3344,24.9243" />
    </g>
    <g
       transform="matrix(0,-0.16,-0.16,0,392.53715,466.62506)"
       id="g5376">
      <path
         inkscape:connector-curvature="0"
         id="path5378"
         style="fill:none;stroke:#000000;stroke-width:6.25;stroke-linecap:round;stroke-linejoin:round;stroke-miterlimit:10;stroke-dasharray:none;stroke-opacity:1"
         d="m 98.07618,-162.146 c 9.87832,5.9751 19.18992,12.8403 27.81872,20.5101" />
    </g>
    <g
       transform="matrix(0.16,0,0,-0.16,-1519.0628,1656.6251)"
       id="g5380">
      <path
         inkscape:connector-curvature="0"
         id="path5382"
         style="fill:none;stroke:#000000;stroke-width:6.25;stroke-linecap:round;stroke-linejoin:round;stroke-miterlimit:10;stroke-dasharray:none;stroke-opacity:1"
         d="m 12110,7536 250,160" />
    </g>
    <g
       transform="matrix(0,-0.16,-0.16,0,379.41715,470.78506)"
       id="g5384">
      <path
         inkscape:connector-curvature="0"
         id="path5386"
         style="fill:none;stroke:#000000;stroke-width:6.25;stroke-linecap:round;stroke-linejoin:round;stroke-miterlimit:10;stroke-dasharray:none;stroke-opacity:1"
         d="m 285.6867,-494.97 c 29.7901,17.1942 57.9671,37.0427 84.188,59.3039" />
    </g>
    <g
       transform="matrix(0,-0.16,-0.16,0,371.57715,568.38506)"
       id="g5388">
      <path
         inkscape:connector-curvature="0"
         id="path5390"
         style="fill:none;stroke:#000000;stroke-width:6.25;stroke-linecap:round;stroke-linejoin:round;stroke-miterlimit:10;stroke-dasharray:none;stroke-opacity:1"
         d="m 400.0189,60.04289 c -3.2985,21.97495 -8.4021,43.64071 -15.259,64.77741" />
    </g>
    <g
       transform="matrix(0,-0.16,-0.16,0,371.73715,568.70506)"
       id="g5392">
      <path
         inkscape:connector-curvature="0"
         id="path5394"
         style="fill:none;stroke:#000000;stroke-width:6.25;stroke-linecap:round;stroke-linejoin:round;stroke-miterlimit:10;stroke-dasharray:none;stroke-opacity:1"
         d="m 406.4753,-4.48177 c 0.2422,21.9653 -1.2965,43.91409 -4.6009,65.63077" />
    </g>
    <g
       transform="matrix(0.16,0,0,-0.16,-1519.0628,1656.6251)"
       id="g5396">
      <path
         inkscape:connector-curvature="0"
         id="path5398"
         style="fill:none;stroke:#000000;stroke-width:6.25;stroke-linecap:round;stroke-linejoin:round;stroke-miterlimit:10;stroke-dasharray:none;stroke-opacity:1"
         d="m 11821,7206 0,-322" />
    </g>
    <g
       transform="matrix(0,-0.16,-0.16,0,372.69715,575.42506)"
       id="g5400">
      <path
         inkscape:connector-curvature="0"
         id="path5402"
         style="fill:none;stroke:#000000;stroke-width:6.25;stroke-linecap:round;stroke-linejoin:round;stroke-miterlimit:10;stroke-dasharray:none;stroke-opacity:1"
         d="m 127.4859,1.89464 c -0.295,19.84929 -5.2208,39.3555 -14.3851,56.96506" />
    </g>
    <g
       transform="matrix(0,-0.16,-0.16,0,380.69715,592.06506)"
       id="g5404">
      <path
         inkscape:connector-curvature="0"
         id="path5406"
         style="fill:none;stroke:#000000;stroke-width:6.25;stroke-linecap:round;stroke-linejoin:round;stroke-miterlimit:10;stroke-dasharray:none;stroke-opacity:1"
         d="m 216.826,108.5944 c -11.3123,22.5869 -26.0844,43.2674 -43.7817,61.2935" />
    </g>
    <g
       transform="matrix(0,-0.16,-0.16,0,375.41715,586.62506)"
       id="g5408">
      <path
         inkscape:connector-curvature="0"
         id="path5410"
         style="fill:none;stroke:#000000;stroke-width:6.25;stroke-linecap:round;stroke-linejoin:round;stroke-miterlimit:10;stroke-dasharray:none;stroke-opacity:1"
         d="m 139.2035,137.2685 c -17.3091,17.5531 -37.7818,31.6741 -60.33882,41.6187" />
    </g>
    <g
       transform="matrix(0,-0.16,-0.16,0,376.21715,586.94506)"
       id="g5412">
      <path
         inkscape:connector-curvature="0"
         id="path5414"
         style="fill:none;stroke:#000000;stroke-width:6.25;stroke-linecap:round;stroke-linejoin:round;stroke-miterlimit:10;stroke-dasharray:none;stroke-opacity:1"
         d="M 80.79372,183.501 C 59.00914,193.0926 35.6907,198.7284 11.93024,200.1447" />
    </g>
    <g
       transform="matrix(0.16,0,0,-0.16,-1519.0628,1656.6251)"
       id="g5416">
      <path
         inkscape:connector-curvature="0"
         id="path5418"
         style="fill:none;stroke:#000000;stroke-width:6.25;stroke-linecap:round;stroke-linejoin:round;stroke-miterlimit:10;stroke-dasharray:none;stroke-opacity:1"
         d="m 11645,6697 7,-67 6,-38" />
    </g>
    <g
       transform="matrix(0,-0.16,-0.16,0,376.21715,591.58506)"
       id="g5420">
      <path
         inkscape:connector-curvature="0"
         id="path5422"
         style="fill:none;stroke:#000000;stroke-width:6.25;stroke-linecap:round;stroke-linejoin:round;stroke-miterlimit:10;stroke-dasharray:none;stroke-opacity:1"
         d="m -64.17715,186.7821 c -17.69845,-6.0811 -34.44278,-14.6467 -49.73065,-25.44" />
    </g>
    <g
       transform="matrix(0,-0.16,-0.16,0,374.61715,592.54506)"
       id="g5424">
      <path
         inkscape:connector-curvature="0"
         id="path5426"
         style="fill:none;stroke:#000000;stroke-width:6.25;stroke-linecap:round;stroke-linejoin:round;stroke-miterlimit:10;stroke-dasharray:none;stroke-opacity:1"
         d="m -107.359,152.5001 c -15.0576,-10.6004 -28.4622,-23.3724 -39.7776,-37.9004" />
    </g>
    <g
       transform="matrix(0,-0.16,-0.16,0,373.65715,593.98506)"
       id="g5428">
      <path
         inkscape:connector-curvature="0"
         id="path5430"
         style="fill:none;stroke:#000000;stroke-width:6.25;stroke-linecap:round;stroke-linejoin:round;stroke-miterlimit:10;stroke-dasharray:none;stroke-opacity:1"
         d="M -138.4789,107.8139 C -149.6545,93.45974 -158.5303,77.45529 -164.7884,60.374" />
    </g>
    <g
       transform="matrix(0,-0.16,-0.16,0,373.17715,595.26506)"
       id="g5432">
      <path
         inkscape:connector-curvature="0"
         id="path5434"
         style="fill:none;stroke:#000000;stroke-width:6.25;stroke-linecap:round;stroke-linejoin:round;stroke-miterlimit:10;stroke-dasharray:none;stroke-opacity:1"
         d="m -156.3926,57.12799 c -6.1348,-16.79442 -9.5243,-34.46734 -10.0385,-52.33975" />
    </g>
    <g
       transform="matrix(0.16,0,0,-0.16,-1519.0628,1656.6251)"
       id="g5436">
      <path
         inkscape:connector-curvature="0"
         id="path5438"
         style="fill:none;stroke:#000000;stroke-width:6.25;stroke-linecap:round;stroke-linejoin:round;stroke-miterlimit:10;stroke-dasharray:none;stroke-opacity:1"
         d="m 11821,6466 0,-319 -22,-2 -21,1 -22,1" />
    </g>
    <g
       transform="matrix(0,-0.16,-0.16,0,369.17715,618.46506)"
       id="g5440">
      <path
         inkscape:connector-curvature="0"
         id="path5442"
         style="fill:none;stroke:#000000;stroke-width:6.25;stroke-linecap:round;stroke-linejoin:round;stroke-miterlimit:10;stroke-dasharray:none;stroke-opacity:1"
         d="M -294.9847,176.0007 C -318.9383,135.8535 -334.4446,91.23932 -340.5541,44.89016" />
    </g>
    <g
       transform="matrix(0,-0.16,-0.16,0,374.29715,609.50506)"
       id="g5444">
      <path
         inkscape:connector-curvature="0"
         id="path5446"
         style="fill:none;stroke:#000000;stroke-width:6.25;stroke-linecap:round;stroke-linejoin:round;stroke-miterlimit:10;stroke-dasharray:none;stroke-opacity:1"
         d="m -235.2802,332.7153 c -46.8622,-33.1387 -86.1954,-75.803 -115.4236,-125.1989" />
    </g>
    <g
       transform="matrix(0,-0.16,-0.16,0,391.41715,595.74506)"
       id="g5448">
      <path
         inkscape:connector-curvature="0"
         id="path5450"
         style="fill:none;stroke:#000000;stroke-width:6.25;stroke-linecap:round;stroke-linejoin:round;stroke-miterlimit:10;stroke-dasharray:none;stroke-opacity:1"
         d="m -218.2347,499.9439 c -36.7207,-16.0293 -71.5635,-36.0554 -103.8981,-59.7159" />
    </g>
    <g
       transform="matrix(0,-0.16,-0.16,0,440.21715,575.10506)"
       id="g5452">
      <path
         inkscape:connector-curvature="0"
         id="path5454"
         style="fill:none;stroke:#000000;stroke-width:6.25;stroke-linecap:round;stroke-linejoin:round;stroke-miterlimit:10;stroke-dasharray:none;stroke-opacity:1"
         d="m -184.9845,856.7573 c -55.461,-11.9748 -109.6283,-29.3065 -161.7393,-51.7511" />
    </g>
    <g
       transform="matrix(0,-0.16,-0.16,0,612.05715,537.34506)"
       id="g5456">
      <path
         inkscape:connector-curvature="0"
         id="path5458"
         style="fill:none;stroke:#000000;stroke-width:6.25;stroke-linecap:round;stroke-linejoin:round;stroke-miterlimit:10;stroke-dasharray:none;stroke-opacity:1"
         d="m -187.1294,1967.622 c -78.6879,-7.484 -156.856,-19.681 -234.0832,-36.526" />
    </g>
    <g
       transform="matrix(0,-0.16,-0.16,0,709.01715,525.82506)"
       id="g5460">
      <path
         inkscape:connector-curvature="0"
         id="path5462"
         style="fill:none;stroke:#000000;stroke-width:6.25;stroke-linecap:round;stroke-linejoin:round;stroke-miterlimit:10;stroke-dasharray:none;stroke-opacity:1"
         d="m 11.40252,2585.475 c -90.16599,0.398 -180.29102,-3.922 -270.00572,-12.94" />
    </g>
    <g
       transform="matrix(0,-0.16,-0.16,0,675.41715,526.30506)"
       id="g5464">
      <path
         inkscape:connector-curvature="0"
         id="path5466"
         style="fill:none;stroke:#000000;stroke-width:6.25;stroke-linecap:round;stroke-linejoin:round;stroke-miterlimit:10;stroke-dasharray:none;stroke-opacity:1"
         d="m 274.1681,2359.639 c -86.2505,10.013 -172.9853,15.293 -259.81401,15.818" />
    </g>
    <g
       transform="matrix(0,-0.16,-0.16,0,573.01715,513.02506)"
       id="g5468">
      <path
         inkscape:connector-curvature="0"
         id="path5470"
         style="fill:none;stroke:#000000;stroke-width:6.25;stroke-linecap:round;stroke-linejoin:round;stroke-miterlimit:10;stroke-dasharray:none;stroke-opacity:1"
         d="m 403.8804,1682.709 c -70.2004,16.85 -141.3865,29.29 -213.1409,37.247" />
    </g>
    <g
       transform="matrix(0,-0.16,-0.16,0,416.37715,474.94506)"
       id="g5472">
      <path
         inkscape:connector-curvature="0"
         id="path5474"
         style="fill:none;stroke:#000000;stroke-width:6.25;stroke-linecap:round;stroke-linejoin:round;stroke-miterlimit:10;stroke-dasharray:none;stroke-opacity:1"
         d="m 308.5207,654.4213 c -45.8437,21.6126 -93.8314,38.3482 -143.1729,49.9311" />
    </g>
    <g
       transform="matrix(0,-0.16,-0.16,0,376.53715,457.02506)"
       id="g5476">
      <path
         inkscape:connector-curvature="0"
         id="path5478"
         style="fill:none;stroke:#000000;stroke-width:6.25;stroke-linecap:round;stroke-linejoin:round;stroke-miterlimit:10;stroke-dasharray:none;stroke-opacity:1"
         d="m 289.517,345.1524 c -28.4061,23.8272 -59.6449,44.0567 -93.0079,60.2294" />
    </g>
    <g
       transform="matrix(0,-0.16,-0.16,0,384.85715,463.10506)"
       id="g5480">
      <path
         inkscape:connector-curvature="0"
         id="path5482"
         style="fill:none;stroke:#000000;stroke-width:6.25;stroke-linecap:round;stroke-linejoin:round;stroke-miterlimit:10;stroke-dasharray:none;stroke-opacity:1"
         d="m 442.5642,262.3874 c -30.2539,51.0288 -69.1052,96.4411 -114.8361,134.229" />
    </g>
    <g
       transform="matrix(0,-0.16,-0.16,0,365.65715,431.26506)"
       id="g5484">
      <path
         inkscape:connector-curvature="0"
         id="path5486"
         style="fill:none;stroke:#000000;stroke-width:6.25;stroke-linecap:round;stroke-linejoin:round;stroke-miterlimit:10;stroke-dasharray:none;stroke-opacity:1"
         d="M 279.6186,40.24537 C 274.4114,76.42413 262.2328,111.2486 243.7581,142.7874" />
    </g>
    <g
       transform="matrix(0,-0.16,-0.16,0,369.49715,447.26506)"
       id="g5488">
      <path
         inkscape:connector-curvature="0"
         id="path5490"
         style="fill:none;stroke:#000000;stroke-width:6.25;stroke-linecap:round;stroke-linejoin:round;stroke-miterlimit:10;stroke-dasharray:none;stroke-opacity:1"
         d="m 385.0833,-17.91883 c 1.2846,27.60535 -0.403,55.26879 -5.0336,82.5133" />
    </g>
    <g
       transform="matrix(0.16,0,0,-0.16,-1519.0628,1656.6251)"
       id="g5492">
      <path
         inkscape:connector-curvature="0"
         id="path5494"
         style="fill:none;stroke:#000000;stroke-width:6.25;stroke-linecap:round;stroke-linejoin:round;stroke-miterlimit:10;stroke-dasharray:none;stroke-opacity:1"
         d="m 11821,7942 0,-316" />
    </g>
    <g
       transform="matrix(0,-0.16,-0.16,0,370.45715,465.66506)"
       id="g5496">
      <path
         inkscape:connector-curvature="0"
         id="path5498"
         style="fill:none;stroke:#000000;stroke-width:6.25;stroke-linecap:round;stroke-linejoin:round;stroke-miterlimit:10;stroke-dasharray:none;stroke-opacity:1"
         d="m 184.1115,-11.96685 c 1.2951,19.92502 -0.6528,39.92815 -5.7676,59.22898" />
    </g>
    <g
       transform="matrix(0,-0.16,-0.16,0,370.13715,463.58506)"
       id="g5500">
      <path
         inkscape:connector-curvature="0"
         id="path5502"
         style="fill:none;stroke:#000000;stroke-width:6.25;stroke-linecap:round;stroke-linejoin:round;stroke-miterlimit:10;stroke-dasharray:none;stroke-opacity:1"
         d="m 164.5142,44.78093 c -4.5439,16.69324 -11.6021,32.59766 -20.932,47.16693" />
    </g>
    <g
       transform="matrix(0,-0.16,-0.16,0,363.73715,453.66506)"
       id="g5504">
      <path
         inkscape:connector-curvature="0"
         id="path5506"
         style="fill:none;stroke:#000000;stroke-width:6.25;stroke-linecap:round;stroke-linejoin:round;stroke-miterlimit:10;stroke-dasharray:none;stroke-opacity:1"
         d="M 81.24502,52.07203 C 75.38345,61.2175 68.01983,69.30766 59.46462,76.00137" />
    </g>
    <g
       transform="matrix(0,-0.16,-0.16,0,369.81715,458.78506)"
       id="g5508">
      <path
         inkscape:connector-curvature="0"
         id="path5510"
         style="fill:none;stroke:#000000;stroke-width:6.25;stroke-linecap:round;stroke-linejoin:round;stroke-miterlimit:10;stroke-dasharray:none;stroke-opacity:1"
         d="m 91.78296,114.1847 c -6.66387,5.3565 -13.78385,10.1193 -21.27843,14.234" />
    </g>
    <g
       transform="matrix(0,-0.16,-0.16,0,367.57715,457.50506)"
       id="g5512">
      <path
         inkscape:connector-curvature="0"
         id="path5514"
         style="fill:none;stroke:#000000;stroke-width:6.25;stroke-linecap:round;stroke-linejoin:round;stroke-miterlimit:10;stroke-dasharray:none;stroke-opacity:1"
         d="m 63.04552,114.2607 c -9.56129,5.2757 -19.74696,9.3303 -30.31817,12.0689" />
    </g>
    <g
       transform="matrix(0,-0.16,-0.16,0,428.53715,473.66506)"
       id="g5516">
      <path
         inkscape:connector-curvature="0"
         id="path5518"
         style="fill:none;stroke:#000000;stroke-width:6.25;stroke-linecap:round;stroke-linejoin:round;stroke-miterlimit:10;stroke-dasharray:none;stroke-opacity:1"
         d="m 132.7043,507.4345 c -17.0472,4.4582 -34.30826,8.0545 -51.71746,10.7753" />
    </g>
    <g
       transform="matrix(0,-0.16,-0.16,0,516.37715,486.78506)"
       id="g5520">
      <path
         inkscape:connector-curvature="0"
         id="path5522"
         style="fill:none;stroke:#000000;stroke-width:6.25;stroke-linecap:round;stroke-linejoin:round;stroke-miterlimit:10;stroke-dasharray:none;stroke-opacity:1"
         d="m 163.8194,1066.997 c -24.0762,3.697 -48.2707,6.577 -72.54176,8.637" />
    </g>
    <g
       transform="matrix(0,-0.16,-0.16,0,1430.4571,578.62506)"
       id="g5524">
      <path
         inkscape:connector-curvature="0"
         id="path5526"
         style="fill:none;stroke:#000000;stroke-width:6.25;stroke-linecap:round;stroke-linejoin:round;stroke-miterlimit:10;stroke-dasharray:none;stroke-opacity:1"
         d="m 665.3696,6786.982 c -47.0811,4.613 -94.2089,8.736 -141.3758,12.369" />
    </g>
    <g
       transform="matrix(0,-0.16,-0.16,0,557.49715,512.38506)"
       id="g5528">
      <path
         inkscape:connector-curvature="0"
         id="path5530"
         style="fill:none;stroke:#000000;stroke-width:6.25;stroke-linecap:round;stroke-linejoin:round;stroke-miterlimit:10;stroke-dasharray:none;stroke-opacity:1"
         d="m 109.9817,1345.011 c -33.74623,2.759 -67.58437,4.248 -101.44257,4.462" />
    </g>
    <g
       transform="matrix(0,-0.16,-0.16,0,372.53715,570.78506)"
       id="g5532">
      <path
         inkscape:connector-curvature="0"
         id="path5534"
         style="fill:none;stroke:#000000;stroke-width:6.25;stroke-linecap:round;stroke-linejoin:round;stroke-miterlimit:10;stroke-dasharray:none;stroke-opacity:1"
         d="m 399.4911,131.2522 c -7.0717,21.524 -15.8713,42.4412 -26.3129,62.5474" />
    </g>
  </g>
</svg>
