<?xml version="1.0" encoding="UTF-8" standalone="no"?>
<!-- Created with Inkscape (http://www.inkscape.org/) -->

<svg
   xmlns:dc="http://purl.org/dc/elements/1.1/"
   xmlns:cc="http://creativecommons.org/ns#"
   xmlns:rdf="http://www.w3.org/1999/02/22-rdf-syntax-ns#"
   xmlns:svg="http://www.w3.org/2000/svg"
   xmlns="http://www.w3.org/2000/svg"
   xmlns:sodipodi="http://sodipodi.sourceforge.net/DTD/sodipodi-0.dtd"
   xmlns:inkscape="http://www.inkscape.org/namespaces/inkscape"
   width="1024"
   height="1024"
   viewBox="0 0 1024 1024"
   id="svg10390"
   version="1.1"
   inkscape:version="0.91+devel+osxmenu r12897"
   sodipodi:docname="b.svg">
  <sodipodi:namedview
     id="base"
     pagecolor="#ffffff"
     bordercolor="#666666"
     borderopacity="1.0"
     inkscape:pageopacity="0.0"
     inkscape:pageshadow="2"
     inkscape:zoom="0.51611328"
     inkscape:cx="135.5625"
     inkscape:cy="600.68554"
     inkscape:document-units="px"
     inkscape:current-layer="layer1"
     showgrid="false"
     inkscape:window-width="1440"
     inkscape:window-height="900"
     inkscape:window-x="0"
     inkscape:window-y="23"
     inkscape:window-maximized="0"
     showguides="true"
     inkscape:guide-bbox="true">
    <sodipodi:guide
       id="guide10946"
       inkscape:label="ascender"
       position="0,1024"
       orientation="0,1" />
    <sodipodi:guide
       id="guide10952"
       inkscape:label="descender"
       position="0,0"
       orientation="0,1" />
    <sodipodi:guide
       orientation="0,1"
       position="0,0"
       inkscape:label="descender"
       id="guide11006" />
    <sodipodi:guide
       id="guide11040"
       inkscape:label="baseline"
       position="0,205"
       orientation="0,1" />
    <sodipodi:guide
       id="guide11042"
       inkscape:label="ascender"
       position="0,1024"
       orientation="0,1" />
    <sodipodi:guide
       id="guide11044"
       inkscape:label="caps"
       position="0,905"
       orientation="0,1" />
    <sodipodi:guide
       id="guide11046"
       inkscape:label="xheight"
       position="0,705"
       orientation="0,1" />
    <sodipodi:guide
       id="guide11048"
       inkscape:label="descender"
       position="0,0"
       orientation="0,1" />
    <sodipodi:guide
       position="44.56386,705"
       orientation="1,0"
       id="guide11075" />
    <sodipodi:guide
       position="976.5298,784.71145"
       orientation="1,0"
       id="guide11077" />
  </sodipodi:namedview>
  <defs
     id="defs10392" />
  <metadata
     id="metadata10395">
    <rdf:RDF>
      <cc:Work
         rdf:about="">
        <dc:format>image/svg+xml</dc:format>
        <dc:type
           rdf:resource="http://purl.org/dc/dcmitype/StillImage" />
        <dc:title></dc:title>
      </cc:Work>
    </rdf:RDF>
  </metadata>
  <g
     id="layer1"
     inkscape:groupmode="layer"
     inkscape:label="Layer 1">
    <g
       id="g14255"
       transform="matrix(2.6885711,0,0,2.6885711,30.596991,-1261.2538)">
      <g
         id="g9497"
         transform="matrix(0.16,0,0,-0.16,-558.02383,2527.9219)">
        <path
           d="m 3521,12591 0,-1635 327,0 0,1635 -327,0"
           style="fill:none;stroke:#000000;stroke-width:6.25;stroke-linecap:round;stroke-linejoin:round;stroke-miterlimit:10;stroke-dasharray:none;stroke-opacity:1"
           id="path9499"
           inkscape:connector-curvature="0" />
      </g>
      <g
         id="g9501"
         transform="matrix(0,-0.16,-0.16,0,90.056154,589.28199)">
        <path
           d="m -82.5718,-462.182 c 54.10938,-9.6669 109.49598,-9.7572 163.63659,-0.2666"
           style="fill:none;stroke:#000000;stroke-width:6.25;stroke-linecap:round;stroke-linejoin:round;stroke-miterlimit:10;stroke-dasharray:none;stroke-opacity:1"
           id="path9503"
           inkscape:connector-curvature="0" />
      </g>
      <g
         id="g9505"
         transform="matrix(0,-0.16,-0.16,0,93.256154,589.28199)">
        <path
           d="m 81.17463,-442.1097 c 53.04107,9.7388 103.89687,28.9427 150.13627,56.6937"
           style="fill:none;stroke:#000000;stroke-width:6.25;stroke-linecap:round;stroke-linejoin:round;stroke-miterlimit:10;stroke-dasharray:none;stroke-opacity:1"
           id="path9507"
           inkscape:connector-curvature="0" />
      </g>
      <g
         id="g9509"
         transform="matrix(0,-0.16,-0.16,0,82.056154,595.20199)">
        <path
           d="m 267.8691,-455.5857 c 49.0263,28.8257 93.0783,65.3759 130.4566,108.2403"
           style="fill:none;stroke:#000000;stroke-width:6.25;stroke-linecap:round;stroke-linejoin:round;stroke-miterlimit:10;stroke-dasharray:none;stroke-opacity:1"
           id="path9511"
           inkscape:connector-curvature="0" />
      </g>
      <g
         id="g9513"
         transform="matrix(0,-0.16,-0.16,0,89.736154,587.20199)">
        <path
           d="m 348.7132,-299.2313 c 36.1599,42.1395 64.3825,90.484 83.2995,142.6896"
           style="fill:none;stroke:#000000;stroke-width:6.25;stroke-linecap:round;stroke-linejoin:round;stroke-miterlimit:10;stroke-dasharray:none;stroke-opacity:1"
           id="path9515"
           inkscape:connector-curvature="0" />
      </g>
      <g
         id="g9517"
         transform="matrix(0,-0.16,-0.16,0,88.616154,588.96199)">
        <path
           d="m 443.1918,-163.8208 c 19.1,51.6721 29.0167,106.28621 29.3019,161.37459"
           style="fill:none;stroke:#000000;stroke-width:6.25;stroke-linecap:round;stroke-linejoin:round;stroke-miterlimit:10;stroke-dasharray:none;stroke-opacity:1"
           id="path9519"
           inkscape:connector-curvature="0" />
      </g>
      <g
         id="g9521"
         transform="matrix(0.16,0,0,-0.16,-558.02383,2527.9219)">
        <path
           d="m 4044,12590 -51,0 0,-291 50,0"
           style="fill:none;stroke:#000000;stroke-width:6.25;stroke-linecap:round;stroke-linejoin:round;stroke-miterlimit:10;stroke-dasharray:none;stroke-opacity:1"
           id="path9523"
           inkscape:connector-curvature="0" />
      </g>
      <g
         id="g9525"
         transform="matrix(0,-0.16,-0.16,0,87.496154,592.32199)">
        <path
           d="m 186.3569,-79.22987 c 9.4441,22.21365 14.8407,45.93689 15.9349,70.04999"
           style="fill:none;stroke:#000000;stroke-width:6.25;stroke-linecap:round;stroke-linejoin:round;stroke-miterlimit:10;stroke-dasharray:none;stroke-opacity:1"
           id="path9527"
           inkscape:connector-curvature="0" />
      </g>
      <g
         id="g9529"
         transform="matrix(0,-0.16,-0.16,0,88.936154,588.80199)">
        <path
           d="m 125.9484,-127.8954 c 16.7501,16.495 30.0969,36.11975 39.2824,57.75951"
           style="fill:none;stroke:#000000;stroke-width:6.25;stroke-linecap:round;stroke-linejoin:round;stroke-miterlimit:10;stroke-dasharray:none;stroke-opacity:1"
           id="path9531"
           inkscape:connector-curvature="0" />
      </g>
      <g
         id="g9533"
         transform="matrix(0,-0.16,-0.16,0,89.256154,588.32199)">
        <path
           d="m 62.48601,-163.9992 c 22.46316,8.5588 42.92859,21.641 60.12719,38.4354"
           style="fill:none;stroke:#000000;stroke-width:6.25;stroke-linecap:round;stroke-linejoin:round;stroke-miterlimit:10;stroke-dasharray:none;stroke-opacity:1"
           id="path9535"
           inkscape:connector-curvature="0" />
      </g>
      <g
         id="g9537"
         transform="matrix(0,-0.16,-0.16,0,83.816154,590.24199)">
        <path
           d="m -1.01386,-211.4976 c 25.69422,-0.1231 51.19584,4.4367 75.25532,13.4561"
           style="fill:none;stroke:#000000;stroke-width:6.25;stroke-linecap:round;stroke-linejoin:round;stroke-miterlimit:10;stroke-dasharray:none;stroke-opacity:1"
           id="path9539"
           inkscape:connector-curvature="0" />
      </g>
      <g
         id="g9541"
         transform="matrix(0,-0.16,-0.16,0,84.136154,590.56199)">
        <path
           d="m -74.98557,-195.6206 c 24.1058,-9.2403 49.71184,-13.9455 75.52788,-13.8787"
           style="fill:none;stroke:#000000;stroke-width:6.25;stroke-linecap:round;stroke-linejoin:round;stroke-miterlimit:10;stroke-dasharray:none;stroke-opacity:1"
           id="path9543"
           inkscape:connector-curvature="0" />
      </g>
      <g
         id="g9545"
         transform="matrix(0,-0.16,-0.16,0,88.776154,592.00199)">
        <path
           d="m -125.6485,-126.786 c 17.2923,-17.1372 37.90747,-30.5559 60.57777,-39.4309"
           style="fill:none;stroke:#000000;stroke-width:6.25;stroke-linecap:round;stroke-linejoin:round;stroke-miterlimit:10;stroke-dasharray:none;stroke-opacity:1"
           id="path9547"
           inkscape:connector-curvature="0" />
      </g>
      <g
         id="g9549"
         transform="matrix(0,-0.16,-0.16,0,88.616154,591.84199)">
        <path
           d="m -166.3266,-70.11223 c 9.1553,-21.71888 22.4756,-41.43447 39.2088,-58.03347"
           style="fill:none;stroke:#000000;stroke-width:6.25;stroke-linecap:round;stroke-linejoin:round;stroke-miterlimit:10;stroke-dasharray:none;stroke-opacity:1"
           id="path9551"
           inkscape:connector-curvature="0" />
      </g>
      <g
         id="g9553"
         transform="matrix(0,-0.16,-0.16,0,88.616154,592.64199)">
        <path
           d="m -176.4889,-1.9798 c 0.2631,-23.45594 5.1992,-46.62413 14.5197,-68.15034"
           style="fill:none;stroke:#000000;stroke-width:6.25;stroke-linecap:round;stroke-linejoin:round;stroke-miterlimit:10;stroke-dasharray:none;stroke-opacity:1"
           id="path9555"
           inkscape:connector-curvature="0" />
      </g>
      <g
         id="g9557"
         transform="matrix(0.16,0,0,-0.16,-558.02383,2527.9219)">
        <path
           d="m 4043,11919 -50,0 0,-146 0,-146 50,0"
           style="fill:none;stroke:#000000;stroke-width:6.25;stroke-linecap:round;stroke-linejoin:round;stroke-miterlimit:10;stroke-dasharray:none;stroke-opacity:1"
           id="path9559"
           inkscape:connector-curvature="0" />
      </g>
      <g
         id="g9561"
         transform="matrix(0,-0.16,-0.16,0,87.656154,694.56198)">
        <path
           d="m 154.5957,-67.02556 c 8.1082,18.70167 12.7557,38.71935 13.7169,59.08038"
           style="fill:none;stroke:#000000;stroke-width:6.25;stroke-linecap:round;stroke-linejoin:round;stroke-miterlimit:10;stroke-dasharray:none;stroke-opacity:1"
           id="path9563"
           inkscape:connector-curvature="0" />
      </g>
      <g
         id="g9565"
         transform="matrix(0,-0.16,-0.16,0,83.496154,703.52198)">
        <path
           d="m 168.1077,-157.7024 c 17.7977,18.972 32.2555,40.8198 42.7607,64.61764"
           style="fill:none;stroke:#000000;stroke-width:6.25;stroke-linecap:round;stroke-linejoin:round;stroke-miterlimit:10;stroke-dasharray:none;stroke-opacity:1"
           id="path9567"
           inkscape:connector-curvature="0" />
      </g>
      <g
         id="g9569"
         transform="matrix(0,-0.16,-0.16,0,88.616154,697.92198)">
        <path
           d="m 67.18822,-170.7571 c 25.14938,9.8956 47.80248,25.2242 66.34028,44.8905"
           style="fill:none;stroke:#000000;stroke-width:6.25;stroke-linecap:round;stroke-linejoin:round;stroke-miterlimit:10;stroke-dasharray:none;stroke-opacity:1"
           id="path9571"
           inkscape:connector-curvature="0" />
      </g>
      <g
         id="g9573"
         transform="matrix(0,-0.16,-0.16,0,87.976154,697.44198)">
        <path
           d="m -12.36421,-186.0897 c 25.77743,-1.7127 51.62954,1.9487 75.91755,10.7523"
           style="fill:none;stroke:#000000;stroke-width:6.25;stroke-linecap:round;stroke-linejoin:round;stroke-miterlimit:10;stroke-dasharray:none;stroke-opacity:1"
           id="path9575"
           inkscape:connector-curvature="0" />
      </g>
      <g
         id="g9577"
         transform="matrix(0,-0.16,-0.16,0,83.176154,697.92198)">
        <path
           d="m -82.08329,-200.3362 c 23.34444,-9.5649 48.18098,-14.976 73.38858,-15.9891"
           style="fill:none;stroke:#000000;stroke-width:6.25;stroke-linecap:round;stroke-linejoin:round;stroke-miterlimit:10;stroke-dasharray:none;stroke-opacity:1"
           id="path9579"
           inkscape:connector-curvature="0" />
      </g>
      <g
         id="g9581"
         transform="matrix(0,-0.16,-0.16,0,89.256154,700.00198)">
        <path
           d="m -126.6753,-121.4645 c 16.3587,-17.0604 35.99495,-30.6407 57.7308,-39.926"
           style="fill:none;stroke:#000000;stroke-width:6.25;stroke-linecap:round;stroke-linejoin:round;stroke-miterlimit:10;stroke-dasharray:none;stroke-opacity:1"
           id="path9583"
           inkscape:connector-curvature="0" />
      </g>
      <g
         id="g9585"
         transform="matrix(0,-0.16,-0.16,0,88.456154,699.36198)">
        <path
           d="m -168.6482,-69.74272 c 8.7876,-21.24962 21.5119,-40.64708 37.503,-57.17138"
           style="fill:none;stroke:#000000;stroke-width:6.25;stroke-linecap:round;stroke-linejoin:round;stroke-miterlimit:10;stroke-dasharray:none;stroke-opacity:1"
           id="path9587"
           inkscape:connector-curvature="0" />
      </g>
      <g
         id="g9589"
         transform="matrix(0,-0.16,-0.16,0,88.776154,700.32198)">
        <path
           d="m -176.4925,-1.62446 c 0.211,-22.92678 4.8869,-45.59281 13.7665,-66.73128"
           style="fill:none;stroke:#000000;stroke-width:6.25;stroke-linecap:round;stroke-linejoin:round;stroke-miterlimit:10;stroke-dasharray:none;stroke-opacity:1"
           id="path9591"
           inkscape:connector-curvature="0" />
      </g>
      <g
         id="g9593"
         transform="matrix(0.16,0,0,-0.16,-558.02383,2527.9219)">
        <path
           d="m 4043,11246 -50,0 0,-291 51,0"
           style="fill:none;stroke:#000000;stroke-width:6.25;stroke-linecap:round;stroke-linejoin:round;stroke-miterlimit:10;stroke-dasharray:none;stroke-opacity:1"
           id="path9595"
           inkscape:connector-curvature="0" />
      </g>
      <g
         id="g9597"
         transform="matrix(0,-0.16,-0.16,0,88.296154,712.16198)">
        <path
           d="m -393.4726,-4.64023 c 0.3908,-33.14025 4.9668,-66.09836 13.6194,-98.09147"
           style="fill:none;stroke:#000000;stroke-width:6.25;stroke-linecap:round;stroke-linejoin:round;stroke-miterlimit:10;stroke-dasharray:none;stroke-opacity:1"
           id="path9599"
           inkscape:connector-curvature="0" />
      </g>
      <g
         id="g9601"
         transform="matrix(0,-0.16,-0.16,0,70.056154,643.84198)">
        <path
           d="m -805.9545,-216.3966 c 8.6401,-32.1797 19.1997,-63.813 31.6222,-94.7301"
           style="fill:none;stroke:#000000;stroke-width:6.25;stroke-linecap:round;stroke-linejoin:round;stroke-miterlimit:10;stroke-dasharray:none;stroke-opacity:1"
           id="path9603"
           inkscape:connector-curvature="0" />
      </g>
      <g
         id="g9605"
         transform="matrix(0,-0.16,-0.16,0,84.776154,692.48198)">
        <path
           d="m -470.0699,-218.8071 c 28.8754,-62.0339 69.7437,-117.7389 120.249,-163.9038"
           style="fill:none;stroke:#000000;stroke-width:6.25;stroke-linecap:round;stroke-linejoin:round;stroke-miterlimit:10;stroke-dasharray:none;stroke-opacity:1"
           id="path9607"
           inkscape:connector-curvature="0" />
      </g>
      <g
         id="g9609"
         transform="matrix(0,-0.16,-0.16,0,90.696154,698.56198)">
        <path
           d="m -311.8546,-346.9423 c 47.8909,-43.0474 104.1753,-75.7138 165.3097,-95.9424"
           style="fill:none;stroke:#000000;stroke-width:6.25;stroke-linecap:round;stroke-linejoin:round;stroke-miterlimit:10;stroke-dasharray:none;stroke-opacity:1"
           id="path9611"
           inkscape:connector-curvature="0" />
      </g>
      <g
         id="g9613"
         transform="matrix(0,-0.16,-0.16,0,93.896154,699.36198)">
        <path
           d="m -142.2977,-422.163 c 58.47867,-19.7113 120.41472,-27.0582 181.88196,-21.5749"
           style="fill:none;stroke:#000000;stroke-width:6.25;stroke-linecap:round;stroke-linejoin:round;stroke-miterlimit:10;stroke-dasharray:none;stroke-opacity:1"
           id="path9615"
           inkscape:connector-curvature="0" />
      </g>
      <g
         id="g9617"
         transform="matrix(0,-0.16,-0.16,0,79.496154,701.12198)">
        <path
           d="m 50.7431,-533.0994 c 62.2533,5.9035 122.9933,22.6249 179.4768,49.409"
           style="fill:none;stroke:#000000;stroke-width:6.25;stroke-linecap:round;stroke-linejoin:round;stroke-miterlimit:10;stroke-dasharray:none;stroke-opacity:1"
           id="path9619"
           inkscape:connector-curvature="0" />
      </g>
      <g
         id="g9621"
         transform="matrix(0,-0.16,-0.16,0,104.29615,688.64198)">
        <path
           d="m 152.5969,-328.8167 c 48.3117,22.4204 91.0893,55.2112 125.2902,96.04"
           style="fill:none;stroke:#000000;stroke-width:6.25;stroke-linecap:round;stroke-linejoin:round;stroke-miterlimit:10;stroke-dasharray:none;stroke-opacity:1"
           id="path9623"
           inkscape:connector-curvature="0" />
      </g>
      <g
         id="g9625"
         transform="matrix(0,-0.16,-0.16,0,105.09616,600.48199)">
        <path
           d="m -272.8272,-227.9157 c 29.7759,-35.6433 66.2475,-65.1067 107.3535,-86.7249"
           style="fill:none;stroke:#000000;stroke-width:6.25;stroke-linecap:round;stroke-linejoin:round;stroke-miterlimit:10;stroke-dasharray:none;stroke-opacity:1"
           id="path9627"
           inkscape:connector-curvature="0" />
      </g>
      <g
         id="g9629"
         transform="matrix(0,-0.16,-0.16,0,82.376154,588.00199)">
        <path
           d="m -243.9807,-457.5103 c 47.9679,-25.5803 99.6603,-43.4579 153.1827,-52.9777"
           style="fill:none;stroke:#000000;stroke-width:6.25;stroke-linecap:round;stroke-linejoin:round;stroke-miterlimit:10;stroke-dasharray:none;stroke-opacity:1"
           id="path9631"
           inkscape:connector-curvature="0" />
      </g>
    </g>
  </g>
</svg>
