<?xml version="1.0" encoding="UTF-8" standalone="no"?>
<svg
   xmlns:dc="http://purl.org/dc/elements/1.1/"
   xmlns:cc="http://creativecommons.org/ns#"
   xmlns:rdf="http://www.w3.org/1999/02/22-rdf-syntax-ns#"
   xmlns:svg="http://www.w3.org/2000/svg"
   xmlns="http://www.w3.org/2000/svg"
   version="1.1"
   id="svg10390"
   viewBox="0 0 1024 1024"
   height="1024"
   width="1024">
  <defs
     id="defs10392" />
  <metadata
     id="metadata10395">
    <rdf:RDF>
      <cc:Work
         rdf:about="">
        <dc:format>image/svg+xml</dc:format>
        <dc:type
           rdf:resource="http://purl.org/dc/dcmitype/StillImage" />
        <dc:title></dc:title>
      </cc:Work>
    </rdf:RDF>
  </metadata>
  <path
     id="path98"
     style="fill:#000000;fill-opacity:1;fill-rule:evenodd;stroke:none"
     d="m 464.17231,544.92302 171.92401,0 0,59.17997 -171.92401,0 0,20.72249 c 0,16.33923 -0.87583,32.7902 -0.54522,43.45628 0.60129,10.66804 2.0262,15.61588 3.39699,19.3934 1.31471,3.77949 2.68549,6.33378 4.16455,8.66656 1.48098,2.39354 3.12438,4.44796 5.5334,6.83758 2.41288,2.33278 5.5392,4.94784 10.46938,7.94712 4.93404,2.94243 11.67388,6.33182 18.58,9.17036 l 0,138.91777 c -17.75831,0.49988 -35.51468,-2.72288 -54.91638,-10.50337 -19.39977,-7.78246 -40.39073,-20.00307 -59.73829,-40.11982 -19.39977,-20.06188 -37.15421,-47.90032 -48.22488,-71.18103 -11.0726,-23.28463 -15.73017,-42.06837 -15.73017,-61.01482 l 0,-72.29252 -48.39308,0 0,-59.17997 48.39308,0 0,-59.4603 -48.39308,0 0,-59.45637 48.39308,0 0,-78.3499 c 0,-15.56099 3.34092,-31.11609 9.20687,-48.90007 6.79398,-18.34072 17.86658,-38.89855 31.23799,-56.68057 13.37335,-18.33679 29.15766,-33.34105 45.32284,-45.56558 16.16905,-11.66976 32.77505,-20.00306 48.33895,-25.00579 15.51169,-5.55749 30.03348,-7.22572 44.50307,-6.66703 l 0,138.91777 c -8.87819,3.3345 -17.37356,7.78245 -23.29171,12.22649 -5.92008,3.89123 -9.26293,8.33134 -12.11277,12.7793 -2.9059,5.00272 -5.31686,10.00153 -6.52137,22.22998 -1.26058,11.66584 0.32675,30.00459 0.32675,47.78661 l 0,27.22879 171.92401,0 0,59.45637 -171.92401,0 0,59.4603" />
  <path
     id="path100"
     style="fill:#000000;fill-opacity:1;fill-rule:evenodd;stroke:none"
     d="m 697.5882,232.62905 c 17.26336,21.11652 29.70481,44.45212 37.37849,64.4591 7.61761,19.45221 10.52158,35.00731 10.24703,50.5683 l -137.01061,51.12111 0,-7.2218 c 0,-22.78671 2.51922,-45.01277 -4.38689,-59.4603 -6.95832,-15.00425 -22.08333,-21.67129 -37.21028,-28.34028 l 0,-138.91777 c 23.17957,-0.55869 46.41714,5.00273 69.05149,16.66856 22.63436,12.22453 44.66742,30.56329 61.93077,51.12308" />
  <path
     id="path102"
     style="fill:#000000;fill-opacity:1;fill-rule:evenodd;stroke:none"
     d="m 697.5882,790.92303 c 17.26336,-20.95185 29.70481,-44.45604 37.37849,-63.95922 7.61761,-19.5071 10.52158,-35.00928 10.24703,-50.5683 l -137.01061,-51.57003 0,7.44724 c 0,22.4515 2.51922,44.90103 -4.38689,59.57007 -6.95832,14.66905 -22.08333,21.56152 -37.21028,28.45399 l 0,138.91777 c 23.23564,0.28032 46.41714,-5.16739 69.05149,-17.05867 22.63436,-11.94812 44.66742,-30.28688 61.93077,-51.23285" />
</svg>
