<?xml version="1.0" encoding="UTF-8" standalone="no"?>
<!-- Created with Inkscape (http://www.inkscape.org/) -->

<svg
   xmlns:dc="http://purl.org/dc/elements/1.1/"
   xmlns:cc="http://creativecommons.org/ns#"
   xmlns:rdf="http://www.w3.org/1999/02/22-rdf-syntax-ns#"
   xmlns:svg="http://www.w3.org/2000/svg"
   xmlns="http://www.w3.org/2000/svg"
   xmlns:sodipodi="http://sodipodi.sourceforge.net/DTD/sodipodi-0.dtd"
   xmlns:inkscape="http://www.inkscape.org/namespaces/inkscape"
   width="1024"
   height="1024"
   viewBox="0 0 1024 1024"
   id="svg10390"
   version="1.1"
   inkscape:version="0.91+devel+osxmenu r12897"
   sodipodi:docname="S.svg">
  <sodipodi:namedview
     id="base"
     pagecolor="#ffffff"
     bordercolor="#666666"
     borderopacity="1.0"
     inkscape:pageopacity="0.0"
     inkscape:pageshadow="2"
     inkscape:zoom="0.53815456"
     inkscape:cx="27.161841"
     inkscape:cy="600.68554"
     inkscape:document-units="px"
     inkscape:current-layer="layer1"
     showgrid="false"
     inkscape:window-width="1440"
     inkscape:window-height="900"
     inkscape:window-x="0"
     inkscape:window-y="23"
     inkscape:window-maximized="0"
     showguides="true"
     inkscape:guide-bbox="true">
    <sodipodi:guide
       id="guide10946"
       inkscape:label="ascender"
       position="0,1024"
       orientation="0,1" />
    <sodipodi:guide
       id="guide10952"
       inkscape:label="descender"
       position="0,0"
       orientation="0,1" />
    <sodipodi:guide
       orientation="0,1"
       position="0,0"
       inkscape:label="descender"
       id="guide11006" />
    <sodipodi:guide
       id="guide11040"
       inkscape:label="baseline"
       position="0,205"
       orientation="0,1" />
    <sodipodi:guide
       id="guide11042"
       inkscape:label="ascender"
       position="0,1024"
       orientation="0,1" />
    <sodipodi:guide
       id="guide11044"
       inkscape:label="caps"
       position="0,905"
       orientation="0,1" />
    <sodipodi:guide
       id="guide11046"
       inkscape:label="xheight"
       position="0,705"
       orientation="0,1" />
    <sodipodi:guide
       id="guide11048"
       inkscape:label="descender"
       position="0,0"
       orientation="0,1" />
    <sodipodi:guide
       position="44.56386,705"
       orientation="1,0"
       id="guide11075" />
    <sodipodi:guide
       position="976.5298,784.71145"
       orientation="1,0"
       id="guide11077" />
  </sodipodi:namedview>
  <defs
     id="defs10392" />
  <metadata
     id="metadata10395">
    <rdf:RDF>
      <cc:Work
         rdf:about="">
        <dc:format>image/svg+xml</dc:format>
        <dc:type
           rdf:resource="http://purl.org/dc/dcmitype/StillImage" />
        <dc:title></dc:title>
      </cc:Work>
    </rdf:RDF>
  </metadata>
  <g
     id="layer1"
     inkscape:groupmode="layer"
     inkscape:label="Layer 1">
    <g
       transform="matrix(3.6016735,0,0,-3.6016735,-2650.3928,2843.9565)"
       id="g9316">
      <g
         id="g28"
         transform="matrix(0,0.12,-0.12,0,815.14,705.46)">
        <path
           d="m 83.70862,-89.43778 c 6.01313,5.62794 11.44335,11.84794 16.20827,18.5656"
           style="fill:none;stroke:#000000;stroke-width:6.66666651;stroke-linecap:round;stroke-linejoin:round;stroke-miterlimit:10;stroke-dasharray:none;stroke-opacity:1"
           id="path30"
           inkscape:connector-curvature="0" />
      </g>
      <g
         id="g32"
         transform="matrix(0,0.12,-0.12,0,813.58,704.02)">
        <path
           d="m 74.84824,-118.9033 c 7.5028,4.723 14.54174,10.1454 21.02265,16.1949"
           style="fill:none;stroke:#000000;stroke-width:6.66666651;stroke-linecap:round;stroke-linejoin:round;stroke-miterlimit:10;stroke-dasharray:none;stroke-opacity:1"
           id="path34"
           inkscape:connector-curvature="0" />
      </g>
      <g
         id="g36"
         transform="matrix(0,0.12,-0.12,0,810.1,701.86)">
        <path
           d="m 65.13645,-161.8873 c 9.7744,3.9328 19.17253,8.7428 28.07925,14.3709"
           style="fill:none;stroke:#000000;stroke-width:6.66666651;stroke-linecap:round;stroke-linejoin:round;stroke-miterlimit:10;stroke-dasharray:none;stroke-opacity:1"
           id="path38"
           inkscape:connector-curvature="0" />
      </g>
      <g
         id="g40"
         transform="matrix(0,0.12,-0.12,0,808.9,701.26)">
        <path
           d="m 35.84054,-183.0238 c 11.50778,2.2535 22.77737,5.5873 33.65908,9.9572"
           style="fill:none;stroke:#000000;stroke-width:6.66666651;stroke-linecap:round;stroke-linejoin:round;stroke-miterlimit:10;stroke-dasharray:none;stroke-opacity:1"
           id="path42"
           inkscape:connector-curvature="0" />
      </g>
      <g
         id="g44"
         transform="matrix(0,0.12,-0.12,0,805.54,700.66)">
        <path
           d="m 3.866,-214.4652 c 12.48881,0.2252 24.9341,1.5408 37.19396,3.9318"
           style="fill:none;stroke:#000000;stroke-width:6.66666651;stroke-linecap:round;stroke-linejoin:round;stroke-miterlimit:10;stroke-dasharray:none;stroke-opacity:1"
           id="path46"
           inkscape:connector-curvature="0" />
      </g>
      <g
         id="g48"
         transform="matrix(0.12,0,0,0.12,16,31)">
        <path
           d="m 6793,5584 316,62"
           style="fill:none;stroke:#000000;stroke-width:6.66666651;stroke-linecap:round;stroke-linejoin:round;stroke-miterlimit:10;stroke-dasharray:none;stroke-opacity:1"
           id="path50"
           inkscape:connector-curvature="0" />
      </g>
      <g
         id="g52"
         transform="matrix(0,0.12,-0.12,0,823.06,704.38)">
        <path
           d="m 35.24688,-383.8853 c 45.06654,4.1379 89.05242,16.1789 129.94302,35.5715"
           style="fill:none;stroke:#000000;stroke-width:6.66666651;stroke-linecap:round;stroke-linejoin:round;stroke-miterlimit:10;stroke-dasharray:none;stroke-opacity:1"
           id="path54"
           inkscape:connector-curvature="0" />
      </g>
      <g
         id="g56"
         transform="matrix(0,0.12,-0.12,0,804.7,696.1)">
        <path
           d="m 233.9712,-500.5135 c 46.4454,21.7115 89.6427,49.782 128.3486,83.4037"
           style="fill:none;stroke:#000000;stroke-width:6.66666651;stroke-linecap:round;stroke-linejoin:round;stroke-miterlimit:10;stroke-dasharray:none;stroke-opacity:1"
           id="path58"
           inkscape:connector-curvature="0" />
      </g>
      <g
         id="g60"
         transform="matrix(0,0.12,-0.12,0,821.02,710.62)">
        <path
           d="m 242.1139,-281.7679 c 38.0663,32.7092 69.1102,72.7925 91.2579,117.8304"
           style="fill:none;stroke:#000000;stroke-width:6.66666651;stroke-linecap:round;stroke-linejoin:round;stroke-miterlimit:10;stroke-dasharray:none;stroke-opacity:1"
           id="path62"
           inkscape:connector-curvature="0" />
      </g>
      <g
         id="g64"
         transform="matrix(0,0.12,-0.12,0,813.46,693.7)">
        <path
           d="m 473.8986,-227.0912 c 24.8613,51.8812 41.0346,107.4926 47.8743,164.61489"
           style="fill:none;stroke:#000000;stroke-width:6.66666651;stroke-linecap:round;stroke-linejoin:round;stroke-miterlimit:10;stroke-dasharray:none;stroke-opacity:1"
           id="path66"
           inkscape:connector-curvature="0" />
      </g>
      <g
         id="g68"
         transform="matrix(0.12,0,0,0.12,16,31)">
        <path
           d="m 6707,6044 0,-310"
           style="fill:none;stroke:#000000;stroke-width:6.66666651;stroke-linecap:round;stroke-linejoin:round;stroke-miterlimit:10;stroke-dasharray:none;stroke-opacity:1"
           id="path70"
           inkscape:connector-curvature="0" />
      </g>
      <g
         id="g72"
         transform="matrix(0,0.12,-0.12,0,813.1,702.7)">
        <path
           d="m 123.3518,-87.95784 c 5.1389,7.20676 9.6363,14.85002 13.4407,22.84206"
           style="fill:none;stroke:#000000;stroke-width:6.66666651;stroke-linecap:round;stroke-linejoin:round;stroke-miterlimit:10;stroke-dasharray:none;stroke-opacity:1"
           id="path74"
           inkscape:connector-curvature="0" />
      </g>
      <g
         id="g76"
         transform="matrix(0,0.12,-0.12,0,813.22,621.82)">
        <path
           d="m -448.1243,-238.2033 c 31.412,-59.0944 74.2018,-111.3923 125.9065,-153.8833"
           style="fill:none;stroke:#000000;stroke-width:6.66666651;stroke-linecap:round;stroke-linejoin:round;stroke-miterlimit:10;stroke-dasharray:none;stroke-opacity:1"
           id="path78"
           inkscape:connector-curvature="0" />
      </g>
      <g
         id="g80"
         transform="matrix(0,0.12,-0.12,0,811.42,621.7)">
        <path
           d="m -321.1095,-407.1007 c 53.4743,-42.179 114.7346,-73.4097 180.2815,-91.9081"
           style="fill:none;stroke:#000000;stroke-width:6.66666651;stroke-linecap:round;stroke-linejoin:round;stroke-miterlimit:10;stroke-dasharray:none;stroke-opacity:1"
           id="path82"
           inkscape:connector-curvature="0" />
      </g>
      <g
         id="g84"
         transform="matrix(0,0.12,-0.12,0,802.06,625.78)">
        <path
           d="m -175.1314,-577.5303 c 63.2078,-19.1673 129.13347,-27.8283 195.14723,-25.6377"
           style="fill:none;stroke:#000000;stroke-width:6.66666651;stroke-linecap:round;stroke-linejoin:round;stroke-miterlimit:10;stroke-dasharray:none;stroke-opacity:1"
           id="path86"
           inkscape:connector-curvature="0" />
      </g>
      <g
         id="g88"
         transform="matrix(0,0.12,-0.12,0,832.06,625.9)">
        <path
           d="m 19.56671,-353.9596 c 53.76969,2.9724 106.15549,18.1558 153.18079,44.3977"
           style="fill:none;stroke:#000000;stroke-width:6.66666651;stroke-linecap:round;stroke-linejoin:round;stroke-miterlimit:10;stroke-dasharray:none;stroke-opacity:1"
           id="path90"
           inkscape:connector-curvature="0" />
      </g>
      <g
         id="g92"
         transform="matrix(0,0.12,-0.12,0,824.62,624.22)">
        <path
           d="m 186.5644,-371.26 c 59.212,29.755 110.4481,73.2412 149.4322,126.829"
           style="fill:none;stroke:#000000;stroke-width:6.66666651;stroke-linecap:round;stroke-linejoin:round;stroke-miterlimit:10;stroke-dasharray:none;stroke-opacity:1"
           id="path94"
           inkscape:connector-curvature="0" />
      </g>
      <g
         id="g96"
         transform="matrix(0,0.12,-0.12,0,798.22,585.58)">
        <path
           d="m 657.2581,-463.9311 c 24.9365,35.3279 46.984,72.6087 65.9284,111.4803"
           style="fill:none;stroke:#000000;stroke-width:6.66666651;stroke-linecap:round;stroke-linejoin:round;stroke-miterlimit:10;stroke-dasharray:none;stroke-opacity:1"
           id="path98"
           inkscape:connector-curvature="0" />
      </g>
      <g
         id="g100"
         transform="matrix(0,0.12,-0.12,0,755.38,500.74)">
        <path
           d="m 1430.138,-709.5895 c 17.645,35.562 33.957,71.7698 48.903,108.5479"
           style="fill:none;stroke:#000000;stroke-width:6.66666651;stroke-linecap:round;stroke-linejoin:round;stroke-miterlimit:10;stroke-dasharray:none;stroke-opacity:1"
           id="path102"
           inkscape:connector-curvature="0" />
      </g>
      <g
         id="g104"
         transform="matrix(0,0.12,-0.12,0,757.06,506.62)">
        <path
           d="m 1429.664,-587.0538 c 9.7,23.6224 18.813,47.4817 27.33,71.5557"
           style="fill:none;stroke:#000000;stroke-width:6.66666651;stroke-linecap:round;stroke-linejoin:round;stroke-miterlimit:10;stroke-dasharray:none;stroke-opacity:1"
           id="path106"
           inkscape:connector-curvature="0" />
      </g>
      <g
         id="g108"
         transform="matrix(0.12,0,0,0.12,16,31)">
        <path
           d="m 6691,5421 -52,19"
           style="fill:none;stroke:#000000;stroke-width:6.66666651;stroke-linecap:round;stroke-linejoin:round;stroke-miterlimit:10;stroke-dasharray:none;stroke-opacity:1"
           id="path110"
           inkscape:connector-curvature="0" />
      </g>
      <g
         id="g112"
         transform="matrix(0,0.12,-0.12,0,834.34,739.06)">
        <path
           d="m -406.3182,280.0853 c -21.6497,-31.4071 -39.5849,-65.2184 -53.4465,-100.7568"
           style="fill:none;stroke:#000000;stroke-width:6.66666651;stroke-linecap:round;stroke-linejoin:round;stroke-miterlimit:10;stroke-dasharray:none;stroke-opacity:1"
           id="path114"
           inkscape:connector-curvature="0" />
      </g>
      <g
         id="g116"
         transform="matrix(0,0.12,-0.12,0,809.14,702.58)">
        <path
           d="M -45.46326,115.9023 C -68.44714,106.8867 -88.23162,91.24127 -102.3022,70.95435"
           style="fill:none;stroke:#000000;stroke-width:6.66666651;stroke-linecap:round;stroke-linejoin:round;stroke-miterlimit:10;stroke-dasharray:none;stroke-opacity:1"
           id="path118"
           inkscape:connector-curvature="0" />
      </g>
      <g
         id="g120"
         transform="matrix(0,0.12,-0.12,0,811.66,703.54)">
        <path
           d="m 2.74327,147.4745 c -19.51416,0.363 -38.90632,-3.1505 -57.05269,-10.3368"
           style="fill:none;stroke:#000000;stroke-width:6.66666651;stroke-linecap:round;stroke-linejoin:round;stroke-miterlimit:10;stroke-dasharray:none;stroke-opacity:1"
           id="path122"
           inkscape:connector-curvature="0" />
      </g>
      <g
         id="g124"
         transform="matrix(0,0.12,-0.12,0,815.26,703.66)">
        <path
           d="M 59.7018,167.1584 C 41.18662,173.7713 21.70143,177.2621 2.04207,177.4882"
           style="fill:none;stroke:#000000;stroke-width:6.66666651;stroke-linecap:round;stroke-linejoin:round;stroke-miterlimit:10;stroke-dasharray:none;stroke-opacity:1"
           id="path126"
           inkscape:connector-curvature="0" />
      </g>
      <g
         id="g128"
         transform="matrix(0,0.12,-0.12,0,808.18,706.18)">
        <path
           d="M 81.25816,80.66822 C 69.2415,92.77276 54.67234,102.0397 38.61523,107.792"
           style="fill:none;stroke:#000000;stroke-width:6.66666651;stroke-linecap:round;stroke-linejoin:round;stroke-miterlimit:10;stroke-dasharray:none;stroke-opacity:1"
           id="path130"
           inkscape:connector-curvature="0" />
      </g>
      <g
         id="g132"
         transform="matrix(0,0.12,-0.12,0,809.38,704.86)">
        <path
           d="M 119.8786,48.98341 C 113.5139,64.55977 104.1747,78.74648 92.38314,90.75024"
           style="fill:none;stroke:#000000;stroke-width:6.66666651;stroke-linecap:round;stroke-linejoin:round;stroke-miterlimit:10;stroke-dasharray:none;stroke-opacity:1"
           id="path134"
           inkscape:connector-curvature="0" />
      </g>
      <g
         id="g136"
         transform="matrix(0.12,0,0,0.12,16,31)">
        <path
           d="m 6562,5735 0,312"
           style="fill:none;stroke:#000000;stroke-width:6.66666651;stroke-linecap:round;stroke-linejoin:round;stroke-miterlimit:10;stroke-dasharray:none;stroke-opacity:1"
           id="path138"
           inkscape:connector-curvature="0" />
      </g>
      <g
         id="g140"
         transform="matrix(0,0.12,-0.12,0,816.58,684.82)">
        <path
           d="m 598.7779,108.3386 c -8.1901,45.2661 -21.4868,89.4575 -39.6351,131.7272"
           style="fill:none;stroke:#000000;stroke-width:6.66666651;stroke-linecap:round;stroke-linejoin:round;stroke-miterlimit:10;stroke-dasharray:none;stroke-opacity:1"
           id="path142"
           inkscape:connector-curvature="0" />
      </g>
      <g
         id="g144"
         transform="matrix(0,0.12,-0.12,0,809.5,700.06)">
        <path
           d="m 432.0774,181.1115 c -16.2016,38.652 -37.5163,74.9554 -63.3736,107.9382"
           style="fill:none;stroke:#000000;stroke-width:6.66666651;stroke-linecap:round;stroke-linejoin:round;stroke-miterlimit:10;stroke-dasharray:none;stroke-opacity:1"
           id="path146"
           inkscape:connector-curvature="0" />
      </g>
      <g
         id="g148"
         transform="matrix(0,0.12,-0.12,0,800.14,712.9)">
        <path
           d="m 261.8895,211.2963 c -21.9292,27.1801 -47.956,50.7807 -77.1455,69.9543"
           style="fill:none;stroke:#000000;stroke-width:6.66666651;stroke-linecap:round;stroke-linejoin:round;stroke-miterlimit:10;stroke-dasharray:none;stroke-opacity:1"
           id="path150"
           inkscape:connector-curvature="0" />
      </g>
      <g
         id="g152"
         transform="matrix(0,0.12,-0.12,0,815.26,703.42)">
        <path
           d="m 263.5837,407.7179 c -25.2047,16.2945 -51.866,30.2166 -79.6416,41.5877"
           style="fill:none;stroke:#000000;stroke-width:6.66666651;stroke-linecap:round;stroke-linejoin:round;stroke-miterlimit:10;stroke-dasharray:none;stroke-opacity:1"
           id="path154"
           inkscape:connector-curvature="0" />
      </g>
      <g
         id="g156"
         transform="matrix(0,0.12,-0.12,0,815.38,701.26)">
        <path
           d="m 202.708,449.9463 c -44.9619,20.2561 -92.7059,33.6586 -141.64098,39.7608"
           style="fill:none;stroke:#000000;stroke-width:6.66666651;stroke-linecap:round;stroke-linejoin:round;stroke-miterlimit:10;stroke-dasharray:none;stroke-opacity:1"
           id="path158"
           inkscape:connector-curvature="0" />
      </g>
      <g
         id="g160"
         transform="matrix(0,0.12,-0.12,0,804.58,703.54)">
        <path
           d="M 41.21807,400.384 C -5.8885,405.2334 -53.48127,401.7319 -99.3709,390.0406"
           style="fill:none;stroke:#000000;stroke-width:6.66666651;stroke-linecap:round;stroke-linejoin:round;stroke-miterlimit:10;stroke-dasharray:none;stroke-opacity:1"
           id="path162"
           inkscape:connector-curvature="0" />
      </g>
      <g
         id="g164"
         transform="matrix(0,0.12,-0.12,0,825.34,708.82)">
        <path
           d="m -142.8309,562.6541 c -49.1409,-12.4746 -96.4359,-31.333 -140.6778,-56.094"
           style="fill:none;stroke:#000000;stroke-width:6.66666651;stroke-linecap:round;stroke-linejoin:round;stroke-miterlimit:10;stroke-dasharray:none;stroke-opacity:1"
           id="path166"
           inkscape:connector-curvature="0" />
      </g>
      <g
         id="g168"
         transform="matrix(0,0.12,-0.12,0,798.1,692.62)">
        <path
           d="m -148.4472,279.5276 c -44.1649,-23.4544 -82.1437,-57.04 -110.8241,-98.0045"
           style="fill:none;stroke:#000000;stroke-width:6.66666651;stroke-linecap:round;stroke-linejoin:round;stroke-miterlimit:10;stroke-dasharray:none;stroke-opacity:1"
           id="path170"
           inkscape:connector-curvature="0" />
      </g>
      <g
         id="g172"
         transform="matrix(0,0.12,-0.12,0,823.54,729.82)">
        <path
           d="m -568.4727,393.7144 c -18.0123,-26.0074 -34.2187,-53.2203 -48.5048,-81.4469"
           style="fill:none;stroke:#000000;stroke-width:6.66666651;stroke-linecap:round;stroke-linejoin:round;stroke-miterlimit:10;stroke-dasharray:none;stroke-opacity:1"
           id="path174"
           inkscape:connector-curvature="0" />
      </g>
      <g
         id="g176"
         transform="matrix(0,0.12,-0.12,0,856.3,791.86)">
        <path
           d="m -1134.702,584.7251 c -14.26,-27.6716 -27.502,-55.8555 -39.701,-84.4952"
           style="fill:none;stroke:#000000;stroke-width:6.66666651;stroke-linecap:round;stroke-linejoin:round;stroke-miterlimit:10;stroke-dasharray:none;stroke-opacity:1"
           id="path178"
           inkscape:connector-curvature="0" />
      </g>
      <g
         id="g180"
         transform="matrix(0,0.12,-0.12,0,924.22,962.86)">
        <path
           d="m -2600.362,1066.314 c -17.415,-42.467 -33.786,-85.3548 -49.1,-128.6239"
           style="fill:none;stroke:#000000;stroke-width:6.66666651;stroke-linecap:round;stroke-linejoin:round;stroke-miterlimit:10;stroke-dasharray:none;stroke-opacity:1"
           id="path182"
           inkscape:connector-curvature="0" />
      </g>
      <g
         id="g184"
         transform="matrix(0,0.12,-0.12,0,763.9,518.02)">
        <path
           d="m 1031.617,-462.3821 c 9.517,21.2333 18.376,42.7553 26.565,64.5354"
           style="fill:none;stroke:#000000;stroke-width:6.66666651;stroke-linecap:round;stroke-linejoin:round;stroke-miterlimit:10;stroke-dasharray:none;stroke-opacity:1"
           id="path186"
           inkscape:connector-curvature="0" />
      </g>
      <g
         id="g188"
         transform="matrix(0,0.12,-0.12,0,794.98,586.54)">
        <path
           d="m 430.4954,-261.1244 c 11.253,18.5519 21.295,37.8118 30.0632,57.6593"
           style="fill:none;stroke:#000000;stroke-width:6.66666651;stroke-linecap:round;stroke-linejoin:round;stroke-miterlimit:10;stroke-dasharray:none;stroke-opacity:1"
           id="path190"
           inkscape:connector-curvature="0" />
      </g>
      <g
         id="g192"
         transform="matrix(0,0.12,-0.12,0,815.14,619.18)">
        <path
           d="m 98.16848,-156.2152 c 24.92982,15.6663 45.74822,37.0717 60.71542,62.42742"
           style="fill:none;stroke:#000000;stroke-width:6.66666651;stroke-linecap:round;stroke-linejoin:round;stroke-miterlimit:10;stroke-dasharray:none;stroke-opacity:1"
           id="path194"
           inkscape:connector-curvature="0" />
      </g>
      <g
         id="g196"
         transform="matrix(0,0.12,-0.12,0,817.9,620.74)">
        <path
           d="m 23.76706,-155.6964 c 21.6528,3.3053 42.37814,11.0906 60.85197,22.8587"
           style="fill:none;stroke:#000000;stroke-width:6.66666651;stroke-linecap:round;stroke-linejoin:round;stroke-miterlimit:10;stroke-dasharray:none;stroke-opacity:1"
           id="path198"
           inkscape:connector-curvature="0" />
      </g>
      <g
         id="g200"
         transform="matrix(0,0.12,-0.12,0,811.06,619.54)">
        <path
           d="m -37.229,-212.2599 c 23.58594,-4.1368 47.69645,-4.3136 71.34053,-0.5232"
           style="fill:none;stroke:#000000;stroke-width:6.66666651;stroke-linecap:round;stroke-linejoin:round;stroke-miterlimit:10;stroke-dasharray:none;stroke-opacity:1"
           id="path202"
           inkscape:connector-curvature="0" />
      </g>
      <g
         id="g204"
         transform="matrix(0,0.12,-0.12,0,815.86,619.06)">
        <path
           d="m -95.12656,-148.6714 c 18.83323,-12.0503 39.78453,-20.4126 61.73933,-24.642"
           style="fill:none;stroke:#000000;stroke-width:6.66666651;stroke-linecap:round;stroke-linejoin:round;stroke-miterlimit:10;stroke-dasharray:none;stroke-opacity:1"
           id="path206"
           inkscape:connector-curvature="0" />
      </g>
      <g
         id="g208"
         transform="matrix(0,0.12,-0.12,0,816.7,618.1)">
        <path
           d="m -133.4489,-97.88592 c 12.6556,-17.25348 28.5369,-31.88918 46.76444,-43.09658"
           style="fill:none;stroke:#000000;stroke-width:6.66666651;stroke-linecap:round;stroke-linejoin:round;stroke-miterlimit:10;stroke-dasharray:none;stroke-opacity:1"
           id="path210"
           inkscape:connector-curvature="0" />
      </g>
      <g
         id="g212"
         transform="matrix(0,0.12,-0.12,0,815.02,620.86)">
        <path
           d="m -186.058,-49.3828 c 5.958,-22.44777 15.929,-43.6321 29.4311,-62.529"
           style="fill:none;stroke:#000000;stroke-width:6.66666651;stroke-linecap:round;stroke-linejoin:round;stroke-miterlimit:10;stroke-dasharray:none;stroke-opacity:1"
           id="path214"
           inkscape:connector-curvature="0" />
      </g>
      <g
         id="g216"
         transform="matrix(0.12,0,0,0.12,16,31)">
        <path
           d="m 6707,4729 0,-307"
           style="fill:none;stroke:#000000;stroke-width:6.66666651;stroke-linecap:round;stroke-linejoin:round;stroke-miterlimit:10;stroke-dasharray:none;stroke-opacity:1"
           id="path218"
           inkscape:connector-curvature="0" />
      </g>
      <g
         id="g220"
         transform="matrix(0,0.12,-0.12,0,816.34,615.22)">
        <path
           d="m -445.824,-38.6935 c 5.3049,-61.12262 23.1216,-120.5015 52.3434,-174.4478"
           style="fill:none;stroke:#000000;stroke-width:6.66666651;stroke-linecap:round;stroke-linejoin:round;stroke-miterlimit:10;stroke-dasharray:none;stroke-opacity:1"
           id="path222"
           inkscape:connector-curvature="0" />
      </g>
      <g
         id="g224"
         transform="matrix(0,0.12,-0.12,0,808.18,617.14)">
        <path
           d="M -84.45127,129.3763 C -99.88954,119.2989 -113.3995,106.5396 -124.3422,91.70208"
           style="fill:none;stroke:#000000;stroke-width:6.66666651;stroke-linecap:round;stroke-linejoin:round;stroke-miterlimit:10;stroke-dasharray:none;stroke-opacity:1"
           id="path226"
           inkscape:connector-curvature="0" />
      </g>
      <g
         id="g228"
         transform="matrix(0,0.12,-0.12,0,811.54,619.54)">
        <path
           d="M -50.24433,182.7177 C -69.52486,177.4159 -87.84474,169.0958 -104.524,158.0664"
           style="fill:none;stroke:#000000;stroke-width:6.66666651;stroke-linecap:round;stroke-linejoin:round;stroke-miterlimit:10;stroke-dasharray:none;stroke-opacity:1"
           id="path230"
           inkscape:connector-curvature="0" />
      </g>
      <g
         id="g232"
         transform="matrix(0,0.12,-0.12,0,813.34,619.9)">
        <path
           d="m 10.44555,204.2331 c -21.45233,1.0972 -42.94359,-1.1924 -63.6833,-6.7844"
           style="fill:none;stroke:#000000;stroke-width:6.66666651;stroke-linecap:round;stroke-linejoin:round;stroke-miterlimit:10;stroke-dasharray:none;stroke-opacity:1"
           id="path234"
           inkscape:connector-curvature="0" />
      </g>
      <g
         id="g236"
         transform="matrix(0.12,0,0,0.12,16,31)">
        <path
           d="m 6440,4917 -322,-61"
           style="fill:none;stroke:#000000;stroke-width:6.66666651;stroke-linecap:round;stroke-linejoin:round;stroke-miterlimit:10;stroke-dasharray:none;stroke-opacity:1"
           id="path238"
           inkscape:connector-curvature="0" />
      </g>
      <g
         id="g240"
         transform="matrix(0,0.12,-0.12,0,810.22,621.22)">
        <path
           d="M -61.87331,499.6838 C -116.0308,492.9778 -168.7378,477.5121 -217.9322,453.8919"
           style="fill:none;stroke:#000000;stroke-width:6.66666651;stroke-linecap:round;stroke-linejoin:round;stroke-miterlimit:10;stroke-dasharray:none;stroke-opacity:1"
           id="path242"
           inkscape:connector-curvature="0" />
      </g>
      <g
         id="g244"
         transform="matrix(0,0.12,-0.12,0,808.66,620.5)">
        <path
           d="m -211.9148,441.2509 c -49.244,-23.6499 -94.1819,-55.3761 -132.9507,-93.8634"
           style="fill:none;stroke:#000000;stroke-width:6.66666651;stroke-linecap:round;stroke-linejoin:round;stroke-miterlimit:10;stroke-dasharray:none;stroke-opacity:1"
           id="path246"
           inkscape:connector-curvature="0" />
      </g>
      <g
         id="g248"
         transform="matrix(0,0.12,-0.12,0,808.54,620.5)">
        <path
           d="m -344.7587,346.0834 c -39.5924,-39.4409 -72.1234,-85.383 -96.1771,-135.8266"
           style="fill:none;stroke:#000000;stroke-width:6.66666651;stroke-linecap:round;stroke-linejoin:round;stroke-miterlimit:10;stroke-dasharray:none;stroke-opacity:1"
           id="path250"
           inkscape:connector-curvature="0" />
      </g>
      <g
         id="g252"
         transform="matrix(0,0.12,-0.12,0,812.26,628.54)">
        <path
           d="M -508.24,241.0359 C -533.5038,187.7655 -550.2357,130.8545 -557.8229,72.38715"
           style="fill:none;stroke:#000000;stroke-width:6.66666651;stroke-linecap:round;stroke-linejoin:round;stroke-miterlimit:10;stroke-dasharray:none;stroke-opacity:1"
           id="path254"
           inkscape:connector-curvature="0" />
      </g>
      <g
         id="g256"
         transform="matrix(0.12,0,0,0.12,16,31)">
        <path
           d="m 6562,4421 0,311"
           style="fill:none;stroke:#000000;stroke-width:6.66666651;stroke-linecap:round;stroke-linejoin:round;stroke-miterlimit:10;stroke-dasharray:none;stroke-opacity:1"
           id="path258"
           inkscape:connector-curvature="0" />
      </g>
      <g
         id="g260"
         transform="matrix(0,0.12,-0.12,0,810.7,620.86)">
        <path
           d="M -154.8684,112.6411 C -166.6349,96.46355 -175.794,78.54232 -182.0124,59.52936"
           style="fill:none;stroke:#000000;stroke-width:6.66666651;stroke-linecap:round;stroke-linejoin:round;stroke-miterlimit:10;stroke-dasharray:none;stroke-opacity:1"
           id="path262"
           inkscape:connector-curvature="0" />
      </g>
    </g>
  </g>
</svg>
