<?xml version="1.0" encoding="UTF-8" standalone="no"?>
<!-- Created with Inkscape (http://www.inkscape.org/) -->

<svg
   xmlns:dc="http://purl.org/dc/elements/1.1/"
   xmlns:cc="http://creativecommons.org/ns#"
   xmlns:rdf="http://www.w3.org/1999/02/22-rdf-syntax-ns#"
   xmlns:svg="http://www.w3.org/2000/svg"
   xmlns="http://www.w3.org/2000/svg"
   xmlns:sodipodi="http://sodipodi.sourceforge.net/DTD/sodipodi-0.dtd"
   xmlns:inkscape="http://www.inkscape.org/namespaces/inkscape"
   width="210mm"
   height="297mm"
   viewBox="0 0 744.09448819 1052.3622047"
   id="svg4223"
   version="1.1"
   inkscape:version="0.91 r13725"
   sodipodi:docname="3.svg">
  <defs
     id="defs4225" />
  <sodipodi:namedview
     id="base"
     pagecolor="#ffffff"
     bordercolor="#666666"
     borderopacity="1.0"
     inkscape:pageopacity="0.0"
     inkscape:pageshadow="2"
     inkscape:zoom="0.35"
     inkscape:cx="375"
     inkscape:cy="520"
     inkscape:document-units="px"
     inkscape:current-layer="layer1"
     showgrid="false"
     inkscape:window-width="1366"
     inkscape:window-height="706"
     inkscape:window-x="-8"
     inkscape:window-y="-8"
     inkscape:window-maximized="1" />
  <metadata
     id="metadata4228">
    <rdf:RDF>
      <cc:Work
         rdf:about="">
        <dc:format>image/svg+xml</dc:format>
        <dc:type
           rdf:resource="http://purl.org/dc/dcmitype/StillImage" />
        <dc:title></dc:title>
      </cc:Work>
    </rdf:RDF>
  </metadata>
  <g
     inkscape:label="Layer 1"
     inkscape:groupmode="layer"
     id="layer1">
    <g
       transform="matrix(0,-0.16,-0.16,0,371.05448,463.40481)"
       id="g5704">
      <path
         inkscape:connector-curvature="0"
         id="path5706"
         style="fill:none;stroke:#000000;stroke-width:6.25;stroke-linecap:round;stroke-linejoin:round;stroke-miterlimit:10;stroke-dasharray:none;stroke-opacity:1"
         d="m -90.74539,-522.6811 c 59.49251,-10.3288 120.31176,-10.425 179.83665,-0.2845" />
    </g>
    <g
       transform="matrix(0,-0.16,-0.16,0,375.69448,463.24481)"
       id="g5708">
      <path
         inkscape:connector-curvature="0"
         id="path5710"
         style="fill:none;stroke:#000000;stroke-width:6.25;stroke-linecap:round;stroke-linejoin:round;stroke-miterlimit:10;stroke-dasharray:none;stroke-opacity:1"
         d="m 88.23329,-494.693 c 58.07491,10.3583 113.87221,30.8616 164.83641,60.5709" />
    </g>
    <g
       transform="matrix(0,-0.16,-0.16,0,364.81448,468.52481)"
       id="g5712">
      <path
         inkscape:connector-curvature="0"
         id="path5714"
         style="fill:none;stroke:#000000;stroke-width:6.25;stroke-linecap:round;stroke-linejoin:round;stroke-miterlimit:10;stroke-dasharray:none;stroke-opacity:1"
         d="m 286.237,-501.5721 c 53.6684,30.6274 102.0734,69.6698 143.3685,115.6377" />
    </g>
    <g
       transform="matrix(0,-0.16,-0.16,0,374.73448,458.28481)"
       id="g5716">
      <path
         inkscape:connector-curvature="0"
         id="path5718"
         style="fill:none;stroke:#000000;stroke-width:6.25;stroke-linecap:round;stroke-linejoin:round;stroke-miterlimit:10;stroke-dasharray:none;stroke-opacity:1"
         d="m 365.798,-323.7655 c 39.6567,44.8051 70.7446,96.5147 91.7157,152.5537" />
    </g>
    <g
       transform="matrix(0,-0.16,-0.16,0,373.61448,461.16481)"
       id="g5720">
      <path
         inkscape:connector-curvature="0"
         id="path5722"
         style="fill:none;stroke:#000000;stroke-width:6.25;stroke-linecap:round;stroke-linejoin:round;stroke-miterlimit:10;stroke-dasharray:none;stroke-opacity:1"
         d="m 475.3085,-177.871 c 20.6808,55.2635 31.5656,113.71023 32.1653,172.71356" />
    </g>
    <g
       transform="matrix(0.16,0,0,-0.16,-484.0655,1650.8448)"
       id="g5724">
      <path
         inkscape:connector-curvature="0"
         id="path5726"
         style="fill:none;stroke:#000000;stroke-width:6.25;stroke-linecap:round;stroke-linejoin:round;stroke-miterlimit:10;stroke-dasharray:none;stroke-opacity:1"
         d="m 5366,7942 0,-319" />
    </g>
    <g
       transform="matrix(0,-0.16,-0.16,0,372.81448,465.00481)"
       id="g5728">
      <path
         inkscape:connector-curvature="0"
         id="path5730"
         style="fill:none;stroke:#000000;stroke-width:6.25;stroke-linecap:round;stroke-linejoin:round;stroke-miterlimit:10;stroke-dasharray:none;stroke-opacity:1"
         d="m 193.7477,-84.81783 c 10.3371,23.61277 16.2707,48.91624 17.5084,74.6628" />
    </g>
    <g
       transform="matrix(0,-0.16,-0.16,0,374.09448,461.96481)"
       id="g5732">
      <path
         inkscape:connector-curvature="0"
         id="path5734"
         style="fill:none;stroke:#000000;stroke-width:6.25;stroke-linecap:round;stroke-linejoin:round;stroke-miterlimit:10;stroke-dasharray:none;stroke-opacity:1"
         d="m 132.7499,-139.4048 c 18.3699,17.4929 33.1013,38.444 43.3475,61.64902" />
    </g>
    <g
       transform="matrix(0,-0.16,-0.16,0,373.93448,462.12481)"
       id="g5736">
      <path
         inkscape:connector-curvature="0"
         id="path5738"
         style="fill:none;stroke:#000000;stroke-width:6.25;stroke-linecap:round;stroke-linejoin:round;stroke-miterlimit:10;stroke-dasharray:none;stroke-opacity:1"
         d="m 67.24509,-181.4397 c 24.56491,9.1043 47.02531,23.1019 66.01971,41.1445" />
    </g>
    <g
       transform="matrix(0,-0.16,-0.16,0,367.05448,464.36481)"
       id="g5740">
      <path
         inkscape:connector-curvature="0"
         id="path5742"
         style="fill:none;stroke:#000000;stroke-width:6.25;stroke-linecap:round;stroke-linejoin:round;stroke-miterlimit:10;stroke-dasharray:none;stroke-opacity:1"
         d="m -1.55487,-238.4949 c 28.22107,-0.184 56.25081,4.6422 82.78518,14.2542" />
    </g>
    <g
       transform="matrix(0,-0.16,-0.16,0,367.37448,464.84481)"
       id="g5744">
      <path
         inkscape:connector-curvature="0"
         id="path5746"
         style="fill:none;stroke:#000000;stroke-width:6.25;stroke-linecap:round;stroke-linejoin:round;stroke-miterlimit:10;stroke-dasharray:none;stroke-opacity:1"
         d="m -81.75623,-220.8533 c 26.51059,-9.8137 54.57153,-14.7743 82.83998,-14.6442" />
    </g>
    <g
       transform="matrix(0,-0.16,-0.16,0,373.29448,466.60481)"
       id="g5748">
      <path
         inkscape:connector-curvature="0"
         id="path5750"
         style="fill:none;stroke:#000000;stroke-width:6.25;stroke-linecap:round;stroke-linejoin:round;stroke-miterlimit:10;stroke-dasharray:none;stroke-opacity:1"
         d="m -136.9639,-142.2925 c 19.1867,-18.4682 41.91025,-32.8653 66.80416,-42.3257" />
    </g>
    <g
       transform="matrix(0,-0.16,-0.16,0,373.77448,467.08481)"
       id="g5752">
      <path
         inkscape:connector-curvature="0"
         id="path5754"
         style="fill:none;stroke:#000000;stroke-width:6.25;stroke-linecap:round;stroke-linejoin:round;stroke-miterlimit:10;stroke-dasharray:none;stroke-opacity:1"
         d="m -177.37,-77.34429 c 10.182,-23.34981 24.8741,-44.45941 43.2335,-62.11771" />
    </g>
    <g
       transform="matrix(0,-0.16,-0.16,0,373.77448,466.92481)"
       id="g5756">
      <path
         inkscape:connector-curvature="0"
         id="path5758"
         style="fill:none;stroke:#000000;stroke-width:6.25;stroke-linecap:round;stroke-linejoin:round;stroke-miterlimit:10;stroke-dasharray:none;stroke-opacity:1"
         d="m -194.4481,-4.49364 c 0.5794,-25.07106 6.0017,-49.7935 15.9682,-72.8057" />
    </g>
    <g
       transform="matrix(0.16,0,0,-0.16,-484.0655,1650.8448)"
       id="g5760">
      <path
         inkscape:connector-curvature="0"
         id="path5762"
         style="fill:none;stroke:#000000;stroke-width:6.25;stroke-linecap:round;stroke-linejoin:round;stroke-miterlimit:10;stroke-dasharray:none;stroke-opacity:1"
         d="m 5366,7205 0,-322" />
    </g>
    <g
       transform="matrix(0,-0.16,-0.16,0,374.09448,573.96481)"
       id="g5764">
      <path
         inkscape:connector-curvature="0"
         id="path5766"
         style="fill:none;stroke:#000000;stroke-width:6.25;stroke-linecap:round;stroke-linejoin:round;stroke-miterlimit:10;stroke-dasharray:none;stroke-opacity:1"
         d="m 137.5695,-65.8095 c 9.4095,19.6698 14.4915,41.12869 14.9033,62.92938" />
    </g>
    <g
       transform="matrix(0,-0.16,-0.16,0,368.17448,587.72481)"
       id="g5768">
      <path
         inkscape:connector-curvature="0"
         id="path5770"
         style="fill:none;stroke:#000000;stroke-width:6.25;stroke-linecap:round;stroke-linejoin:round;stroke-miterlimit:10;stroke-dasharray:none;stroke-opacity:1"
         d="m 177.1687,-171.387 c 19.5186,20.1771 35.4472,43.5401 47.0984,69.081" />
    </g>
    <g
       transform="matrix(0,-0.16,-0.16,0,373.13448,582.60481)"
       id="g5772">
      <path
         inkscape:connector-curvature="0"
         id="path5774"
         style="fill:none;stroke:#000000;stroke-width:6.25;stroke-linecap:round;stroke-linejoin:round;stroke-miterlimit:10;stroke-dasharray:none;stroke-opacity:1"
         d="m 72.2625,-189.1676 c 27.56722,10.5307 52.4997,26.9594 73.0521,48.136" />
    </g>
    <g
       transform="matrix(0,-0.16,-0.16,0,371.69448,582.12481)"
       id="g5776">
      <path
         inkscape:connector-curvature="0"
         id="path5778"
         style="fill:none;stroke:#000000;stroke-width:6.25;stroke-linecap:round;stroke-linejoin:round;stroke-miterlimit:10;stroke-dasharray:none;stroke-opacity:1"
         d="m -13.80885,-209.0444 c 28.18755,-1.862 56.46052,1.9959 83.11876,11.3416" />
    </g>
    <g
       transform="matrix(0,-0.16,-0.16,0,366.25448,582.76481)"
       id="g5780">
      <path
         inkscape:connector-curvature="0"
         id="path5782"
         style="fill:none;stroke:#000000;stroke-width:6.25;stroke-linecap:round;stroke-linejoin:round;stroke-miterlimit:10;stroke-dasharray:none;stroke-opacity:1"
         d="m -90.2423,-226.1605 c 25.67648,-10.2454 52.91016,-16.0436 80.53324,-17.1459" />
    </g>
    <g
       transform="matrix(0,-0.16,-0.16,0,373.93448,585.48481)"
       id="g5784">
      <path
         inkscape:connector-curvature="0"
         id="path5786"
         style="fill:none;stroke:#000000;stroke-width:6.25;stroke-linecap:round;stroke-linejoin:round;stroke-miterlimit:10;stroke-dasharray:none;stroke-opacity:1"
         d="m -136.808,-135.4246 c 18.0552,-18.2397 39.57543,-32.6847 63.29492,-42.4857" />
    </g>
    <g
       transform="matrix(0,-0.16,-0.16,0,373.61448,585.32481)"
       id="g5788">
      <path
         inkscape:connector-curvature="0"
         id="path5790"
         style="fill:none;stroke:#000000;stroke-width:6.25;stroke-linecap:round;stroke-linejoin:round;stroke-miterlimit:10;stroke-dasharray:none;stroke-opacity:1"
         d="m -178.9727,-76.15128 c 9.6785,-22.74673 23.6045,-43.43992 41.0323,-60.97162" />
    </g>
    <g
       transform="matrix(0,-0.16,-0.16,0,373.93448,585.48481)"
       id="g5792">
      <path
         inkscape:connector-curvature="0"
         id="path5794"
         style="fill:none;stroke:#000000;stroke-width:6.25;stroke-linecap:round;stroke-linejoin:round;stroke-miterlimit:10;stroke-dasharray:none;stroke-opacity:1"
         d="m -193.4562,-4.11814 c 0.5193,-24.39414 5.6476,-48.46998 15.1144,-70.95824" />
    </g>
    <g
       transform="matrix(0.16,0,0,-0.16,-484.0655,1650.8448)"
       id="g5796">
      <path
         inkscape:connector-curvature="0"
         id="path5798"
         style="fill:none;stroke:#000000;stroke-width:6.25;stroke-linecap:round;stroke-linejoin:round;stroke-miterlimit:10;stroke-dasharray:none;stroke-opacity:1"
         d="m 5366,6465 0,-319" />
    </g>
    <g
       transform="matrix(0,-0.16,-0.16,0,372.33448,586.28481)"
       id="g5800">
      <path
         inkscape:connector-curvature="0"
         id="path5802"
         style="fill:none;stroke:#000000;stroke-width:6.25;stroke-linecap:round;stroke-linejoin:round;stroke-miterlimit:10;stroke-dasharray:none;stroke-opacity:1"
         d="m -508.322,-13.42748 c 1.8963,-71.50436 18.9163,-141.80102 49.9439,-206.27992" />
    </g>
    <g
       transform="matrix(0,-0.16,-0.16,0,369.13448,579.24481)"
       id="g5804">
      <path
         inkscape:connector-curvature="0"
         id="path5806"
         style="fill:none;stroke:#000000;stroke-width:6.25;stroke-linecap:round;stroke-linejoin:round;stroke-miterlimit:10;stroke-dasharray:none;stroke-opacity:1"
         d="m -500.9988,-239.9594 c 31.9456,-66.6975 76.8874,-126.345 132.1898,-175.4442" />
    </g>
    <g
       transform="matrix(0,-0.16,-0.16,0,373.45448,584.04481)"
       id="g5808">
      <path
         inkscape:connector-curvature="0"
         id="path5810"
         style="fill:none;stroke:#000000;stroke-width:6.25;stroke-linecap:round;stroke-linejoin:round;stroke-miterlimit:10;stroke-dasharray:none;stroke-opacity:1"
         d="m -338.6524,-388.6577 c 52.896,-46.0903 114.6436,-80.8981 181.4614,-102.2916" />
    </g>
    <g
       transform="matrix(0,-0.16,-0.16,0,375.69448,584.36481)"
       id="g5812">
      <path
         inkscape:connector-curvature="0"
         id="path5814"
         style="fill:none;stroke:#000000;stroke-width:6.25;stroke-linecap:round;stroke-linejoin:round;stroke-miterlimit:10;stroke-dasharray:none;stroke-opacity:1"
         d="m -156.2063,-477.6043 c 64.35391,-21.0477 132.2977,-28.8728 199.75142,-23.0054" />
    </g>
    <g
       transform="matrix(0,-0.16,-0.16,0,359.85448,586.12481)"
       id="g5816">
      <path
         inkscape:connector-curvature="0"
         id="path5818"
         style="fill:none;stroke:#000000;stroke-width:6.25;stroke-linecap:round;stroke-linejoin:round;stroke-miterlimit:10;stroke-dasharray:none;stroke-opacity:1"
         d="m 54.99611,-598.9805 c 68.15779,6.258 134.74749,24.1029 196.90109,52.7662" />
    </g>
    <g
       transform="matrix(0,-0.16,-0.16,0,388.97448,572.04481)"
       id="g5820">
      <path
         inkscape:connector-curvature="0"
         id="path5822"
         style="fill:none;stroke:#000000;stroke-width:6.25;stroke-linecap:round;stroke-linejoin:round;stroke-miterlimit:10;stroke-dasharray:none;stroke-opacity:1"
         d="m 164.0969,-364.2423 c 52.9394,23.85 100.0436,58.9532 138.0325,102.865" />
    </g>
    <g
       transform="matrix(0,-0.16,-0.16,0,389.93448,476.20481)"
       id="g5824">
      <path
         inkscape:connector-curvature="0"
         id="path5826"
         style="fill:none;stroke:#000000;stroke-width:6.25;stroke-linecap:round;stroke-linejoin:round;stroke-miterlimit:10;stroke-dasharray:none;stroke-opacity:1"
         d="m -296.6433,-255.4897 c 33.065,-38.3911 73.2678,-69.9989 118.3778,-93.0697" />
    </g>
    <g
       transform="matrix(0,-0.16,-0.16,0,363.21448,462.12481)"
       id="g5828">
      <path
         inkscape:connector-curvature="0"
         id="path5830"
         style="fill:none;stroke:#000000;stroke-width:6.25;stroke-linecap:round;stroke-linejoin:round;stroke-miterlimit:10;stroke-dasharray:none;stroke-opacity:1"
         d="m -266.8486,-514.6428 c 52.8909,-27.3302 109.6798,-46.3723 168.37301,-56.458" />
    </g>
    <g
       transform="matrix(0,-0.16,-0.16,0,355.85448,465.64481)"
       id="g5832">
      <path
         inkscape:connector-curvature="0"
         id="path5834"
         style="fill:none;stroke:#000000;stroke-width:6.25;stroke-linecap:round;stroke-linejoin:round;stroke-miterlimit:10;stroke-dasharray:none;stroke-opacity:1"
         d="m 439.9006,327.6274 c -20.0018,26.8561 -42.4208,51.8241 -66.9764,74.5912" />
    </g>
    <g
       transform="matrix(0,-0.16,-0.16,0,342.25448,446.28481)"
       id="g5836">
      <path
         inkscape:connector-curvature="0"
         id="path5838"
         style="fill:none;stroke:#000000;stroke-width:6.25;stroke-linecap:round;stroke-linejoin:round;stroke-miterlimit:10;stroke-dasharray:none;stroke-opacity:1"
         d="m 369.6882,156.6297 c -13.0866,30.8879 -29.9926,60.014 -50.3229,86.6974" />
    </g>
    <g
       transform="matrix(0,-0.16,-0.16,0,357.13448,484.36481)"
       id="g5840">
      <path
         inkscape:connector-curvature="0"
         id="path5842"
         style="fill:none;stroke:#000000;stroke-width:6.25;stroke-linecap:round;stroke-linejoin:round;stroke-miterlimit:10;stroke-dasharray:none;stroke-opacity:1"
         d="m 641.6462,138.8613 c -8.1219,37.529 -19.5205,74.273 -34.0649,109.8095" />
    </g>
    <g
       transform="matrix(0,-0.16,-0.16,0,349.77448,447.08481)"
       id="g5844">
      <path
         inkscape:connector-curvature="0"
         id="path5846"
         style="fill:none;stroke:#000000;stroke-width:6.25;stroke-linecap:round;stroke-linejoin:round;stroke-miterlimit:10;stroke-dasharray:none;stroke-opacity:1"
         d="M 419.4984,1.16635 C 419.4116,32.36831 415.844,63.46319 408.8618,93.874" />
    </g>
    <g
       transform="matrix(0.16,0,0,-0.16,-484.0655,1650.8448)"
       id="g5848">
      <path
         inkscape:connector-curvature="0"
         id="path5850"
         style="fill:none;stroke:#000000;stroke-width:6.25;stroke-linecap:round;stroke-linejoin:round;stroke-miterlimit:10;stroke-dasharray:none;stroke-opacity:1"
         d="m 5210,7942 0,-319" />
    </g>
    <g
       transform="matrix(0,-0.16,-0.16,0,351.37448,464.68481)"
       id="g5852">
      <path
         inkscape:connector-curvature="0"
         id="path5854"
         style="fill:none;stroke:#000000;stroke-width:6.25;stroke-linecap:round;stroke-linejoin:round;stroke-miterlimit:10;stroke-dasharray:none;stroke-opacity:1"
         d="m 210.2425,10.40937 c -0.6595,13.32019 -2.5834,26.54755 -5.7457,39.5037" />
    </g>
    <g
       transform="matrix(0,-0.16,-0.16,0,351.53448,465.64481)"
       id="g5856">
      <path
         inkscape:connector-curvature="0"
         id="path5858"
         style="fill:none;stroke:#000000;stroke-width:6.25;stroke-linecap:round;stroke-linejoin:round;stroke-miterlimit:10;stroke-dasharray:none;stroke-opacity:1"
         d="m 210.2912,51.47692 c -3.1229,12.75752 -7.4003,25.20441 -12.7791,37.18668" />
    </g>
    <g
       transform="matrix(0,-0.16,-0.16,0,349.61448,461.16481)"
       id="g5860">
      <path
         inkscape:connector-curvature="0"
         id="path5862"
         style="fill:none;stroke:#000000;stroke-width:6.25;stroke-linecap:round;stroke-linejoin:round;stroke-miterlimit:10;stroke-dasharray:none;stroke-opacity:1"
         d="m 170.2017,76.24712 c -4.9602,11.07231 -10.9889,21.63417 -18.0006,31.53548" />
    </g>
    <g
       transform="matrix(0,-0.16,-0.16,0,349.93448,461.80481)"
       id="g5864">
      <path
         inkscape:connector-curvature="0"
         id="path5866"
         style="fill:none;stroke:#000000;stroke-width:6.25;stroke-linecap:round;stroke-linejoin:round;stroke-miterlimit:10;stroke-dasharray:none;stroke-opacity:1"
         d="m 155.6236,109.8706 c -6.8519,9.7052 -14.5967,18.7482 -23.133,27.0107" />
    </g>
    <g
       transform="matrix(0,-0.16,-0.16,0,350.41448,461.96481)"
       id="g5868">
      <path
         inkscape:connector-curvature="0"
         id="path5870"
         style="fill:none;stroke:#000000;stroke-width:6.25;stroke-linecap:round;stroke-linejoin:round;stroke-miterlimit:10;stroke-dasharray:none;stroke-opacity:1"
         d="m 133.9224,139.6676 c -8.6475,8.2918 -18.0465,15.7626 -28.0757,22.3161" />
    </g>
    <g
       transform="matrix(0.16,0,0,-0.16,-484.0655,1650.8448)"
       id="g5872">
      <path
         inkscape:connector-curvature="0"
         id="path5874"
         style="fill:none;stroke:#000000;stroke-width:6.25;stroke-linecap:round;stroke-linejoin:round;stroke-miterlimit:10;stroke-dasharray:none;stroke-opacity:1"
         d="m 5053,7535 -271,161" />
    </g>
    <g
       transform="matrix(0,-0.16,-0.16,0,359.53448,468.68481)"
       id="g5876">
      <path
         inkscape:connector-curvature="0"
         id="path5878"
         style="fill:none;stroke:#000000;stroke-width:6.25;stroke-linecap:round;stroke-linejoin:round;stroke-miterlimit:10;stroke-dasharray:none;stroke-opacity:1"
         d="m 392.1809,425.2721 c -26.0855,24.0558 -54.3291,45.6606 -84.3735,64.541" />
    </g>
    <g
       transform="matrix(0,-0.16,-0.16,0,355.85448,581.80481)"
       id="g5880">
      <path
         inkscape:connector-curvature="0"
         id="path5882"
         style="fill:none;stroke:#000000;stroke-width:6.25;stroke-linecap:round;stroke-linejoin:round;stroke-miterlimit:10;stroke-dasharray:none;stroke-opacity:1"
         d="m -372.9242,402.2186 c -24.5556,-22.7671 -46.9746,-47.7351 -66.9764,-74.5912" />
    </g>
    <g
       transform="matrix(0,-0.16,-0.16,0,342.25448,601.16481)"
       id="g5884">
      <path
         inkscape:connector-curvature="0"
         id="path5886"
         style="fill:none;stroke:#000000;stroke-width:6.25;stroke-linecap:round;stroke-linejoin:round;stroke-miterlimit:10;stroke-dasharray:none;stroke-opacity:1"
         d="m -319.3653,243.3271 c -20.3303,-26.6834 -37.2363,-55.8095 -50.3229,-86.6974" />
    </g>
    <g
       transform="matrix(0,-0.16,-0.16,0,357.13448,563.08481)"
       id="g5888">
      <path
         inkscape:connector-curvature="0"
         id="path5890"
         style="fill:none;stroke:#000000;stroke-width:6.25;stroke-linecap:round;stroke-linejoin:round;stroke-miterlimit:10;stroke-dasharray:none;stroke-opacity:1"
         d="m -607.5813,248.6708 c -14.5444,-35.5365 -25.9431,-72.2805 -34.0649,-109.8095" />
    </g>
    <g
       transform="matrix(0,-0.16,-0.16,0,349.77448,600.36481)"
       id="g5892">
      <path
         inkscape:connector-curvature="0"
         id="path5894"
         style="fill:none;stroke:#000000;stroke-width:6.25;stroke-linecap:round;stroke-linejoin:round;stroke-miterlimit:10;stroke-dasharray:none;stroke-opacity:1"
         d="M -408.8618,93.874 C -415.844,63.46319 -419.4116,32.36831 -419.4984,1.16635" />
    </g>
    <g
       transform="matrix(0.16,0,0,-0.16,-484.0655,1650.8448)"
       id="g5896">
      <path
         inkscape:connector-curvature="0"
         id="path5898"
         style="fill:none;stroke:#000000;stroke-width:6.25;stroke-linecap:round;stroke-linejoin:round;stroke-miterlimit:10;stroke-dasharray:none;stroke-opacity:1"
         d="m 5210,6146 0,319" />
    </g>
    <g
       transform="matrix(0,-0.16,-0.16,0,351.37448,582.76481)"
       id="g5900">
      <path
         inkscape:connector-curvature="0"
         id="path5902"
         style="fill:none;stroke:#000000;stroke-width:6.25;stroke-linecap:round;stroke-linejoin:round;stroke-miterlimit:10;stroke-dasharray:none;stroke-opacity:1"
         d="m -204.4968,49.91307 c -3.1623,-12.95615 -5.0862,-26.18351 -5.7457,-39.5037" />
    </g>
    <g
       transform="matrix(0,-0.16,-0.16,0,351.53448,581.80481)"
       id="g5904">
      <path
         inkscape:connector-curvature="0"
         id="path5906"
         style="fill:none;stroke:#000000;stroke-width:6.25;stroke-linecap:round;stroke-linejoin:round;stroke-miterlimit:10;stroke-dasharray:none;stroke-opacity:1"
         d="m -197.5121,88.6636 c -5.3788,-11.98227 -9.6562,-24.42916 -12.7791,-37.18668" />
    </g>
    <g
       transform="matrix(0,-0.16,-0.16,0,349.61448,586.28481)"
       id="g5908">
      <path
         inkscape:connector-curvature="0"
         id="path5910"
         style="fill:none;stroke:#000000;stroke-width:6.25;stroke-linecap:round;stroke-linejoin:round;stroke-miterlimit:10;stroke-dasharray:none;stroke-opacity:1"
         d="m -152.2011,107.7826 c -7.0117,-9.90131 -13.0404,-20.46317 -18.0006,-31.53548" />
    </g>
    <g
       transform="matrix(0,-0.16,-0.16,0,349.93448,585.64481)"
       id="g5912">
      <path
         inkscape:connector-curvature="0"
         id="path5914"
         style="fill:none;stroke:#000000;stroke-width:6.25;stroke-linecap:round;stroke-linejoin:round;stroke-miterlimit:10;stroke-dasharray:none;stroke-opacity:1"
         d="m -132.4906,136.8813 c -8.5363,-8.2625 -16.2811,-17.3055 -23.133,-27.0107" />
    </g>
    <g
       transform="matrix(0,-0.16,-0.16,0,350.41448,585.48481)"
       id="g5916">
      <path
         inkscape:connector-curvature="0"
         id="path5918"
         style="fill:none;stroke:#000000;stroke-width:6.25;stroke-linecap:round;stroke-linejoin:round;stroke-miterlimit:10;stroke-dasharray:none;stroke-opacity:1"
         d="m -105.8467,161.9837 c -10.0293,-6.5535 -19.4282,-14.0243 -28.0757,-22.3161" />
    </g>
    <g
       transform="matrix(0.16,0,0,-0.16,-484.0655,1650.8448)"
       id="g5920">
      <path
         inkscape:connector-curvature="0"
         id="path5922"
         style="fill:none;stroke:#000000;stroke-width:6.25;stroke-linecap:round;stroke-linejoin:round;stroke-miterlimit:10;stroke-dasharray:none;stroke-opacity:1"
         d="M 5053,6553 4782,6392" />
    </g>
    <g
       transform="matrix(0,-0.16,-0.16,0,359.53448,578.76481)"
       id="g5924">
      <path
         inkscape:connector-curvature="0"
         id="path5926"
         style="fill:none;stroke:#000000;stroke-width:6.25;stroke-linecap:round;stroke-linejoin:round;stroke-miterlimit:10;stroke-dasharray:none;stroke-opacity:1"
         d="m -307.8074,489.8131 c -30.0444,-18.8804 -58.288,-40.4852 -84.3735,-64.541" />
    </g>
  </g>
</svg>
