<?xml version="1.0" encoding="UTF-8" standalone="no"?>
<!-- Created with Inkscape (http://www.inkscape.org/) -->

<svg
   xmlns:dc="http://purl.org/dc/elements/1.1/"
   xmlns:cc="http://creativecommons.org/ns#"
   xmlns:rdf="http://www.w3.org/1999/02/22-rdf-syntax-ns#"
   xmlns:svg="http://www.w3.org/2000/svg"
   xmlns="http://www.w3.org/2000/svg"
   xmlns:sodipodi="http://sodipodi.sourceforge.net/DTD/sodipodi-0.dtd"
   xmlns:inkscape="http://www.inkscape.org/namespaces/inkscape"
   width="210mm"
   height="297mm"
   viewBox="0 0 744.09448819 1052.3622047"
   id="svg4223"
   version="1.1"
   inkscape:version="0.91 r13725"
   sodipodi:docname="9.svg">
  <defs
     id="defs4225" />
  <sodipodi:namedview
     id="base"
     pagecolor="#ffffff"
     bordercolor="#666666"
     borderopacity="1.0"
     inkscape:pageopacity="0.0"
     inkscape:pageshadow="2"
     inkscape:zoom="0.35"
     inkscape:cx="375"
     inkscape:cy="520"
     inkscape:document-units="px"
     inkscape:current-layer="layer1"
     showgrid="false"
     inkscape:window-width="1366"
     inkscape:window-height="706"
     inkscape:window-x="-8"
     inkscape:window-y="-8"
     inkscape:window-maximized="1" />
  <metadata
     id="metadata4228">
    <rdf:RDF>
      <cc:Work
         rdf:about="">
        <dc:format>image/svg+xml</dc:format>
        <dc:type
           rdf:resource="http://purl.org/dc/dcmitype/StillImage" />
        <dc:title></dc:title>
      </cc:Work>
    </rdf:RDF>
  </metadata>
  <g
     inkscape:label="Layer 1"
     inkscape:groupmode="layer"
     id="layer1">
    <g
       transform="matrix(0.16,0,0,-0.16,-2463.1201,1673.6879)"
       id="g4544">
      <path
         inkscape:connector-curvature="0"
         id="path4546"
         style="fill:none;stroke:#000000;stroke-width:6.25;stroke-linecap:round;stroke-linejoin:round;stroke-miterlimit:10;stroke-dasharray:none;stroke-opacity:1"
         d="m 17817,6882 -1,322" />
    </g>
    <g
       transform="matrix(0,-0.16,-0.16,0,388.15998,499.68791)"
       id="g4548">
      <path
         inkscape:connector-curvature="0"
         id="path4550"
         style="fill:none;stroke:#000000;stroke-width:6.25;stroke-linecap:round;stroke-linejoin:round;stroke-miterlimit:10;stroke-dasharray:none;stroke-opacity:1"
         d="M -118.2454,61.96992 C -127.7033,43.92314 -132.905,23.95094 -133.4519,3.58333" />
    </g>
    <g
       transform="matrix(0,-0.16,-0.16,0,394.39998,486.08792)"
       id="g4552">
      <path
         inkscape:connector-curvature="0"
         id="path4554"
         style="fill:none;stroke:#000000;stroke-width:6.25;stroke-linecap:round;stroke-linejoin:round;stroke-miterlimit:10;stroke-dasharray:none;stroke-opacity:1"
         d="m -156.3959,164.4905 c -19.3798,-18.2645 -35.3809,-39.7812 -47.2715,-63.5662" />
    </g>
    <g
       transform="matrix(0,-0.16,-0.16,0,391.83998,488.64792)"
       id="g4556">
      <path
         inkscape:connector-curvature="0"
         id="path4558"
         style="fill:none;stroke:#000000;stroke-width:6.25;stroke-linecap:round;stroke-linejoin:round;stroke-miterlimit:10;stroke-dasharray:none;stroke-opacity:1"
         d="M -66.91969,192.1822 C -93.96328,182.7654 -118.715,167.747 -139.5566,148.1088" />
    </g>
    <g
       transform="matrix(0,-0.16,-0.16,0,395.35998,488.32792)"
       id="g4560">
      <path
         inkscape:connector-curvature="0"
         id="path4562"
         style="fill:none;stroke:#000000;stroke-width:6.25;stroke-linecap:round;stroke-linejoin:round;stroke-miterlimit:10;stroke-dasharray:none;stroke-opacity:1"
         d="m 13.61203,225.0888 c -28.02731,1.6949 -56.12465,-1.8595 -82.84697,-10.4804" />
    </g>
    <g
       transform="matrix(0,-0.16,-0.16,0,400.79998,487.68792)"
       id="g4564">
      <path
         inkscape:connector-curvature="0"
         id="path4566"
         style="fill:none;stroke:#000000;stroke-width:6.25;stroke-linecap:round;stroke-linejoin:round;stroke-miterlimit:10;stroke-dasharray:none;stroke-opacity:1"
         d="M 89.20087,243.6872 C 63.58866,253.0625 36.65857,258.3414 9.4023,259.3296" />
    </g>
    <g
       transform="matrix(0,-0.16,-0.16,0,390.87998,484.32792)"
       id="g4568">
      <path
         inkscape:connector-curvature="0"
         id="path4570"
         style="fill:none;stroke:#000000;stroke-width:6.25;stroke-linecap:round;stroke-linejoin:round;stroke-miterlimit:10;stroke-dasharray:none;stroke-opacity:1"
         d="M 132.1445,142.7168 C 113.7572,159.742 92.25314,173.0536 68.81505,181.9196" />
    </g>
    <g
       transform="matrix(0,-0.16,-0.16,0,389.11998,482.56792)"
       id="g4572">
      <path
         inkscape:connector-curvature="0"
         id="path4574"
         style="fill:none;stroke:#000000;stroke-width:6.25;stroke-linecap:round;stroke-linejoin:round;stroke-miterlimit:10;stroke-dasharray:none;stroke-opacity:1"
         d="m 161.849,75.2805 c -9.8763,21.23342 -23.8341,40.316 -41.0782,56.1602" />
    </g>
    <g
       transform="matrix(0,-0.16,-0.16,0,388.31998,481.12792)"
       id="g4576">
      <path
         inkscape:connector-curvature="0"
         id="path4578"
         style="fill:none;stroke:#000000;stroke-width:6.25;stroke-linecap:round;stroke-linejoin:round;stroke-miterlimit:10;stroke-dasharray:none;stroke-opacity:1"
         d="m 168.434,4.71657 c -0.6359,22.70619 -5.8561,45.04942 -15.347,65.68673" />
    </g>
    <g
       transform="matrix(0.16,0,0,-0.16,-2463.1201,1673.6879)"
       id="g4580">
      <path
         inkscape:connector-curvature="0"
         id="path4582"
         style="fill:none;stroke:#000000;stroke-width:6.25;stroke-linecap:round;stroke-linejoin:round;stroke-miterlimit:10;stroke-dasharray:none;stroke-opacity:1"
         d="m 17817,7622 -1,319" />
    </g>
    <g
       transform="matrix(0,-0.16,-0.16,0,389.91998,474.08792)"
       id="g4584">
      <path
         inkscape:connector-curvature="0"
         id="path4586"
         style="fill:none;stroke:#000000;stroke-width:6.25;stroke-linecap:round;stroke-linejoin:round;stroke-miterlimit:10;stroke-dasharray:none;stroke-opacity:1"
         d="M 443.2373,15.26168 C 440.9471,81.7757 423.7165,146.9215 392.8228,205.8701" />
    </g>
    <g
       transform="matrix(0,-0.16,-0.16,0,395.51998,484.64792)"
       id="g4588">
      <path
         inkscape:connector-curvature="0"
         id="path4590"
         style="fill:none;stroke:#000000;stroke-width:6.25;stroke-linecap:round;stroke-linejoin:round;stroke-miterlimit:10;stroke-dasharray:none;stroke-opacity:1"
         d="m 459.1836,240.8167 c -32.705,62.3611 -77.7697,117.407 -132.4459,161.7808" />
    </g>
    <g
       transform="matrix(0,-0.16,-0.16,0,397.11998,484.96792)"
       id="g4592">
      <path
         inkscape:connector-curvature="0"
         id="path4594"
         style="fill:none;stroke:#000000;stroke-width:6.25;stroke-linecap:round;stroke-linejoin:round;stroke-miterlimit:10;stroke-dasharray:none;stroke-opacity:1"
         d="m 329.0998,412.2494 c -53.6585,42.8357 -115.1634,74.7841 -181.0639,94.0525" />
    </g>
    <g
       transform="matrix(0,-0.16,-0.16,0,397.75998,485.92792)"
       id="g4596">
      <path
         inkscape:connector-curvature="0"
         id="path4598"
         style="fill:none;stroke:#000000;stroke-width:6.25;stroke-linecap:round;stroke-linejoin:round;stroke-miterlimit:10;stroke-dasharray:none;stroke-opacity:1"
         d="M 153.7897,510.8532 C 89.35648,530.2505 21.83529,537.2833 -45.21228,531.5808" />
    </g>
    <g
       transform="matrix(0,-0.16,-0.16,0,427.83999,481.76792)"
       id="g4600">
      <path
         inkscape:connector-curvature="0"
         id="path4602"
         style="fill:none;stroke:#000000;stroke-width:6.25;stroke-linecap:round;stroke-linejoin:round;stroke-miterlimit:10;stroke-dasharray:none;stroke-opacity:1"
         d="M -70.54164,719.0481 C -137.4507,712.484 -203.1162,696.6132 -265.6376,671.895" />
    </g>
    <g
       transform="matrix(0,-0.16,-0.16,0,387.67998,499.68791)"
       id="g4604">
      <path
         inkscape:connector-curvature="0"
         id="path4606"
         style="fill:none;stroke:#000000;stroke-width:6.25;stroke-linecap:round;stroke-linejoin:round;stroke-miterlimit:10;stroke-dasharray:none;stroke-opacity:1"
         d="m -154.491,421.052 c -53.3918,-19.5904 -102.5706,-49.1567 -144.9147,-87.1231" />
    </g>
    <g
       transform="matrix(0,-0.16,-0.16,0,394.39998,493.44792)"
       id="g4608">
      <path
         inkscape:connector-curvature="0"
         id="path4610"
         style="fill:none;stroke:#000000;stroke-width:6.25;stroke-linecap:round;stroke-linejoin:round;stroke-miterlimit:10;stroke-dasharray:none;stroke-opacity:1"
         d="m -338.0702,375.8175 c -46.9652,-42.248 -85.5954,-92.9247 -113.8897,-149.4052" />
    </g>
    <g
       transform="matrix(0,-0.16,-0.16,0,387.19998,505.92791)"
       id="g4612">
      <path
         inkscape:connector-curvature="0"
         id="path4614"
         style="fill:none;stroke:#000000;stroke-width:6.25;stroke-linecap:round;stroke-linejoin:round;stroke-miterlimit:10;stroke-dasharray:none;stroke-opacity:1"
         d="M -373.8002,181.4212 C -401.6299,124.0809 -415.895,61.10665 -415.4917,-2.62913" />
    </g>
    <g
       transform="matrix(0,-0.16,-0.16,0,397.59998,610.08791)"
       id="g4616">
      <path
         inkscape:connector-curvature="0"
         id="path4618"
         style="fill:none;stroke:#000000;stroke-width:6.25;stroke-linecap:round;stroke-linejoin:round;stroke-miterlimit:10;stroke-dasharray:none;stroke-opacity:1"
         d="m -339.7647,398.2615 c -24.3905,-20.808 -46.8179,-43.8126 -66.9996,-68.7239" />
    </g>
    <g
       transform="matrix(0,-0.16,-0.16,0,382.07998,630.40791)"
       id="g4620">
      <path
         inkscape:connector-curvature="0"
         id="path4622"
         style="fill:none;stroke:#000000;stroke-width:6.25;stroke-linecap:round;stroke-linejoin:round;stroke-miterlimit:10;stroke-dasharray:none;stroke-opacity:1"
         d="m -279.7249,232.1341 c -20.1549,-24.287 -37.061,-51.0953 -50.2917,-79.7487" />
    </g>
    <g
       transform="matrix(0,-0.16,-0.16,0,394.71998,599.52791)"
       id="g4624">
      <path
         inkscape:connector-curvature="0"
         id="path4626"
         style="fill:none;stroke:#000000;stroke-width:6.25;stroke-linecap:round;stroke-linejoin:round;stroke-miterlimit:10;stroke-dasharray:none;stroke-opacity:1"
         d="m -522.3153,231.946 c -14.4872,-32.6235 -25.8862,-66.5326 -34.0473,-101.2827" />
    </g>
    <g
       transform="matrix(0,-0.16,-0.16,0,387.67998,632.80791)"
       id="g4628">
      <path
         inkscape:connector-curvature="0"
         id="path4630"
         style="fill:none;stroke:#000000;stroke-width:6.25;stroke-linecap:round;stroke-linejoin:round;stroke-miterlimit:10;stroke-dasharray:none;stroke-opacity:1"
         d="M -348.8598,86.81633 C -355.8349,58.78775 -359.4068,30.02071 -359.4982,1.1374" />
    </g>
    <g
       transform="matrix(0.16,0,0,-0.16,-2463.1201,1673.6879)"
       id="g4632">
      <path
         inkscape:connector-curvature="0"
         id="path4634"
         style="fill:none;stroke:#000000;stroke-width:6.25;stroke-linecap:round;stroke-linejoin:round;stroke-miterlimit:10;stroke-dasharray:none;stroke-opacity:1"
         d="m 17816,6146 0,319" />
    </g>
    <g
       transform="matrix(0,-0.16,-0.16,0,389.27998,610.40791)"
       id="g4636">
      <path
         inkscape:connector-curvature="0"
         id="path4638"
         style="fill:none;stroke:#000000;stroke-width:6.25;stroke-linecap:round;stroke-linejoin:round;stroke-miterlimit:10;stroke-dasharray:none;stroke-opacity:1"
         d="m -175.2915,47.06529 c -3.2126,-11.965 -5.1917,-24.22749 -5.9063,-36.59565" />
    </g>
    <g
       transform="matrix(0,-0.16,-0.16,0,389.43998,609.12791)"
       id="g4640">
      <path
         inkscape:connector-curvature="0"
         id="path4642"
         style="fill:none;stroke:#000000;stroke-width:6.25;stroke-linecap:round;stroke-linejoin:round;stroke-miterlimit:10;stroke-dasharray:none;stroke-opacity:1"
         d="m -169.3526,82.7766 c -5.3451,-10.93569 -9.6185,-22.3634 -12.7602,-34.12305" />
    </g>
    <g
       transform="matrix(0,-0.16,-0.16,0,387.99998,612.00791)"
       id="g4644">
      <path
         inkscape:connector-curvature="0"
         id="path4646"
         style="fill:none;stroke:#000000;stroke-width:6.25;stroke-linecap:round;stroke-linejoin:round;stroke-miterlimit:10;stroke-dasharray:none;stroke-opacity:1"
         d="m -133.5783,102.7087 c -6.9449,-9.03217 -12.9558,-18.74543 -17.9403,-28.99065" />
    </g>
    <g
       transform="matrix(0,-0.16,-0.16,0,389.11998,610.56791)"
       id="g4648">
      <path
         inkscape:connector-curvature="0"
         id="path4650"
         style="fill:none;stroke:#000000;stroke-width:6.25;stroke-linecap:round;stroke-linejoin:round;stroke-miterlimit:10;stroke-dasharray:none;stroke-opacity:1"
         d="m -119.9803,134.8517 c -8.4746,-7.5401 -16.2196,-15.8622 -23.1321,-24.8559" />
    </g>
    <g
       transform="matrix(0,-0.16,-0.16,0,390.39998,609.44791)"
       id="g4652">
      <path
         inkscape:connector-curvature="0"
         id="path4654"
         style="fill:none;stroke:#000000;stroke-width:6.25;stroke-linecap:round;stroke-linejoin:round;stroke-miterlimit:10;stroke-dasharray:none;stroke-opacity:1"
         d="M -98.06063,162.1554 C -107.9395,156.1813 -117.2518,149.317 -125.8813,141.648" />
    </g>
    <g
       transform="matrix(0.16,0,0,-0.16,-2463.1201,1673.6879)"
       id="g4656">
      <path
         inkscape:connector-curvature="0"
         id="path4658"
         style="fill:none;stroke:#000000;stroke-width:6.25;stroke-linecap:round;stroke-linejoin:round;stroke-miterlimit:10;stroke-dasharray:none;stroke-opacity:1"
         d="m 17671,6552 -250,-160" />
    </g>
    <g
       transform="matrix(0,-0.16,-0.16,0,403.51998,605.12791)"
       id="g4660">
      <path
         inkscape:connector-curvature="0"
         id="path4662"
         style="fill:none;stroke:#000000;stroke-width:6.25;stroke-linecap:round;stroke-linejoin:round;stroke-miterlimit:10;stroke-dasharray:none;stroke-opacity:1"
         d="m -286.2086,494.6685 c -29.7719,-17.2257 -57.928,-37.1039 -84.1254,-59.3927" />
    </g>
    <g
       transform="matrix(0,-0.16,-0.16,0,411.19998,507.68791)"
       id="g4664">
      <path
         inkscape:connector-curvature="0"
         id="path4666"
         style="fill:none;stroke:#000000;stroke-width:6.25;stroke-linecap:round;stroke-linejoin:round;stroke-miterlimit:10;stroke-dasharray:none;stroke-opacity:1"
         d="m -399.8914,-60.88649 c 3.3448,-21.96794 8.4942,-43.62291 15.3957,-64.74511" />
    </g>
    <g
       transform="matrix(0,-0.16,-0.16,0,411.19998,507.36791)"
       id="g4668">
      <path
         inkscape:connector-curvature="0"
         id="path4670"
         style="fill:none;stroke:#000000;stroke-width:6.25;stroke-linecap:round;stroke-linejoin:round;stroke-miterlimit:10;stroke-dasharray:none;stroke-opacity:1"
         d="m -406.4748,4.52074 c -0.2445,-21.97829 1.294,-43.9402 4.6004,-65.66974" />
    </g>
    <g
       transform="matrix(0.16,0,0,-0.16,-2463.1201,1673.6879)"
       id="g4672">
      <path
         inkscape:connector-curvature="0"
         id="path4674"
         style="fill:none;stroke:#000000;stroke-width:6.25;stroke-linecap:round;stroke-linejoin:round;stroke-miterlimit:10;stroke-dasharray:none;stroke-opacity:1"
         d="m 17959,6882 0,322" />
    </g>
    <g
       transform="matrix(0,-0.16,-0.16,0,410.23998,500.64791)"
       id="g4676">
      <path
         inkscape:connector-curvature="0"
         id="path4678"
         style="fill:none;stroke:#000000;stroke-width:6.25;stroke-linecap:round;stroke-linejoin:round;stroke-miterlimit:10;stroke-dasharray:none;stroke-opacity:1"
         d="m -127.4859,-1.89464 c 0.295,-19.84929 5.2208,-39.3555 14.3851,-56.96506" />
    </g>
    <g
       transform="matrix(0,-0.16,-0.16,0,402.23998,484.00792)"
       id="g4680">
      <path
         inkscape:connector-curvature="0"
         id="path4682"
         style="fill:none;stroke:#000000;stroke-width:6.25;stroke-linecap:round;stroke-linejoin:round;stroke-miterlimit:10;stroke-dasharray:none;stroke-opacity:1"
         d="m -216.826,-108.5944 c 11.3123,-22.5869 26.0844,-43.2674 43.7817,-61.2935" />
    </g>
    <g
       transform="matrix(0,-0.16,-0.16,0,407.51998,489.44792)"
       id="g4684">
      <path
         inkscape:connector-curvature="0"
         id="path4686"
         style="fill:none;stroke:#000000;stroke-width:6.25;stroke-linecap:round;stroke-linejoin:round;stroke-miterlimit:10;stroke-dasharray:none;stroke-opacity:1"
         d="m -139.2035,-137.2685 c 17.3091,-17.5531 37.7818,-31.6741 60.33882,-41.6186" />
    </g>
    <g
       transform="matrix(0,-0.16,-0.16,0,406.55998,489.12792)"
       id="g4688">
      <path
         inkscape:connector-curvature="0"
         id="path4690"
         style="fill:none;stroke:#000000;stroke-width:6.25;stroke-linecap:round;stroke-linejoin:round;stroke-miterlimit:10;stroke-dasharray:none;stroke-opacity:1"
         d="m -80.79372,-183.501 c 21.78458,-9.5916 45.10302,-15.2274 68.86348,-16.6437" />
    </g>
    <g
       transform="matrix(0.16,0,0,-0.16,-2463.1201,1673.6879)"
       id="g4692">
      <path
         inkscape:connector-curvature="0"
         id="path4694"
         style="fill:none;stroke:#000000;stroke-width:6.25;stroke-linecap:round;stroke-linejoin:round;stroke-miterlimit:10;stroke-dasharray:none;stroke-opacity:1"
         d="m 18136,7391 -7,67 -6,38" />
    </g>
    <g
       transform="matrix(0,-0.16,-0.16,0,406.71998,484.48792)"
       id="g4696">
      <path
         inkscape:connector-curvature="0"
         id="path4698"
         style="fill:none;stroke:#000000;stroke-width:6.25;stroke-linecap:round;stroke-linejoin:round;stroke-miterlimit:10;stroke-dasharray:none;stroke-opacity:1"
         d="m 64.19507,-186.7759 c 17.69786,6.0827 34.44136,14.65 49.72823,25.4448" />
    </g>
    <g
       transform="matrix(0,-0.16,-0.16,0,408.15998,483.52792)"
       id="g4700">
      <path
         inkscape:connector-curvature="0"
         id="path4702"
         style="fill:none;stroke:#000000;stroke-width:6.25;stroke-linecap:round;stroke-linejoin:round;stroke-miterlimit:10;stroke-dasharray:none;stroke-opacity:1"
         d="m 107.1103,-152.6749 c 15.0748,10.5758 28.5003,23.326 39.8393,37.8356" />
    </g>
    <g
       transform="matrix(0,-0.16,-0.16,0,409.27998,482.08792)"
       id="g4704">
      <path
         inkscape:connector-curvature="0"
         id="path4706"
         style="fill:none;stroke:#000000;stroke-width:6.25;stroke-linecap:round;stroke-linejoin:round;stroke-miterlimit:10;stroke-dasharray:none;stroke-opacity:1"
         d="m 138.4893,-107.8006 c 11.1741,14.35521 20.0484,30.36051 26.3049,47.4424" />
    </g>
    <g
       transform="matrix(0,-0.16,-0.16,0,409.75998,480.80792)"
       id="g4708">
      <path
         inkscape:connector-curvature="0"
         id="path4710"
         style="fill:none;stroke:#000000;stroke-width:6.25;stroke-linecap:round;stroke-linejoin:round;stroke-miterlimit:10;stroke-dasharray:none;stroke-opacity:1"
         d="m 156.5182,-56.78299 c 6.0995,16.81294 9.4503,34.49882 9.9235,52.37772" />
    </g>
    <g
       transform="matrix(0.16,0,0,-0.16,-2463.1201,1673.6879)"
       id="g4712">
      <path
         inkscape:connector-curvature="0"
         id="path4714"
         style="fill:none;stroke:#000000;stroke-width:6.25;stroke-linecap:round;stroke-linejoin:round;stroke-miterlimit:10;stroke-dasharray:none;stroke-opacity:1"
         d="m 17960,7622 0,319 21,2 22,0 22,-2" />
    </g>
    <g
       transform="matrix(0,-0.16,-0.16,0,413.75999,457.60792)"
       id="g4716">
      <path
         inkscape:connector-curvature="0"
         id="path4718"
         style="fill:none;stroke:#000000;stroke-width:6.25;stroke-linecap:round;stroke-linejoin:round;stroke-miterlimit:10;stroke-dasharray:none;stroke-opacity:1"
         d="m 295.0016,-175.9725 c 23.9497,40.1495 39.4518,84.76525 45.5568,131.11499" />
    </g>
    <g
       transform="matrix(0,-0.16,-0.16,0,408.63998,466.56792)"
       id="g4720">
      <path
         inkscape:connector-curvature="0"
         id="path4722"
         style="fill:none;stroke:#000000;stroke-width:6.25;stroke-linecap:round;stroke-linejoin:round;stroke-miterlimit:10;stroke-dasharray:none;stroke-opacity:1"
         d="m 235.1207,-332.828 c 46.8673,33.1086 86.2138,75.7422 115.4637,125.1099" />
    </g>
    <g
       transform="matrix(0,-0.16,-0.16,0,391.51998,480.48792)"
       id="g4724">
      <path
         inkscape:connector-curvature="0"
         id="path4726"
         style="fill:none;stroke:#000000;stroke-width:6.25;stroke-linecap:round;stroke-linejoin:round;stroke-miterlimit:10;stroke-dasharray:none;stroke-opacity:1"
         d="m 218.8097,-499.6925 c 36.7022,16.0715 71.5221,36.1377 103.8294,59.8354" />
    </g>
    <g
       transform="matrix(0,-0.16,-0.16,0,342.55998,500.80791)"
       id="g4728">
      <path
         inkscape:connector-curvature="0"
         id="path4730"
         style="fill:none;stroke:#000000;stroke-width:6.25;stroke-linecap:round;stroke-linejoin:round;stroke-miterlimit:10;stroke-dasharray:none;stroke-opacity:1"
         d="m 184.4095,-856.8812 c 55.469,11.9375 109.6479,29.2328 161.7739,51.6425" />
    </g>
    <g
       transform="matrix(0,-0.16,-0.16,0,170.87999,538.72791)"
       id="g4732">
      <path
         inkscape:connector-curvature="0"
         id="path4734"
         style="fill:none;stroke:#000000;stroke-width:6.25;stroke-linecap:round;stroke-linejoin:round;stroke-miterlimit:10;stroke-dasharray:none;stroke-opacity:1"
         d="m 187.4118,-1965.595 c 78.6467,7.491 156.7729,19.691 233.9577,36.534" />
    </g>
    <g
       transform="matrix(0,-0.16,-0.16,0,73.919993,550.08791)"
       id="g4736">
      <path
         inkscape:connector-curvature="0"
         id="path4738"
         style="fill:none;stroke:#000000;stroke-width:6.25;stroke-linecap:round;stroke-linejoin:round;stroke-miterlimit:10;stroke-dasharray:none;stroke-opacity:1"
         d="m -11.40252,-2585.475 c 90.16599,-0.398 180.29102,3.922 270.00572,12.94" />
    </g>
    <g
       transform="matrix(0,-0.16,-0.16,0,107.19999,549.76791)"
       id="g4740">
      <path
         inkscape:connector-curvature="0"
         id="path4742"
         style="fill:none;stroke:#000000;stroke-width:6.25;stroke-linecap:round;stroke-linejoin:round;stroke-miterlimit:10;stroke-dasharray:none;stroke-opacity:1"
         d="m -274.0571,-2361.652 c 86.2123,-10.004 172.9077,-15.28 259.69697,-15.805" />
    </g>
    <g
       transform="matrix(0,-0.16,-0.16,0,209.91999,563.04791)"
       id="g4744">
      <path
         inkscape:connector-curvature="0"
         id="path4746"
         style="fill:none;stroke:#000000;stroke-width:6.25;stroke-linecap:round;stroke-linejoin:round;stroke-miterlimit:10;stroke-dasharray:none;stroke-opacity:1"
         d="m -403.8804,-1682.709 c 70.2004,-16.85 141.3865,-29.29 213.1409,-37.247" />
    </g>
    <g
       transform="matrix(0,-0.16,-0.16,0,366.55998,601.12791)"
       id="g4748">
      <path
         inkscape:connector-curvature="0"
         id="path4750"
         style="fill:none;stroke:#000000;stroke-width:6.25;stroke-linecap:round;stroke-linejoin:round;stroke-miterlimit:10;stroke-dasharray:none;stroke-opacity:1"
         d="m -308.5207,-654.4213 c 45.8437,-21.6126 93.8314,-38.3482 143.1729,-49.9311" />
    </g>
    <g
       transform="matrix(0,-0.16,-0.16,0,406.23998,619.04791)"
       id="g4752">
      <path
         inkscape:connector-curvature="0"
         id="path4754"
         style="fill:none;stroke:#000000;stroke-width:6.25;stroke-linecap:round;stroke-linejoin:round;stroke-miterlimit:10;stroke-dasharray:none;stroke-opacity:1"
         d="m -289.517,-345.1524 c 28.4061,-23.8272 59.6449,-44.0567 93.0079,-60.2294" />
    </g>
    <g
       transform="matrix(0,-0.16,-0.16,0,398.07998,612.96791)"
       id="g4756">
      <path
         inkscape:connector-curvature="0"
         id="path4758"
         style="fill:none;stroke:#000000;stroke-width:6.25;stroke-linecap:round;stroke-linejoin:round;stroke-miterlimit:10;stroke-dasharray:none;stroke-opacity:1"
         d="m -442.5642,-262.3874 c 30.2539,-51.0288 69.1052,-96.4411 114.8361,-134.229" />
    </g>
    <g
       transform="matrix(0,-0.16,-0.16,0,417.27999,644.80791)"
       id="g4760">
      <path
         inkscape:connector-curvature="0"
         id="path4762"
         style="fill:none;stroke:#000000;stroke-width:6.25;stroke-linecap:round;stroke-linejoin:round;stroke-miterlimit:10;stroke-dasharray:none;stroke-opacity:1"
         d="m -279.6186,-40.24537 c 5.2072,-36.17876 17.3858,-71.00323 35.8605,-102.54203" />
    </g>
    <g
       transform="matrix(0,-0.16,-0.16,0,413.27999,628.80791)"
       id="g4764">
      <path
         inkscape:connector-curvature="0"
         id="path4766"
         style="fill:none;stroke:#000000;stroke-width:6.25;stroke-linecap:round;stroke-linejoin:round;stroke-miterlimit:10;stroke-dasharray:none;stroke-opacity:1"
         d="m -385.0816,17.95575 c -1.2877,-27.61757 0.3992,-55.29353 5.0319,-82.55022" />
    </g>
    <g
       transform="matrix(0.16,0,0,-0.16,-2463.1201,1673.6879)"
       id="g4768">
      <path
         inkscape:connector-curvature="0"
         id="path4770"
         style="fill:none;stroke:#000000;stroke-width:6.25;stroke-linecap:round;stroke-linejoin:round;stroke-miterlimit:10;stroke-dasharray:none;stroke-opacity:1"
         d="m 17959,6146 0,316" />
    </g>
    <g
       transform="matrix(0,-0.16,-0.16,0,412.31999,610.24791)"
       id="g4772">
      <path
         inkscape:connector-curvature="0"
         id="path4774"
         style="fill:none;stroke:#000000;stroke-width:6.25;stroke-linecap:round;stroke-linejoin:round;stroke-miterlimit:10;stroke-dasharray:none;stroke-opacity:1"
         d="m -184.1081,12.01981 c -1.3008,-19.92465 0.6413,-39.92834 5.7506,-59.23065" />
    </g>
    <g
       transform="matrix(0,-0.16,-0.16,0,412.79999,612.48791)"
       id="g4776">
      <path
         inkscape:connector-curvature="0"
         id="path4778"
         style="fill:none;stroke:#000000;stroke-width:6.25;stroke-linecap:round;stroke-linejoin:round;stroke-miterlimit:10;stroke-dasharray:none;stroke-opacity:1"
         d="m -164.4669,-44.95441 c 4.563,-16.69372 11.641,-32.59545 20.9906,-47.15858" />
    </g>
    <g
       transform="matrix(0,-0.16,-0.16,0,419.03999,622.40791)"
       id="g4780">
      <path
         inkscape:connector-curvature="0"
         id="path4782"
         style="fill:none;stroke:#000000;stroke-width:6.25;stroke-linecap:round;stroke-linejoin:round;stroke-miterlimit:10;stroke-dasharray:none;stroke-opacity:1"
         d="m -81.915,-52.87894 c 5.95239,-9.22088 13.41894,-17.37058 22.0848,-24.10545" />
    </g>
    <g
       transform="matrix(0,-0.16,-0.16,0,413.11999,617.28791)"
       id="g4784">
      <path
         inkscape:connector-curvature="0"
         id="path4786"
         style="fill:none;stroke:#000000;stroke-width:6.25;stroke-linecap:round;stroke-linejoin:round;stroke-miterlimit:10;stroke-dasharray:none;stroke-opacity:1"
         d="m -91.78296,-114.1847 c 6.66387,-5.3565 13.78385,-10.1193 21.27843,-14.234" />
    </g>
    <g
       transform="matrix(0,-0.16,-0.16,0,415.35999,618.40791)"
       id="g4788">
      <path
         inkscape:connector-curvature="0"
         id="path4790"
         style="fill:none;stroke:#000000;stroke-width:6.25;stroke-linecap:round;stroke-linejoin:round;stroke-miterlimit:10;stroke-dasharray:none;stroke-opacity:1"
         d="m -63.23166,-114.1578 c 9.55268,-5.2912 19.73172,-9.3625 30.29846,-12.1183" />
    </g>
    <g
       transform="matrix(0,-0.16,-0.16,0,354.23998,602.40791)"
       id="g4792">
      <path
         inkscape:connector-curvature="0"
         id="path4794"
         style="fill:none;stroke:#000000;stroke-width:6.25;stroke-linecap:round;stroke-linejoin:round;stroke-miterlimit:10;stroke-dasharray:none;stroke-opacity:1"
         d="m -132.7043,-507.4345 c 17.0472,-4.4582 34.30826,-8.0545 51.71746,-10.7753" />
    </g>
    <g
       transform="matrix(0,-0.16,-0.16,0,266.55998,589.28791)"
       id="g4796">
      <path
         inkscape:connector-curvature="0"
         id="path4798"
         style="fill:none;stroke:#000000;stroke-width:6.25;stroke-linecap:round;stroke-linejoin:round;stroke-miterlimit:10;stroke-dasharray:none;stroke-opacity:1"
         d="m -163.8194,-1066.997 c 24.0762,-3.697 48.2707,-6.577 72.54176,-8.637" />
    </g>
    <g
       transform="matrix(0,-0.16,-0.16,0,-648.64001,497.44791)"
       id="g4800">
      <path
         inkscape:connector-curvature="0"
         id="path4802"
         style="fill:none;stroke:#000000;stroke-width:6.25;stroke-linecap:round;stroke-linejoin:round;stroke-miterlimit:10;stroke-dasharray:none;stroke-opacity:1"
         d="m -665.4008,-6794.012 c 47.1298,-4.613 94.3064,-8.737 141.522,-12.368" />
    </g>
    <g
       transform="matrix(0,-0.16,-0.16,0,225.75998,563.68791)"
       id="g4804">
      <path
         inkscape:connector-curvature="0"
         id="path4806"
         style="fill:none;stroke:#000000;stroke-width:6.25;stroke-linecap:round;stroke-linejoin:round;stroke-miterlimit:10;stroke-dasharray:none;stroke-opacity:1"
         d="m -109.8187,-1343.018 c 33.65328,-2.751 67.39812,-4.237 101.16303,-4.454" />
    </g>
    <g
       transform="matrix(0,-0.16,-0.16,0,410.39998,505.28791)"
       id="g4808">
      <path
         inkscape:connector-curvature="0"
         id="path4810"
         style="fill:none;stroke:#000000;stroke-width:6.25;stroke-linecap:round;stroke-linejoin:round;stroke-miterlimit:10;stroke-dasharray:none;stroke-opacity:1"
         d="m -399.742,-130.486 c 7.0304,-21.5374 15.7899,-42.4715 26.1929,-62.5977" />
    </g>
  </g>
</svg>
