<?xml version="1.0" encoding="utf-8"?>
<!-- Generator: Adobe Illustrator 16.0.0, SVG Export Plug-In . SVG Version: 6.00 Build 0)  -->
<!DOCTYPE svg PUBLIC "-//W3C//DTD SVG 1.1//EN" "http://www.w3.org/Graphics/SVG/1.1/DTD/svg11.dtd">
<svg version="1.1"
	 id="svg10390" xmlns:dc="http://purl.org/dc/elements/1.1/" xmlns:cc="http://creativecommons.org/ns#" xmlns:rdf="http://www.w3.org/1999/02/22-rdf-syntax-ns#" xmlns:svg="http://www.w3.org/2000/svg" xmlns:sodipodi="http://sodipodi.sourceforge.net/DTD/sodipodi-0.dtd" xmlns:inkscape="http://www.inkscape.org/namespaces/inkscape" sodipodi:docname="C.svg" inkscape:version="0.91+devel r"
	 xmlns="http://www.w3.org/2000/svg" xmlns:xlink="http://www.w3.org/1999/xlink" x="0px" y="0px" width="1024px" height="1024px"
	 viewBox="0 0 1024 1024" enable-background="new 0 0 1024 1024" xml:space="preserve">
<sodipodi:namedview  showguides="true" showgrid="false" inkscape:cy="600.68554" inkscape:cx="-4.9105372" inkscape:zoom="0.51611328" borderopacity="1.0" bordercolor="#666666" pagecolor="#ffffff" id="base" inkscape:guide-bbox="true" inkscape:window-maximized="0" inkscape:current-layer="layer1" inkscape:pageshadow="2" inkscape:pageopacity="0.0" inkscape:window-y="24" inkscape:window-x="0" inkscape:document-units="px" inkscape:window-height="721" inkscape:window-width="1364">
	<sodipodi:guide  orientation="0,1" position="0,1024" inkscape:label="ascender" id="guide10946"></sodipodi:guide>
	<sodipodi:guide  orientation="0,1" position="0,0" inkscape:label="descender" id="guide10952"></sodipodi:guide>
	<sodipodi:guide  orientation="0,1" position="0,0" inkscape:label="descender" id="guide11006"></sodipodi:guide>
	<sodipodi:guide  orientation="0,1" position="0,205" inkscape:label="baseline" id="guide11040"></sodipodi:guide>
	<sodipodi:guide  orientation="0,1" position="0,1024" inkscape:label="ascender" id="guide11042"></sodipodi:guide>
	<sodipodi:guide  orientation="0,1" position="0,905" inkscape:label="caps" id="guide11044"></sodipodi:guide>
	<sodipodi:guide  orientation="0,1" position="0,705" inkscape:label="xheight" id="guide11046"></sodipodi:guide>
	<sodipodi:guide  orientation="0,1" position="0,0" inkscape:label="descender" id="guide11048"></sodipodi:guide>
	<sodipodi:guide  orientation="1,0" position="44.56386,705" id="guide11075"></sodipodi:guide>
	<sodipodi:guide  orientation="1,0" position="976.5298,784.71145" id="guide11077"></sodipodi:guide>
</sodipodi:namedview>
<g id="layer1" inkscape:label="Layer 1" inkscape:groupmode="layer">
	<g id="g3688" transform="matrix(2.8882733,0,0,2.8882733,441.08057,351.47738)">
		<g id="g276" transform="matrix(0,-0.15,-0.15,0,-85.039305,-15.64246)">
			
				<path id="path278" inkscape:connector-curvature="0" fill="none" stroke="#000000" stroke-width="6.6667" stroke-linecap="round" stroke-linejoin="round" stroke-miterlimit="10" d="
				M-77.426-409.526c-23.59,10.296-48.873,15.808-74.476,16.24"/>
		</g>
		<g id="g280" transform="matrix(0.15,0,0,-0.15,-1055.4643,1807.6825)">
			
				<path id="path282" inkscape:connector-curvature="0" fill="none" stroke="#000000" stroke-width="6.6667" stroke-linecap="round" stroke-linejoin="round" stroke-miterlimit="10" d="
				M6862.759,12003.047v-232.597v-232.595"/>
		</g>
		<g id="g284" transform="matrix(0,-0.15,-0.15,0,-87.139305,98.357539)">
			
				<path id="path286" inkscape:connector-curvature="0" fill="none" stroke="#000000" stroke-width="6.6667" stroke-linecap="round" stroke-linejoin="round" stroke-miterlimit="10" d="
				M142.944-407.331c-25.699-0.709-50.996-6.763-74.38-17.801"/>
		</g>
		<g id="g288" transform="matrix(0,-0.15,-0.15,0,10.060695,55.007539)">
			
				<path id="path290" inkscape:connector-curvature="0" fill="none" stroke="#000000" stroke-width="6.6667" stroke-linecap="round" stroke-linejoin="round" stroke-miterlimit="10" d="
				M-220.504,223.168c-22.838-10.604-45.034-22.632-66.462-36.018"/>
		</g>
		<g id="g292" transform="matrix(0,-0.15,-0.15,0,-61.339305,93.257539)">
			
				<path id="path294" inkscape:connector-curvature="0" fill="none" stroke="#000000" stroke-width="6.6667" stroke-linecap="round" stroke-linejoin="round" stroke-miterlimit="10" d="
				M-32.491-288.863c-37.474-26.624-68.479-61.848-90.594-102.916"/>
		</g>
		<g id="g296" transform="matrix(0,-0.15,-0.15,0,-71.689305,113.50754)">
			
				<path id="path298" inkscape:connector-curvature="0" fill="none" stroke="#000000" stroke-width="6.6667" stroke-linecap="round" stroke-linejoin="round" stroke-miterlimit="10" d="
				M12.774-461.137c-18.353-32.798-27.766-70.121-27.241-108.007"/>
		</g>
		<g id="g300" transform="matrix(0.15,0,0,-0.15,-1055.4643,1807.6825)">
			
				<path id="path302" inkscape:connector-curvature="0" fill="none" stroke="#000000" stroke-width="6.6667" stroke-linecap="round" stroke-linejoin="round" stroke-miterlimit="10" d="
				M7127.425,11279.412v196.536"/>
		</g>
		<g id="g304" transform="matrix(0,-0.15,-0.15,0,-52.639305,69.707539)">
			
				<path id="path306" inkscape:connector-curvature="0" fill="none" stroke="#000000" stroke-width="6.6667" stroke-linecap="round" stroke-linejoin="round" stroke-miterlimit="10" d="
				M-94.232-410.001c-6.275-10.31-11.64-21.185-16.029-32.493"/>
		</g>
		<g id="g308" transform="matrix(0,-0.15,-0.15,0,-70.789305,98.507539)">
			
				<path id="path310" inkscape:connector-curvature="0" fill="none" stroke="#000000" stroke-width="6.6667" stroke-linecap="round" stroke-linejoin="round" stroke-miterlimit="10" d="
				M123.214-507.134c-10.587-5.035-19.538-13.128-25.773-23.303"/>
		</g>
		<g id="g312" transform="matrix(0,-0.15,-0.15,0,-67.639305,97.757539)">
			
				<path id="path314" inkscape:connector-curvature="0" fill="none" stroke="#000000" stroke-width="6.6667" stroke-linecap="round" stroke-linejoin="round" stroke-miterlimit="10" d="
				M137.613-480.974c-6.584-0.832-13.026-2.585-19.148-5.214"/>
		</g>
		<g id="g316" transform="matrix(0,-0.15,-0.15,0,-29.239305,93.257539)">
			
				<path id="path318" inkscape:connector-curvature="0" fill="none" stroke="#000000" stroke-width="6.6667" stroke-linecap="round" stroke-linejoin="round" stroke-miterlimit="10" d="
				M142.369-223.937c-11.71,0.419-23.434-0.098-35.069-1.545"/>
		</g>
		<g id="g320" transform="matrix(0.15,0,0,-0.15,-1055.4643,1807.6825)">
			
				<path id="path322" inkscape:connector-curvature="0" fill="none" stroke="#000000" stroke-width="6.6667" stroke-linecap="round" stroke-linejoin="round" stroke-miterlimit="10" d="
				M7064.675,11571.512l1.241,39.668v159.271v159.873l-1.241,51.688"/>
		</g>
		<g id="g324" transform="matrix(0,-0.15,-0.15,0,-41.689305,-10.84246)">
			
				<path id="path326" inkscape:connector-curvature="0" fill="none" stroke="#000000" stroke-width="6.6667" stroke-linecap="round" stroke-linejoin="round" stroke-miterlimit="10" d="
				M-118.79-308.424c-7.53,1.044-15.117,1.587-22.713,1.626"/>
		</g>
		<g id="g328" transform="matrix(0,-0.15,-0.15,0,-67.639305,-14.59246)">
			
				<path id="path330" inkscape:connector-curvature="0" fill="none" stroke="#000000" stroke-width="6.6667" stroke-linecap="round" stroke-linejoin="round" stroke-miterlimit="10" d="
				M-124.36-486.188c-6.124,2.628-12.564,4.382-19.148,5.214"/>
		</g>
		<g id="g332" transform="matrix(0,-0.15,-0.15,0,-70.789305,-15.19246)">
			
				<path id="path334" inkscape:connector-curvature="0" fill="none" stroke="#000000" stroke-width="6.6667" stroke-linecap="round" stroke-linejoin="round" stroke-miterlimit="10" d="
				M-102.937-530.436c-6.238,10.175-15.189,18.268-25.775,23.303"/>
		</g>
		<g id="g336" transform="matrix(0,-0.15,-0.15,0,-52.789305,13.60754)">
			
				<path id="path338" inkscape:connector-curvature="0" fill="none" stroke="#000000" stroke-width="6.6667" stroke-linecap="round" stroke-linejoin="round" stroke-miterlimit="10" d="
				M104.904-443.232c-4.364,11.308-9.707,22.188-15.96,32.507"/>
		</g>
		<g id="g340" transform="matrix(0.15,0,0,-0.15,-1055.4643,1807.6825)">
			
				<path id="path342" inkscape:connector-curvature="0" fill="none" stroke="#000000" stroke-width="6.6667" stroke-linecap="round" stroke-linejoin="round" stroke-miterlimit="10" d="
				M7127.425,12065.555v195.935"/>
		</g>
		<g id="g344" transform="matrix(0,-0.15,-0.15,0,-71.689305,-30.34246)">
			
				<path id="path346" inkscape:connector-curvature="0" fill="none" stroke="#000000" stroke-width="6.6667" stroke-linecap="round" stroke-linejoin="round" stroke-miterlimit="10" d="
				M8.568-569.264c0.548,37.871-8.838,75.188-27.16,107.988"/>
		</g>
		<g id="g348" transform="matrix(0,-0.15,-0.15,0,-61.339305,-9.9424601)">
			
				<path id="path350" inkscape:connector-curvature="0" fill="none" stroke="#000000" stroke-width="6.6667" stroke-linecap="round" stroke-linejoin="round" stroke-miterlimit="10" d="
				M117.588-391.779c-22.115,41.068-53.122,76.292-90.594,102.916"/>
		</g>
		<g id="g352" transform="matrix(0,-0.15,-0.15,0,-49.189305,-0.94246009)">
			
				<path id="path354" inkscape:connector-curvature="0" fill="none" stroke="#000000" stroke-width="6.6667" stroke-linecap="round" stroke-linejoin="round" stroke-miterlimit="10" d="
				M86.683-208.207c-20.732,14.915-42.946,27.501-66.264,37.543"/>
		</g>
		<g id="g356" transform="matrix(0.15,0,0,-0.15,-1055.4643,1807.6825)">
			
				<path id="path358" inkscape:connector-curvature="0" fill="none" stroke="#000000" stroke-width="6.6667" stroke-linecap="round" stroke-linejoin="round" stroke-miterlimit="10" d="
				M7217.509,12262.09v-196.535"/>
		</g>
		<g id="g360" transform="matrix(0,-0.15,-0.15,0,-69.739305,17.50754)">
			
				<path id="path362" inkscape:connector-curvature="0" fill="none" stroke="#000000" stroke-width="6.6667" stroke-linecap="round" stroke-linejoin="round" stroke-miterlimit="10" d="
				M115.282-678.822c6.183,10.234,11.545,20.974,16.04,32.109"/>
		</g>
		<g id="g364" transform="matrix(0,-0.15,-0.15,0,-49.339305,-15.04246)">
			
				<path id="path366" inkscape:connector-curvature="0" fill="none" stroke="#000000" stroke-width="6.6667" stroke-linecap="round" stroke-linejoin="round" stroke-miterlimit="10" d="
				M-125.867-565.886c9.981,5.257,18.37,13.252,24.246,23.111"/>
		</g>
		<g id="g368" transform="matrix(0,-0.15,-0.15,0,-50.539305,-15.19246)">
			
				<path id="path370" inkscape:connector-curvature="0" fill="none" stroke="#000000" stroke-width="6.6667" stroke-linecap="round" stroke-linejoin="round" stroke-miterlimit="10" d="
				M-144.418-578.786c6.013,0.931,11.867,2.732,17.391,5.349"/>
		</g>
		<g id="g372" transform="matrix(0,-0.15,-0.15,0,-80.689305,-10.99246)">
			
				<path id="path374" inkscape:connector-curvature="0" fill="none" stroke="#000000" stroke-width="6.6667" stroke-linecap="round" stroke-linejoin="round" stroke-miterlimit="10" d="
				M-148.476-781.671c10.574-0.334,21.158,0.266,31.635,1.788"/>
		</g>
		<g id="g376" transform="matrix(0.15,0,0,-0.15,-1055.4643,1807.6825)">
			
				<path id="path378" inkscape:connector-curvature="0" fill="none" stroke="#000000" stroke-width="6.6667" stroke-linecap="round" stroke-linejoin="round" stroke-miterlimit="10" d="
				M7280.261,11976.002l-1.244-35.461v-10.217l203.158,72.724"/>
		</g>
		<g id="g380" transform="matrix(0,-0.15,-0.15,0,-23.689305,-17.14246)">
			
				<path id="path382" inkscape:connector-curvature="0" fill="none" stroke="#000000" stroke-width="6.6667" stroke-linecap="round" stroke-linejoin="round" stroke-miterlimit="10" d="
				M-162.058-604.268c11.292-0.219,22.572,0.843,33.64,3.172"/>
		</g>
		<g id="g384" transform="matrix(0,-0.15,-0.15,0,-39.589305,-13.54246)">
			
				<path id="path386" inkscape:connector-curvature="0" fill="none" stroke="#000000" stroke-width="6.6667" stroke-linecap="round" stroke-linejoin="round" stroke-miterlimit="10" d="
				M-104.3-707.283c12.964,2.822,25.656,6.852,37.918,12.037"/>
		</g>
		<g id="g388" transform="matrix(0,-0.15,-0.15,0,-68.239305,-2.5924601)">
			
				<path id="path390" inkscape:connector-curvature="0" fill="none" stroke="#000000" stroke-width="6.6667" stroke-linecap="round" stroke-linejoin="round" stroke-miterlimit="10" d="
				M6.741-885.902c32.755,13.552,63.287,32.256,90.513,55.453"/>
		</g>
		<g id="g392" transform="matrix(0,-0.15,-0.15,0,-59.689305,-9.1924601)">
			
				<path id="path394" inkscape:connector-curvature="0" fill="none" stroke="#000000" stroke-width="6.6667" stroke-linecap="round" stroke-linejoin="round" stroke-miterlimit="10" d="
				M53.17-773.494c29.65,25.489,54.254,56.659,72.452,91.804"/>
		</g>
		<g id="g396" transform="matrix(0,-0.15,-0.15,0,-48.589305,-29.29246)">
			
				<path id="path398" inkscape:connector-curvature="0" fill="none" stroke="#000000" stroke-width="6.6667" stroke-linecap="round" stroke-linejoin="round" stroke-miterlimit="10" d="
				M-8.542-608.082c16.165,31.508,24.457,66.689,24.122,102.349"/>
		</g>
		<g id="g400" transform="matrix(0,-0.15,-0.15,0,-39.589305,96.857539)">
			
				<path id="path402" inkscape:connector-curvature="0" fill="none" stroke="#000000" stroke-width="6.6667" stroke-linecap="round" stroke-linejoin="round" stroke-miterlimit="10" d="
				M60.904-695.256c12.262-5.184,24.955-9.212,37.921-12.035"/>
		</g>
		<g id="g404" transform="matrix(0,-0.15,-0.15,0,-23.689305,100.45754)">
			
				<path id="path406" inkscape:connector-curvature="0" fill="none" stroke="#000000" stroke-width="6.6667" stroke-linecap="round" stroke-linejoin="round" stroke-miterlimit="10" d="
				M122.92-601.096c11.068-2.328,22.349-3.39,33.642-3.172"/>
		</g>
		<g id="g408" transform="matrix(0.15,0,0,-0.15,-1055.4643,1807.6825)">
			
				<path id="path410" inkscape:connector-curvature="0" fill="none" stroke="#000000" stroke-width="6.6667" stroke-linecap="round" stroke-linejoin="round" stroke-miterlimit="10" d="
				M7482.175,11537.856l-203.158,73.323v-10.82l0.62-46.278"/>
		</g>
		<g id="g412" transform="matrix(0,-0.15,-0.15,0,-71.089305,95.357539)">
			
				<path id="path414" inkscape:connector-curvature="0" fill="none" stroke="#000000" stroke-width="6.6667" stroke-linecap="round" stroke-linejoin="round" stroke-miterlimit="10" d="
				M117.979-716.045c6.816-1.062,13.694-1.634,20.587-1.706"/>
		</g>
		<g id="g416" transform="matrix(0,-0.15,-0.15,0,-50.539305,98.357539)">
			
				<path id="path418" inkscape:connector-curvature="0" fill="none" stroke="#000000" stroke-width="6.6667" stroke-linecap="round" stroke-linejoin="round" stroke-miterlimit="10" d="
				M121.137-573.439c5.523-2.617,11.381-4.418,17.393-5.347"/>
		</g>
		<g id="g420" transform="matrix(0,-0.15,-0.15,0,-49.339305,98.207539)">
			
				<path id="path422" inkscape:connector-curvature="0" fill="none" stroke="#000000" stroke-width="6.6667" stroke-linecap="round" stroke-linejoin="round" stroke-miterlimit="10" d="
				M95.73-542.779c5.876-9.859,14.264-17.852,24.247-23.109"/>
		</g>
		<g id="g424" transform="matrix(0,-0.15,-0.15,0,-69.739305,65.657539)">
			
				<path id="path426" inkscape:connector-curvature="0" fill="none" stroke="#000000" stroke-width="6.6667" stroke-linecap="round" stroke-linejoin="round" stroke-miterlimit="10" d="
				M-137.209-646.73c4.495-11.137,9.862-21.878,16.04-32.112"/>
		</g>
		<g id="g428" transform="matrix(0.15,0,0,-0.15,-1055.4643,1807.6825)">
			
				<path id="path430" inkscape:connector-curvature="0" fill="none" stroke="#000000" stroke-width="6.6667" stroke-linecap="round" stroke-linejoin="round" stroke-miterlimit="10" d="
				M7217.509,11475.948v-196.536"/>
		</g>
		<g id="g432" transform="matrix(0,-0.15,-0.15,0,-48.589305,112.60754)">
			
				<path id="path434" inkscape:connector-curvature="0" fill="none" stroke="#000000" stroke-width="6.6667" stroke-linecap="round" stroke-linejoin="round" stroke-miterlimit="10" d="
				M-21.076-505.733c-0.336-35.666,7.961-70.857,24.13-102.367"/>
		</g>
		<g id="g436" transform="matrix(0,-0.15,-0.15,0,-59.689305,92.357539)">
			
				<path id="path438" inkscape:connector-curvature="0" fill="none" stroke="#000000" stroke-width="6.6667" stroke-linecap="round" stroke-linejoin="round" stroke-miterlimit="10" d="
				M-131.505-681.714c18.202-35.143,42.807-66.315,72.46-91.795"/>
		</g>
		<g id="g440" transform="matrix(0,-0.15,-0.15,0,-68.239305,85.907539)">
			
				<path id="path442" inkscape:connector-curvature="0" fill="none" stroke="#000000" stroke-width="6.6667" stroke-linecap="round" stroke-linejoin="round" stroke-miterlimit="10" d="
				M-102.726-830.469c27.227-23.195,57.761-41.897,90.517-55.444"/>
		</g>
	</g>
</g>
<path fill="none" stroke="#000000" stroke-width="65" stroke-miterlimit="10" d="M478.431,145.868
	c-169.963,10.13-304.671,151.176-304.671,323.684c0,172.521,134.728,313.573,304.708,323.686"/>
<path fill="none" stroke="#000000" stroke-width="65" stroke-miterlimit="10" d="M519.589,793.113
	c169.035-11.098,302.703-151.719,302.703-323.561c0-171.728-133.493-312.279-302.371-323.538"/>
<line fill="none" stroke="#000000" stroke-width="0.25" stroke-miterlimit="10" x1="478.587" y1="222.104" x2="478.587" y2="-100.383"/>
<line fill="none" stroke="#000000" stroke-width="0.25" stroke-miterlimit="10" x1="519.589" y1="222.104" x2="519.589" y2="-100.383"/>
<line fill="none" stroke="#000000" stroke-width="0.25" stroke-miterlimit="10" x1="478.432" y1="730.573" x2="478.432" y2="987.061"/>
<line fill="none" stroke="#000000" stroke-width="0.25" stroke-miterlimit="10" x1="519.92" y1="730.573" x2="519.589" y2="987.061"/>
</svg>
