<?xml version="1.0" encoding="UTF-8" standalone="no"?>
<svg
   xmlns:dc="http://purl.org/dc/elements/1.1/"
   xmlns:cc="http://creativecommons.org/ns#"
   xmlns:rdf="http://www.w3.org/1999/02/22-rdf-syntax-ns#"
   xmlns:svg="http://www.w3.org/2000/svg"
   xmlns="http://www.w3.org/2000/svg"
   version="1.1"
   id="svg10390"
   viewBox="0 0 1024 1024"
   height="1024"
   width="1024">
  <defs
     id="defs10392" />
  <metadata
     id="metadata10395">
    <rdf:RDF>
      <cc:Work
         rdf:about="">
        <dc:format>image/svg+xml</dc:format>
        <dc:type
           rdf:resource="http://purl.org/dc/dcmitype/StillImage" />
        <dc:title></dc:title>
      </cc:Work>
    </rdf:RDF>
  </metadata>
  <g
     id="layer1">
    <g
       id="g5749"
       transform="matrix(3.6005749,0,0,-3.6005749,-1527.3145,4258.4706)">
      <g
         id="g628"
         transform="matrix(0,0.12,-0.12,0,489.58,1008.58)">
        <path
           d="m -36.77675,-243.7411 c 11.33826,-1.7108 22.78208,-2.6283 34.24807,-2.7459"
           style="fill:none;stroke:#000000;stroke-width:6.66666651;stroke-linecap:round;stroke-linejoin:round;stroke-miterlimit:10;stroke-dasharray:none;stroke-opacity:1"
           id="path630" />
      </g>
      <g
         id="g632"
         transform="matrix(0,0.12,-0.12,0,506.02,1006.06)">
        <path
           d="m -44.80365,-97.71838 c 9.19334,-4.21512 18.93552,-7.11182 28.93838,-8.60442"
           style="fill:none;stroke:#000000;stroke-width:6.66666651;stroke-linecap:round;stroke-linejoin:round;stroke-miterlimit:10;stroke-dasharray:none;stroke-opacity:1"
           id="path634" />
      </g>
      <g
         id="g636"
         transform="matrix(0,0.12,-0.12,0,506.98,1006.18)">
        <path
           d="m -86.41255,-53.24585 c 9.77741,-15.86774 23.73517,-28.73695 40.34292,-37.19662"
           style="fill:none;stroke:#000000;stroke-width:6.66666651;stroke-linecap:round;stroke-linejoin:round;stroke-miterlimit:10;stroke-dasharray:none;stroke-opacity:1"
           id="path638" />
      </g>
      <g
         id="g640"
         transform="matrix(0,0.12,-0.12,0,490.66,1032.22)">
        <path
           d="m -329.9317,-137.6638 c 7.4788,-17.9241 16.4058,-35.2089 26.6924,-51.6828"
           style="fill:none;stroke:#000000;stroke-width:6.66666651;stroke-linecap:round;stroke-linejoin:round;stroke-miterlimit:10;stroke-dasharray:none;stroke-opacity:1"
           id="path642" />
      </g>
      <g
         id="g644"
         transform="matrix(0.12,0,0,0.12,16,31)">
        <path
           d="m 4093,8013 0,-327"
           style="fill:none;stroke:#000000;stroke-width:6.66666651;stroke-linecap:round;stroke-linejoin:round;stroke-miterlimit:10;stroke-dasharray:none;stroke-opacity:1"
           id="path646" />
      </g>
      <g
         id="g648"
         transform="matrix(0,0.12,-0.12,0,507.58,994.78)">
        <path
           d="m -344.4839,3.33583 c -0.5559,-57.41086 13.2455,-114.05033 40.1498,-164.76993"
           style="fill:none;stroke:#000000;stroke-width:6.66666651;stroke-linecap:round;stroke-linejoin:round;stroke-miterlimit:10;stroke-dasharray:none;stroke-opacity:1"
           id="path650" />
      </g>
      <g
         id="g652"
         transform="matrix(0,0.12,-0.12,0,498.82,1010.86)">
        <path
           d="m -438.5983,-234.8143 c 30.2832,-56.5646 71.222,-106.7373 120.5605,-147.7536"
           style="fill:none;stroke:#000000;stroke-width:6.66666651;stroke-linecap:round;stroke-linejoin:round;stroke-miterlimit:10;stroke-dasharray:none;stroke-opacity:1"
           id="path654" />
      </g>
      <g
         id="g656"
         transform="matrix(0,0.12,-0.12,0,491.98,1016.14)">
        <path
           d="m -362.1726,-439.5012 c 45.3026,-37.3317 96.1046,-67.4348 150.6061,-89.2425"
           style="fill:none;stroke:#000000;stroke-width:6.66666651;stroke-linecap:round;stroke-linejoin:round;stroke-miterlimit:10;stroke-dasharray:none;stroke-opacity:1"
           id="path658" />
      </g>
      <g
         id="g660"
         transform="matrix(0,0.12,-0.12,0,521.38,1005.22)">
        <path
           d="m -120.0949,-283.0785 c 37.59459,-15.9494 77.9896,-24.2505 118.82721,-24.4189"
           style="fill:none;stroke:#000000;stroke-width:6.66666651;stroke-linecap:round;stroke-linejoin:round;stroke-miterlimit:10;stroke-dasharray:none;stroke-opacity:1"
           id="path662" />
      </g>
      <g
         id="g664"
         transform="matrix(0.12,0,0,0.12,16,31)">
        <path
           d="m 4519,8117 0,1204 -327,0 0,-1100 1,-77"
           style="fill:none;stroke:#000000;stroke-width:6.66666651;stroke-linecap:round;stroke-linejoin:round;stroke-miterlimit:10;stroke-dasharray:none;stroke-opacity:1"
           id="path666" />
      </g>
      <g
         id="g668"
         transform="matrix(0.12,0,0,0.12,16,31)">
        <path
           d="m 3521,8268 0,-151"
           style="fill:none;stroke:#000000;stroke-width:6.66666651;stroke-linecap:round;stroke-linejoin:round;stroke-miterlimit:10;stroke-dasharray:none;stroke-opacity:1"
           id="path670" />
      </g>
      <g
         id="g672"
         transform="matrix(0,0.12,-0.12,0,470.5,1005.22)">
        <path
           d="m -1.42544,265.4962 c -18.83684,-0.1012 -37.60942,-2.2067 -56.00062,-6.2811"
           style="fill:none;stroke:#000000;stroke-width:6.66666651;stroke-linecap:round;stroke-linejoin:round;stroke-miterlimit:10;stroke-dasharray:none;stroke-opacity:1"
           id="path674" />
      </g>
      <g
         id="g676"
         transform="matrix(0,0.12,-0.12,0,503.5,1012.78)">
        <path
           d="m -120.177,535.1726 c -21.3681,-4.7983 -42.4296,-10.8721 -63.0714,-18.1888"
           style="fill:none;stroke:#000000;stroke-width:6.66666651;stroke-linecap:round;stroke-linejoin:round;stroke-miterlimit:10;stroke-dasharray:none;stroke-opacity:1"
           id="path678" />
      </g>
      <g
         id="g680"
         transform="matrix(0,0.12,-0.12,0,504.94,1016.14)">
        <path
           d="M -211.5665,528.7436 C -266.068,506.936 -316.87,476.8329 -362.1726,439.5012"
           style="fill:none;stroke:#000000;stroke-width:6.66666651;stroke-linecap:round;stroke-linejoin:round;stroke-miterlimit:10;stroke-dasharray:none;stroke-opacity:1"
           id="path682" />
      </g>
      <g
         id="g684"
         transform="matrix(0,0.12,-0.12,0,498.22,1010.86)">
        <path
           d="m -318.0378,382.5679 c -49.3385,-41.0163 -90.2773,-91.189 -120.5605,-147.7536"
           style="fill:none;stroke:#000000;stroke-width:6.66666651;stroke-linecap:round;stroke-linejoin:round;stroke-miterlimit:10;stroke-dasharray:none;stroke-opacity:1"
           id="path686" />
      </g>
      <g
         id="g688"
         transform="matrix(0,0.12,-0.12,0,489.34,994.78)">
        <path
           d="M -304.4579,161.2007 C -331.3232,110.4604 -345.0812,53.81038 -344.4812,-3.60004"
           style="fill:none;stroke:#000000;stroke-width:6.66666651;stroke-linecap:round;stroke-linejoin:round;stroke-miterlimit:10;stroke-dasharray:none;stroke-opacity:1"
           id="path690" />
      </g>
      <g
         id="g692"
         transform="matrix(0.12,0,0,0.12,16,31)">
        <path
           d="m 3947,7686 0,327"
           style="fill:none;stroke:#000000;stroke-width:6.66666651;stroke-linecap:round;stroke-linejoin:round;stroke-miterlimit:10;stroke-dasharray:none;stroke-opacity:1"
           id="path694" />
      </g>
      <g
         id="g696"
         transform="matrix(0,0.12,-0.12,0,506.14,1032.22)">
        <path
           d="m -303.6199,188.7358 c -10.2534,-16.4947 -19.1456,-33.7974 -26.5883,-51.7365"
           style="fill:none;stroke:#000000;stroke-width:6.66666651;stroke-linecap:round;stroke-linejoin:round;stroke-miterlimit:10;stroke-dasharray:none;stroke-opacity:1"
           id="path698" />
      </g>
      <g
         id="g700"
         transform="matrix(0,0.12,-0.12,0,489.94,1006.18)">
        <path
           d="M -46.06963,90.44247 C -62.67738,81.9828 -76.63514,69.11359 -86.41255,53.24585"
           style="fill:none;stroke:#000000;stroke-width:6.66666651;stroke-linecap:round;stroke-linejoin:round;stroke-miterlimit:10;stroke-dasharray:none;stroke-opacity:1"
           id="path702" />
      </g>
      <g
         id="g704"
         transform="matrix(0,0.12,-0.12,0,490.9,1006.06)">
        <path
           d="m -15.86527,106.3228 c -10.00286,-1.4926 -19.74504,-4.3893 -28.93838,-8.60442"
           style="fill:none;stroke:#000000;stroke-width:6.66666651;stroke-linecap:round;stroke-linejoin:round;stroke-miterlimit:10;stroke-dasharray:none;stroke-opacity:1"
           id="path706" />
      </g>
      <g
         id="g708"
         transform="matrix(0,0.12,-0.12,0,515.02,1009.3)">
        <path
           d="m 9.46502,310.3557 c -17.59579,0.5366 -35.20534,-0.4241 -52.63831,-2.8718"
           style="fill:none;stroke:#000000;stroke-width:6.66666651;stroke-linecap:round;stroke-linejoin:round;stroke-miterlimit:10;stroke-dasharray:none;stroke-opacity:1"
           id="path710" />
      </g>
      <g
         id="g712"
         transform="matrix(0.12,0,0,0.12,16,31)">
        <path
           d="m 3847,8162 1,59 0,47 -327,0"
           style="fill:none;stroke:#000000;stroke-width:6.66666651;stroke-linecap:round;stroke-linejoin:round;stroke-miterlimit:10;stroke-dasharray:none;stroke-opacity:1"
           id="path714" />
      </g>
    </g>
  </g>
</svg>
