<?xml version="1.0" encoding="UTF-8" standalone="no"?>
<svg
   xmlns:dc="http://purl.org/dc/elements/1.1/"
   xmlns:cc="http://creativecommons.org/ns#"
   xmlns:rdf="http://www.w3.org/1999/02/22-rdf-syntax-ns#"
   xmlns:svg="http://www.w3.org/2000/svg"
   xmlns="http://www.w3.org/2000/svg"
   width="1024"
   height="1024"
   viewBox="0 0 1024 1024"
   id="svg10390"
   version="1.1">
  <defs
     id="defs10392" />
  <metadata
     id="metadata10395">
    <rdf:RDF>
      <cc:Work
         rdf:about="">
        <dc:format>image/svg+xml</dc:format>
        <dc:type
           rdf:resource="http://purl.org/dc/dcmitype/StillImage" />
        <dc:title></dc:title>
      </cc:Work>
    </rdf:RDF>
  </metadata>
  <path
     id="path6946"
     style="fill:#000000;fill-opacity:1;fill-rule:evenodd;stroke:none;stroke-width:1.97836947"
     d="m 396.51784,513.22681 0,139.01805 -130.49732,0 0,-249.50009 152.03178,0 0,-169.91821 -105.09293,0 0,88.04338 -121.07622,0 0,-114.40317 c 0,-12.89699 2.97156,-25.79992 6.11123,-36.45344 3.87162,-10.65352 9.36561,-19.06554 16.43224,-26.35585 7.06486,-7.29226 15.75772,-13.45686 28.37576,-17.94578 12.62012,-4.48893 29.21854,-7.28831 45.70627,-7.28831 l 166.16335,0 c 15.5915,0 31.2918,2.79938 43.5181,6.72843 12.2244,3.92509 21.0302,10.09364 28.3204,16.82208 7.235,6.73239 13.0099,15.14244 17.1604,25.79991 4.1487,11.2134 6.7304,24.67423 6.7304,38.69296 l 0,217.58899 c 0,13.46082 -2.9734,26.35584 -6.1131,37.57121 -3.9251,10.65748 -9.5337,19.07149 -16.6005,26.35981 -7.1201,7.29425 -15.7004,13.45884 -28.1503,17.94777 -12.3945,4.48298 -28.6586,7.29226 -44.7527,7.29226 l -58.26686,0" />
  <path
     id="path6948"
     style="fill:#000000;fill-opacity:1;fill-rule:evenodd;stroke:none;stroke-width:1.97836947"
     d="m 270.3947,704.45602 c 5.5514,-7.57123 12.61611,-14.13347 20.69187,-19.07148 8.07768,-4.92813 17.10498,-8.29334 26.58335,-9.75139 9.42095,-1.51741 19.34638,-1.06832 28.76747,1.17516 9.42288,2.24148 18.28207,6.3367 25.9661,11.88999 7.68196,5.49789 14.18877,12.5033 19.12293,20.52361 4.93593,8.0203 8.29921,16.99419 9.75731,26.52597 1.46004,9.53378 1.00897,19.62741 -1.17722,28.93366 -2.18605,9.25482 -6.11317,17.83896 -11.49631,25.29543 -5.43849,7.46044 -12.33701,13.85057 -20.41277,18.7332 -8.07575,4.87667 -17.32859,8.24187 -27.25402,9.69994 -9.98285,1.45805 -20.58296,1.00897 -30.17216,-1.23253 -9.58906,-2.18808 -18.11396,-6.2279 -25.45954,-11.55367 -7.40316,-5.38314 -13.62701,-12.11158 -18.39498,-20.08046 -4.7104,-7.95898 -7.96284,-17.09905 -9.36561,-26.63281 -1.45796,-9.53376 -1.11965,-19.5186 1.06639,-28.83079 2.18605,-9.30228 6.22593,-17.99722 11.77719,-25.62383" />
</svg>
