<?xml version="1.0" encoding="UTF-8" standalone="no"?>
<svg
   xmlns:dc="http://purl.org/dc/elements/1.1/"
   xmlns:cc="http://creativecommons.org/ns#"
   xmlns:rdf="http://www.w3.org/1999/02/22-rdf-syntax-ns#"
   xmlns:svg="http://www.w3.org/2000/svg"
   xmlns="http://www.w3.org/2000/svg"
   width="1024"
   height="1024"
   viewBox="0 0 1024 1024"
   id="svg10390"
   version="1.1">
  <defs
     id="defs10392" />
  <metadata
     id="metadata10395">
    <rdf:RDF>
      <cc:Work
         rdf:about="">
        <dc:format>image/svg+xml</dc:format>
        <dc:type
           rdf:resource="http://purl.org/dc/dcmitype/StillImage" />
        <dc:title></dc:title>
      </cc:Work>
    </rdf:RDF>
  </metadata>
  <g
     transform="matrix(2.84255,0,0,2.84255,266.40161,-709.93202)"
     id="g6794">
    <g
       transform="matrix(0,-0.15,-0.15,0,11.330672,363.87398)"
       id="g1428">
      <path
         id="path1430"
         style="fill:none;stroke:#000000;stroke-width:6.66666651;stroke-linecap:round;stroke-linejoin:round;stroke-miterlimit:10;stroke-dasharray:none;stroke-opacity:1"
         d="m -82.5718,-462.182 c 54.10938,-9.6669 109.49598,-9.7572 163.63659,-0.2666" />
    </g>
    <g
       transform="matrix(0,-0.15,-0.15,0,14.330672,363.72398)"
       id="g1432">
      <path
         id="path1434"
         style="fill:none;stroke:#000000;stroke-width:6.66666651;stroke-linecap:round;stroke-linejoin:round;stroke-miterlimit:10;stroke-dasharray:none;stroke-opacity:1"
         d="m 81.17463,-442.1097 c 53.04107,9.7388 103.89687,28.9427 150.13627,56.6937" />
    </g>
    <g
       transform="matrix(0,-0.15,-0.15,0,3.8306724,369.27398)"
       id="g1436">
      <path
         id="path1438"
         style="fill:none;stroke:#000000;stroke-width:6.66666651;stroke-linecap:round;stroke-linejoin:round;stroke-miterlimit:10;stroke-dasharray:none;stroke-opacity:1"
         d="m 267.8691,-455.5857 c 49.0263,28.8257 93.0783,65.3759 130.4566,108.2403" />
    </g>
    <g
       transform="matrix(0,-0.15,-0.15,0,11.030672,361.92398)"
       id="g1440">
      <path
         id="path1442"
         style="fill:none;stroke:#000000;stroke-width:6.66666651;stroke-linecap:round;stroke-linejoin:round;stroke-miterlimit:10;stroke-dasharray:none;stroke-opacity:1"
         d="m 348.5123,-299.4652 c 36.1882,42.1151 64.4433,90.4407 83.3952,142.6336" />
    </g>
    <g
       transform="matrix(0,-0.15,-0.15,0,9.9806724,363.42398)"
       id="g1444">
      <path
         id="path1446"
         style="fill:none;stroke:#000000;stroke-width:6.66666651;stroke-linecap:round;stroke-linejoin:round;stroke-miterlimit:10;stroke-dasharray:none;stroke-opacity:1"
         d="m 443.1918,-163.8208 c 19.1,51.6721 29.0167,106.28621 29.3019,161.37459" />
    </g>
    <g
       transform="matrix(0.15,0,0,-0.15,-596.24433,1200.499)"
       id="g1448">
      <path
         id="path1450"
         style="fill:none;stroke:#000000;stroke-width:6.66666651;stroke-linecap:round;stroke-linejoin:round;stroke-miterlimit:10;stroke-dasharray:none;stroke-opacity:1"
         d="m 4044,6052 -51,0 0,-291 50,0" />
    </g>
    <g
       transform="matrix(0,-0.15,-0.15,0,8.7806724,366.57398)"
       id="g1452">
      <path
         id="path1454"
         style="fill:none;stroke:#000000;stroke-width:6.66666651;stroke-linecap:round;stroke-linejoin:round;stroke-miterlimit:10;stroke-dasharray:none;stroke-opacity:1"
         d="m 186.2122,-79.56921 c 9.4846,22.19642 14.9244,45.90978 16.0626,70.02085" />
    </g>
    <g
       transform="matrix(0,-0.15,-0.15,0,10.280672,363.42398)"
       id="g1456">
      <path
         id="path1458"
         style="fill:none;stroke:#000000;stroke-width:6.66666651;stroke-linecap:round;stroke-linejoin:round;stroke-miterlimit:10;stroke-dasharray:none;stroke-opacity:1"
         d="m 125.9484,-127.8954 c 16.7501,16.495 30.0969,36.11975 39.2824,57.75951" />
    </g>
    <g
       transform="matrix(0,-0.15,-0.15,0,10.730672,362.97398)"
       id="g1460">
      <path
         id="path1462"
         style="fill:none;stroke:#000000;stroke-width:6.66666651;stroke-linecap:round;stroke-linejoin:round;stroke-miterlimit:10;stroke-dasharray:none;stroke-opacity:1"
         d="m 62.64322,-163.9392 c 22.46023,8.5823 42.91738,21.6883 60.10228,38.5048" />
    </g>
    <g
       transform="matrix(0,-0.15,-0.15,0,5.4806724,364.77398)"
       id="g1464">
      <path
         id="path1466"
         style="fill:none;stroke:#000000;stroke-width:6.66666651;stroke-linecap:round;stroke-linejoin:round;stroke-miterlimit:10;stroke-dasharray:none;stroke-opacity:1"
         d="m -1.01386,-211.4976 c 25.69422,-0.1231 51.19584,4.4367 75.25532,13.4561" />
    </g>
    <g
       transform="matrix(0,-0.15,-0.15,0,5.7806724,364.92398)"
       id="g1468">
      <path
         id="path1470"
         style="fill:none;stroke:#000000;stroke-width:6.66666651;stroke-linecap:round;stroke-linejoin:round;stroke-miterlimit:10;stroke-dasharray:none;stroke-opacity:1"
         d="m -74.91055,-195.6493 c 24.10935,-9.2311 49.71719,-13.9265 75.5332,-13.8498" />
    </g>
    <g
       transform="matrix(0,-0.15,-0.15,0,10.130672,366.42398)"
       id="g1472">
      <path
         id="path1474"
         style="fill:none;stroke:#000000;stroke-width:6.66666651;stroke-linecap:round;stroke-linejoin:round;stroke-miterlimit:10;stroke-dasharray:none;stroke-opacity:1"
         d="m -125.6485,-126.786 c 17.2923,-17.1372 37.90747,-30.5559 60.57777,-39.4309" />
    </g>
    <g
       transform="matrix(0,-0.15,-0.15,0,9.9806724,366.27398)"
       id="g1476">
      <path
         id="path1478"
         style="fill:none;stroke:#000000;stroke-width:6.66666651;stroke-linecap:round;stroke-linejoin:round;stroke-miterlimit:10;stroke-dasharray:none;stroke-opacity:1"
         d="m -166.4339,-69.857 c 9.1219,-21.7329 22.4119,-41.4689 39.1197,-58.0935" />
    </g>
    <g
       transform="matrix(0,-0.15,-0.15,0,9.9806724,366.87398)"
       id="g1480">
      <path
         id="path1482"
         style="fill:none;stroke:#000000;stroke-width:6.66666651;stroke-linecap:round;stroke-linejoin:round;stroke-miterlimit:10;stroke-dasharray:none;stroke-opacity:1"
         d="m -176.4889,-1.9798 c 0.2631,-23.45594 5.1992,-46.62413 14.5197,-68.15034" />
    </g>
    <g
       transform="matrix(0.15,0,0,-0.15,-596.24433,1200.499)"
       id="g1484">
      <path
         id="path1486"
         style="fill:none;stroke:#000000;stroke-width:6.66666651;stroke-linecap:round;stroke-linejoin:round;stroke-miterlimit:10;stroke-dasharray:none;stroke-opacity:1"
         d="m 4043,5381 -50,0 0,-147 0,-146 50,0" />
    </g>
    <g
       transform="matrix(0,-0.15,-0.15,0,9.2306724,462.42398)"
       id="g1488">
      <path
         id="path1490"
         style="fill:none;stroke:#000000;stroke-width:6.66666651;stroke-linecap:round;stroke-linejoin:round;stroke-miterlimit:10;stroke-dasharray:none;stroke-opacity:1"
         d="m 154.7367,-66.69933 c 8.0687,18.71873 12.6741,38.74616 13.5923,59.10917" />
    </g>
    <g
       transform="matrix(0,-0.15,-0.15,0,5.4806724,470.52398)"
       id="g1492">
      <path
         id="path1494"
         style="fill:none;stroke:#000000;stroke-width:6.66666651;stroke-linecap:round;stroke-linejoin:round;stroke-miterlimit:10;stroke-dasharray:none;stroke-opacity:1"
         d="m 165.4265,-156.174 c 17.8564,18.9143 32.3369,40.7509 42.8117,64.56022" />
    </g>
    <g
       transform="matrix(0,-0.15,-0.15,0,7.5806724,467.67398)"
       id="g1496">
      <path
         id="path1498"
         style="fill:none;stroke:#000000;stroke-width:6.66666651;stroke-linecap:round;stroke-linejoin:round;stroke-miterlimit:10;stroke-dasharray:none;stroke-opacity:1"
         d="m 80.03043,-188.1897 c 25.00497,10.6337 47.63997,26.1439 66.58277,45.6246" />
    </g>
    <g
       transform="matrix(0,-0.15,-0.15,0,9.2306724,466.92398)"
       id="g1500">
      <path
         id="path1502"
         style="fill:none;stroke:#000000;stroke-width:6.66666651;stroke-linecap:round;stroke-linejoin:round;stroke-miterlimit:10;stroke-dasharray:none;stroke-opacity:1"
         d="m 0.25704,-191.4998 c 25.88984,0.0347 51.50381,5.3189 75.29367,15.5329" />
    </g>
    <g
       transform="matrix(0.15,0,0,-0.15,-596.24433,1200.499)"
       id="g1504">
      <path
         id="path1506"
         style="fill:none;stroke:#000000;stroke-width:6.66666651;stroke-linecap:round;stroke-linejoin:round;stroke-miterlimit:10;stroke-dasharray:none;stroke-opacity:1"
         d="m 4228,4890 0,-473 291,0 0,510" />
    </g>
    <g
       transform="matrix(0,-0.15,-0.15,0,32.180671,462.12398)"
       id="g1508">
      <path
         id="path1510"
         style="fill:none;stroke:#000000;stroke-width:6.66666651;stroke-linecap:round;stroke-linejoin:round;stroke-miterlimit:10;stroke-dasharray:none;stroke-opacity:1"
         d="m 4.59436,-330.4681 c 32.96964,0.4584 65.68508,5.8479 97.05954,15.9896" />
    </g>
    <g
       transform="matrix(0,-0.15,-0.15,0,-11.619328,475.92398)"
       id="g1512">
      <path
         id="path1514"
         style="fill:none;stroke:#000000;stroke-width:6.66666651;stroke-linecap:round;stroke-linejoin:round;stroke-miterlimit:10;stroke-dasharray:none;stroke-opacity:1"
         d="m 193.7825,-605.2343 c 29.1999,9.3491 57.6849,20.7992 85.2319,34.2604" />
    </g>
    <g
       transform="matrix(0,-0.15,-0.15,0,28.730672,455.97398)"
       id="g1516">
      <path
         id="path1518"
         style="fill:none;stroke:#000000;stroke-width:6.66666651;stroke-linecap:round;stroke-linejoin:round;stroke-miterlimit:10;stroke-dasharray:none;stroke-opacity:1"
         d="m 146.5207,-302.9256 c 24.3769,11.7907 47.2415,26.4809 68.0977,43.7516" />
    </g>
    <g
       transform="matrix(0,-0.15,-0.15,0,-35.169328,509.82398)"
       id="g1520">
      <path
         id="path1522"
         style="fill:none;stroke:#000000;stroke-width:6.66666651;stroke-linecap:round;stroke-linejoin:round;stroke-miterlimit:10;stroke-dasharray:none;stroke-opacity:1"
         d="m 572.7187,-684.5068 c 19.8879,16.64 39.0412,34.1388 57.4053,52.4467" />
    </g>
    <g
       transform="matrix(0,-0.15,-0.15,0,25.430672,374.22398)"
       id="g1524">
      <path
         id="path1526"
         style="fill:none;stroke:#000000;stroke-width:6.66666651;stroke-linecap:round;stroke-linejoin:round;stroke-miterlimit:10;stroke-dasharray:none;stroke-opacity:1"
         d="m -272.8272,-227.9157 c 29.7759,-35.6433 66.2475,-65.1067 107.3535,-86.7249" />
    </g>
    <g
       transform="matrix(0,-0.15,-0.15,0,4.1306724,362.52398)"
       id="g1528">
      <path
         id="path1530"
         style="fill:none;stroke:#000000;stroke-width:6.66666651;stroke-linecap:round;stroke-linejoin:round;stroke-miterlimit:10;stroke-dasharray:none;stroke-opacity:1"
         d="m -243.6415,-456.5579 c 47.8681,-25.5447 99.4556,-43.4027 152.87207,-52.9194" />
    </g>
    <g
       transform="matrix(0.15,0,0,-0.15,-596.24433,1200.499)"
       id="g1532">
      <path
         id="path1534"
         style="fill:none;stroke:#000000;stroke-width:6.66666651;stroke-linecap:round;stroke-linejoin:round;stroke-miterlimit:10;stroke-dasharray:none;stroke-opacity:1"
         d="m 3521,6052 0,-1635 327,0 0,1635 -327,0" />
    </g>
  </g>
</svg>
